<svg width="72" height="72" viewBox="0 0 72 72" fill="none" xmlns="http://www.w3.org/2000/svg">
<circle cx="36" cy="36" r="35.64" fill="#13171F" stroke="#2C7AE0" stroke-width="0.72"/>
<g clip-path="url(#clip0_42_1070)">
<path d="M36.001 38.6652C35.633 38.6652 35.3342 38.9639 35.3342 39.332V48.6664C35.3342 49.0344 35.633 49.3331 36.001 49.3331C36.369 49.3331 36.6678 49.0344 36.6678 48.6664V39.332C36.6678 38.9639 36.369 38.6652 36.001 38.6652Z" fill="white"/>
<path d="M31.9685 42.4576C31.9672 42.4549 31.9672 42.4523 31.9658 42.4496L29.9669 36.4529C29.8802 36.1969 29.6509 36.0182 29.3801 35.9995C29.1201 35.9809 28.8574 36.1249 28.7374 36.3663L26.0704 41.7002C25.9064 42.0296 26.0397 42.4296 26.3691 42.595C26.6998 42.7577 27.0999 42.627 27.2639 42.2963L27.6319 41.5602L30.7883 43.1391L31.3684 44.8779C31.4631 45.158 31.7231 45.334 32.0018 45.334C32.0725 45.334 32.1418 45.3233 32.2111 45.298C32.5591 45.182 32.7485 44.8046 32.6325 44.4552L31.9685 42.4576ZM28.2294 40.3654L29.2108 38.4011L30.1922 41.3468L28.2294 40.3654Z" fill="white"/>
<path d="M33.6338 34.734L25.6329 30.7336C25.3036 30.5709 24.9035 30.7029 24.7368 31.0323C24.5741 31.3616 24.7061 31.7617 25.0355 31.9271L33.0365 35.9275C33.1338 35.9756 33.2352 35.9982 33.3352 35.9982C33.5792 35.9982 33.8139 35.8635 33.9312 35.6289C34.0953 35.2995 33.9619 34.8994 33.6338 34.734Z" fill="white"/>
<path d="M46.372 30.7349L38.3711 34.7354C38.0417 34.9007 37.9083 35.3008 38.0723 35.6302C38.1897 35.8635 38.4244 35.9982 38.6684 35.9982C38.7684 35.9982 38.8697 35.9755 38.9671 35.9289L46.968 31.9284C47.2974 31.7631 47.4308 31.3631 47.2668 31.0337C47.1014 30.7029 46.704 30.5709 46.372 30.7349Z" fill="white"/>
<path d="M48.442 26.4278C48.4153 26.4051 48.3833 26.3851 48.3513 26.3664L37.6434 20.3924C37.5994 20.3684 37.5527 20.3497 37.5047 20.3364C36.5459 19.8896 35.4645 19.887 34.5031 20.3337C34.4524 20.3484 34.4044 20.367 34.359 20.3937L23.6511 26.3678C23.6191 26.3851 23.5911 26.4051 23.5631 26.4278C22.595 26.9838 22.0002 27.9599 22.0002 28.9988V43.0004C22.0002 44.0392 22.595 45.0139 23.5604 45.57C23.5871 45.5927 23.6191 45.6127 23.6511 45.6313L34.359 51.6053C34.403 51.6293 34.4497 51.648 34.4977 51.6613C34.9778 51.8866 35.4832 52 36.0019 52C36.518 52 37.0207 51.888 37.4994 51.664C37.5501 51.6493 37.5981 51.6307 37.6434 51.604L48.3513 45.63C48.3833 45.6127 48.4127 45.5927 48.4407 45.57C49.4075 45.0139 50.0022 44.0378 50.0022 42.999V28.9974C50.0035 27.9586 49.4074 26.9838 48.442 26.4278ZM48.67 42.999C48.67 43.5897 48.3113 44.1324 47.7139 44.4512C47.6779 44.4698 47.6419 44.4925 47.6112 44.5179L37.094 50.3865C37.066 50.3958 37.038 50.4078 37.01 50.4212C36.3632 50.7466 35.6418 50.7466 34.9964 50.4212C34.9697 50.4092 34.9417 50.3972 34.9137 50.3879L24.3952 44.5179C24.3645 44.4925 24.3285 44.4698 24.2912 44.4498C23.6924 44.1325 23.3338 43.5897 23.3338 42.999V28.9974C23.3338 28.4066 23.6925 27.8639 24.2899 27.5465C24.3259 27.5278 24.3619 27.5052 24.3926 27.4798L34.9098 21.6111C34.9378 21.6018 34.9658 21.5898 34.9938 21.5765C35.6406 21.2511 36.362 21.2511 37.0073 21.5765C37.034 21.5885 37.062 21.6005 37.09 21.6098L47.6086 27.4785C47.6393 27.5038 47.6753 27.5265 47.7126 27.5465C48.3126 27.8638 48.67 28.4066 48.67 28.9973V42.999Z" fill="white"/>
<path d="M41.0548 28.0426C41.0174 27.2319 40.56 26.5305 39.8266 26.1637C38.6772 25.589 37.289 25.6557 36.2022 26.3358L35.9569 26.4878C35.8368 25.9104 35.4635 25.4236 34.9194 25.1516C34.3447 24.8623 33.662 24.8769 33.0992 25.1889L29.0147 27.4119C28.7934 27.5319 28.6574 27.7692 28.6667 28.0213C28.676 28.2733 28.8267 28.5 29.0574 28.604L36.3916 31.9377C36.4796 31.9777 36.5743 31.9977 36.6676 31.9977C36.7916 31.9977 36.9143 31.9644 37.0224 31.895L40.0174 30.0241C40.7067 29.5948 41.0934 28.8534 41.0548 28.0426ZM30.8269 27.9439L33.7405 26.3584C33.9179 26.2584 34.1366 26.2517 34.3219 26.3451C34.6166 26.4918 34.662 26.7625 34.6673 26.8732C34.6713 26.9839 34.654 27.2572 34.3659 27.4373L32.4457 28.6801L30.8269 27.9439ZM39.3106 28.8934L36.6183 30.5749L33.9073 29.3427L36.9103 27.4665C37.6077 27.0305 38.4958 26.9878 39.2399 27.3598C39.5292 27.5038 39.7092 27.7825 39.7252 28.1052C39.7372 28.428 39.5852 28.7227 39.3106 28.8934Z" fill="white"/>
<path d="M45.3377 40.7627C44.9697 40.7627 44.671 41.0615 44.671 41.4295C44.671 41.9389 44.3882 42.3963 43.9336 42.6229C43.5148 42.831 43.0308 42.8097 42.6361 42.5642C42.2334 42.3162 42.0027 41.9015 42.0027 41.4294V39.6465C42.0027 38.8851 42.4255 38.1997 43.1082 37.8583C43.4509 37.6876 43.8309 37.7063 44.1576 37.9063C44.4829 38.1064 44.6697 38.4411 44.6697 38.8238C44.6697 39.1918 44.9684 39.4905 45.3364 39.4905C45.7045 39.4905 46.0032 39.1918 46.0032 38.8238C46.0032 37.981 45.5764 37.2143 44.859 36.7715C44.1457 36.3288 43.2669 36.2888 42.5121 36.6648C41.3746 37.2329 40.6692 38.3757 40.6692 39.6465V41.4294C40.6692 42.3602 41.1412 43.2083 41.9333 43.6976C42.3641 43.9643 42.8494 44.099 43.3348 44.099C43.7415 44.099 44.1496 44.0043 44.5309 43.815C45.4391 43.3602 46.0044 42.4468 46.0044 41.4294C46.0045 41.0614 45.7058 40.7627 45.3377 40.7627Z" fill="white"/>
</g>
<defs>
<clipPath id="clip0_42_1070">
<rect width="32" height="32" fill="white" transform="translate(20 20)"/>
</clipPath>
</defs>
</svg>
