<svg xmlns="http://www.w3.org/2000/svg" viewBox="0 0 384.08 535.55"><defs><style>.cls-1{fill:#004358;}.cls-2{fill:#3498db;}.cls-3{fill:#161616;}.cls-4{fill:#2c2c2c;}</style></defs><title>airplane</title><g id="Layer_2" data-name="Layer 2"><g id="Layer_1-2" data-name="Layer 1"><path class="cls-1" d="M330.52,26.24a7.55,7.55,0,0,0-7.27-5.54l-2,.27a7.68,7.68,0,0,0-3.05,1.68c-.66.45-1.32.88-1.95,1.36a31.84,31.84,0,0,0-4.14,3.63c-1.59,1.69-3.15,3.41-4.69,5.14s-3.22,3.61-4.94,5.3-3.5,3.31-5.16,5.05q-5.06,5.35-10,10.81c-1.65,1.83-3.32,3.64-4.91,5.53s-3,3.72-4.46,5.61C276,67.57,274,70,272.09,72.5c-1.17,1.56-2.32,3.11-3.5,4.66-2.93,3.68-5.95,7.29-8.87,11-3.39,4.28-6.54,8.7-9.72,13.14q-1.5,2.07-3,4.11-4.14,5.3-8.31,10.56c-2.7,3.45-5.49,6.84-8.25,10.24l-.24.23c-1.76,1.75-3.53,3.5-5.26,5.27s-3.47,3.51-5.14,5.31l-6,6.49c-3.14,3.39-6.19,6.87-9.23,10.34q-5.5,6.3-10.88,12.68l-1.54,1.83a7.45,7.45,0,0,0-1.06-.09l-1.93.26a7.36,7.36,0,0,0-3.15,1.82l-.49.39a6.44,6.44,0,0,0-3.45.94,10.9,10.9,0,0,0-1.85,1.39l-.7.78c-.45.52-.89,1.06-1.33,1.6s-.67.82-1,1.24L174.51,180l-3.3,4.21q-3.74,4.78-7.45,9.59c-5.06,5.61-10.13,11.21-15,16.95-3,3.52-5.79,7.21-8.59,10.89-.88,1.13-1.77,2.25-2.71,3.33-1.42,1.62-2.86,3.21-4.3,4.82s-2.54,3-3.76,4.55c-.87,1.09-1.72,2.2-2.54,3.33-.15.15-.3.3-.44.46-2.94,3.09-5.86,6.19-8.9,9.19a89.73,89.73,0,0,0-8.28,8.61,35.21,35.21,0,0,0-3.16,4.51l-.18.07a8.19,8.19,0,0,0-3.18,1.87A7.58,7.58,0,0,0,100.4,266a6.38,6.38,0,0,0,.19,4.07c0,.21,0,.42,0,.65a7,7,0,0,0,1.27,4.22,32.73,32.73,0,0,0,.49,3.71,26.52,26.52,0,0,0,1.32,4.37c.62,1.54,1.3,3.05,2,4.57s1.3,3.18,1.94,4.78c.77,1.9,1.45,3.84,2.15,5.77s1.37,3.71,2.13,5.54,1.37,3.66,2,5.5q.8,2.31,1.73,4.57a42.11,42.11,0,0,0,2.78,5.88c.78,1.29,1.59,2.56,2.31,3.89.35.65.66,1.33,1,2,1.32,2.48,3.71,4.85,6.77,4.62l1.57-.21a5.1,5.1,0,0,0,.55-.19,5.69,5.69,0,0,0,1,1.46,5.77,5.77,0,0,0,1,.82,7.66,7.66,0,0,0-.09,4.64l.52,1.24a5.29,5.29,0,0,0,1.85,1.85l1.24.52a5.25,5.25,0,0,0,1.8.17,5.11,5.11,0,0,0,3.67-.58,19.12,19.12,0,0,0,3.93-3.69c.65-.71,1.29-1.44,1.94-2.16,1.15-1.29,2.27-2.62,3.41-3.93a37.69,37.69,0,0,0,4-5.12c.57-.93,1.06-1.9,1.59-2.85,1.07-1.12,2.16-2.22,3.27-3.28l.07-.07c.27-.2.53-.41.79-.62a5.23,5.23,0,0,0,1.31-2.25,5.1,5.1,0,0,0-2.34-5.74,5.47,5.47,0,0,0-2.84-.73l-.08-.09c-.22-.27-.45-.52-.69-.77l-.67-.74-1.33-1.48-2.55-2.81c-.82-.9-1.66-1.8-2.52-2.66a50.27,50.27,0,0,0-4.61-4.39,5.49,5.49,0,0,0-1.89-1.24l-.45-.6c-.73-.95-1.45-1.9-2.22-2.8a10.38,10.38,0,0,0-.69-.78,7.18,7.18,0,0,0-2.88-1.66,5.47,5.47,0,0,0-2.93,0,6,6,0,0,0-.84.31c.44-.4.85-.82,1.25-1.26,1.39-1.54,2.69-3.16,4-4.77s2.42-3.08,3.61-4.63c1.39-1.79,2.79-3.55,4.24-5.29.81-1,1.72-1.92,2.62-2.81s1.63-1.63,2.5-2.38a8.11,8.11,0,0,0,3-1.86,8.57,8.57,0,0,0,1.45-2c.2-.37.36-.76.54-1.14.33-.73.66-1.45,1-2.16s.76-1.53,1.14-2.3l.54-1.1c.4-.82.79-1.72,1.1-2.55a8.16,8.16,0,0,0,.25-4.91l7.79-12.11c.78-1.23,1.58-2.46,2.38-3.68,2.18-3.27,4.41-6.52,6.63-9.77,4.89-7.15,10-14.12,15.22-21.06.78-1,1.55-2,2.29-3l0-.07q3.43-4.58,6.83-9.18c2.32-3.14,4.57-6.34,7-9.44-.17.22-.34.43-.5.65,1-1.29,2-2.58,2.85-4a5.74,5.74,0,0,0,.87-2.41c4.27-5.23,8.58-10.42,12.88-15.63,2.84-3.45,5.79-6.82,8.6-10.29a7.4,7.4,0,0,0,1.94-3.33,7.7,7.7,0,0,0,.26-1.56l.68-.75c3.24-3.62,6.36-7.35,9.61-11,.57-.63,1.14-1.25,1.7-1.88a7.55,7.55,0,0,0,1.93-3.31,2.34,2.34,0,0,0,.09-.38c3.6-4,7.18-8.07,10.8-12.08,3.18-3.52,6.08-7.27,9.24-10.79s6.45-7,9.5-10.72c3.76-4.54,7.27-9.27,10.85-13.95.9-1.17,1.8-2.35,2.68-3.55S293.21,75.08,294,74c1.5-2.21,3-4.43,4.59-6.58,2.79-3.5,5.76-6.83,8.86-10.07,3.32-3.48,6.89-6.71,10.11-10.31,1.91-2.15,3.9-4.21,5.94-6.25,1-1.06,2.07-2.14,3-3.29a20.85,20.85,0,0,0,2.33-3.29,40.8,40.8,0,0,0,1.69-3.91A7.58,7.58,0,0,0,330.52,26.24ZM133.59,313.78a5.15,5.15,0,0,0,.57,1.34l0,.23.06,1.35a9.15,9.15,0,0,0-.75,1.09l-.24-1c-.44-1.81-1-3.6-1.38-5.41s-.77-3.94-1.18-5.91l-.21-.93a16.73,16.73,0,0,0,.07-2.65c-.06-1.19-.15-2.38-.23-3.57.23.41.47.81.71,1.21a4.13,4.13,0,0,0-.08,1.33,11.87,11.87,0,0,0,.39,2.1c.11.37.21.75.31,1.12.22.81.45,1.61.67,2.42.15,1.13.31,2.25.47,3.38A22.75,22.75,0,0,0,133.59,313.78Z"/><path class="cls-2" d="M341.41,18.53A5.75,5.75,0,0,0,338.07,16a5.36,5.36,0,0,0-1.06-.2c.12-.11.23-.23.34-.35a5.6,5.6,0,0,0,.75-1,4.33,4.33,0,0,0-.67-5.19,4.23,4.23,0,0,0-3-1.24,4.4,4.4,0,0,0-2.17.57h0c-.8.42-1.58.85-2.41,1.22s-1.83.82-2.73,1.28A46,46,0,0,0,322,14.14c-3.35,2.31-6.54,4.87-9.79,7.31-1.63,1.21-3.26,2.43-5,3.51s-3.62,2.19-5.41,3.31-3.29,2.24-4.92,3.38-3.45,2.37-5.18,3.54-3.35,2.44-5,3.66c-1.91,1.38-3.78,2.78-5.6,4.27-3.1,2.58-6.15,5.22-9.2,7.86l-.29.25-.4.16a33.27,33.27,0,0,0-6.08,3.27c-1.84,1.15-3.67,2.33-5.5,3.5-3.56,2.3-7,4.77-10.34,7.32s-6.51,5-9.93,7.2c-1.81,1.18-3.64,2.34-5.46,3.5l-1-.14a6.72,6.72,0,0,0-3.39.9,32,32,0,0,0-3.84,1.81c-1.32.77-2.58,1.64-3.82,2.52-2.86,2-5.57,4.25-8.27,6.47-1.84,1.52-3.61,3.13-5.41,4.7l-1.68,1.47c-.57.23-1.14.47-1.7.72A11.45,11.45,0,0,0,203,95.72c-1.65,1.15-3.2,2.42-4.76,3.67-.78.64-1.57,1.27-2.34,1.92l-1.21,1-.09,0a7.7,7.7,0,0,0-5.75.75,35.72,35.72,0,0,0-3.58,2c-1.68,1.16-3.26,2.45-4.82,3.76-.91.76-1.8,1.53-2.68,2.33l-6.05,5.48-.51.45-.18.11c-.62.3-1.25.58-1.85.91a15.92,15.92,0,0,0-1.72,1.19c-1.65,1.23-3.22,2.53-4.76,3.88-.8.7-1.59,1.4-2.37,2.11l-4.24,3.84a6.37,6.37,0,0,0-1.3-.13,6.48,6.48,0,0,0-1.69.22,6.36,6.36,0,0,0-2.8,1.64c-1.7,1.38-3.38,2.78-5.06,4.19a6,6,0,0,0-1.53.25,11.56,11.56,0,0,0-2.7,1.17,24.7,24.7,0,0,0-3.26,2.61c-.5.43-1,.83-1.55,1.23l-4.5,3.57c-1.94,1.53-3.89,3-5.84,4.55l-10.15,7.69c-1.93,1.45-3.84,2.94-5.75,4.43-1.56,1.22-3.14,2.41-4.66,3.68l-1.15,1a5.21,5.21,0,0,0-1.33.62A59.51,59.51,0,0,0,95,172.27l-1.59,1.49a7.65,7.65,0,0,0-2.64.25c-.75.27-1.47.6-2.2.92l-.26.18c-.61.45-1.21.92-1.8,1.4-.29.23-.55.49-.83.74l-1.47,1.31c-.69.61-1.38,1.23-2.09,1.84-1.68,1.46-3.38,2.89-5.1,4.31-3.09,2.54-6.38,4.85-9.33,7.56-1.73,1.59-3.32,3.34-5.11,4.88-1.17.88-2.36,1.74-3.57,2.56a45.71,45.71,0,0,1-5.13,2.83c-1.7.86-3.32,1.83-4.92,2.84-.8.51-1.61,1-2.42,1.48s-1.57,1-2.39,1.43-1.92,1-2.9,1.42a29.49,29.49,0,0,1-3.37.95c-1.13.26-2.16.79-3.28,1.07a7.56,7.56,0,0,0-3.08,1,8.23,8.23,0,0,0-2.95,2.94,5.89,5.89,0,0,0-.83,2c-.1.72-.19,1.44-.29,2.16A8,8,0,0,0,28.59,224a8.29,8.29,0,0,0,3,3,11.57,11.57,0,0,0,1.37.67c1.43.78,2.88,1.51,4.28,2.34,1.82,1.07,3.64,2.14,5.48,3.19s3.52,2.07,5.25,3.15,3.42,2.1,5.12,3.18c3.48,2.21,6.73,4.79,10.06,7.22,1.59,1.15,3.15,2.34,4.79,3.42a34,34,0,0,0,7.45,3.68,10.91,10.91,0,0,0,2.78.57l.11.27a13.49,13.49,0,0,0,1.24,2.23,15.19,15.19,0,0,0,2.57,3.08,12.43,12.43,0,0,0,2.26,1.65c.69.32,1.39.62,2.11.88s1.63.23,2.45.33a8,8,0,0,0,1.48-.13c.31.42.65.82,1,1.24a6.9,6.9,0,0,0,3.51,2.19,13.1,13.1,0,0,0,2,.27,6.91,6.91,0,0,0,3.52-.95c.27-.2.55-.39.82-.6a6.33,6.33,0,0,0,3-4.87c.25-.14.5-.29.74-.45a33.91,33.91,0,0,0,3.62-2.8c1.54-1.39,2.95-2.9,4.37-4.4,2.8-3,5.56-5.92,8.24-9,3.48-4,7-7.93,10.49-11.89.21-.21.41-.41.61-.63l1-1c.68-.71,1.38-1.42,2-2.15,1.43-1.57,2.86-3.13,4.26-4.72l4-4.57c1.48-1.67,3-3.32,4.43-5a7,7,0,0,0,1.8-3.1,7.94,7.94,0,0,0,.2-1l1.7-2.11c.16-.2.33-.4.49-.61l2.21-2.07c3.08-2.92,6.12-5.89,9.22-8.8,6.09-5.71,12.13-11.51,17.66-17.78.72-.82,1.45-1.62,2.14-2.45l1.18-1.41c.63-.75,1.22-1.54,1.81-2.32.16-.22.32-.44.47-.67a5.74,5.74,0,0,0,.82-2.09c2.62-2.57,5.08-5.32,7.56-8,2.94-3.22,5.85-6.45,8.77-9.69,5-5.54,9.9-11.13,14.91-16.64l1.39-1.41a27.88,27.88,0,0,0,4.13-4.63,6.33,6.33,0,0,0,.84-2.18l4.44-4.63q2.13-2.25,4.27-4.49c1.72-1.79,3.47-3.58,5.1-5.44l3.17-3.07c5.79-5.61,11.76-11,17.61-16.58l6.4-6.09L269,83.41l1.79-1.7c.41-.38.86-.72,1.26-1.11a8,8,0,0,0,1.69-2.27,8.39,8.39,0,0,0,.79-1.86l1.2-1.17q4.35-4.22,8.64-8.5l4-4,1.93-1.91c.91-.84,1.87-1.66,2.71-2.56a5,5,0,0,0,1.42-3.43c0-.11,0-.23,0-.34l2-1.55c1.56-1.23,3.08-2.51,4.53-3.88.74-.69,1.45-1.42,2.14-2.17.29-.33.57-.67.85-1,.42-.51.82-1.06,1.22-1.6a5.8,5.8,0,0,0,1.09-2.16l0-.08c4.79-4.23,9.57-8.48,14.4-12.66l3.79-3.25q1.92-1.47,3.8-3c-.41.63-.82,1.28-1.21,1.92-.82,1.34-1.63,2.68-2.41,4-.68,1.16-1.37,2.31-2,3.51-.18.24-.35.5-.49.72l-.35.55-.72,1.2L320,37.26a6.64,6.64,0,0,0-2.22,2.19c-1.4,2.19-2.68,4.46-3.95,6.74l-1.68,3-.15,0-1.38.59a5.76,5.76,0,0,0-2.08,2.08A41.34,41.34,0,0,0,305.85,56l-1.61,2.65c-1.28,2-2.56,3.89-3.83,5.84-.36.55-.71,1.1-1.06,1.65l-1.42.59a6.09,6.09,0,0,0-2.15,2.16A54.73,54.73,0,0,0,292.5,74l-.92,1.53-1.94,3a5.93,5.93,0,0,0-2,1.32c-.5.49-1,1-1.49,1.47A19.12,19.12,0,0,0,284.76,83c-1.25,1.61-2.43,3.26-3.57,5-.58.86-1.12,1.75-1.68,2.64-1.4,2.25-2.81,4.5-4.2,6.75-.67,1.07-1.33,2.15-2,3.23a6,6,0,0,0-3.79,1.85c-1.25,1.47-2.45,3-3.57,4.52-1,1.41-1.93,2.85-2.86,4.3-.57.87-1.1,1.75-1.64,2.64q-2.42,3.95-4.82,7.91c-.5.82-1,1.64-1.48,2.46-.21,0-.42,0-.64,0a6.21,6.21,0,0,0-1.34.16,5.34,5.34,0,0,0-1.47.55,5.81,5.81,0,0,0-1.92,1.24,67.73,67.73,0,0,0-6.32,7.7q-1.58,2.09-3.11,4.18c-1.11,1.52-2.21,3-3.3,4.58a55.64,55.64,0,0,0-3.86,5.68,5.93,5.93,0,0,0-.49,1.2c-.52.74-1,1.5-1.54,2.24l-2.47,3.56q-1.8,2.58-3.57,5.19c-2.82,4.12-5.55,8.3-8.27,12.49-.78,1.19-1.55,2.39-2.32,3.58-3.37,4.92-6.71,9.87-10.14,14.73-.34.46-.68.92-1,1.4a4.55,4.55,0,0,0-.63,1.46l-.44.63a8.3,8.3,0,0,0-2.58,1.75c-1.33,1.59-2.56,3.26-3.82,4.9l1.28-1.66c-1,1.26-1.92,2.56-2.84,3.87s-2.08,2.74-3.09,4.12c-2.22,3-4.43,6.05-6.68,9.06-5.57,7.08-11.33,14-16.65,21.29q-4.47,6.12-8.87,12.27c-2.63,3.69-5.09,7.49-7.51,11.31-3.16,5-6.14,10.09-9.66,14.83a29.15,29.15,0,0,1-3.2,3.46c-.32.21-.64.4-1,.58a8.14,8.14,0,0,0-3.14,3,7.78,7.78,0,0,0,.11,8,14.13,14.13,0,0,0,5,4.38c1.18.7,2.37,1.42,3.51,2.21.43.39.85.8,1.3,1.17a19.7,19.7,0,0,0,3.84,2.64c1.55.79,3.15,1.48,4.72,2.24l.1,0a8.65,8.65,0,0,0,1.15,3.87,7.53,7.53,0,0,0,1.58,1.94l-.07-.05.12.09a6.9,6.9,0,0,0,.58.46,26,26,0,0,0,3.33,2.31l1.32.74.59.39c1.47,1,2.94,2,4.47,2.91,1.28.75,2.56,1.51,3.91,2.15a21.16,21.16,0,0,0,3.16,1.29l.2.06c1.2.81,2.38,1.66,3.54,2.53,3.62,2.89,7,6.09,11,8.44,1.85,1.08,3.74,2.12,5.52,3.33.89.6,1.75,1.25,2.61,1.89.38.27.76.54,1.15.79.2.12.39.24.6.34.84.42,1.87.8,2.8,1.18a7.94,7.94,0,0,0,2.58.4l.22.19.88.72a7.49,7.49,0,0,0,4.39,3.41,7.15,7.15,0,0,0,4.3-.16,8.88,8.88,0,0,0,3.58-1.09,10.3,10.3,0,0,0,3.66-3.73,30.21,30.21,0,0,0,1.51-2.8c1-2.05,1.94-4.15,2.88-6.24.15-.34.29-.68.43-1a14.59,14.59,0,0,0,1-2.62,6.57,6.57,0,0,0,.25-1.83,6.86,6.86,0,0,0-.92-3.43c1.94-4.47,3.81-9,5.7-13.47q1.64-3.81,3.25-7.63c1.83-4,3.66-8.05,5.47-12.09.76-1.67,1.51-3.35,2.26-5,1.19-2.19,2.15-4.51,3.18-6.77q1-2.21,2-4.41l1-2.12c.92-2,1.92-3.86,2.88-5.78q1.8-3.63,3.71-7.21c.28-.51.57-1,.86-1.53a25.22,25.22,0,0,0,2.76-5.49,7.2,7.2,0,0,0-1.73-6.78c.58-1.31,1.15-2.63,1.72-3.94l.63-1.47q2-4.07,3.93-8.14c.27-.65.55-1.3.82-2a8,8,0,0,0,.29-1.91,7.5,7.5,0,0,0,.15-.91l.06-.06a11.34,11.34,0,0,0,1.75-2.34,24.84,24.84,0,0,0,1.2-2.87c.23-.61.47-1.22.71-1.83l1.47-3.84c.76-2,1.47-4,2.19-6l1.62-4.49c.2-.15.4-.32.61-.5a8.47,8.47,0,0,0,1.17-1.48,4.14,4.14,0,0,0,.38-.72,23,23,0,0,0,1-2.72,14.17,14.17,0,0,1,.49-1.43l1.41-3.5c.81-2,1.6-4,2.37-6q2.64-7,5.21-14c2.86-7.79,5.91-15.5,9.06-23.17a6,6,0,0,0-1.56-5.89,5.77,5.77,0,0,0-1-.83q2.55-6.9,5.17-13.78c.07-.17.14-.34.2-.51l.21-.42c4.26-8.71,8.31-17.52,12.33-26.34,2.71-6,5.44-11.91,8.12-17.89.41-.86.81-1.73,1.21-2.6.71-1.58,1.42-3.15,2.12-4.73.84-1.89,1.72-3.78,2.43-5.71a6,6,0,0,0,.19-2.19c.53-1.59,1-3.18,1.55-4.77a5.9,5.9,0,0,0-.79-4.86q2.76-5.41,5.51-10.83c1.8-3.55,3.56-7.13,5.2-10.76,1.08-2.39,2.16-4.78,3.17-7.21.43-1,.87-2,1.27-3A31.82,31.82,0,0,0,342,22.84,5.65,5.65,0,0,0,341.41,18.53Zm-301.16,195,0,0,.09.07Zm14.44,8.11-.07,0,.2-.13Zm52.08,32.91c-.07.17-.14.34-.22.51.08-.17.15-.34.22-.51Z"/><path class="cls-3" d="M72.56,203.15c1.09-.7,2.18-1.4,3.26-2.12q3.66-2.42,7.29-4.9c1-.67,1.93-1.37,2.88-2.06,1.12-.81,2.25-1.62,3.36-2.45l1-.78h0c-2.45,1.5-5,2.9-7.47,4.33-1.14.65-2.3,1.25-3.45,1.88l-4,2.2q-3.45,1.9-6.86,3.88c-1,.55-1.91,1.08-2.85,1.63q-2.43,1.41-4.84,2.87c-2,1.2-4,2.33-6,3.5-3.07,1.82-6.11,3.69-9.17,5.53l-1.82,1.1h0c2-.85,4-1.7,6-2.61,1.54-.71,3.09-1.43,4.62-2.16s3.31-1.57,4.95-2.38c.59-.29,1.18-.57,1.76-.89,2.78-1.51,5.54-3.06,8.26-4.68C70.58,204.44,71.57,203.78,72.56,203.15Z"/><path class="cls-3" d="M188.94,113.1q-4.56,3.08-9.1,6.17-5.29,3.62-10.57,7.25c-3.07,2.12-6.14,4.22-9.2,6.34-2.84,2-5.66,4-8.47,6-3,2.16-6.06,4.3-9.08,6.47l-5.67,4.07c-.4.29-.78.6-1.18.89l-3.15,2.4c-1.27,1-2.56,1.94-3.81,2.94L123.2,160c-1.48,1.19-2.93,2.41-4.4,3.62s-2.93,2.37-4.4,3.56l-.62.51c-.78.58-1.55,1.18-2.33,1.77s-1.28,1-1.94,1.48l-2.87,2.09c-.72.52-1.43,1.07-2.14,1.61l-1.67,1.28s0,0,0,0c1.72-1.2,3.46-2.37,5.22-3.53.67-.45,1.36-.88,2-1.34l3.07-2.15,1-.73,1.38-1,2.17-1.63,1-.79h0l0,0,0,0,.08-.06,0,0h0l1.3-1h0l.51-.39,3-2.36-.11.08c1.06-.79,2.11-1.61,3.16-2.42s2.23-1.7,3.34-2.57l-.12.1c.53-.41,1.08-.8,1.63-1.2l3.3-2.45,2.35-1.75,1.17-.84q5-3.57,10-7.11t9.92-7.07c3.16-2.28,6.33-4.56,9.48-6.86,2.72-2,5.42-4,8.12-6q4.73-3.51,9.42-7l3.58-2.69Z"/><path class="cls-3" d="M118.77,164.75l.07-.05-.06.05Z"/><polygon class="cls-3" points="118.85 164.69 118.84 164.69 118.83 164.7 118.85 164.69"/><path class="cls-3" d="M228,88.21q4.11-2.8,8.11-5.77c3.74-2.74,7.43-5.55,11.09-8.38h0l0,0h0l.05,0h0l.26-.19h0l4.19-3.26h0C245.9,74,240.15,77.43,234.47,81c-2.7,1.69-5.38,3.39-8,5.15s-5.48,3.78-8.18,5.73c-2.9,2.1-5.76,4.28-8.6,6.47h0l-.07.06-7.11,5.34a0,0,0,0,0,0,0c2-1,3.92-2.11,5.87-3.2,1-.58,2-1.15,3-1.76,2.78-1.67,5.54-3.39,8.28-5.13S225.24,90.08,228,88.21Z"/><path class="cls-3" d="M81.6,241.81c-.85-.57-1.73-1.09-2.58-1.67-.58-.39-1.17-.78-1.76-1.15-.34-.22-.7-.41-1-.63-1.79-1.23-3.64-2.39-5.5-3.52-2.91-1.78-5.92-3.4-9-4.89h0c1.81,1.92,3.66,3.8,5.59,5.6,1.4,1.31,2.82,2.61,4.32,3.8.62.5,1.25,1,1.88,1.48.32.24.63.49,1,.71,1,.66,2.06,1.28,3.11,1.88s2,1,2.94,1.45,2,.86,3.09,1.26c1.33.51,2.71.91,4.09,1.32s3,.82,4.5,1.12c0,0,0,0,0,0-1.81-1-3.52-2.24-5.28-3.37S83.36,243,81.6,241.81Z"/><path class="cls-3" d="M170.52,301.5c-.73-.72-1.45-1.44-2.2-2.15s-1.66-1.45-2.51-2.14c-.7-.57-1.42-1.11-2.16-1.63q-2.55-1.75-5.25-3.26a100.71,100.71,0,0,0-9.16-4.48h0a0,0,0,0,0,0,0A107.93,107.93,0,0,0,161,298.36c1.66,1.27,3.4,2.47,5.16,3.61s3.28,2.15,5,3.16c.51.3,1,.55,1.57.82l1.41.7c1.13.54,2.28,1.06,3.45,1.49h0c-1.74-1.4-3.33-3-5-4.5C171.9,303,171.23,302.21,170.52,301.5Z"/><path class="cls-3" d="M201,325.27a30.33,30.33,0,0,0-7-4.8h0a29.22,29.22,0,0,0,5.55,6.09c1.81,1.43,3.85,2.53,5.75,3.83h0A27.2,27.2,0,0,0,201,325.27Z"/><path class="cls-3" d="M222.86,302.32c.48-1,.95-2,1.44-3,2.57-5.21,5.07-10.45,7.37-15.78a96.17,96.17,0,0,0,4.94-13.44h0c-1.29,2.46-2.56,4.92-3.74,7.43s-2.52,5.2-3.73,7.82c-1.07,2.3-2.16,4.58-3.19,6.9-.63,1.39-1.24,2.8-1.84,4.2-.44,1-.88,2-1.29,3.06L221,303.9c-.32.81-.64,1.63-.95,2.45-.49,1.36-1,2.71-1.49,4.07-.19.51-.36,1-.54,1.56l-.05.16c.29-1.2.55-2.4.8-3.61h0c-.45,1.93-.94,3.83-1.52,5.72,0,.09.12.15.15.07v0h0c1.19-2.79,2.44-5.57,3.69-8.33C221.68,304.73,222.28,303.53,222.86,302.32Z"/><path class="cls-3" d="M260,216.79a45.46,45.46,0,0,0,1.46-5.13,50.53,50.53,0,0,0,.95-5.61h0l-.24.59v0c-.83,1.89-1.74,3.75-2.62,5.62-.19.4-.42.79-.62,1.19s-.46.9-.7,1.34c-.55,1-1.09,2-1.63,3-1.89,3.58-3.69,7.23-5.25,11A171.85,171.85,0,0,0,244,251.07s0,0,0,0a175.5,175.5,0,0,0,12-23.55C257.41,224,258.72,220.41,260,216.79Z"/><path class="cls-3" d="M281.67,156.63c.54-2,1-4,1.41-6.09q.59-2.67,1.08-5.37h0c-1.61,3.54-3.27,7.07-4.77,10.67-1.12,2.64-2.16,5.3-3,8a121.54,121.54,0,0,0-3.59,14.33h0a117.46,117.46,0,0,0,7.11-15.57C280.58,160.68,281.13,158.65,281.67,156.63Z"/><path class="cls-3" d="M279.33,156s0-.09.05-.13l0,0A1.11,1.11,0,0,0,279.33,156Z"/><path class="cls-3" d="M325.15,48.66h0c-1.59,2.38-3.14,4.77-4.64,7.2s-3.11,5.18-4.6,7.8c-2,3.56-3.88,7.2-5.61,10.92s-3.35,7.82-4.88,11.79c-1.44,3.77-2.76,7.59-4.1,11.39q-.92,2.59-1.81,5.2h0c2-3.71,4-7.37,6-11.07,2.16-4,4.31-7.95,6.37-12,.88-1.74,1.76-3.47,2.59-5.23.93-2,1.82-4,2.69-6,1.93-4.44,3.78-8.91,5.49-13.44C323.52,53.07,324.35,50.87,325.15,48.66Z"/><path class="cls-3" d="M120.27,294.88c-.55-1.44-1.1-2.87-1.69-4.29-.79-1.85-1.61-3.69-2.48-5.51-2.12-4.42-4.49-8.72-6.95-13h0c1.54,4.28,3.18,8.51,5,12.68.48,1.12,1,2.24,1.48,3.36.63,1.37,1.31,2.73,2,4.09.79,1.6,1.6,3.2,2.39,4.8s1.42,3,2.1,4.48c.29.7.58,1.4.83,2.12h0a45.15,45.15,0,0,0-1.29-4.86C121.21,297.46,120.76,296.16,120.27,294.88Z"/><path class="cls-3" d="M155.87,242.19c1.74-2.36,3.46-4.73,5.22-7.07l-.06.08c1.42-1.83,2.84-3.67,4.33-5.45h0q-3.27,3.15-6.35,6.47c-1.83,2-3.58,4-5.35,6-1.93,2.19-3.84,4.39-5.77,6.58-2.11,2.37-4.15,4.79-6.15,7.24-.86,1.06-1.68,2.14-2.51,3.21s-1.72,2.2-2.55,3.32c-1.67,2.28-3.3,4.59-5,6.88s-3.47,4.83-5.19,7.25h0c1.46-1.5,2.89-3,4.32-4.55.85-.92,1.71-1.83,2.54-2.77,1.92-2.17,3.8-4.37,5.7-6.55,2.08-2.39,4.13-4.8,6.18-7.23,1.79-2.12,3.57-4.28,5.29-6.47S154.14,244.54,155.87,242.19Z"/><path class="cls-3" d="M137.26,317.17c0-.93-.08-1.85-.11-2.78-.08-2.06-.2-4.12-.33-6.18h0c-.07,1.32-.11,2.63-.14,4,0,.82,0,1.64,0,2.46,0,2,.12,4,.25,6,.11,1.64.24,3.28.38,4.91h0c0-1.94,0-3.88,0-5.83C137.29,318.87,137.28,318,137.26,317.17Z"/><path class="cls-3" d="M139,316.64h0c.09,1,.19,2,.34,2.95s.36,2,.57,2.92h0c-.05-.93-.12-1.86-.24-2.78A24.61,24.61,0,0,0,139,316.64Z"/><path class="cls-3" d="M141.83,315.69h0c0,.63.09,1.25.18,1.88s.26,1.39.43,2.08h0c-.05-.65-.11-1.3-.2-1.94A17.63,17.63,0,0,0,141.83,315.69Z"/><path class="cls-3" d="M144.66,314.06h0a30,30,0,0,0,.23,3.67v0q.1.78.24,1.56h0c0-.88,0-1.77-.1-2.65S144.81,314.91,144.66,314.06Z"/><path class="cls-3" d="M147.05,313.87h0a28.4,28.4,0,0,0,0,3.69,29.22,29.22,0,0,0,.48,3.36h0a32.34,32.34,0,0,0,0-3.55A29.76,29.76,0,0,0,147.05,313.87Z"/><path class="cls-3" d="M346.05,43.05s0,0,0,0h0c-.47.88-.88,1.79-1.3,2.69-.24.52-.47,1-.7,1.57q-1,2.19-1.89,4.4c-1.28,3.08-2.52,6.17-3.69,9.29q-1.92,5.1-3.56,10.28c-1,3.29-2,6.59-2.95,9.91-1.07,3.75-2.09,7.51-3.09,11.28h0c2.5-6.06,5-12.13,7.3-18.26,2.52-6.59,4.75-13.28,6.74-20.05q.76-2.61,1.5-5.24c.23-.82.44-1.66.68-2.48.33-1.13.62-2.27,1-3.38Z"/><path class="cls-3" d="M306.3,146.25a.23.23,0,0,0-.14,0,.31.31,0,0,0-.24.13l-.61.93c-.21.31-.38.65-.56,1-.39.75-.74,1.52-1.08,2.29s-.69,1.56-1,2.35c-.49,1.28-1,2.56-1.46,3.85s-1,2.57-1.45,3.86c-.26.71-.5,1.43-.75,2.14q-2.5,7.24-4.92,14.52-2.16,6.51-4.24,13c-.57,1.78-1.1,3.56-1.68,5.33q-1.32,4-2.6,8.07-.78,2.45-1.57,4.88c-.93,2.79-1.85,5.59-2.76,8.38-1.37,4.19-2.73,8.38-4.12,12.55-.13.4-.26.79-.4,1.19,0,0,0,0,0,0,1.81-4.37,3.57-8.76,5.33-13.14,1.65-4.11,3.31-8.21,4.88-12.35q1.6-4.26,3.2-8.53c.56-1.53,1.08-3.08,1.61-4.63,1.5-4.34,3-8.69,4.35-13.08q2.29-7.26,4.4-14.59c.3-1,.57-2,.88-3.07l.9-3c.45-1.5.9-3,1.34-4.5a53.54,53.54,0,0,1,1.88-5.43c0-.1.09-.2.13-.29,0,.12-.05.24-.08.37-.07.33-.15.66-.22,1l-.66,2.93h0c.31-1,.61-1.93.91-2.89.11-.35.22-.69.32-1,.05-.15.1-.29.14-.43s.14-.44.2-.65a4.94,4.94,0,0,0,.16-.82A.27.27,0,0,0,306.3,146.25Z"/><path class="cls-3" d="M300.59,190.78a.59.59,0,0,0-.26-.07.55.55,0,0,0-.46.26c-.22.35-.45.69-.66,1.05s-.35.71-.52,1.07c-.36.78-.72,1.57-1,2.37-.15.36-.29.72-.43,1.08-.6,1.52-1.19,3-1.78,4.55-.81,2.08-1.55,4.18-2.31,6.27-1.6,4.47-3.1,9-4.55,13.5-1.5,4.71-2.94,9.43-4.36,14.16-1,3.47-2.05,6.94-3.09,10.41h0q2.81-6.87,5.53-13.77c1.63-4.14,3.23-8.29,4.76-12.47.82-2.26,1.65-4.52,2.42-6.8q1.41-4.19,2.74-8.4c.41-1.31.83-2.62,1.24-3.93.34-1.06.67-2.11,1-3.16-.38,2-.76,4-1.11,6.08,0,0,0,0,0,0,.52-2,1.05-4,1.58-6,.24-.86.47-1.73.71-2.6s.57-2,.81-3A.56.56,0,0,0,300.59,190.78Z"/><circle class="cls-3" cx="337.62" cy="95.3" r="0.29"/><path class="cls-3" d="M339.81,83.14a.13.13,0,0,0-.12.08c-1.63,4.29-3.06,8.66-4.58,13q-.8,2.27-1.58,4.55c-.21.6-.39,1.21-.63,1.79-1,2.6-2.07,5.22-3,7.84-.25.69-.49,1.38-.76,2.06-.38.93-.75,1.87-1.12,2.81q-1.28,3.22-2.49,6.47c-.73,1.91-1.43,3.83-2.14,5.74-.78,2.11-1.52,4.23-2.32,6.32a0,0,0,0,0,0,0c1.08-2,2.1-4.1,3.09-6.17s1.84-3.84,2.73-5.77q1.77-3.83,3.46-7.68c.75-1.7,1.41-3.44,2.08-5.18.57-1.48,1.12-3,1.66-4.47l.51-1.41c.05-.14.1-.28.14-.41q1.11-3.85,2.18-7.72c.51-1.83,1-3.68,1.42-5.52s.9-3.57,1.38-5.34a2,2,0,0,0,.23-.91A.1.1,0,0,0,339.81,83.14Z"/><path class="cls-3" d="M241.71,311.23h0c-.9,2.85-1.78,5.71-2.68,8.56-.77,2.43-1.52,4.86-2.27,7.29-.83,2.71-1.64,5.42-2.45,8.13-.32,1.1-.64,2.2-1,3.3-1.38,4.59-2.74,9.2-4,13.82-1,3.75-2.08,7.5-3.11,11.26s-2.11,7.79-3.15,11.69q-1.49,5.55-3,11.11l-.93,3.52h0c1.39-4.25,2.81-8.48,4.22-12.73q1.78-5.32,3.52-10.67c1.3-4,2.58-7.95,3.83-11.94.5-1.6,1-3.21,1.42-4.82q1.19-4.12,2.33-8.26c.27-1,.56-2,.82-3.05q.78-3,1.53-6.11,1.69-6.88,3.29-13.8c.56-2.43,1.06-4.86,1.58-7.29Z"/><path class="cls-3" d="M239.69,348.76c-.88,2.79-1.69,5.6-2.36,8.45a65.36,65.36,0,0,0-1.12,6.79c-.1.81-.18,1.61-.24,2.42h0c.51-2.44,1.1-4.87,1.68-7.3s1.09-4.87,1.53-7.32c.18-1,.36-2,.52-3h0Z"/><path class="cls-3" d="M242.77,350c-.34,1-.65,2-1,3-.22.72-.39,1.44-.56,2.17-.37,1.55-.67,3.11-.91,4.69h0c.38-1.54.8-3.07,1.18-4.61.18-.73.34-1.46.52-2.19.25-1,.48-2,.72-3h0Z"/><path class="cls-3" d="M61.58,180.54h0c-4,2.46-8,4.88-12,7.33q-6.24,3.82-12.46,7.7c-2.14,1.33-4.27,2.68-6.4,4s-4,2.56-6,3.85-4.27,2.8-6.39,4.22c-.45.3-.91.58-1.36.87q-1.86,1.2-3.71,2.41-3.42,2.22-6.81,4.5l-1.91,1.28c-1.48,1-3,1.94-4.51,2.91,0,0,0,0,0,0,1.7-.83,3.42-1.63,5.09-2.52l3.14-1.68q4.42-2.37,8.82-4.82l2.16-1.22c.49-.27,1-.58,1.46-.87Q24.87,206,29,203.38c1.35-.85,2.7-1.7,4-2.6q3.93-2.66,7.83-5.38c3.43-2.39,6.83-4.84,10.23-7.29S58.08,183.07,61.58,180.54Z"/><path class="cls-3" d="M75.29,176.24c-2.33,1.8-4.61,3.68-6.84,5.61,0,0,0,0,0,0,3.58-2.08,7.08-4.28,10.49-6.64.6-.42,1.19-.88,1.78-1.33l2.22-1.75c.5-.41,1-.84,1.47-1.27s1.1-1,1.64-1.44c1.53-1.38,3-2.77,4.51-4.22h0c-2.68,1.95-5.43,3.79-8.11,5.75-1.28.93-2.6,1.82-3.86,2.78C77.49,174.57,76.38,175.39,75.29,176.24Z"/><path class="cls-3" d="M67.62,170.66a15.37,15.37,0,0,0,1.65-.43,24.56,24.56,0,0,0,3-1.17,29,29,0,0,0,3.87-2.2A35.8,35.8,0,0,0,80,163.94h0c-1.16.78-2.39,1.5-3.62,2.17-.73.4-1.46.82-2.2,1.21-1.73.93-3.47,1.85-5.28,2.62l0,0q-.7.28-1.41.54a9.47,9.47,0,0,1-1.38.4s0,0,0,0A7.92,7.92,0,0,0,67.62,170.66Z"/><path class="cls-3" d="M11.07,200.22c1.78-.79,3.49-1.74,5.18-2.7,1.45-.83,2.88-1.68,4.31-2.55,2.44-1.48,4.83-3.05,7.22-4.62q2.63-1.74,5.24-3.53c1.64-1.12,3.26-2.27,4.92-3.36h0c-1.29.62-2.54,1.3-3.8,2s-2.53,1.35-3.78,2c-2.21,1.2-4.42,2.42-6.59,3.71-2,1.21-4,2.47-6,3.75l-4.36,2.89c-1.24.81-2.49,1.59-3.79,2.33s-2.54,1.4-3.83,2.07c0,0,0,0,0,0C7.6,201.63,9.36,201,11.07,200.22Z"/><path class="cls-3" d="M301.81,19.07c1.89-.73,3.76-1.48,5.63-2.25.84-.34,1.67-.69,2.51-1.05.3-.12.61-.24.9-.38,1.36-.69,2.71-1.38,4-2.1s2.6-1.41,3.88-2.14c.46-.27.91-.56,1.36-.84.9-.55,1.79-1.11,2.68-1.67,2.42-1.52,4.8-3.08,7.18-4.67.88-.58,1.77-1.17,2.61-1.82h0c-.7.41-1.42.77-2.14,1.13l-2,1-4.18,2.1-3.57,1.82c-1.07.55-2.13,1.13-3.21,1.66q-2.51,1.24-5,2.56l-2.19,1.2c-.21.11-.42.23-.63.33q-4.65,2.26-9.21,4.72c-1.69.9-3.4,1.77-5.09,2.67h0C297.59,20.6,299.72,19.88,301.81,19.07Z"/><path class="cls-3" d="M306.81,9.52c1.58-.66,3.13-1.37,4.68-2.09q2.6-1.23,5.17-2.51h0c-3.7,1.4-7.41,2.8-11,4.42-2.39,1.06-4.74,2.19-7.08,3.36h0C301.33,11.71,304.09,10.66,306.81,9.52Z"/><path class="cls-3" d="M271.6,38c-2.79,1.62-5.6,3.19-8.41,4.78s-5.52,3.14-8.27,4.73c-2.54,1.47-5.11,2.9-7.65,4.38l-2.12,1.25c-.21.13-.42.26-.64.38-1.52.83-3,1.66-4.55,2.51l-2.61,1.46-1.17.67-.35.17-.94.48-2.79,1.44-2.65,1.38c-1.13.6-2.28,1.16-3.42,1.75,0,0,0,0,0,0,1.15-.46,2.29-.92,3.42-1.4l2.37-1,4.72-2.08c.3-.14.59-.3.89-.45l2.49-1.27c1.66-.85,3.32-1.7,5-2.57.85-.44,1.67-.94,2.5-1.42,1.81-1,3.61-2.12,5.4-3.19,2.5-1.5,4.94-3.06,7.4-4.61,2.2-1.4,4.41-2.81,6.6-4.23,1.61-1,3.22-2.07,4.82-3.13h0Z"/><path class="cls-3" d="M245.13,48.51c.62-.3,1.24-.6,1.85-.92,1.06-.55,2.11-1.13,3.16-1.71,2.45-1.37,4.89-2.78,7.26-4.29h0c-3.61,1.81-7.28,3.52-10.85,5.43-1.25.67-2.5,1.32-3.75,2q-2.82,1.55-5.6,3.14s0,0,0,0Q241.2,50.43,245.13,48.51Z"/><path class="cls-3" d="M127.76,133.53l6.75-3.55c1.08-.58,2.18-1.15,3.26-1.75l5.12-2.91q2.81-1.6,5.58-3.24c1.12-.66,2.22-1.36,3.32-2q4.85-3,9.61-6.16c1.26-.84,2.54-1.66,3.78-2.52l3.06-2.12,1.32-.91.49-.34c1.4-1,2.8-2,4.18-3.09s3-2.2,4.42-3.33c.7-.55,1.41-1.09,2.08-1.67h0l-.24.19h0c-.68.51-1.38,1-2.08,1.45l-2.09,1.4-4.79,3.14c-.64.42-1.27.85-1.92,1.25l-2.37,1.46c-1.34.82-2.68,1.67-4,2.47q-4.71,2.81-9.41,5.62c-1.89,1.13-3.76,2.28-5.63,3.44-1.08.67-2.17,1.3-3.25,2q-3.19,1.94-6.38,3.92c-.81.5-1.62,1-2.45,1.5-3.58,2.17-7.16,4.36-10.71,6.59l-4.18,2.57a0,0,0,0,0,0,0C123.39,135.76,125.58,134.66,127.76,133.53Z"/><path class="cls-3" d="M153.91,110.68c.64-.29,1.29-.57,1.92-.88.92-.45,1.84-.91,2.74-1.38,1.2-.61,2.37-1.26,3.54-1.92,1.47-.83,2.93-1.66,4.37-2.53h0c-1.58.77-3.17,1.52-4.76,2.28-.87.41-1.74.83-2.6,1.26l-2.54,1.21c-3.35,1.64-6.68,3.31-10,5.07,0,0,0,0,0,0C149.06,112.79,151.49,111.76,153.91,110.68Z"/><path class="cls-3" d="M201.46,82.82c2.35-1.45,4.67-2.93,7-4.44h0c-2.51,1.25-5.06,2.44-7.59,3.66s-5.07,2.48-7.58,3.77c-1.5.77-3,1.58-4.45,2.41-.74.41-1.49.78-2.23,1.18-1.69.89-3.36,1.81-5,2.75L180,93c-1.07.61-2.16,1.18-3.24,1.78,0,0,0,0,0,0,1.17-.41,2.35-.8,3.51-1.26l1.77-.72q2.77-1.14,5.52-2.34c.77-.35,1.55-.69,2.31-1.07q2.54-1.29,5-2.67C197.12,85.49,199.3,84.16,201.46,82.82Z"/><path class="cls-3" d="M256.28,273c-1,2.74-1.93,5.51-2.76,8.31q-1.34,4.56-2.58,9.15c-.6,2.22-1.19,4.43-1.76,6.65h0c1.12-3,2.33-5.9,3.49-8.86,1-2.41,1.87-4.83,2.81-7.25q1.77-4.59,3.32-9.27c.87-2.64,1.74-5.27,2.56-7.93.91-3,1.78-6,2.62-9h0q-2.62,5.55-5,11.23C258,268.38,257.12,270.68,256.28,273Z"/><path class="cls-3" d="M270.18,258.1c-.86,2.41-1.69,4.83-2.56,7.24-.41,1.12-.81,2.25-1.21,3.37q-1.94,5.44-3.76,10.94c-1.58,4.73-3.14,9.48-4.61,14.26-.82,2.64-1.59,5.3-2.35,8-.21.76-.39,1.55-.58,2.32q-.71,2.79-1.38,5.6c-.35,1.4-.68,2.81-1,4.21-.21.87-.39,1.75-.58,2.63q-.94,4.31-1.88,8.62c-.57,2.62-1.15,5.24-1.68,7.87h0c.78-2.77,1.65-5.52,2.51-8.27l2.62-8.35c.7-2.25,1.44-4.49,2.16-6.74l1.71-5.37c.2-.65.39-1.29.61-1.93q2.9-8.67,5.41-17.45c.5-1.75.95-3.51,1.42-5.26q1.46-5.56,2.82-11.15c.25-1,.49-2.05.74-3.07.58-2.46,1.09-4.95,1.61-7.42h0Z"/><path class="cls-4" d="M348.91.74A2.56,2.56,0,0,0,347.14,0a2.05,2.05,0,0,0-.65.1,8.1,8.1,0,0,0-1.35.5c-.47.23-.92.48-1.38.74s-.65.4-1,.6L340.7,3.21,336,6.06c-3.32,2-6.62,4.08-9.93,6.13-5.42,3.35-10.8,6.77-16.18,10.19Q292,33.75,274.15,45.18c-5.72,3.66-11.46,7.3-17.15,11L236.52,69.49c-2.3,1.5-4.58,3-6.86,4.56l-12.72,8.46c-1.8,1.2-3.61,2.38-5.4,3.6L201.47,93l-10.61,7.26c-1.79,1.22-3.55,2.48-5.32,3.73l-12.41,8.75c-1.77,1.24-3.54,2.47-5.29,3.73q-10.35,7.49-20.7,15c-1.75,1.26-3.47,2.55-5.19,3.83l-12.11,9c-5.44,4-10.85,8.1-16.27,12.16-5.58,4.19-11.2,8.35-16.81,12.5-2.37,1.75-4.72,3.53-7.11,5.25L79,181.85c-2.13,1.53-4.26,3.06-6.4,4.56l-11.09,7.75c-1,.71-2,1.39-3.06,2.08l-7.35,4.95c-2.9,2-5.87,3.83-8.87,5.66q-3.91,2.39-8,4.51c-1.29.68-2.59,1.33-3.9,2s-2.53,1.23-3.81,1.79l-.15-.1a2.08,2.08,0,0,0-1.17-.35A2.59,2.59,0,0,0,23,215.89a2.41,2.41,0,0,0-.25,1.89,2.56,2.56,0,0,0,1.13,1.47c3.27,2.2,6.54,4.41,9.73,6.74l1.92,1.48-.29-.22c1.46,1.12,2.91,2.26,4.36,3.38,3.45,2.67,7,5.26,10.45,7.89,3.21,2.43,6.5,4.74,9.82,7,3.54,2.41,7.09,4.79,10.6,7.25s6.68,4.85,10.11,7.15c3,2,6,3.95,9,6,1.39,1,2.77,1.93,4.17,2.87a47.59,47.59,0,0,0,4.14,2.57c1.49,4.09,3.14,8.11,4.91,12.09,1.68,3.78,3.67,7.42,5.54,11.12.87,1.73,1.69,3.48,2.52,5.23.91,1.9,1.83,3.8,2.68,5.72s1.75,3.9,2.65,5.84,1.77,3.69,2.65,5.53c1.29,2.68,2.47,5.4,3.64,8.12,1.27,3,2.5,6,3.59,9.13a82.53,82.53,0,0,0,4.08,10,1.94,1.94,0,0,0,.67.75,2.37,2.37,0,0,0,1,1.51,1.82,1.82,0,0,0,1.11.38l.78-.11a3.6,3.6,0,0,0,.69-.32l.36-.28.49-.4c.24-.2.45-.43.67-.65l.48-.51,1.05-1.14c.67-.75,1.34-1.49,2-2.23,1.37-1.5,2.75-3,4.18-4.47s3-3,4.5-4.54,2.81-3,4.15-4.58,2.54-3.07,3.8-4.6,2.6-3.22,3.83-4.88c.8-1.09,1.56-2.21,2.32-3.32,1.4,1.1,2.8,2.21,4.23,3.28,1.62,1.22,3.26,2.4,4.9,3.59,3.47,2.51,6.93,5,10.41,7.51,1.73,1.24,3.47,2.44,5.21,3.66s3.19,2.25,4.83,3.29,3.47,2.17,5.22,3.24,3.44,2.19,5.21,3.22a78.83,78.83,0,0,0,7,3.72c1.14.51,2.26,1.05,3.4,1.56.54.24,1.07.5,1.62.74.39.17.8.35,1.22.49l.39.11a4.38,4.38,0,0,0,.8.1,2.57,2.57,0,0,0,1.24-.35,2.14,2.14,0,0,0,1-1.33,2.21,2.21,0,0,0-.11-1.48c1.59-3,3-6.1,4.4-9.21,1.55-3.46,3.07-6.93,4.52-10.43q4.45-10.79,8.77-21.63c2.6-6.57,5.14-13.15,7.8-19.69q2.4-5.89,4.81-11.79c1.59-3.93,3.26-7.83,4.89-11.74,1.16-2.76,2.3-5.51,3.44-8.28l3.12-7.56c.48-1.17,1-2.35,1.45-3.53q2.42-6.06,4.82-12.13c1.07-2.68,2.11-5.38,3.13-8.08l4.53-12c.46-1.23.87-2.47,1.3-3.71l2.7-7.7c.95-2.71,1.9-5.42,2.82-8.14L286,176.52c4.62-13.77,9.23-27.55,14-41.27,1.1-3.15,2.17-6.32,3.34-9.45q2.22-6,4.45-12c.58-1.54,1.23-3.06,1.84-4.59l2.91-7.3c1.3-3.25,2.63-6.49,3.95-9.73C322,78.65,327.21,65,332.56,51.38q2.18-5.52,4.29-11.05c.6-1.55,1.24-3.09,1.78-4.66L341,28.93c.55-1.6,1-3.22,1.52-4.84s1-3.4,1.51-5.12c.89-3.19,1.71-6.4,2.49-9.63.23-.25.46-.5.7-.74a10.92,10.92,0,0,0,1.74-2.16,2.25,2.25,0,0,0,.17-1.79c.14-.31.27-.62.39-.94s.11-.8.15-1.21A2.35,2.35,0,0,0,348.91.74ZM91,260.12c-3.45-2.25-6.94-4.44-10.32-6.79-3.59-2.5-7.15-5-10.79-7.46-3.34-2.22-6.72-4.4-10-6.66-1.73-1.18-3.46-2.35-5.15-3.58s-3.59-2.62-5.38-3.93c-3.26-2.38-6.5-4.78-9.7-7.23-1.93-1.49-3.85-3-5.86-4.39l-4.21-2.87,2.33-1.11q3.66-1.77,7.21-3.73c2.11-1.16,4.19-2.4,6.25-3.66,1-.63,2-1.27,3.07-1.92.86-.54,1.73-1.07,2.58-1.63L61.3,198.3c2.49-1.65,4.94-3.38,7.4-5.08,2.66-1.84,5.34-3.64,8-5.52L87.55,180c2-1.42,4-2.84,6-4.28,5.68-4.17,11.39-8.3,17-12.51,5.88-4.37,11.73-8.77,17.63-13.1L148,135.5c1.9-1.4,3.84-2.76,5.76-4.13l12.39-8.88c1.69-1.21,3.38-2.44,5.09-3.64l10.64-7.42,9.95-7c1.92-1.35,3.88-2.64,5.82-4q6.27-4.24,12.53-8.5c1.64-1.1,3.26-2.22,4.9-3.3l22.05-14.54c5.63-3.72,11.33-7.33,17-11C265.25,56,276.45,49,287.64,41.87q19.22-12.15,38.5-24.17c2.4-1.49,4.8-3,7.22-4.41l-1.11,1.05c-2,1.88-3.89,3.82-5.87,5.69-1.05,1-2.14,2-3.22,2.95s-2.06,1.93-3.09,2.91c-4.19,4-8.1,8.23-12.08,12.41s-7.79,8.23-11.59,12.44q-2.77,3.07-5.57,6.13c-2,2.23-4.06,4.44-6.15,6.58-3.93,4-7.91,8-11.84,12-4.17,4.27-8.37,8.52-12.52,12.81-1.93,2-3.8,4.07-5.67,6.14s-3.71,4.15-5.63,6.15c-4,4.13-8,8.21-11.92,12.39S229,121.64,225,126q-3,3.22-6,6.44c-1.93,2.08-3.83,4.18-5.73,6.28-3.71,4.07-7.53,8-11.24,12.12-4.06,4.47-8,9-12,13.6-3.7,4.29-7.53,8.47-11.34,12.65s-7.83,8.69-11.76,13c-1.84,2-3.72,4-5.6,6s-3.8,4-5.66,6.09c-4,4.47-8,9-12.1,13.44-1.9,2.07-3.83,4.12-5.74,6.18s-3.8,4.19-5.67,6.31-3.78,4.3-5.7,6.43-4,4.31-6,6.45-3.67,4.06-5.49,6.11c-2,2.23-4,4.4-6,6.58l-4.76,5.14c-.9,1-1.81,1.95-2.69,2.94-.68.76-1.34,1.52-2,2.33-.31.41-.61.84-.89,1.27l-.32-.22L96,263.51C94.36,262.36,92.72,261.22,91,260.12Zm34.82,58.44c-1.78-3.83-3.74-7.59-5.6-11.38-.88-1.8-1.72-3.61-2.61-5.41s-1.81-3.6-2.73-5.4c-1.72-3.35-3.52-6.65-5.3-10s-3.21-6.42-4.65-9.72c-.41-1-.84-2-1.22-3-.49-1.3-1-2.61-1.45-3.92a2.72,2.72,0,0,0,0-1.17L102,268a2.42,2.42,0,0,0-.27-.36c.24-.4.5-.78.77-1.16,1-1.27,2.12-2.46,3.24-3.63s2.15-2.28,3.23-3.41c1.82-1.94,3.66-3.87,5.47-5.82,2.09-2.25,4.14-4.52,6.19-6.8,1.78-2,3.64-3.92,5.47-5.86q3-3.15,5.83-6.38c1.89-2.13,3.76-4.29,5.68-6.39s3.84-4.19,5.77-6.26,4.06-4.33,6-6.54c4-4.37,7.88-8.77,11.91-13.08,1.82-1.94,3.65-3.86,5.47-5.81q3.14-3.37,6.25-6.78c1.92-2.11,3.83-4.25,5.75-6.36s3.66-4,5.5-6,3.9-4.22,5.8-6.38,3.94-4.5,5.91-6.76q5.79-6.63,11.82-13.06c1.85-2,3.72-3.95,5.57-5.94s3.71-4,5.56-6c4-4.38,8.08-8.72,12.13-13.07s8-8.6,12-12.85c2-2.07,4-4.12,6-6.17s3.95-4.16,5.9-6.28,3.68-4.09,5.52-6.13,3.82-4.12,5.78-6.13q6.28-6.43,12.57-12.89c4-4,8-8,11.88-12.16s7.74-8.54,11.6-12.82S310.08,42.23,314,38c1.87-2,3.74-4,5.66-5.95.53-.54,1.07-1.06,1.6-1.59-1.93,2.3-3.78,4.68-5.61,7.06s-3.83,5-5.72,7.56-3.6,4.81-5.44,7.2q-3,3.84-5.78,7.76-1.79,2.49-3.63,4.9c-1.3,1.62-2.6,3.23-3.85,4.88s-2.47,3.29-3.69,5c-2.34,3.19-4.73,6.33-7.14,9.47q-2.78,3.57-5.56,7.15c-1.86,2.39-3.75,4.75-5.65,7.11C265,103.65,261,108.79,257,114q-5.71,7.6-11.49,15.13-5.66,7.37-11.08,14.89c-1.55,2.14-3.08,4.29-4.62,6.43q-2.54,3.48-5.12,6.92-2.93,3.78-5.87,7.54c-1.84,2.36-3.68,4.72-5.48,7.11-4,5.23-7.87,10.49-11.81,15.73-1.68,2.25-3.37,4.49-5,6.77q-3,4.2-6,8.45c-3.43,4.93-6.82,9.88-10.23,14.81-3.75,5.43-7.47,10.88-11.24,16.28-3.54,5.05-7.08,10.1-10.55,15.19-1.71,2.51-3.4,5-5.14,7.52s-3.62,5-5.43,7.55c-3.52,4.88-7,9.74-10.39,14.73-1.25,1.86-2.52,3.7-3.78,5.55-.36.53-.75,1-1.14,1.54l-.25,0a2.24,2.24,0,0,0-2,1.11l0,0a3.49,3.49,0,0,0-.44.2,2.16,2.16,0,0,0-.8.87l-.3.69a4.13,4.13,0,0,0-.15.5,8.74,8.74,0,0,0-.17.89c-.09.46-.17.93-.26,1.4a1.81,1.81,0,0,0,.17,1.31,1.71,1.71,0,0,0,1,.78l.24.05c0,.79,0,1.57,0,2.36,0,2.1,0,4.2-.05,6.3q-.07,6.12,0,12.22c0,4.18.09,8.35.21,12.52,0,.36,0,.71,0,1.06C128.75,325.09,127.37,321.79,125.86,318.56Zm26.6,2.35c-1.28,1.54-2.51,3.13-3.79,4.68s-2.56,3-3.9,4.42c-2,2.15-4.07,4.3-6,6.51-1,1.09-1.94,2.19-2.91,3.29l-1.31,1.5,0,.05v-.23c0-1,0-2,.05-3,0-2,0-4,.06-6,0-4.08.09-8.16.13-12.24s.08-8.17,0-12.25c0-4.28-.11-8.56-.39-12.83-.07-1-.17-1.92-.32-2.87l.12.07c.82.52,1.61,1.08,2.4,1.65,3.19,2.48,6.27,5.09,9.29,7.77,1.45,1.29,2.85,2.63,4.31,3.91.88.77,1.76,1.53,2.66,2.28s1.87,1.44,2.8,2.15,1.93,1.4,2.89,2.1c.28.2.55.41.82.62C157.1,315.35,154.78,318.13,152.46,320.91ZM338.64,22l-1.23,3.89c-.49,1.58-1.07,3.14-1.62,4.7s-1.05,3.1-1.64,4.62c-1.36,3.5-2.71,7-4.1,10.49q-4.19,10.51-8.33,21.06-2,5.08-4,10.16c-1.37,3.42-2.71,6.85-4.11,10.26L308.74,99c-1.59,3.88-3.13,7.78-4.7,11.67-1.28,3.18-2.45,6.4-3.65,9.61-1.14,3-2.28,6.08-3.36,9.15-1.35,3.84-2.73,7.66-4,11.51l-4.28,12.48c-2.36,6.89-4.67,13.8-7,20.7L278,185c-.94,2.8-1.88,5.6-2.86,8.39l-4.91,13.95c-1,2.94-2.18,5.84-3.29,8.76-1.21,3.19-2.37,6.4-3.64,9.57l-5.29,13.26c-1.13,2.83-2.31,5.64-3.47,8.45-1.38,3.32-2.74,6.64-4.13,10q-2.73,6.49-5.45,13c-1.29,3.07-2.54,6.16-3.8,9.24s-2.54,6.19-3.77,9.3q-2.07,5.22-4.15,10.43c-1.76,4.4-3.51,8.81-5.3,13.2q-2.56,6.27-5.18,12.5l-2.24,5.18c-.67,1.54-1.38,3.05-2.08,4.58-1.26,2.77-2.65,5.49-3.83,8.3l-1.29-.7c-.86-.47-1.74-.9-2.6-1.36s-1.68-1-2.5-1.44c-3.52-2.09-6.93-4.34-10.39-6.52-1.64-1-3.28-2.07-4.86-3.18s-3.44-2.43-5.15-3.65c-3.37-2.42-6.72-4.88-10.1-7.29s-7-4.87-10.38-7.41c-1.62-1.2-3.21-2.46-4.87-3.6-1.82-1.26-3.65-2.49-5.46-3.77-.65-.47-1.29-.95-1.93-1.44-3.21-2.61-6.3-5.35-9.57-7.88-1.75-1.36-3.48-2.75-5.27-4.06-.91-.67-1.82-1.32-2.75-2-.49-.34-1-.64-1.5-.94.89-1.18,1.72-2.39,2.56-3.61,1.64-2.37,3.23-4.78,4.9-7.13,3.7-5.17,7.49-10.28,11.29-15.38,3.57-4.8,6.92-9.76,10.35-14.66,3.54-5.05,7.17-10,10.7-15.1l11.27-16.15,5.47-7.86c1.61-2.3,3.2-4.62,4.84-6.9s3.12-4.36,4.73-6.5l5.46-7.26c3.25-4.29,6.48-8.6,9.73-12.89,1.73-2.23,3.44-4.47,5.18-6.68l3.06-3.9c1.05-1.36,2.13-2.7,3.17-4.08s1.91-2.51,2.84-3.78l3.27-4.49q2.63-3.63,5.24-7.25c2.95-4.05,6-8.05,9-12q6.78-8.73,13.46-17.52c1.79-2.31,3.58-4.61,5.43-6.88q3.12-3.84,6.28-7.67c3.92-4.78,7.71-9.67,11.53-14.53,3.35-4.28,6.55-8.66,9.84-13,1.9-2.41,3.86-4.79,5.67-7.28s3.74-5.23,5.68-7.8c1.79-2.38,3.62-4.73,5.4-7.12,1.95-2.61,3.87-5.24,5.83-7.84,1.43-1.92,2.88-3.82,4.33-5.72.88-1.13,1.77-2.25,2.68-3.34s2-2.26,3-3.38c2-2.26,4.11-4.48,6.13-6.76,1-1.13,2-2.28,2.93-3.45s1.91-2.26,2.87-3.39l.2-.24c-.37,1.33-.77,2.65-1.15,4C339,20.86,338.82,21.45,338.64,22Z"/><path class="cls-4" d="M40.08,231l-.49-.38h0Z"/><path class="cls-3" d="M139.45,368.43a40.9,40.9,0,0,0,.53,5.85,27.88,27.88,0,0,0,2,6.57,35,35,0,0,0,2.61,4.72c.47.74,1.06,1.43,1.6,2.13s.95,1.13,1.45,1.68a31.54,31.54,0,0,0,3.41,3.23h0c-.73-1.34-1.38-2.73-2-4.11-.31-.65-.64-1.28-.92-1.94s-.7-1.57-1.07-2.35c-.61-1.46-1.28-2.89-2-4.32-.93-1.95-2-3.83-2.92-5.78s-1.78-3.79-2.69-5.68h0Z"/><path class="cls-3" d="M164.16,412.06c1.59,2.26,3.29,4.44,5.08,6.55a59.87,59.87,0,0,0,4.28,4.45,27.67,27.67,0,0,0,2.19,1.84c.79.63,1.58,1.25,2.41,1.83q2.63,1.84,5.39,3.51c1.37.83,2.76,1.64,4.15,2.44h0c-2.58-2.89-5.18-5.76-8-8.45a87.93,87.93,0,0,0-8.76-7.36c-2.19-1.7-4.46-3.29-6.77-4.82h0ZM171,417l.13.1L171,417Z"/><path class="cls-3" d="M213.79,445.06A54.75,54.75,0,0,0,221,449.8a32.59,32.59,0,0,0,5.15,2.32,49.89,49.89,0,0,0,11.67,2.29h0c-1.63-.95-3.22-2-4.84-3a52,52,0,0,0-5.49-2.86,49.18,49.18,0,0,0-13.71-3.53h0Z"/><path class="cls-3" d="M281.16,455.25a79.12,79.12,0,0,1-12.41.24h0a34.08,34.08,0,0,0,7.21,2.39,23.28,23.28,0,0,0,3.53.41,20.65,20.65,0,0,0,3.68-.26c1.06-.15,2.11-.39,3.16-.64,3.32-.77,6.57-1.85,9.8-2.93,0,0,0,0,0,0-1.07-.06-2.14-.08-3.21-.08a87.28,87.28,0,0,0-11.75.87Z"/><path class="cls-3" d="M343,430.48c-1.75,1.14-3.48,2.31-5.14,3.58l.05,0c-.79.6-1.55,1.23-2.3,1.86s-1.43,1.35-2.12,2.05a55.81,55.81,0,0,0-4.09,4.74l.06-.06c-.28.35-.55.71-.83,1.07h0a27.87,27.87,0,0,0,8.83-5.69,30.1,30.1,0,0,0,2.92-3.55c.94-1.27,1.8-2.6,2.62-3.95h0Z"/><path class="cls-3" d="M363,390.41c-.29,1.43-.6,2.85-.84,4.29s-.41,2.76-.54,4.15c-.14,1.56-.21,3.12-.21,4.69a53.6,53.6,0,0,1-.1,5.67,7.93,7.93,0,0,1-.51,1.91c-.37.81-.82,1.6-1.24,2.39h0l.83-1.24a11.17,11.17,0,0,0,1.14-1.95,21,21,0,0,0,1-4.7c.22-1.59.42-3.19.57-4.79a37.87,37.87,0,0,0-.14-10.42Z"/><path class="cls-3" d="M336.57,356.72l.21.15h0a1.33,1.33,0,0,1,.35.36l0,0c.68,1,1.2,2.16,1.79,3.25.38.69.77,1.36,1.17,2a36,36,0,0,0,3.05,4.41l-.17-.23a39.21,39.21,0,0,0,9.13,8.2h0a39.34,39.34,0,0,0-2.93-6.68,25.13,25.13,0,0,0-3-4.43,28.68,28.68,0,0,0-3.55-3.33c-.8-.63-1.61-1.25-2.44-1.84-.47-.34-1-.66-1.45-1a4.67,4.67,0,0,0-2.12-.88,0,0,0,0,0,0,0Z"/><path class="cls-3" d="M309,353.64a12.29,12.29,0,0,0-3.53,1.94,19.81,19.81,0,0,0-3.89,4.08,15.08,15.08,0,0,0-1.44,2.28h0a23.79,23.79,0,0,1,2.73-1.68c2.3-1.25,4.68-2.29,7.08-3.33a18.9,18.9,0,0,1,4.27-1.4,45.77,45.77,0,0,1,4.83,0h0a17.49,17.49,0,0,0-2.82-1.68,8.94,8.94,0,0,0-3.44-.85h-.26a11.83,11.83,0,0,0-3.54.64Z"/><path class="cls-3" d="M287.07,384a51.65,51.65,0,0,0-3.9,8,17.14,17.14,0,0,0-.87,3.68,14.32,14.32,0,0,0,0,4.48,10.84,10.84,0,0,0,1,2.76,12.58,12.58,0,0,0,1,1.82h0c-.12-.5-.21-1-.29-1.48s-.07-.71-.11-1.07a11.78,11.78,0,0,1,0-2.72,30.86,30.86,0,0,1,.73-3.13q.44-1.6.81-3.24c.18-.77.38-1.54.54-2.31a65,65,0,0,0,1-6.81Z"/><path class="cls-3" d="M293,429.91a44.13,44.13,0,0,0,1.14,5.22c.15.52.34,1,.52,1.53a16.35,16.35,0,0,0,.85,2.09,27.87,27.87,0,0,0,4.82,6.73h0c-.34-.71-.65-1.42-1-2.14-.19-.46-.39-.91-.58-1.37s-.48-1.15-.74-1.71c-.3-.79-.62-1.58-1-2.35-.47-1.14-1-2.24-1.57-3.35-.76-1.59-1.62-3.13-2.5-4.65h0Z"/><path class="cls-3" d="M326.58,477.12a36.36,36.36,0,0,0,6.22,9.58,56.36,56.36,0,0,0,7.07,6,0,0,0,0,0,0,0,59.79,59.79,0,0,0-4.7-7.84,34,34,0,0,0-8.59-7.75h0Z"/><path class="cls-3" d="M364,517.16a62.46,62.46,0,0,0,9.72,10.94,104.86,104.86,0,0,0,10.33,7.45h0a65.84,65.84,0,0,0-7.95-9.59,44.27,44.27,0,0,0-4.39-3.72,70.25,70.25,0,0,0-7.71-5.08h0Z"/></g></g></svg>