<svg xmlns="http://www.w3.org/2000/svg" xmlns:xlink="http://www.w3.org/1999/xlink" viewBox="0 0 336 264.91"><defs><style>.cls-1{fill:none;}.cls-2{fill:#322a89;}.cls-3{fill:#f37874;}.cls-4{fill:#3d3aa3;}.cls-5{fill:#d1d2ec;}.cls-6{fill:#c5c8ee;}.cls-7{fill:#acaff1;}.cls-8{fill:#5654d6;}.cls-9{fill:#e93f57;}.cls-10{fill:#4d4bcf;}.cls-11{isolation:isolate;}.cls-12{fill:#f3566c;}.cls-13{fill:#e6e6f0;}.cls-14{clip-path:url(#clip-path);}.cls-15{clip-path:url(#clip-path-2);}.cls-16{clip-path:url(#clip-path-3);}.cls-17{clip-path:url(#clip-path-4);}.cls-18{clip-path:url(#clip-path-5);}.cls-19{clip-path:url(#clip-path-6);}.cls-20{clip-path:url(#clip-path-7);}.cls-21{fill:#ded0c8;}.cls-22{clip-path:url(#clip-path-8);}.cls-23{fill:#7977ed;}.cls-24{clip-path:url(#clip-path-9);}.cls-25{clip-path:url(#clip-path-10);}.cls-26{clip-path:url(#clip-path-11);}.cls-27{fill:#6462dc;}.cls-28{clip-path:url(#clip-path-12);}.cls-29{clip-path:url(#clip-path-13);}.cls-30{fill:#e7a07d;}.cls-31{fill:#e8e9ee;}.cls-32{fill:#f3b69a;}.cls-33{fill:#f3bda5;}.cls-34{fill:#130e9c;}.cls-35{fill:#46393d;}.cls-36{clip-path:url(#clip-path-14);}.cls-37{clip-path:url(#clip-path-15);}.cls-38{clip-path:url(#clip-path-16);}.cls-39{clip-path:url(#clip-path-17);}.cls-40{clip-path:url(#clip-path-18);}.cls-41{clip-path:url(#clip-path-19);}.cls-42{clip-path:url(#clip-path-20);}.cls-43{clip-path:url(#clip-path-21);}.cls-44{clip-path:url(#clip-path-22);}.cls-45{clip-path:url(#clip-path-23);}.cls-46{fill:#dcddf0;}.cls-47{clip-path:url(#clip-path-24);}.cls-48{clip-path:url(#clip-path-25);}.cls-49{clip-path:url(#clip-path-26);}.cls-50{clip-path:url(#clip-path-27);}.cls-51{clip-path:url(#clip-path-28);}.cls-52{clip-path:url(#clip-path-29);}.cls-53{clip-path:url(#clip-path-30);}.cls-54{clip-path:url(#clip-path-31);}.cls-55{clip-path:url(#clip-path-32);}.cls-56{clip-path:url(#clip-path-33);}.cls-57{clip-path:url(#clip-path-34);}.cls-58{clip-path:url(#clip-path-35);}.cls-59{clip-path:url(#clip-path-36);}.cls-60{fill:#f36379;}.cls-61{clip-path:url(#clip-path-37);}.cls-62{clip-path:url(#clip-path-38);}.cls-63{clip-path:url(#clip-path-39);}.cls-64{clip-path:url(#clip-path-40);}.cls-65{clip-path:url(#clip-path-41);}.cls-66{clip-path:url(#clip-path-42);}.cls-67{clip-path:url(#clip-path-43);}.cls-68{clip-path:url(#clip-path-44);}.cls-69{clip-path:url(#clip-path-45);}.cls-70{clip-path:url(#clip-path-46);}.cls-71{fill:#e9dfd8;}.cls-72{fill:#181060;}.cls-73{fill:#fff;}.cls-74{clip-path:url(#clip-path-47);}.cls-75{clip-path:url(#clip-path-48);}.cls-76{clip-path:url(#clip-path-49);}.cls-77{clip-path:url(#clip-path-50);}.cls-78{clip-path:url(#clip-path-51);}.cls-79{clip-path:url(#clip-path-52);}.cls-80{clip-path:url(#clip-path-53);}.cls-81{clip-path:url(#clip-path-54);}.cls-82{clip-path:url(#clip-path-55);}.cls-83{clip-path:url(#clip-path-56);}.cls-84{clip-path:url(#clip-path-57);}.cls-85{clip-path:url(#clip-path-58);}.cls-86{clip-path:url(#clip-path-59);}.cls-87{clip-path:url(#clip-path-60);}.cls-88{clip-path:url(#clip-path-61);}.cls-89{clip-path:url(#clip-path-62);}.cls-90{clip-path:url(#clip-path-63);}.cls-91{clip-path:url(#clip-path-64);}.cls-92{clip-path:url(#clip-path-65);}.cls-93{fill:#817d84;}.cls-94{fill:#a5a0a8;}.cls-95{fill:#9f9ba3;}.cls-96{clip-path:url(#clip-path-66);}.cls-97{clip-path:url(#clip-path-67);}.cls-98{fill:#6a666c;}.cls-99{fill:#78747a;}.cls-100{clip-path:url(#clip-path-68);}.cls-101{clip-path:url(#clip-path-69);}.cls-102{clip-path:url(#clip-path-70);}.cls-103{clip-path:url(#clip-path-71);}.cls-104{clip-path:url(#clip-path-72);}.cls-105{clip-path:url(#clip-path-73);}.cls-106{clip-path:url(#clip-path-74);}.cls-107{clip-path:url(#clip-path-75);}.cls-108{clip-path:url(#clip-path-76);}.cls-109{clip-path:url(#clip-path-77);}.cls-110{fill:#bfb7c4;}.cls-111{clip-path:url(#clip-path-78);}.cls-112{clip-path:url(#clip-path-79);}.cls-113{clip-path:url(#clip-path-80);}</style><clipPath id="clip-path" transform="translate(0 0)"><path class="cls-1" d="M164.73,55.43,285,125.35c2.72,1.58,4.42,4.94,4.43,9.72,0,10.69-7.52,23.75-16.82,29.12L152.34,94.28c9.3-5.37,16.85-18.44,16.82-29.13C169.14,60.38,167.45,57,164.73,55.43Z"/></clipPath><clipPath id="clip-path-2" transform="translate(0 0)"><path class="cls-1" d="M165,55l120.32,69.92c-2.83-1.64-6.73-1.41-11,1.07L153.94,56.08C158.24,53.6,162.15,53.37,165,55Z"/></clipPath><clipPath id="clip-path-3" transform="translate(0 0)"><path class="cls-1" d="M260.32,150.13,140,80.22c0-8.86,6.23-19.69,13.94-24.14L274.25,126C266.54,130.45,260.29,141.27,260.32,150.13Z"/></clipPath><clipPath id="clip-path-4" transform="translate(0 0)"><path class="cls-1" d="M166.44,219.76,46.12,149.84c3.07,1.78,7.32,1.53,12-1.17l120.32,69.92C173.76,221.29,169.51,221.54,166.44,219.76Z"/></clipPath><clipPath id="clip-path-5" transform="translate(0 0)"><path class="cls-1" d="M166.19,220.18,45.88,150.26c-3.09-1.8-5-5.62-5-11l120.32,69.92C161.18,214.56,163.1,218.38,166.19,220.18Z"/></clipPath><clipPath id="clip-path-6" transform="translate(0 0)"><path class="cls-6" d="M103.81,154.73l8.46,2.28a1.59,1.59,0,0,0-1.63.15l-7.32-2.38A.5.5,0,0,1,103.81,154.73Z"/></clipPath><clipPath id="clip-path-7" transform="translate(0 0)"><path class="cls-6" d="M109,162.57l-6.16-6.17a.46.46,0,0,1-.2-.44,1.49,1.49,0,0,1,.69-1.18l7.32,2.38a5,5,0,0,0-2.3,3.94A1.6,1.6,0,0,0,109,162.57Z"/></clipPath><clipPath id="clip-path-8" transform="translate(0 0)"><path class="cls-10" d="M112.26,157l57.94,34.09a1.61,1.61,0,0,0-1.63.14l-57.94-34.08A1.63,1.63,0,0,1,112.26,157Z"/></clipPath><clipPath id="clip-path-9" transform="translate(0 0)"><path class="cls-10" d="M166.93,196.66,109,162.57a1.59,1.59,0,0,1-.67-1.47,5.08,5.08,0,0,1,2.31-3.95l57.94,34.08a5,5,0,0,0-2.3,4A1.59,1.59,0,0,0,166.93,196.66Z"/></clipPath><clipPath id="clip-path-10" transform="translate(0 0)"><path class="cls-2" d="M170.21,191.08l7.08,4.17a1.63,1.63,0,0,0-1.63.15l-7.09-4.16A1.63,1.63,0,0,1,170.21,191.08Z"/></clipPath><clipPath id="clip-path-11" transform="translate(0 0)"><path class="cls-2" d="M174,200.82l-7.08-4.17a1.57,1.57,0,0,1-.66-1.47,5,5,0,0,1,2.3-3.94l7.09,4.16a5,5,0,0,0-2.31,3.95A1.6,1.6,0,0,0,174,200.82Z"/></clipPath><clipPath id="clip-path-12" transform="translate(0 0)"><path class="cls-3" d="M177.37,195.7l2.49,1.47a1.44,1.44,0,0,0-1.45.13l-2.49-1.46A1.42,1.42,0,0,1,177.37,195.7Z"/></clipPath><clipPath id="clip-path-13" transform="translate(0 0)"><path class="cls-3" d="M177,202.1l-2.49-1.46a1.44,1.44,0,0,1-.58-1.3,4.45,4.45,0,0,1,2-3.5l2.49,1.46a4.5,4.5,0,0,0-2,3.5A1.42,1.42,0,0,0,177,202.1Z"/></clipPath><clipPath id="clip-path-14" transform="translate(0 0)"><path class="cls-1" d="M67.78,199.73v-1.52A2.08,2.08,0,0,0,69,199.94l.2.11v1.52l-.2-.11A2.08,2.08,0,0,1,67.78,199.73Z"/></clipPath><clipPath id="clip-path-15" transform="translate(0 0)"><path class="cls-1" d="M91.89,202.49V204a3.54,3.54,0,0,1-2.07,2.89,11.12,11.12,0,0,1-9.72.18v-1.51a11.18,11.18,0,0,0,9.73-.19A3.51,3.51,0,0,0,91.89,202.49Z"/></clipPath><clipPath id="clip-path-16" transform="translate(0 0)"><path class="cls-4" d="M64.74,186.39,77.86,194a1.27,1.27,0,0,0-1.28.13l-13.13-7.63A1.26,1.26,0,0,1,64.74,186.39Z"/></clipPath><clipPath id="clip-path-17" transform="translate(0 0)"><path class="cls-4" d="M75.3,198.41l-13.12-7.62a1.3,1.3,0,0,1-.53-1.16,4,4,0,0,1,1.8-3.12l13.13,7.63a3.93,3.93,0,0,0-1.8,3.11A1.27,1.27,0,0,0,75.3,198.41Z"/></clipPath><clipPath id="clip-path-18" transform="translate(0 0)"><path class="cls-5" d="M72.41,198l2.76-.79a.25.25,0,0,0,0,.07l-2.5.71A.5.5,0,0,0,72.41,198Z"/></clipPath><clipPath id="clip-path-19" transform="translate(0 0)"><path class="cls-6" d="M75.21,197.24c1.41,1.44,3.28,3.37,4.58,4.91.65.76,1.49,1.8,2.11,2.59s1.48,1.94,2.08,2.8c1,1.49,2.38,3.52,3.37,5.05.56.88,1.27,2.08,1.81,3s1.19,2,1.69,2.9c.92,1.63,2.14,3.81,3.05,5.45,1.5,2.7,1.73,3.12,3.16,5.63.46.82,1.08,1.91,1.57,2.71s1.16,1.94,1.67,2.76l1.65,2.56c.5.77,1.2,1.78,1.73,2.53,1.21,1.73,2.82,3.82,4.2,5.45.57.67,1.34,1.55,1.94,2.2.79.85,1.88,2,2.71,2.78a.63.63,0,0,0-.34-.18c-16.8-16.33-20.33-36.79-37.07-53C75.15,197.23,75.18,197.22,75.21,197.24Z"/></clipPath><clipPath id="clip-path-20" transform="translate(0 0)"><path class="cls-7" d="M112.39,253.37l-4.92,1.41c-.09,0-.15-.37-.15-1l5.66-1.62C113,252.79,112.73,253.28,112.39,253.37Z"/></clipPath><clipPath id="clip-path-21" transform="translate(0 0)"><path class="cls-6" d="M107.44,254.77c-1.38-1.42-3.22-3.34-4.48-4.87-.63-.76-1.44-1.8-2-2.6s-1.46-2-2-2.9c-1-1.45-2.15-3.43-3-4.92-.55-.93-1.22-2.2-1.73-3.14-1.22-2.24-3.46-6.81-4.3-8.53-1.43-2.95-1.55-3.19-2.85-5.78-.42-.82-1-1.91-1.41-2.72s-1.07-2-1.55-2.82-1-1.76-1.47-2.52-1.09-1.74-1.57-2.48-1.29-1.92-1.87-2.71-1.55-2.07-2.25-2.92c-.53-.65-1.24-1.5-1.81-2.11-.81-.89-1.91-2-2.76-2.89a1.87,1.87,0,0,1-.46-1.3c17.07,16.58,18.44,37.66,35.5,54.23A2.29,2.29,0,0,0,107.44,254.77Z"/></clipPath><clipPath id="clip-path-22" transform="translate(0 0)"><path class="cls-7" d="M113,251.83v.34l-5.66,1.62v-.34Z"/></clipPath><clipPath id="clip-path-23" transform="translate(0 0)"><path class="cls-6" d="M107.32,253.45v.34c-17.06-16.57-18.43-37.65-35.5-54.23v-.33C88.89,215.8,90.26,236.88,107.32,253.45Z"/></clipPath><clipPath id="clip-path-24" transform="translate(0 0)"><path class="cls-7" d="M112.19,250.35c.44.07.79.74.79,1.48l-5.66,1.62a5.66,5.66,0,0,1,.22-1.77Z"/></clipPath><clipPath id="clip-path-25" transform="translate(0 0)"><path class="cls-6" d="M107.54,251.68a5.66,5.66,0,0,0-.22,1.77c-17.06-16.57-18.43-37.65-35.5-54.22,0-.75.36-1.29.8-1.22C89.43,214.35,90.8,235.43,107.54,251.68Z"/></clipPath><clipPath id="clip-path-26" transform="translate(0 0)"><path class="cls-5" d="M77.68,192.12l1.09-.68,1.06-.67v.08L77.94,192A.5.5,0,0,0,77.68,192.12Z"/></clipPath><clipPath id="clip-path-27" transform="translate(0 0)"><path class="cls-5" d="M79.83,190.77c.2.13.47.3,1,.62l.6.35.64.37,1.65.94c.86.46,1.59.87,2.56,1.36,1.15.6,3.85,2,8,3.85,2.25,1,4.08,1.76,4.68,2,2.14.88,3.93,1.59,4.8,1.93,1.31.51,3.41,1.32,4.88,1.87,4,1.49,6.93,2.56,6.94,2.56l5,1.81,5,1.81c2.95,1.08,4.6,1.7,5.92,2.2.93.35,2.81,1.07,4.86,1.88,1.15.46,2.91,1.16,4.77,1.94A139.66,139.66,0,0,1,157.07,224a.13.13,0,0,0-.12,0,145.84,145.84,0,0,0-17.79-8.49c-6.34-2.59-13-5-19.62-7.41s-13.3-4.82-19.66-7.42A149.6,149.6,0,0,1,82,192.12c-.86-.5-1.71-1-2.12-1.27Z"/></clipPath><clipPath id="clip-path-28" transform="translate(0 0)"><path class="cls-5" d="M157.07,224l.76.44.48.28.65.4.38.23a.45.45,0,0,0-.25-.07c-.46-.29-1.29-.79-2.14-1.28A.13.13,0,0,1,157.07,224Z"/></clipPath><clipPath id="clip-path-29" transform="translate(0 0)"><path class="cls-5" d="M155.57,230.61c-1.08-.68-2.36-1.42-2.36-1.42l-1.12-.64-.82-.46c-.63-.35-2.12-1.18-4.2-2.24-1.73-.88-3.2-1.59-3.48-1.72l-1.77-.84c-1.79-.84-2.6-1.2-2.69-1.24l-1.82-.81-1.83-.8-1.85-.79-.93-.39-.93-.39s-1.3-.55-3.75-1.55l-4.74-1.9-4.77-1.88c-.55-.27-1.34-.52-1.92-.75l-1-.37-2.86-1.12c-.28-.14-.67-.27-1-.38l-.95-.37a12.34,12.34,0,0,0-1.9-.76l-3.78-1.52c-1.81-.73-2.42-1-3.75-1.54L99.58,206l-.92-.39c-1.13-.48-2.73-1.19-2.75-1.2-2.53-1.12-4.32-2-5.37-2.46-2.94-1.39-4.64-2.28-5.2-2.57-2.31-1.21-4.21-2.26-6.14-3.4,0,0-.49-.3-.81-.49l-.71-.43a1.54,1.54,0,0,1-.51-1.28c1,.6,1.94,1.18,2.94,1.76a169.6,169.6,0,0,0,17.4,8.56c6.12,2.65,12.49,5.15,18.86,7.64s12.75,5,18.87,7.64a167.6,167.6,0,0,1,17.4,8.57c1,.57,2,1.15,2.94,1.75C155.57,230.24,155.57,230.61,155.57,230.61Z"/></clipPath><clipPath id="clip-path-30" transform="translate(0 0)"><path class="cls-5" d="M159.34,228.23l-3.77,2.38s0-.37,0-1l4.27-2.69A1.53,1.53,0,0,1,159.34,228.23Z"/></clipPath><clipPath id="clip-path-31" transform="translate(0 0)"><path class="cls-5" d="M159.85,226.62V227l-4.27,2.69v-.34Z"/></clipPath><clipPath id="clip-path-32" transform="translate(0 0)"><path class="cls-5" d="M155.58,229.31v.34c-1-.6-1.94-1.18-2.94-1.75a167.6,167.6,0,0,0-17.4-8.57c-6.12-2.65-12.49-5.14-18.87-7.64s-12.74-5-18.86-7.64a169.6,169.6,0,0,1-17.4-8.56c-1-.58-2-1.16-2.94-1.76v-.34c1,.6,2,1.19,2.94,1.76a169.63,169.63,0,0,0,17.4,8.57c6.12,2.65,12.49,5.14,18.86,7.63s12.75,5,18.88,7.64a170.47,170.47,0,0,1,17.39,8.57C153.64,228.13,154.62,228.72,155.58,229.31Z"/></clipPath><clipPath id="clip-path-33" transform="translate(0 0)"><path class="cls-5" d="M159.09,225.28c.42,0,.76.6.76,1.34l-4.27,2.69v-1.82Z"/></clipPath><clipPath id="clip-path-34" transform="translate(0 0)"><path class="cls-5" d="M155.58,227.49v1.82c-1-.59-1.94-1.18-2.94-1.75A170.47,170.47,0,0,0,135.25,219c-6.13-2.65-12.5-5.14-18.88-7.64s-12.74-5-18.86-7.63a169.63,169.63,0,0,1-17.4-8.57c-1-.57-2-1.16-2.94-1.76,0-.74.35-1.35.77-1.35.6.37,1.58,1,2.57,1.54a171.35,171.35,0,0,0,17.33,8.53c6.12,2.64,12.49,5.13,18.85,7.63s12.75,5,18.89,7.65A168.73,168.73,0,0,1,153,226C154,226.56,155,227.14,155.58,227.49Z"/></clipPath><clipPath id="clip-path-35" transform="translate(0 0)"><path class="cls-1" d="M67.77,197v-1.52A2.1,2.1,0,0,0,69,197.2l.2.11v1.51l-.2-.11A2.07,2.07,0,0,1,67.77,197Z"/></clipPath><clipPath id="clip-path-36" transform="translate(0 0)"><path class="cls-1" d="M91.89,199.74v1.52a3.55,3.55,0,0,1-2.07,2.9,11.19,11.19,0,0,1-9.72.18v-1.52a11.14,11.14,0,0,0,9.73-.18A3.56,3.56,0,0,0,91.89,199.74Z"/></clipPath><clipPath id="clip-path-37" transform="translate(0 0)"><path class="cls-4" d="M113.72,251.73l2.27,3a2.45,2.45,0,0,0-2.67-.68L111,251.05A2.46,2.46,0,0,1,113.72,251.73Z"/></clipPath><clipPath id="clip-path-38" transform="translate(0 0)"><path class="cls-4" d="M110.71,258.75l-2.28-2.95a2,2,0,0,1-.4-1.22,4,4,0,0,1,3-3.53l2.28,2.95a4,4,0,0,0-3,3.53A2,2,0,0,0,110.71,258.75Z"/></clipPath><clipPath id="clip-path-39" transform="translate(0 0)"><path class="cls-6" d="M115.14,255.54l2.28,3a1.55,1.55,0,0,0-1.65-.42l-2.27-2.95A1.53,1.53,0,0,1,115.14,255.54Z"/></clipPath><clipPath id="clip-path-40" transform="translate(0 0)"><path class="cls-6" d="M114.17,261,111.89,258a1.22,1.22,0,0,1-.24-.75,2.44,2.44,0,0,1,1.85-2.17l2.27,2.95a2.47,2.47,0,0,0-1.85,2.17A1.17,1.17,0,0,0,114.17,261Z"/></clipPath><clipPath id="clip-path-41" transform="translate(0 0)"><path class="cls-8" d="M159.57,225.43l1.3.77a1.72,1.72,0,0,0-1.75.17l-1.29-.77A1.7,1.7,0,0,1,159.57,225.43Z"/></clipPath><clipPath id="clip-path-42" transform="translate(0 0)"><path class="cls-8" d="M157.45,231.93l-1.29-.77a1.65,1.65,0,0,1-.69-1.48,5.11,5.11,0,0,1,2.36-4.08l1.29.77a5.14,5.14,0,0,0-2.36,4.08A1.64,1.64,0,0,0,157.45,231.93Z"/></clipPath><clipPath id="clip-path-43" transform="translate(0 0)"><path class="cls-7" d="M160.2,227.4,171,235.78s-.06,0-.1,0l-11.68-8.3A.94.94,0,0,1,160.2,227.4Z"/></clipPath><clipPath id="clip-path-44" transform="translate(0 0)"><path class="cls-7" d="M170.82,236.1l-12.52-5.52a.91.91,0,0,1-.38-.82,2.84,2.84,0,0,1,1.31-2.27l11.68,8.3a.29.29,0,0,0-.13.22C170.78,236.06,170.79,236.08,170.82,236.1Z"/></clipPath><clipPath id="clip-path-45" transform="translate(0 0)"><path class="cls-7" d="M117.49,258.74l2.27,5.88a.14.14,0,0,0-.16,0l-3.71-6.24A1.48,1.48,0,0,1,117.49,258.74Z"/></clipPath><clipPath id="clip-path-46" transform="translate(0 0)"><path class="cls-7" d="M119.44,264.86l-5.1-3.69a1.23,1.23,0,0,1-.25-.73,2.39,2.39,0,0,1,1.8-2.1l3.71,6.24a.21.21,0,0,0-.18.21A.1.1,0,0,0,119.44,264.86Z"/></clipPath><clipPath id="clip-path-47" transform="translate(0 0)"><path class="cls-6" d="M195.09,179.68l10.1-5.83a2.16,2.16,0,0,0-1.39,1.68l-9.13,4.65A.67.67,0,0,1,195.09,179.68Z"/></clipPath><clipPath id="clip-path-48" transform="translate(0 0)"><path class="cls-6" d="M207.35,182.17H195.74a.67.67,0,0,1-.6-.23,2,2,0,0,1-.47-1.77l9.13-4.65a6.7,6.7,0,0,0,1.55,5.88A2.11,2.11,0,0,0,207.35,182.17Z"/></clipPath><clipPath id="clip-path-49" transform="translate(0 0)"><path class="cls-9" d="M205.17,173.86l45.92-12a2.15,2.15,0,0,0-1.39,1.67l-45.92,12A2.16,2.16,0,0,1,205.17,173.86Z"/></clipPath><clipPath id="clip-path-50" transform="translate(0 0)"><path class="cls-9" d="M253.26,170.21l-45.92,12a2.14,2.14,0,0,1-2-.76,6.73,6.73,0,0,1-1.55-5.89l45.92-12a6.72,6.72,0,0,0,1.55,5.88A2.12,2.12,0,0,0,253.26,170.21Z"/></clipPath><clipPath id="clip-path-51" transform="translate(0 0)"><path class="cls-6" d="M251.51,162.29l3.72-1a1.9,1.9,0,0,0-1.23,1.49l-3.72,1A1.93,1.93,0,0,1,251.51,162.29Z"/></clipPath><clipPath id="clip-path-52" transform="translate(0 0)"><path class="cls-6" d="M257.14,168.71l-3.72,1a1.88,1.88,0,0,1-1.77-.67,5.91,5.91,0,0,1-1.37-5.22l3.72-1a5.92,5.92,0,0,0,1.37,5.22A1.88,1.88,0,0,0,257.14,168.71Z"/></clipPath><clipPath id="clip-path-53" transform="translate(0 0)"><path class="cls-8" d="M51.79,26,53,25.22a1.44,1.44,0,0,1,.53-.18l-1.25.73A1.44,1.44,0,0,0,51.79,26Z"/></clipPath><clipPath id="clip-path-54" transform="translate(0 0)"><path class="cls-8" d="M68.2,45.43,67,46.16a2,2,0,0,0,.82-1.92L69,43.51A2,2,0,0,1,68.2,45.43Z"/></clipPath><clipPath id="clip-path-55" transform="translate(0 0)"><path class="cls-8" d="M63.08,24.32l1.25-.73a2.43,2.43,0,0,1,1.5.37l-1.25.73A2.43,2.43,0,0,0,63.08,24.32Z"/></clipPath><clipPath id="clip-path-56" transform="translate(0 0)"><path class="cls-8" d="M64.58,24.69,65.83,24a6.25,6.25,0,0,1,2.83,4.81l-1.25.73A6.23,6.23,0,0,0,64.58,24.69Z"/></clipPath><clipPath id="clip-path-57" transform="translate(0 0)"><path class="cls-8" d="M65.5,167.15v5.78c0,3.72-2.46,7.43-7.34,10.26-9.82,5.71-25.79,5.71-35.67,0-5-2.87-7.46-6.64-7.45-10.4l0-5.79c0,3.77,2.47,7.54,7.45,10.41,9.88,5.7,25.85,5.7,35.67,0C63.05,174.57,65.49,170.86,65.5,167.15Z"/></clipPath><clipPath id="clip-path-58" transform="translate(0 0)"><path class="cls-8" d="M50.81,159.55l-1.25.73c.69-.4,1-1.38.77-2.77l1.25-.73C51.85,158.18,51.5,159.15,50.81,159.55Z"/></clipPath><clipPath id="clip-path-59" transform="translate(0 0)"><path class="cls-8" d="M42.27,136.68l1.25-.72a2.09,2.09,0,0,1,2,.21l-1.25.73A2.12,2.12,0,0,0,42.27,136.68Z"/></clipPath><clipPath id="clip-path-60" transform="translate(0 0)"><path class="cls-8" d="M44.31,136.9l1.25-.73a6.54,6.54,0,0,1,2.85,4.2l-1.25.73A6.52,6.52,0,0,0,44.31,136.9Z"/></clipPath><clipPath id="clip-path-61" transform="translate(0 0)"><path class="cls-8" d="M5.1,65.08l1.25-.72a2,2,0,0,1,2,.19l-1.25.72A2,2,0,0,0,5.1,65.08Z"/></clipPath><clipPath id="clip-path-62" transform="translate(0 0)"><path class="cls-8" d="M7.13,65.27l1.25-.72a5,5,0,0,1,1.34,1.16l-1.25.73A5.22,5.22,0,0,0,7.13,65.27Z"/></clipPath><clipPath id="clip-path-63" transform="translate(0 0)"><path class="cls-8" d="M21.51,84.57l-1.25.72c1.29-.75,1-3.51-.68-5.56L20.84,79C22.55,81.06,22.8,83.82,21.51,84.57Z"/></clipPath><clipPath id="clip-path-64" transform="translate(0 0)"><path class="cls-7" d="M46,164.57v2.89a3.23,3.23,0,0,1-1.88,2.64,10.15,10.15,0,0,1-9.17,0,3.25,3.25,0,0,1-1.91-2.68v-2.89A3.2,3.2,0,0,0,35,167.2a10.09,10.09,0,0,0,9.17,0A3.2,3.2,0,0,0,46,164.57Z"/></clipPath><clipPath id="clip-path-65" transform="translate(0 0)"><path class="cls-7" d="M42.89,152.48l0,11.57a1.66,1.66,0,0,1-1,1.35,5.17,5.17,0,0,1-4.69,0,1.68,1.68,0,0,1-1-1.37l0-11.57a1.67,1.67,0,0,0,1,1.37,5.17,5.17,0,0,0,4.69,0A1.65,1.65,0,0,0,42.89,152.48Z"/></clipPath><clipPath id="clip-path-66" transform="translate(0 0)"><path class="cls-7" d="M60.59,32.93l22.9-3.25a1.36,1.36,0,0,0-1,1L59.6,33.88A1.33,1.33,0,0,1,60.59,32.93Z"/></clipPath><clipPath id="clip-path-67" transform="translate(0 0)"><path class="cls-7" d="M84.25,35l-22.9,3.25a1.37,1.37,0,0,1-1.21-.63,4.2,4.2,0,0,1-.54-3.78l22.9-3.24a4.21,4.21,0,0,0,.55,3.78A1.31,1.31,0,0,0,84.25,35Z"/></clipPath><clipPath id="clip-path-68" transform="translate(0 0)"><path class="cls-8" d="M.82,67.18l1.25-.73a2,2,0,0,1,2,.19l-1.25.73A2,2,0,0,0,.82,67.18Z"/></clipPath><clipPath id="clip-path-69" transform="translate(0 0)"><path class="cls-8" d="M2.85,67.37l1.25-.73a5.06,5.06,0,0,1,1.34,1.17l-1.25.73A4.89,4.89,0,0,0,2.85,67.37Z"/></clipPath><clipPath id="clip-path-70" transform="translate(0 0)"><path class="cls-8" d="M17.23,86.66,16,87.39c1.29-.75,1.05-3.51-.67-5.56l1.25-.73C18.28,83.15,18.52,85.91,17.23,86.66Z"/></clipPath><clipPath id="clip-path-71" transform="translate(0 0)"><path class="cls-8" d="M48.7,27.74,50,27a1.44,1.44,0,0,1,.53-.18l-1.25.73A1.44,1.44,0,0,0,48.7,27.74Z"/></clipPath><clipPath id="clip-path-72" transform="translate(0 0)"><path class="cls-8" d="M65.11,47.22,63.86,48A2,2,0,0,0,64.68,46l1.25-.73A2,2,0,0,1,65.11,47.22Z"/></clipPath><clipPath id="clip-path-73" transform="translate(0 0)"><path class="cls-8" d="M60,26.11l1.25-.73a2.43,2.43,0,0,1,1.5.37l-1.25.73A2.43,2.43,0,0,0,60,26.11Z"/></clipPath><clipPath id="clip-path-74" transform="translate(0 0)"><path class="cls-8" d="M61.49,26.48l1.25-.73a6.25,6.25,0,0,1,2.83,4.81l-1.25.73A6.23,6.23,0,0,0,61.49,26.48Z"/></clipPath><clipPath id="clip-path-75" transform="translate(0 0)"><path class="cls-5" d="M74.93,1.63l9.85,8.48c-.46-.41-1.72.13-3.39,1.56-2.48,2.12-5,5.42-5.5,7.36-.19.63-.14,1,.08,1.24l-9.86-8.49c-.22-.19-.26-.6-.08-1.23.55-2,3-5.24,5.5-7.36C73.2,1.75,74.46,1.22,74.93,1.63Z"/></clipPath><clipPath id="clip-path-76" transform="translate(0 0)"><path class="cls-7" d="M84,.26,103.44,17c-.92-.8-3.4.25-6.71,3.08C91.83,24.29,87,30.8,85.86,34.64c-.36,1.25-.28,2.06.17,2.44L66.55,20.33c-.44-.39-.52-1.2-.17-2.45,1.1-3.84,6-10.35,10.87-14.54C80.56.51,83-.54,84,.26Z"/></clipPath><clipPath id="clip-path-77" transform="translate(0 0)"><path class="cls-7" d="M103.59,16.85l40.69,10.3C142,25.2,136,27.76,128,34.64,116,44.84,104.2,60.67,101.52,70c-.87,3-.67,5,.41,5.95L86,37.19c-.45-.39-.54-1.21-.17-2.48,1.11-3.89,6-10.49,11-14.74C100.14,17.11,102.66,16,103.59,16.85Z"/></clipPath><clipPath id="clip-path-78" transform="translate(0 0)"><path class="cls-8" d="M47.14,161.53l-1.25.73c.69-.4,1-1.38.77-2.77l1.25-.73C48.18,160.16,47.83,161.13,47.14,161.53Z"/></clipPath><clipPath id="clip-path-79" transform="translate(0 0)"><path class="cls-8" d="M38.6,138.66l1.25-.72a2.07,2.07,0,0,1,2,.22l-1.25.72A2.12,2.12,0,0,0,38.6,138.66Z"/></clipPath><clipPath id="clip-path-80" transform="translate(0 0)"><path class="cls-8" d="M40.64,138.88l1.25-.72a6.5,6.5,0,0,1,2.85,4.19l-1.25.73A6.52,6.52,0,0,0,40.64,138.88Z"/></clipPath></defs><title>candidates</title><g id="Layer_2" data-name="Layer 2"><g id="Layer_1-2" data-name="Layer 1"><g class="cls-11"><polygon class="cls-9" points="336 164.95 335.99 168.59 206.13 244.05 206.14 240.41 336 164.95"/><polygon class="cls-12" points="206.14 240.41 206.13 244.05 183.76 231.14 183.77 227.5 206.14 240.41"/><polygon class="cls-3" points="336 164.95 206.14 240.41 183.77 227.5 313.63 152.04 336 164.95"/></g><polygon class="cls-13" points="199.39 229.09 196.78 230.59 188.98 226.09 191.59 224.58 199.39 229.09"/><polygon class="cls-13" points="206.57 224.94 203.95 226.45 196.16 221.95 198.77 220.44 206.57 224.94"/><polygon class="cls-13" points="213.74 220.8 211.13 222.31 203.33 217.81 205.94 216.3 213.74 220.8"/><polygon class="cls-13" points="220.91 216.66 218.3 218.17 210.5 213.67 213.12 212.16 220.91 216.66"/><polygon class="cls-13" points="228.09 212.52 225.47 214.03 217.68 209.52 220.29 208.02 228.09 212.52"/><polygon class="cls-13" points="235.26 208.38 232.65 209.88 224.85 205.38 227.46 203.88 235.26 208.38"/><polygon class="cls-13" points="242.43 204.24 239.82 205.74 232.02 201.24 234.63 199.73 242.43 204.24"/><polygon class="cls-13" points="249.61 200.09 247 201.6 239.2 197.1 241.81 195.59 249.61 200.09"/><polygon class="cls-13" points="256.78 195.95 254.17 197.46 246.37 192.96 248.98 191.45 256.78 195.95"/><polygon class="cls-13" points="263.95 191.81 261.34 193.32 253.54 188.82 256.16 187.31 263.95 191.81"/><polygon class="cls-13" points="271.13 187.67 268.51 189.18 260.72 184.67 263.33 183.17 271.13 187.67"/><polygon class="cls-13" points="278.3 183.53 275.69 185.03 267.89 180.53 270.5 179.02 278.3 183.53"/><polygon class="cls-13" points="285.47 179.38 282.86 180.89 275.06 176.39 277.68 174.88 285.47 179.38"/><polygon class="cls-13" points="292.65 175.24 290.04 176.75 282.24 172.25 284.85 170.74 292.65 175.24"/><polygon class="cls-13" points="299.82 171.1 297.21 172.61 289.41 168.11 292.02 166.6 299.82 171.1"/><polygon class="cls-13" points="307 166.96 304.38 168.47 296.58 163.97 299.2 162.46 307 166.96"/><polygon class="cls-13" points="314.17 162.82 311.56 164.33 303.76 159.82 306.37 158.32 314.17 162.82"/><polygon class="cls-13" points="321.34 158.68 318.73 160.18 310.93 155.68 313.54 154.17 321.34 158.68"/><g class="cls-11"><g class="cls-11"><g class="cls-14"><g class="cls-11"><path class="cls-6" d="M272.65,164.19,152.34,94.28c7.67-4.43,14.15-14.1,16.17-23.35l120.31,69.92C286.8,150.1,280.33,159.76,272.65,164.19Z" transform="translate(0 0)"/><path class="cls-7" d="M288.82,140.85,168.51,70.93a27.75,27.75,0,0,0,.65-5.78c0-4.77-1.71-8.14-4.43-9.72L285,125.35c2.72,1.58,4.42,4.94,4.43,9.72A27.17,27.17,0,0,1,288.82,140.85Z" transform="translate(0 0)"/></g></g></g><g class="cls-11"><g class="cls-15"><g class="cls-11"><path class="cls-5" d="M274.25,126,153.94,56.08a16.47,16.47,0,0,1,3.92-1.68l120.31,69.91A17.13,17.13,0,0,0,274.25,126Z" transform="translate(0 0)"/><path class="cls-6" d="M278.17,124.31,157.86,54.4A9,9,0,0,1,165,55l120.32,69.92A9.1,9.1,0,0,0,278.17,124.31Z" transform="translate(0 0)"/></g></g></g><g class="cls-11"><g class="cls-16"><g class="cls-11"><path class="cls-5" d="M260.32,150.13,140,80.22a22.93,22.93,0,0,1,.54-4.8l120.32,69.92A21.65,21.65,0,0,0,260.32,150.13Z" transform="translate(0 0)"/><path class="cls-13" d="M260.86,145.34,140.54,75.42c1.67-7.66,7-15.67,13.4-19.34L274.25,126C267.89,129.67,262.53,137.68,260.86,145.34Z" transform="translate(0 0)"/></g></g></g><polygon class="cls-13" points="178.44 218.59 58.13 148.67 152.34 94.28 272.65 164.19 178.44 218.59"/><g class="cls-11"><g class="cls-17"><g class="cls-11"><path class="cls-6" d="M166.44,219.76,46.12,149.84a9.87,9.87,0,0,0,7.74.66l120.32,69.92A9.86,9.86,0,0,1,166.44,219.76Z" transform="translate(0 0)"/><path class="cls-5" d="M174.18,220.42,53.86,150.5a18.06,18.06,0,0,0,4.26-1.83l120.32,69.92A18.06,18.06,0,0,1,174.18,220.42Z" transform="translate(0 0)"/></g></g></g><polygon class="cls-13" points="161.17 209.14 40.85 139.22 41.2 139.03 161.51 208.94 161.17 209.14"/><g class="cls-11"><g class="cls-18"><g class="cls-11"><path class="cls-6" d="M166.19,220.18,45.88,150.26c-3.09-1.8-5-5.62-5-11l120.32,69.92C161.18,214.56,163.1,218.38,166.19,220.18Z" transform="translate(0 0)"/></g></g></g><path class="cls-7" d="M274.25,126c8.55-4.94,15.54-1,15.56,8.87,0,10.91-7.66,24.24-17.16,29.72L178.44,219c-9.5,5.48-17.24,1.06-17.27-9.85l.34-.2c0,10.69,7.62,15,16.93,9.65l94.21-54.4c9.3-5.37,16.85-18.43,16.82-29.12,0-9.61-6.85-13.5-15.22-8.67-7.52,4.34-13.61,14.9-13.59,23.53l-.34.2C260.29,141.27,266.54,130.45,274.25,126Z" transform="translate(0 0)"/></g><path class="cls-7" d="M191.53,174.11l-6.22-3.59a47,47,0,0,1-6.74,1.6l0,4.89H160.61l0-5a45.06,45.06,0,0,1-6.8-1.69l-5.9,3.39-12.62-7.32,6.13-3.52a15.06,15.06,0,0,1-2.62-4H130.4l.11-10.35h8.93a16.47,16.47,0,0,1,2.95-3.75l-6.15-3.58L149,134l6.52,3.81a49.42,49.42,0,0,1,6.42-1.4l.08-5.27,17.92,0-.08,5.5a46.31,46.31,0,0,1,6.11,1.56l6.62-3.77,12.55,7.37-6.78,3.84a15.08,15.08,0,0,1,2.47,3.63l9.16,0-.2,10.35-9.2,0a15.41,15.41,0,0,1-2.58,3.54l6.22,3.59Zm-32.8-13.35c6.16,3.55,16.15,3.54,22.33,0s6.21-9.35.05-12.9-16.15-3.54-22.33,0S152.58,157.21,158.73,160.76Z" transform="translate(0 0)"/><path class="cls-2" d="M103.8,154.72l-2.48-.65c-.19.05-.24.1-.28.16a.91.91,0,0,0-.08.17c0,.14,0,.19.06.21l1.71,1.7a.2.2,0,0,0,.06-.19,1.25,1.25,0,0,1,0-.32l0-.1a1.47,1.47,0,0,1,.1-.22l.06-.12.15-.2.08-.09a1.13,1.13,0,0,1,.27-.22.78.78,0,0,1,.27-.09Z" transform="translate(0 0)"/><g class="cls-11"><g class="cls-11"><path class="cls-6" d="M103.81,154.73l8.46,2.28a1.59,1.59,0,0,0-1.63.15l-7.32-2.38A.5.5,0,0,1,103.81,154.73Z" transform="translate(0 0)"/><g class="cls-19"><g class="cls-11"><path class="cls-6" d="M110.64,157.16l-7.32-2.38s7.38,2.34,7.38,2.34Z" transform="translate(0 0)"/><path class="cls-6" d="M110.7,157.12l-7.36-2.35a.58.58,0,0,1,.23-.08l7.91,2.17A2.17,2.17,0,0,0,110.7,157.12Z" transform="translate(0 0)"/><path class="cls-6" d="M111.48,156.86l-7.91-2.17a.51.51,0,0,1,.18,0l8.33,2.21A1.31,1.31,0,0,0,111.48,156.86Z" transform="translate(0 0)"/><path class="cls-6" d="M112.08,156.91l-8.33-2.21c.06,0,8.52,2.31,8.52,2.31Z" transform="translate(0 0)"/></g></g></g><g class="cls-11"><path class="cls-6" d="M109,162.57l-6.16-6.17a.46.46,0,0,1-.2-.44,1.49,1.49,0,0,1,.69-1.18l7.32,2.38a5,5,0,0,0-2.3,3.94A1.6,1.6,0,0,0,109,162.57Z" transform="translate(0 0)"/><g class="cls-20"><g class="cls-11"><path class="cls-6" d="M109,162.57l-6.16-6.17a.46.46,0,0,1-.2-.44,1.49,1.49,0,0,1,0-.21l5.76,4.65a3.46,3.46,0,0,0-.07.7A1.6,1.6,0,0,0,109,162.57Z" transform="translate(0 0)"/><path class="cls-5" d="M108.41,160.4l-5.76-4.65a2,2,0,0,1,.08-.26l6,4A4.93,4.93,0,0,0,108.41,160.4Z" transform="translate(0 0)"/><path class="cls-5" d="M108.68,159.52l-6-4a1.51,1.51,0,0,1,.15-.28l6.3,3.38A5.24,5.24,0,0,0,108.68,159.52Z" transform="translate(0 0)"/><path class="cls-13" d="M109.18,158.59l-6.3-3.38a1.29,1.29,0,0,1,.44-.43l7.32,2.38A4.51,4.51,0,0,0,109.18,158.59Z" transform="translate(0 0)"/></g></g></g><path class="cls-21" d="M110.64,157.16c1.27-.73,2.3-.14,2.29,1.32a5,5,0,0,1-2.3,3.94c-1.27.72-2.3.14-2.29-1.32A5,5,0,0,1,110.64,157.16Z" transform="translate(0 0)"/></g><g class="cls-11"><g class="cls-11"><path class="cls-10" d="M112.26,157l57.94,34.09a1.61,1.61,0,0,0-1.63.14l-57.94-34.08A1.63,1.63,0,0,1,112.26,157Z" transform="translate(0 0)"/><g class="cls-22"><g class="cls-11"><path class="cls-23" d="M168.57,191.23l-57.94-34.08c.06,0,58,34,58,34Z" transform="translate(0 0)"/><path class="cls-10" d="M168.63,191.2l-57.94-34.08a2,2,0,0,1,.77-.26l58,34.08A2.39,2.39,0,0,0,168.63,191.2Z" transform="translate(0 0)"/><path class="cls-10" d="M169.41,190.94l-57.95-34.08a1.31,1.31,0,0,1,.6,0L170,191A1.16,1.16,0,0,0,169.41,190.94Z" transform="translate(0 0)"/><path class="cls-10" d="M170,191l-57.94-34.09.2.09,57.94,34.09A.72.72,0,0,0,170,191Z" transform="translate(0 0)"/></g></g></g><g class="cls-11"><path class="cls-10" d="M166.93,196.66,109,162.57a1.59,1.59,0,0,1-.67-1.47,5.08,5.08,0,0,1,2.31-3.95l57.94,34.08a5,5,0,0,0-2.3,4A1.59,1.59,0,0,0,166.93,196.66Z" transform="translate(0 0)"/><g class="cls-24"><g class="cls-11"><path class="cls-2" d="M166.93,196.66,109,162.57a1.59,1.59,0,0,1-.67-1.47,3.42,3.42,0,0,1,.08-.7l57.94,34.08a3.39,3.39,0,0,0-.07.7A1.59,1.59,0,0,0,166.93,196.66Z" transform="translate(0 0)"/><path class="cls-2" d="M166.34,194.48,108.4,160.4a4.93,4.93,0,0,1,.27-.88l57.94,34.08A4.93,4.93,0,0,0,166.34,194.48Z" transform="translate(0 0)"/><path class="cls-10" d="M166.61,193.6l-57.94-34.08a4.91,4.91,0,0,1,.5-.93l57.94,34.08A6,6,0,0,0,166.61,193.6Z" transform="translate(0 0)"/><path class="cls-23" d="M167.11,192.67l-57.94-34.08a4.45,4.45,0,0,1,1.46-1.44l57.94,34.08A4.65,4.65,0,0,0,167.11,192.67Z" transform="translate(0 0)"/></g></g></g><path class="cls-23" d="M168.57,191.23c1.27-.72,2.3-.12,2.29,1.33a5,5,0,0,1-2.3,3.95c-1.27.72-2.3.12-2.29-1.33A5,5,0,0,1,168.57,191.23Z" transform="translate(0 0)"/></g><g class="cls-11"><g class="cls-11"><path class="cls-2" d="M170.21,191.08l7.08,4.17a1.63,1.63,0,0,0-1.63.15l-7.09-4.16A1.63,1.63,0,0,1,170.21,191.08Z" transform="translate(0 0)"/><g class="cls-25"><g class="cls-11"><path class="cls-2" d="M175.66,195.4l-7.09-4.16c.06,0,7.14,4.13,7.14,4.13Z" transform="translate(0 0)"/><path class="cls-2" d="M175.71,195.37l-7.08-4.16a2.25,2.25,0,0,1,.79-.27l7.08,4.17A2,2,0,0,0,175.71,195.37Z" transform="translate(0 0)"/><path class="cls-2" d="M176.5,195.11l-7.08-4.17a1.16,1.16,0,0,1,.59.06l7.08,4.16A1.26,1.26,0,0,0,176.5,195.11Z" transform="translate(0 0)"/><path class="cls-2" d="M177.09,195.16,170,191l.2.08,7.08,4.17A.72.72,0,0,0,177.09,195.16Z" transform="translate(0 0)"/></g></g></g><g class="cls-11"><path class="cls-2" d="M174,200.82l-7.08-4.17a1.57,1.57,0,0,1-.66-1.47,5,5,0,0,1,2.3-3.94l7.09,4.16a5,5,0,0,0-2.31,3.95A1.6,1.6,0,0,0,174,200.82Z" transform="translate(0 0)"/><g class="cls-26"><g class="cls-11"><path class="cls-2" d="M174,200.82l-7.08-4.17a1.57,1.57,0,0,1-.66-1.47,3.46,3.46,0,0,1,.07-.7l7.08,4.17a4.26,4.26,0,0,0-.07.7A1.6,1.6,0,0,0,174,200.82Z" transform="translate(0 0)"/><path class="cls-2" d="M173.42,198.65l-7.08-4.17a4.84,4.84,0,0,1,.27-.87l7.09,4.16A5,5,0,0,0,173.42,198.65Z" transform="translate(0 0)"/><path class="cls-2" d="M173.7,197.77l-7.09-4.16a5.55,5.55,0,0,1,.5-.93l7.08,4.16A5.91,5.91,0,0,0,173.7,197.77Z" transform="translate(0 0)"/><path class="cls-27" d="M174.19,196.84l-7.08-4.16a4.55,4.55,0,0,1,1.46-1.44l7.09,4.16A4.58,4.58,0,0,0,174.19,196.84Z" transform="translate(0 0)"/></g></g></g><path class="cls-2" d="M175.66,195.4c1.27-.72,2.29-.13,2.29,1.33a5,5,0,0,1-2.31,3.94c-1.27.72-2.3.13-2.29-1.32A5,5,0,0,1,175.66,195.4Z" transform="translate(0 0)"/></g><g class="cls-11"><g class="cls-11"><path class="cls-3" d="M177.37,195.7l2.49,1.47a1.44,1.44,0,0,0-1.45.13l-2.49-1.46A1.42,1.42,0,0,1,177.37,195.7Z" transform="translate(0 0)"/><g class="cls-28"><g class="cls-11"><path class="cls-3" d="M178.41,197.3l-2.49-1.46c.05,0,2.54,1.44,2.54,1.44Z" transform="translate(0 0)"/><path class="cls-3" d="M178.46,197.28,176,195.81a2.16,2.16,0,0,1,.7-.24l2.49,1.47A1.77,1.77,0,0,0,178.46,197.28Z" transform="translate(0 0)"/><path class="cls-3" d="M179.16,197l-2.49-1.47a1.32,1.32,0,0,1,.53.05l2.48,1.47A1.1,1.1,0,0,0,179.16,197Z" transform="translate(0 0)"/><path class="cls-3" d="M179.68,197.09l-2.48-1.47.17.08,2.49,1.47Z" transform="translate(0 0)"/></g></g></g><g class="cls-11"><path class="cls-3" d="M177,202.1l-2.49-1.46a1.44,1.44,0,0,1-.58-1.3,4.45,4.45,0,0,1,2-3.5l2.49,1.46a4.5,4.5,0,0,0-2,3.5A1.42,1.42,0,0,0,177,202.1Z" transform="translate(0 0)"/><g class="cls-29"><g class="cls-11"><path class="cls-3" d="M177,202.1l-2.49-1.46a1.44,1.44,0,0,1-.58-1.3,3.36,3.36,0,0,1,.06-.63l2.49,1.47a4.53,4.53,0,0,0-.07.62A1.42,1.42,0,0,0,177,202.1Z" transform="translate(0 0)"/><path class="cls-3" d="M176.43,200.18l-2.49-1.47a5.68,5.68,0,0,1,.24-.77l2.49,1.46A4.65,4.65,0,0,0,176.43,200.18Z" transform="translate(0 0)"/><path class="cls-3" d="M176.67,199.4l-2.49-1.46a5.06,5.06,0,0,1,.44-.83l2.49,1.47A5.4,5.4,0,0,0,176.67,199.4Z" transform="translate(0 0)"/><path class="cls-3" d="M177.11,198.58l-2.49-1.47a4.13,4.13,0,0,1,1.3-1.27l2.49,1.46A4.06,4.06,0,0,0,177.11,198.58Z" transform="translate(0 0)"/></g></g></g><path class="cls-9" d="M178.41,197.3c1.13-.64,2-.12,2,1.18a4.44,4.44,0,0,1-2,3.49c-1.12.64-2,.12-2-1.17A4.5,4.5,0,0,1,178.41,197.3Z" transform="translate(0 0)"/></g><path class="cls-30" d="M110.34,114.34c-.14-.13-.07,0-.26-.14-.59-.26-.82,0-1.23.07a.52.52,0,0,0-.47.34c-.62,2.58,0,3.38.17,3a3.42,3.42,0,0,1,.24-.9c.24.14-.11,1.33.44,1.61s1.55,1,1.77.3c.15-.47.07-.73-.37-3.59C110.62,114.94,110.25,114.4,110.34,114.34Z" transform="translate(0 0)"/><path class="cls-30" d="M108.15,99.19c-.87-4.66-7.36-6.39-4.18,2.18.36.94,1.36,4.08,2.2,6.16.45,1.09,2.14-.17,2.46-.5C109.71,105.92,109.09,104.2,108.15,99.19Z" transform="translate(0 0)"/><path class="cls-30" d="M110.45,115.24c.17.66-.27-.31-.93.11-1.07.68-1.14-.46-2.86-5.57-.38-1.14-.32-1.92-.8-3.47a1.22,1.22,0,0,1,.37-1.2c.61-.61,2.49-2.16,2.78-1.49s.6,3,.83,3.69C110.52,109.32,110.1,113.82,110.45,115.24Z" transform="translate(0 0)"/><g id="character"><path class="cls-30" d="M107.51,138.86c-2.22-1.93-1.79-2.72-1.52-5a103.87,103.87,0,0,1,1.6-10.38c.18-.74.73-1.87.47-2.62-.61-1.83-3.14-3.19-4.26-1.74a4.64,4.64,0,0,0-.5,2.18c-.3,1.94-1.82,2.92-.22,13.89a6.2,6.2,0,0,0,.14.76,3.18,3.18,0,0,1-.12.69c-.2.69-.84,2.32.07,3.25a4.64,4.64,0,0,0,1.87.82c1.26.49,2,2.1,3.51,2a2.81,2.81,0,0,0,2-1.47C110.66,140.36,108.28,139.54,107.51,138.86Z" transform="translate(0 0)"/><path class="cls-30" d="M96.89,95.83a10.46,10.46,0,0,1,2.46-1c.18,0,.76.18.94.14a6.49,6.49,0,0,1,3.9.32l0,0v8H96.56Z" transform="translate(0 0)"/><path class="cls-30" d="M101.05,121.63c.11,5.48-1.78,14.77-1.51,18.66,0,.63-1.53,1-2.07.63-.38-.21-.64-.13-.66-.57-.18-4.13-2.59-8.58-1.11-15.49a1.41,1.41,0,0,1,1-1.09Z" transform="translate(0 0)"/><path class="cls-30" d="M99.39,138.87c0,2.2,1.63,4,2.76,5.8.18.27-.11.82-.13,1.14s.25.83-1.89,1c-1,.07-1.49.15-2.92-3.1-.31-.69-.93-1.2-.86-2,0-.63.51-1.17.61-1.79s-.21-1.53.26-2.07a1.2,1.2,0,0,1,1.93.45Z" transform="translate(0 0)"/><path class="cls-30" d="M102.15,144.67c-1-1.49-2.22-3-2.63-4.79-.12-4.1,1.63-12.95,1.53-18.25l-4.35,2.14a1.41,1.41,0,0,0-1,1.09c-1.48,6.91.93,11.36,1.11,15.49a4.49,4.49,0,0,0-.46,1.3c-.07.83.55,1.34.86,2,1.43,3.25,1.9,3.17,2.92,3.1,2.14-.14,1.86-.55,1.89-1S102.33,144.94,102.15,144.67Z" transform="translate(0 0)"/><path class="cls-31" d="M107.51,138.86c-1.61-1.4-1.83-2.2-1.72-3.39a2.3,2.3,0,0,1-2.58.45v0a3.18,3.18,0,0,1-.12.69c-.2.69-.84,2.32.07,3.25a4.64,4.64,0,0,0,1.87.82c1.26.49,2,2.1,3.51,2a2.81,2.81,0,0,0,2-1.47C110.66,140.36,108.28,139.54,107.51,138.86Z" transform="translate(0 0)"/><path class="cls-31" d="M102.15,144.67c-1-1.49-2.22-3-2.63-4.79,0-.37,0-.78,0-1.22a2.49,2.49,0,0,1-2.92-.11,14.16,14.16,0,0,1,.2,1.8,4.49,4.49,0,0,0-.46,1.3c-.07.83.55,1.34.86,2,1.43,3.25,1.9,3.17,2.92,3.1,2.14-.14,1.86-.55,1.89-1S102.33,144.94,102.15,144.67Z" transform="translate(0 0)"/><path class="cls-2" d="M102.15,144.67c-.39-.62-.83-1.23-1.25-1.87.09,1-.18,1.8-1.33,1.73-2,0-2.18-2.42-2.76-4.18a4.49,4.49,0,0,0-.46,1.3c-.07.83.55,1.34.86,2A13.1,13.1,0,0,0,99,146.76C100.22,147.7,103.57,146.87,102.15,144.67Z" transform="translate(0 0)"/><path class="cls-12" d="M107.79,114.69c-.28-2-1.57-16.67-2.48-18.74-.42-1-1.76-1.19-2.72-1.22-.5,0-.36-.1-.31,1s.53,2.08-.13,2.91c-1.38,1.71-4.86,0-5.26-2.81-1.81,1.1-4.39,2.31-3.68,4.86a15,15,0,0,1,.15,3.72A96.81,96.81,0,0,1,93,120.62c-.38,3.66-.73,6.07,4.6,7.22,3.09.67,9.59.33,10.9-2.53C109.67,122.82,107.81,114.82,107.79,114.69Z" transform="translate(0 0)"/><path class="cls-2" d="M106.93,138.32c.24.72,1,1.17,1.45,1.85.26.39-.15.67-.43.66-2.63-.06-3.89-1.79-5-3.57a2.65,2.65,0,0,0,.25,2.63,4.23,4.23,0,0,0,1.72.92c1.37.53,3.17,3.15,5.13,1.6C112.23,140.67,108.61,140,106.93,138.32Z" transform="translate(0 0)"/><g id="head"><path class="cls-30" d="M97.41,95.93c-.09,2.76,5.1,2.81,5,.21-.1-3.63-.32-4-2-4.6A4.85,4.85,0,0,0,99,91.25c-1.81,0-1.31,1.45-1.24,2.09C97.91,95.23,97.44,94.93,97.41,95.93Z" transform="translate(0 0)"/><path class="cls-32" d="M105.55,86.37a9,9,0,0,1,.67,6.34A4.71,4.71,0,0,1,104,96.09a3.48,3.48,0,0,1-2.42.15A5.71,5.71,0,0,1,99.4,95a7.3,7.3,0,0,1-2.28-3.12,13.33,13.33,0,0,1-.28-1.4,7.53,7.53,0,0,1-.23-2.26,6.83,6.83,0,0,1,.24-2A4,4,0,0,1,98,84.63a4.19,4.19,0,0,1,3.19-.93,6.83,6.83,0,0,1,1.17.27,5.34,5.34,0,0,1,2.31,1.2l0,0A5.79,5.79,0,0,1,105.55,86.37Z" transform="translate(0 0)"/><path class="cls-2" d="M100.48,91.46a4.67,4.67,0,0,0-.91.32,1,1,0,0,0-.34.49c-.34.75-.91.19-1.1.56a2,2,0,0,0-.08.85c0,.2,0,.41,0,.62-1.08-.08-2.23-2-2.66-2.84a8.65,8.65,0,0,1-.59-3.82c.06-3.09,2.35-3.56,2.35-3.56a3.92,3.92,0,0,1,3.68-1.31,7.49,7.49,0,0,1,4.59,1.9,5.14,5.14,0,0,1,1.12,4.5c-.1.68-1-.08-1.49-.56-.8-.8-.33-.46-1.23.55A8.61,8.61,0,0,1,100.48,91.46Z" transform="translate(0 0)"/><path class="cls-32" d="M98.32,90.84c-.84-.1-1.09.88-.56,1.67a4,4,0,0,0,.66.64c1.44,1.28,1.88,0,1.42-.45C98.78,91.68,99.37,91,98.32,90.84Z" transform="translate(0 0)"/><path class="cls-30" d="M98.74,92.75c-.1-.09-1-.67-.36-1a.29.29,0,0,1,.4.25c0,.1,0,.19,0,.29a.52.52,0,0,0,.06.16c.08.13.36.27.3.46S98.79,92.8,98.74,92.75Z" transform="translate(0 0)"/></g><path class="cls-33" d="M91.8,108.56c0-.25,0-.5,0-.75,0-1.35.1-2.7.23-4,.08-.8.14-1.61.28-2.4a8.9,8.9,0,0,1,.7-2.53A2.22,2.22,0,0,1,97.14,100a9.14,9.14,0,0,1-.34,4c-.49,1.68-.75,3.42-1.26,5.1a5,5,0,0,1-.34,1c-.77,1.41-2.15,1.8-2.89.87a2.73,2.73,0,0,1-.45-1.39C91.82,109.2,91.81,108.88,91.8,108.56Z" transform="translate(0 0)"/></g><path class="cls-32" d="M110.64,114.74a2.2,2.2,0,0,0-.3-.4c-.44,0-1.63,1.06-.19,2a.81.81,0,0,1,.3.48c0,.22-.08.53.13.72a.42.42,0,0,0,.4.1A3.43,3.43,0,0,0,110.64,114.74Z" transform="translate(0 0)"/><path class="cls-2" d="M91.76,88.87a18.14,18.14,0,0,0,.11,4.77,10.14,10.14,0,0,1-.39,4.74,6,6,0,0,0,2.61-3.33c.31-1,.36-2,.75-3a8,8,0,0,1,1.62-2.23,3,3,0,0,0,.63-3.48C95.42,83.14,92.22,86.27,91.76,88.87Z" transform="translate(0 0)"/><g class="cls-11"><g class="cls-11"><path class="cls-9" d="M73.67,89.5l.06-.16c0-.09.07-.17.11-.26l.09-.17a1,1,0,0,1,.07-.15,8.1,8.1,0,0,1,1.57-2c.86-.78,1.61-1.06,2-.79l4.65,3.88c-.33-.27-1.09,0-1.94.78a7.75,7.75,0,0,0-1.65,2.13l-.09.18c0,.09-.07.17-.11.25l-.06.16a2.5,2.5,0,0,0-.07.26.53.53,0,0,0,0,.12,1.37,1.37,0,0,0,0,.34.59.59,0,0,0,.18.45l-4.65-3.88a.59.59,0,0,1-.18-.45,1.93,1.93,0,0,1,0-.33l0-.13C73.62,89.67,73.64,89.59,73.67,89.5Z" transform="translate(0 0)"/><path class="cls-9" d="M77.34,85.91a.37.37,0,0,1,.18.08l4.65,3.88a.51.51,0,0,0-.18-.09,1,1,0,0,0-.54.07L76.8,86A.89.89,0,0,1,77.34,85.91Z" transform="translate(0 0)"/><path class="cls-12" d="M81.45,89.85,76.8,86a4.14,4.14,0,0,0-1.23.81,7.71,7.71,0,0,0-1,1.08l4.65,3.88a7.86,7.86,0,0,1,1-1.09A3.76,3.76,0,0,1,81.45,89.85Z" transform="translate(0 0)"/><path class="cls-9" d="M79.24,91.74l-4.65-3.88a6.6,6.6,0,0,0-.59.9l4.65,3.88A6.6,6.6,0,0,1,79.24,91.74Z" transform="translate(0 0)"/></g><path class="cls-34" d="M77.76,94.27c0,1,1.13.82,2.44-.38s2.37-3,2.35-3.94-1.12-.81-2.44.38S77.74,93.29,77.76,94.27Z" transform="translate(0 0)"/></g><g class="cls-11"><g class="cls-11"><path class="cls-10" d="M77.83,93.39l.07-.18.12-.29a1.28,1.28,0,0,1,.11-.2.89.89,0,0,1,.08-.17A9,9,0,0,1,80,90.27c1-.9,1.85-1.21,2.23-.9l53.15,43.11c-.38-.31-1.24,0-2.23.9a9.08,9.08,0,0,0-1.89,2.44,2,2,0,0,0-.1.21,1.78,1.78,0,0,0-.12.29l-.08.18c0,.1-.06.2-.08.29s0,.1,0,.15a1.67,1.67,0,0,0,0,.38.65.65,0,0,0,.2.52L77.88,94.73a.65.65,0,0,1-.21-.52,1.69,1.69,0,0,1,0-.38.57.57,0,0,1,0-.14A1.67,1.67,0,0,1,77.83,93.39Z" transform="translate(0 0)"/><path class="cls-10" d="M82,89.27a.51.51,0,0,1,.21.1l53.15,43.11a.47.47,0,0,0-.2-.1,1.08,1.08,0,0,0-.62.07L81.42,89.34A1.09,1.09,0,0,1,82,89.27Z" transform="translate(0 0)"/><path class="cls-27" d="M134.58,132.45,81.42,89.34a4.67,4.67,0,0,0-1.4.93,8.46,8.46,0,0,0-1.14,1.25L132,134.62a8.85,8.85,0,0,1,1.13-1.24A4.7,4.7,0,0,1,134.58,132.45Z" transform="translate(0 0)"/><path class="cls-10" d="M132,134.62,78.88,91.52a8.58,8.58,0,0,0-.67,1l53.15,43.11A9.69,9.69,0,0,1,132,134.62Z" transform="translate(0 0)"/></g><path class="cls-35" d="M130.83,137.32c0,1,1.12.81,2.43-.38s2.38-3,2.35-3.94-1.12-.81-2.44.38S130.8,136.34,130.83,137.32Z" transform="translate(0 0)"/></g><g class="cls-11"><g class="cls-11"><path class="cls-6" d="M131,136.5l.08-.18a1.78,1.78,0,0,1,.12-.29l.1-.2c0-.06.05-.12.08-.17a9.41,9.41,0,0,1,1.81-2.28c1-.89,1.85-1.21,2.23-.9l5.89,7.94c-.12-.09-.38,0-.67.27a2.77,2.77,0,0,0-.57.74.75.75,0,0,0-.07.15l0,.14c0,.08,0,.12,0,.16a.21.21,0,0,0,.06.15L131,137.84a.65.65,0,0,1-.2-.52,1.67,1.67,0,0,1,0-.38c0-.05,0-.1,0-.14S131,136.61,131,136.5Z" transform="translate(0 0)"/><path class="cls-6" d="M135.2,132.38a.47.47,0,0,1,.2.1l5.89,7.94a.3.3,0,0,0-.25,0l-6.46-8A1.17,1.17,0,0,1,135.2,132.38Z" transform="translate(0 0)"/><path class="cls-13" d="M141,140.42l-6.46-8a4.7,4.7,0,0,0-1.41.93,8.4,8.4,0,0,0-1.13,1.25l8.24,6.44a2.43,2.43,0,0,1,.34-.38A1.22,1.22,0,0,1,141,140.42Z" transform="translate(0 0)"/><path class="cls-13" d="M140.28,141.07,132,134.63a8.7,8.7,0,0,0-.68,1l8.71,5.72A2.82,2.82,0,0,1,140.28,141.07Z" transform="translate(0 0)"/></g><path class="cls-13" d="M139.91,141.88c0,.29.34.24.74-.12a2,2,0,0,0,.7-1.18c0-.3-.34-.24-.73.11A2,2,0,0,0,139.91,141.88Z" transform="translate(0 0)"/></g><g class="cls-11"><g class="cls-11"><path class="cls-10" d="M139.91,141.63a.62.62,0,0,1,.06-.15,3,3,0,0,1,.62-.83c.31-.28.57-.38.69-.28l1.84,2.48s-.12,0-.21.08a2,2,0,0,0-.19.43l-2.8-1.31a.22.22,0,0,1-.06-.17.53.53,0,0,1,0-.12Z" transform="translate(0 0)"/><path class="cls-10" d="M141.22,140.34c.06,0,1.9,2.51,1.9,2.51s-2.09-2.49-2.09-2.49A.44.44,0,0,1,141.22,140.34Z" transform="translate(0 0)"/><path class="cls-10" d="M143,142.85l-2-2.49a1.57,1.57,0,0,0-.44.29,3.33,3.33,0,0,0-.36.39l2.57,2,.11-.12A.38.38,0,0,1,143,142.85Z" transform="translate(0 0)"/><path class="cls-10" d="M142.8,143.05l-2.57-2c-.08.11-.15.22-.21.32l2.72,1.79Z" transform="translate(0 0)"/></g><path class="cls-10" d="M142.69,143.3c0,.09.11.08.23,0a.67.67,0,0,0,.22-.37c0-.09-.11-.08-.23,0A.7.7,0,0,0,142.69,143.3Z" transform="translate(0 0)"/></g><path class="cls-33" d="M105.79,113.63c.18-.2.15-.63-.08-.52a.29.29,0,0,0-.07-.37c-.15-.1-.34,0-.51.06a2.28,2.28,0,0,1-.73.08c-.52,0-1.06-.26-1-.33a.71.71,0,0,1,.59-.28c.13,0,.24.1.38.11a.89.89,0,0,0,.31-.08.21.21,0,0,0,.1-.06.19.19,0,0,0,0-.21,1,1,0,0,0-.31-.2,1.57,1.57,0,0,0-.87-.22l-.29.07a3,3,0,0,0-.32.08,6.44,6.44,0,0,0-1.2.56c-1.38.41-1.41,1.25-.79,1.9a5.4,5.4,0,0,0,1.83.77h0l.1,0h0c.78.15,2.4.36,2.5-.34l-.12-.09C106,114.09,105.45,114,105.79,113.63Z" transform="translate(0 0)"/><path class="cls-33" d="M92.51,111.11c5.83,3.67,8.21,3.06,8.77,3.33.21.1.7-2,.47-2.12-2.21-1-6.63-4.06-7.31-4.16C93.53,108,91.77,110.65,92.51,111.11Z" transform="translate(0 0)"/><g class="cls-11"><g class="cls-11"><g class="cls-36"><g class="cls-11"><path class="cls-9" d="M69.22,200.05v1.52l-.2-.11a2.08,2.08,0,0,1-1.23-1.73v-1.52A2.08,2.08,0,0,0,69,199.94Z" transform="translate(0 0)"/></g></g></g><polygon class="cls-9" points="80.1 205.57 80.1 207.08 69.21 201.57 69.22 200.05 80.1 205.57"/><g class="cls-11"><g class="cls-37"><g class="cls-11"><path class="cls-9" d="M91.89,202.49V204a3.54,3.54,0,0,1-2.07,2.89,11.12,11.12,0,0,1-9.72.18v-1.51a11.18,11.18,0,0,0,9.73-.19A3.51,3.51,0,0,0,91.89,202.49Z" transform="translate(0 0)"/></g></g></g><path class="cls-12" d="M80.36,193.34l.19.12,9.56,6.29c2.48,1.63,2.36,4.1-.28,5.63a11.18,11.18,0,0,1-9.73.19l-10.88-5.52-.2-.11c-1.63-.94-1.66-2.48,0-3.43l5.44-3.16A6.5,6.5,0,0,1,80.36,193.34Z" transform="translate(0 0)"/></g><g class="cls-11"><g class="cls-11"><path class="cls-4" d="M64.74,186.39,77.86,194a1.27,1.27,0,0,0-1.28.13l-13.13-7.63A1.26,1.26,0,0,1,64.74,186.39Z" transform="translate(0 0)"/><g class="cls-38"><g class="cls-11"><path class="cls-4" d="M76.58,194.14l-13.13-7.63a2.21,2.21,0,0,1,.46-.2L77,193.94A2,2,0,0,0,76.58,194.14Z" transform="translate(0 0)"/><path class="cls-4" d="M77,193.94l-13.12-7.63a1.06,1.06,0,0,1,.83.08L77.86,194A1.05,1.05,0,0,0,77,193.94Z" transform="translate(0 0)"/></g></g></g><g class="cls-11"><path class="cls-4" d="M75.3,198.41l-13.12-7.62a1.3,1.3,0,0,1-.53-1.16,4,4,0,0,1,1.8-3.12l13.13,7.63a3.93,3.93,0,0,0-1.8,3.11A1.27,1.27,0,0,0,75.3,198.41Z" transform="translate(0 0)"/><g class="cls-39"><g class="cls-11"><path class="cls-4" d="M75.3,198.41l-13.12-7.62a1.3,1.3,0,0,1-.53-1.16,3.37,3.37,0,0,1,.07-.62l13.13,7.62a2.68,2.68,0,0,0-.07.62A1.27,1.27,0,0,0,75.3,198.41Z" transform="translate(0 0)"/><path class="cls-8" d="M74.85,196.63,61.72,189a4.08,4.08,0,0,1,1.73-2.5l13.13,7.63A4,4,0,0,0,74.85,196.63Z" transform="translate(0 0)"/></g></g></g><path class="cls-4" d="M76.58,194.14c1-.58,1.8-.12,1.81,1a4,4,0,0,1-1.8,3.12c-1,.57-1.81.11-1.81-1A3.93,3.93,0,0,1,76.58,194.14Z" transform="translate(0 0)"/></g><g class="cls-11"><g class="cls-11"><path class="cls-5" d="M72.41,198l2.76-.79a.25.25,0,0,0,0,.07l-2.5.71A.5.5,0,0,0,72.41,198Z" transform="translate(0 0)"/><g class="cls-40"><g class="cls-11"><path class="cls-5" d="M72.41,198l2.76-.79a.25.25,0,0,0,0,.07l-2.5.71A.5.5,0,0,0,72.41,198Z" transform="translate(0 0)"/><path class="cls-5" d="M75.15,197.26a1.11,1.11,0,0,1-.26.07l-.54.15-1.83.53h-.11l.26-.07.23-.07.18,0,.16,0,.13,0,.11,0,.09,0,.07,0,.07,0,.06,0h.07l.06,0,.08,0,.09,0,.12,0,.13,0,.16,0,.19-.05.23-.07.27-.08S75.16,197.24,75.15,197.26Z" transform="translate(0 0)"/></g></g></g><g class="cls-11"><path class="cls-6" d="M75.21,197.24c1.41,1.44,3.28,3.37,4.58,4.91.65.76,1.49,1.8,2.11,2.59s1.48,1.94,2.08,2.8c1,1.49,2.38,3.52,3.37,5.05.56.88,1.27,2.08,1.81,3s1.19,2,1.69,2.9c.92,1.63,2.14,3.81,3.05,5.45,1.5,2.7,1.73,3.12,3.16,5.63.46.82,1.08,1.91,1.57,2.71s1.16,1.94,1.67,2.76l1.65,2.56c.5.77,1.2,1.78,1.73,2.53,1.21,1.73,2.82,3.82,4.2,5.45.57.67,1.34,1.55,1.94,2.2.79.85,1.88,2,2.71,2.78a.63.63,0,0,0-.34-.18c-16.8-16.33-20.33-36.79-37.07-53C75.15,197.23,75.18,197.22,75.21,197.24Z" transform="translate(0 0)"/><g class="cls-41"><g class="cls-11"><path class="cls-6" d="M75.21,197.24c1.41,1.44,3.28,3.37,4.58,4.91,1.06,1.25,2.8,3.41,4.19,5.39a161.83,161.83,0,0,1,9.92,16.37c5.46,9.82,10.17,18.3,18.63,26.62a.63.63,0,0,0-.34-.18c-16.8-16.33-20.33-36.79-37.07-53C75.15,197.23,75.18,197.22,75.21,197.24Z" transform="translate(0 0)"/><path class="cls-6" d="M112.26,250.36c-1.76-1.07-7.17-6-19.3-27.88-7.7-13.91-11.56-18.83-17.82-25.21l2.45,2.4c.69.78,1.64,1.82,2.32,2.62l2,2.45c.62.84,1.47,1.95,2.08,2.8l1.73,2.51c.56.87,1.31,2,1.86,2.9l1.59,2.61c.51.87,1.19,2,1.69,2.9l1.53,2.72L94,224l1.54,2.77c.46.83,1.08,1.94,1.56,2.76l1.57,2.71c.5.83,1.16,1.94,1.67,2.76l1.65,2.56c.57.84,1.32,2,1.91,2.79l1.76,2.38c.68.85,1.57,2,2.26,2.81l1.94,2.2c.81.84,1.88,2,2.71,2.78A.81.81,0,0,0,112.26,250.36Z" transform="translate(0 0)"/></g></g></g><g class="cls-11"><path class="cls-7" d="M112.39,253.37l-4.92,1.41c-.09,0-.15-.37-.15-1l5.66-1.62C113,252.79,112.73,253.28,112.39,253.37Z" transform="translate(0 0)"/><g class="cls-42"><g class="cls-11"><path class="cls-7" d="M112.39,253.37l-4.92,1.41c-.09,0-.15-.37-.15-1l5.66-1.62C113,252.79,112.73,253.28,112.39,253.37Z" transform="translate(0 0)"/></g></g></g><g class="cls-11"><path class="cls-6" d="M107.44,254.77c-1.38-1.42-3.22-3.34-4.48-4.87-.63-.76-1.44-1.8-2-2.6s-1.46-2-2-2.9c-1-1.45-2.15-3.43-3-4.92-.55-.93-1.22-2.2-1.73-3.14-1.22-2.24-3.46-6.81-4.3-8.53-1.43-2.95-1.55-3.19-2.85-5.78-.42-.82-1-1.91-1.41-2.72s-1.07-2-1.55-2.82-1-1.76-1.47-2.52-1.09-1.74-1.57-2.48-1.29-1.92-1.87-2.71-1.55-2.07-2.25-2.92c-.53-.65-1.24-1.5-1.81-2.11-.81-.89-1.91-2-2.76-2.89a1.87,1.87,0,0,1-.46-1.3c17.07,16.58,18.44,37.66,35.5,54.23A2.29,2.29,0,0,0,107.44,254.77Z" transform="translate(0 0)"/><g class="cls-43"><g class="cls-11"><path class="cls-6" d="M107.44,254.77c-1.38-1.42-3.22-3.34-4.48-4.87a65.68,65.68,0,0,1-4.07-5.5c-3.23-4.94-5-8.31-9.07-16.59-5.63-11.51-9.49-19-17.54-26.95a1.87,1.87,0,0,1-.46-1.3c17.07,16.58,18.44,37.66,35.5,54.23A2.29,2.29,0,0,0,107.44,254.77Z" transform="translate(0 0)"/></g></g></g><g class="cls-11"><path class="cls-7" d="M113,251.83v.34l-5.66,1.62v-.34Z" transform="translate(0 0)"/><g class="cls-44"><g class="cls-11"><path class="cls-7" d="M113,251.83v.34l-5.66,1.62v-.34Z" transform="translate(0 0)"/></g></g></g><g class="cls-11"><path class="cls-6" d="M107.32,253.45v.34c-17.06-16.57-18.43-37.65-35.5-54.23v-.33C88.89,215.8,90.26,236.88,107.32,253.45Z" transform="translate(0 0)"/><g class="cls-45"><g class="cls-11"><path class="cls-6" d="M107.32,253.45v.34c-17.06-16.57-18.43-37.65-35.5-54.23v-.33C88.89,215.8,90.26,236.88,107.32,253.45Z" transform="translate(0 0)"/></g></g></g><path class="cls-46" d="M75.12,197.3c16.74,16.26,20.27,36.72,37.07,53l-4.65,1.33C90.8,235.43,89.43,214.35,72.62,198Z" transform="translate(0 0)"/><g class="cls-11"><path class="cls-7" d="M112.19,250.35c.44.07.79.74.79,1.48l-5.66,1.62a5.66,5.66,0,0,1,.22-1.77Z" transform="translate(0 0)"/><g class="cls-47"><g class="cls-11"><path class="cls-7" d="M112.19,250.35c.44.07.79.74.79,1.48l-5.66,1.62a5.66,5.66,0,0,1,.22-1.77Z" transform="translate(0 0)"/><path class="cls-7" d="M107.45,252c.06-.07.2-.06.28-.08l4.25-1.22.55-.16a1.87,1.87,0,0,1,.45,1.3l-5.66,1.62A7.45,7.45,0,0,1,107.45,252Z" transform="translate(0 0)"/></g></g></g><g class="cls-11"><path class="cls-6" d="M107.54,251.68a5.66,5.66,0,0,0-.22,1.77c-17.06-16.57-18.43-37.65-35.5-54.22,0-.75.36-1.29.8-1.22C89.43,214.35,90.8,235.43,107.54,251.68Z" transform="translate(0 0)"/><g class="cls-48"><g class="cls-11"><path class="cls-6" d="M107.54,251.68a5.66,5.66,0,0,0-.22,1.77c-17.06-16.57-18.43-37.65-35.5-54.22,0-.75.36-1.29.8-1.22C89.43,214.35,90.8,235.43,107.54,251.68Z" transform="translate(0 0)"/><path class="cls-6" d="M72,198.37c15.36,15.7,20.08,38.34,35.36,54.09a7.74,7.74,0,0,0-.06,1c-17.06-16.57-18.43-37.65-35.5-54.22A1.76,1.76,0,0,1,72,198.37Z" transform="translate(0 0)"/></g></g></g></g><g class="cls-11"><g class="cls-11"><path class="cls-5" d="M77.68,192.12l1.09-.68,1.06-.67v.08L77.94,192A.5.5,0,0,0,77.68,192.12Z" transform="translate(0 0)"/><g class="cls-49"><g class="cls-11"><path class="cls-5" d="M77.68,192.12l2.15-1.35v.08L77.94,192A.5.5,0,0,0,77.68,192.12Z" transform="translate(0 0)"/><path class="cls-5" d="M79.83,190.79l-2,1.28-.12.05.21-.13.18-.11.15-.09.12-.08.11-.07.08,0,.07-.05s.05,0,.06,0l.06,0,0,0,0,0,.05,0,.06,0,.07-.05.08,0,.11-.06.12-.08.14-.09.17-.11.21-.13Z" transform="translate(0 0)"/></g></g></g><g class="cls-11"><path class="cls-5" d="M79.83,190.77c.2.13.47.3,1,.62l.6.35.64.37,1.65.94c.86.46,1.59.87,2.56,1.36,1.15.6,3.85,2,8,3.85,2.25,1,4.08,1.76,4.68,2,2.14.88,3.93,1.59,4.8,1.93,1.31.51,3.41,1.32,4.88,1.87,4,1.49,6.93,2.56,6.94,2.56l5,1.81,5,1.81c2.95,1.08,4.6,1.7,5.92,2.2.93.35,2.81,1.07,4.86,1.88,1.15.46,2.91,1.16,4.77,1.94A139.66,139.66,0,0,1,157.07,224a.13.13,0,0,0-.12,0,145.84,145.84,0,0,0-17.79-8.49c-6.34-2.59-13-5-19.62-7.41s-13.3-4.82-19.66-7.42A149.6,149.6,0,0,1,82,192.12c-.86-.5-1.71-1-2.12-1.27Z" transform="translate(0 0)"/><g class="cls-50"><g class="cls-11"><path class="cls-5" d="M79.83,190.77c11.24,7,25.88,12.27,38.8,16.95,14.58,5.28,27.17,9.84,38.44,16.28a.13.13,0,0,0-.12,0,145.84,145.84,0,0,0-17.79-8.49c-6.34-2.59-13-5-19.62-7.41s-13.3-4.82-19.66-7.42A149.6,149.6,0,0,1,82,192.12c-.86-.5-1.71-1-2.12-1.27Z" transform="translate(0 0)"/><path class="cls-5" d="M157,224c-.28,0-.57-.33-.82-.47-10.09-5.79-21.51-9.94-40.44-16.83-15.46-5.63-26.29-10-35.89-15.87h.08l.09,0,.09.06.1.06.1.06.1.06.11.07.11.06.11.07.12.07.11.07.12.07.12.07.13.07.12.07.13.08.12.07.13.07L82,192l.13.07.82.47.83.47.85.46.85.46.86.44.86.45.88.44.88.44.89.43.89.43.9.42.91.42.92.41.92.41.92.41.93.4.94.41.94.39,1,.4,1,.39,1,.39,1,.38,1,.39,1,.38,1,.38,1,.37,1,.38,1,.37,1,.37,1,.37,1,.37,1,.36,1,.37,1,.36,1,.37,1,.36,1,.36,1,.36,1,.37,1,.36,1,.36,1,.36,1,.36,1,.36,1,.37,1,.36,1,.36,1,.37,1,.37,1,.36,1,.37,1,.37,1,.37,1,.38,1,.37,1,.38,1,.38,1,.38.95.39,1,.39.95.39.94.39.94.39.93.4.93.41.92.4.92.41.91.41.9.42.9.42.89.43.89.43.88.43.87.44.86.44.86.45.84.46.84.46.83.46.82.47A.09.09,0,0,0,157,224Z" transform="translate(0 0)"/></g></g></g><g class="cls-11"><path class="cls-5" d="M157.07,224l.76.44.48.28.65.4.38.23a.45.45,0,0,0-.25-.07c-.46-.29-1.29-.79-2.14-1.28A.13.13,0,0,1,157.07,224Z" transform="translate(0 0)"/><g class="cls-51"><g class="cls-11"><path class="cls-5" d="M157.07,224c.49.28,1.25.72,2.27,1.35a.45.45,0,0,0-.25-.07c-.46-.29-1.29-.79-2.14-1.28A.13.13,0,0,1,157.07,224Z" transform="translate(0 0)"/><path class="cls-5" d="M159.15,225.28c-.37-.23-1.39-.84-2.17-1.29a.1.1,0,0,1,.09,0l.13.07.13.08.13.07.12.07.13.08.12.07.12.07.12.07.12.07.12.07.11.07.12.07.11.07.11.06.1.07.1.06.1.06.1.06.09,0,.09.06A.44.44,0,0,0,159.15,225.28Z" transform="translate(0 0)"/></g></g></g><g class="cls-11"><path class="cls-5" d="M155.57,230.61c-1.08-.68-2.36-1.42-2.36-1.42l-1.12-.64-.82-.46c-.63-.35-2.12-1.18-4.2-2.24-1.73-.88-3.2-1.59-3.48-1.72l-1.77-.84c-1.79-.84-2.6-1.2-2.69-1.24l-1.82-.81-1.83-.8-1.85-.79-.93-.39-.93-.39s-1.3-.55-3.75-1.55l-4.74-1.9-4.77-1.88c-.55-.27-1.34-.52-1.92-.75l-1-.37-2.86-1.12c-.28-.14-.67-.27-1-.38l-.95-.37a12.34,12.34,0,0,0-1.9-.76l-3.78-1.52c-1.81-.73-2.42-1-3.75-1.54L99.58,206l-.92-.39c-1.13-.48-2.73-1.19-2.75-1.2-2.53-1.12-4.32-2-5.37-2.46-2.94-1.39-4.64-2.28-5.2-2.57-2.31-1.21-4.21-2.26-6.14-3.4,0,0-.49-.3-.81-.49l-.71-.43a1.54,1.54,0,0,1-.51-1.28c1,.6,1.94,1.18,2.94,1.76a169.6,169.6,0,0,0,17.4,8.56c6.12,2.65,12.49,5.15,18.86,7.64s12.75,5,18.87,7.64a167.6,167.6,0,0,1,17.4,8.57c1,.57,2,1.15,2.94,1.75C155.57,230.24,155.57,230.61,155.57,230.61Z" transform="translate(0 0)"/><g class="cls-52"><g class="cls-11"><path class="cls-5" d="M155.57,230.61c-11.27-7-25.48-12.54-38-17.44-15.1-5.91-28.15-11-39.65-18a1.54,1.54,0,0,1-.73-1.41c1,.6,1.94,1.18,2.94,1.76a169.6,169.6,0,0,0,17.4,8.56c6.12,2.65,12.49,5.15,18.86,7.64s12.75,5,18.87,7.64a167.6,167.6,0,0,1,17.4,8.57c1,.57,2,1.15,2.94,1.75C155.57,230.24,155.57,230.61,155.57,230.61Z" transform="translate(0 0)"/></g></g></g><g class="cls-11"><path class="cls-5" d="M159.34,228.23l-3.77,2.38s0-.37,0-1l4.27-2.69A1.53,1.53,0,0,1,159.34,228.23Z" transform="translate(0 0)"/><g class="cls-53"><g class="cls-11"><path class="cls-5" d="M159.34,228.23l-3.77,2.38s0-.37,0-1l4.27-2.69A1.53,1.53,0,0,1,159.34,228.23Z" transform="translate(0 0)"/></g></g></g><g class="cls-11"><path class="cls-5" d="M159.85,226.62V227l-4.27,2.69v-.34Z" transform="translate(0 0)"/><g class="cls-54"><g class="cls-11"><path class="cls-5" d="M159.85,226.62V227l-4.27,2.69v-.34Z" transform="translate(0 0)"/></g></g></g><g class="cls-11"><path class="cls-5" d="M155.58,229.31v.34c-1-.6-1.94-1.18-2.94-1.75a167.6,167.6,0,0,0-17.4-8.57c-6.12-2.65-12.49-5.14-18.87-7.64s-12.74-5-18.86-7.64a169.6,169.6,0,0,1-17.4-8.56c-1-.58-2-1.16-2.94-1.76v-.34c1,.6,2,1.19,2.94,1.76a169.63,169.63,0,0,0,17.4,8.57c6.12,2.65,12.49,5.14,18.86,7.63s12.75,5,18.88,7.64a170.47,170.47,0,0,1,17.39,8.57C153.64,228.13,154.62,228.72,155.58,229.31Z" transform="translate(0 0)"/><g class="cls-55"><g class="cls-11"><path class="cls-5" d="M155.58,229.31v.34c-1-.6-1.94-1.18-2.94-1.75a167.6,167.6,0,0,0-17.4-8.57c-6.12-2.65-12.49-5.14-18.87-7.64s-12.74-5-18.86-7.64a169.6,169.6,0,0,1-17.4-8.56c-1-.58-2-1.16-2.94-1.76v-.34c1,.6,2,1.19,2.94,1.76a169.63,169.63,0,0,0,17.4,8.57c6.12,2.65,12.49,5.14,18.86,7.63s12.75,5,18.88,7.64a170.47,170.47,0,0,1,17.39,8.57C153.64,228.13,154.62,228.72,155.58,229.31Z" transform="translate(0 0)"/></g></g></g><path class="cls-46" d="M157,224c.85.49,1.68,1,2.14,1.28l-3.51,2.21c-.56-.35-1.54-.93-2.54-1.51a168.73,168.73,0,0,0-17.46-8.59c-6.14-2.66-12.51-5.16-18.89-7.65s-12.73-5-18.85-7.63a171.35,171.35,0,0,1-17.33-8.53c-1-.58-2-1.17-2.57-1.54l1.89-1.19c.41.27,1.26.77,2.12,1.27a149.6,149.6,0,0,0,17.93,8.56c6.36,2.6,13,5,19.66,7.42s13.28,4.82,19.62,7.41A145.84,145.84,0,0,1,157,224Z" transform="translate(0 0)"/><g class="cls-11"><path class="cls-5" d="M159.09,225.28c.42,0,.76.6.76,1.34l-4.27,2.69v-1.82Z" transform="translate(0 0)"/><g class="cls-56"><g class="cls-11"><path class="cls-5" d="M159.09,225.28c.42,0,.76.6.76,1.34l-4.27,2.69v-1.82Z" transform="translate(0 0)"/><path class="cls-5" d="M155.58,227.66l3.71-2.34a1.46,1.46,0,0,1,.56,1.3l-4.27,2.69Z" transform="translate(0 0)"/></g></g></g><g class="cls-11"><path class="cls-5" d="M155.58,227.49v1.82c-1-.59-1.94-1.18-2.94-1.75A170.47,170.47,0,0,0,135.25,219c-6.13-2.65-12.5-5.14-18.88-7.64s-12.74-5-18.86-7.63a169.63,169.63,0,0,1-17.4-8.57c-1-.57-2-1.16-2.94-1.76,0-.74.35-1.35.77-1.35.6.37,1.58,1,2.57,1.54a171.35,171.35,0,0,0,17.33,8.53c6.12,2.64,12.49,5.13,18.85,7.63s12.75,5,18.89,7.65A168.73,168.73,0,0,1,153,226C154,226.56,155,227.14,155.58,227.49Z" transform="translate(0 0)"/><g class="cls-57"><g class="cls-11"><path class="cls-5" d="M155.58,227.49v1.82c-1-.59-1.94-1.18-2.94-1.75A170.47,170.47,0,0,0,135.25,219c-6.13-2.65-12.5-5.14-18.88-7.64s-12.74-5-18.86-7.63a169.63,169.63,0,0,1-17.4-8.57c-1-.57-2-1.16-2.94-1.76,0-.74.35-1.35.77-1.35.6.37,1.58,1,2.57,1.54a171.35,171.35,0,0,0,17.33,8.53c6.12,2.64,12.49,5.13,18.85,7.63s12.75,5,18.89,7.65A168.73,168.73,0,0,1,153,226C154,226.56,155,227.14,155.58,227.49Z" transform="translate(0 0)"/><path class="cls-5" d="M77.32,192.61c.15-.05.31.2.44.28,10,6.45,26.49,12.92,38.54,17.64,23.86,9.34,28.43,11.74,39.28,17.91v.87c-1-.59-1.94-1.18-2.94-1.75A170.47,170.47,0,0,0,135.25,219c-6.13-2.65-12.5-5.14-18.88-7.64s-12.74-5-18.86-7.63a169.63,169.63,0,0,1-17.4-8.57c-1-.57-2-1.16-2.94-1.76A2.08,2.08,0,0,1,77.32,192.61Z" transform="translate(0 0)"/></g></g></g></g><g class="cls-11"><g class="cls-11"><g class="cls-58"><g class="cls-11"><path class="cls-9" d="M69.21,197.31v1.51l-.2-.11A2.07,2.07,0,0,1,67.77,197v-1.52A2.1,2.1,0,0,0,69,197.2Z" transform="translate(0 0)"/></g></g></g><polygon class="cls-9" points="80.09 202.82 80.09 204.34 69.2 198.82 69.21 197.31 80.09 202.82"/><g class="cls-11"><g class="cls-59"><g class="cls-11"><path class="cls-9" d="M91.89,199.74v1.52a3.55,3.55,0,0,1-2.07,2.9,11.19,11.19,0,0,1-9.72.18v-1.52a11.14,11.14,0,0,0,9.73-.18A3.56,3.56,0,0,0,91.89,199.74Z" transform="translate(0 0)"/></g></g></g><path class="cls-60" d="M80.35,190.6l.19.12L90.1,197c2.48,1.63,2.36,4.09-.28,5.63a11.14,11.14,0,0,1-9.73.18l-10.88-5.51-.2-.11c-1.63-.94-1.66-2.48,0-3.44l5.44-3.16A6.54,6.54,0,0,1,80.35,190.6Z" transform="translate(0 0)"/></g><g class="cls-11"><g class="cls-11"><path class="cls-4" d="M113.72,251.73l2.27,3a2.45,2.45,0,0,0-2.67-.68L111,251.05A2.46,2.46,0,0,1,113.72,251.73Z" transform="translate(0 0)"/><g class="cls-61"><g class="cls-11"><path class="cls-4" d="M113.32,254,111,251.05a3.74,3.74,0,0,1,.91-.12l2.27,2.95A3.66,3.66,0,0,0,113.32,254Z" transform="translate(0 0)"/><path class="cls-4" d="M114.22,253.88,112,250.93a2.21,2.21,0,0,1,1.77.8l2.27,3A2.19,2.19,0,0,0,114.22,253.88Z" transform="translate(0 0)"/></g></g></g><g class="cls-11"><path class="cls-4" d="M110.71,258.75l-2.28-2.95a2,2,0,0,1-.4-1.22,4,4,0,0,1,3-3.53l2.28,2.95a4,4,0,0,0-3,3.53A2,2,0,0,0,110.71,258.75Z" transform="translate(0 0)"/><g class="cls-62"><g class="cls-11"><path class="cls-4" d="M110.71,258.75l-2.28-2.95a2,2,0,0,1-.4-1.22,3.09,3.09,0,0,1,.25-1.18l2.27,3a2.85,2.85,0,0,0-.24,1.17A2,2,0,0,0,110.71,258.75Z" transform="translate(0 0)"/><path class="cls-10" d="M110.55,256.36l-2.27-3a4.3,4.3,0,0,1,2.76-2.35l2.28,2.95A4.32,4.32,0,0,0,110.55,256.36Z" transform="translate(0 0)"/></g></g></g><path class="cls-2" d="M113.32,254c1.68-.45,3.06.4,3.08,1.9a4,4,0,0,1-3,3.52c-1.69.45-3.06-.39-3.08-1.89A4,4,0,0,1,113.32,254Z" transform="translate(0 0)"/></g><g class="cls-11"><g class="cls-11"><path class="cls-6" d="M115.14,255.54l2.28,3a1.55,1.55,0,0,0-1.65-.42l-2.27-2.95A1.53,1.53,0,0,1,115.14,255.54Z" transform="translate(0 0)"/><g class="cls-63"><g class="cls-11"><path class="cls-6" d="M115.77,258.07l-2.27-2.95a2.18,2.18,0,0,1,.55-.07l2.28,2.95A2.2,2.2,0,0,0,115.77,258.07Z" transform="translate(0 0)"/><path class="cls-6" d="M116.33,258l-2.28-2.95a1.32,1.32,0,0,1,1.09.49l2.28,3A1.34,1.34,0,0,0,116.33,258Z" transform="translate(0 0)"/></g></g></g><g class="cls-11"><path class="cls-6" d="M114.17,261,111.89,258a1.22,1.22,0,0,1-.24-.75,2.44,2.44,0,0,1,1.85-2.17l2.27,2.95a2.47,2.47,0,0,0-1.85,2.17A1.17,1.17,0,0,0,114.17,261Z" transform="translate(0 0)"/><g class="cls-64"><g class="cls-11"><path class="cls-6" d="M114.17,261,111.89,258a1.22,1.22,0,0,1-.24-.75,1.69,1.69,0,0,1,.15-.72l2.27,2.95a1.86,1.86,0,0,0-.15.72A1.17,1.17,0,0,0,114.17,261Z" transform="translate(0 0)"/><path class="cls-5" d="M114.07,259.52l-2.27-2.95a2.64,2.64,0,0,1,1.7-1.45l2.27,2.95A2.69,2.69,0,0,0,114.07,259.52Z" transform="translate(0 0)"/></g></g></g><path class="cls-7" d="M115.77,258.07c1-.27,1.88.25,1.89,1.17a2.44,2.44,0,0,1-1.85,2.17c-1,.28-1.88-.25-1.89-1.17A2.47,2.47,0,0,1,115.77,258.07Z" transform="translate(0 0)"/></g><g class="cls-11"><g class="cls-11"><path class="cls-8" d="M159.57,225.43l1.3.77a1.72,1.72,0,0,0-1.75.17l-1.29-.77A1.7,1.7,0,0,1,159.57,225.43Z" transform="translate(0 0)"/><g class="cls-65"><g class="cls-11"><path class="cls-8" d="M159.12,226.37l-1.29-.77a2.84,2.84,0,0,1,.63-.28l1.3.78A2.44,2.44,0,0,0,159.12,226.37Z" transform="translate(0 0)"/><path class="cls-8" d="M159.76,226.1l-1.3-.78a1.43,1.43,0,0,1,1.11.11l1.3.77A1.43,1.43,0,0,0,159.76,226.1Z" transform="translate(0 0)"/></g></g></g><g class="cls-11"><path class="cls-8" d="M157.45,231.93l-1.29-.77a1.65,1.65,0,0,1-.69-1.48,5.11,5.11,0,0,1,2.36-4.08l1.29.77a5.14,5.14,0,0,0-2.36,4.08A1.64,1.64,0,0,0,157.45,231.93Z" transform="translate(0 0)"/><g class="cls-66"><g class="cls-11"><path class="cls-8" d="M157.45,231.93l-1.29-.77a1.65,1.65,0,0,1-.69-1.48,3.56,3.56,0,0,1,.09-.85l1.3.77a3.64,3.64,0,0,0-.1.85A1.64,1.64,0,0,0,157.45,231.93Z" transform="translate(0 0)"/><path class="cls-23" d="M156.86,229.6l-1.3-.77a5.26,5.26,0,0,1,2.27-3.23l1.29.77A5.2,5.2,0,0,0,156.86,229.6Z" transform="translate(0 0)"/></g></g></g><path class="cls-2" d="M159.12,226.37c1.32-.77,2.41-.18,2.43,1.32a5.13,5.13,0,0,1-2.35,4.08c-1.33.76-2.42.17-2.44-1.32A5.14,5.14,0,0,1,159.12,226.37Z" transform="translate(0 0)"/></g><g class="cls-11"><g class="cls-11"><path class="cls-7" d="M160.2,227.4,171,235.78s-.06,0-.1,0l-11.68-8.3A.94.94,0,0,1,160.2,227.4Z" transform="translate(0 0)"/><g class="cls-67"><g class="cls-11"><path class="cls-7" d="M170.91,235.79l-11.68-8.3a1.48,1.48,0,0,1,.35-.15L171,235.77Z" transform="translate(0 0)"/><path class="cls-7" d="M171,235.77l-11.37-8.43a.77.77,0,0,1,.62.06L171,235.78Z" transform="translate(0 0)"/></g></g></g><g class="cls-11"><path class="cls-7" d="M170.82,236.1l-12.52-5.52a.91.91,0,0,1-.38-.82,2.84,2.84,0,0,1,1.31-2.27l11.68,8.3a.29.29,0,0,0-.13.22C170.78,236.06,170.79,236.08,170.82,236.1Z" transform="translate(0 0)"/><g class="cls-68"><g class="cls-11"><path class="cls-7" d="M170.82,236.1l-12.52-5.52a.91.91,0,0,1-.38-.82,2.61,2.61,0,0,1,.05-.48L170.78,236v0C170.78,236.06,170.79,236.08,170.82,236.1Z" transform="translate(0 0)"/><path class="cls-6" d="M170.78,236,158,229.28a2.9,2.9,0,0,1,1.26-1.79l11.68,8.3A.3.3,0,0,0,170.78,236Z" transform="translate(0 0)"/></g></g></g><path class="cls-7" d="M170.91,235.79a.09.09,0,0,1,.14.07.29.29,0,0,1-.14.23c-.07,0-.13,0-.13-.08A.29.29,0,0,1,170.91,235.79Z" transform="translate(0 0)"/></g><g class="cls-11"><g class="cls-11"><path class="cls-7" d="M117.49,258.74l2.27,5.88a.14.14,0,0,0-.16,0l-3.71-6.24A1.48,1.48,0,0,1,117.49,258.74Z" transform="translate(0 0)"/><g class="cls-69"><g class="cls-11"><path class="cls-7" d="M119.6,264.58l-3.71-6.24a1.74,1.74,0,0,1,.54-.07l3.22,6.3Z" transform="translate(0 0)"/><path class="cls-7" d="M119.65,264.57l-3.22-6.3a1.3,1.3,0,0,1,1.06.47l2.27,5.88A.16.16,0,0,0,119.65,264.57Z" transform="translate(0 0)"/></g></g></g><g class="cls-11"><path class="cls-7" d="M119.44,264.86l-5.1-3.69a1.23,1.23,0,0,1-.25-.73,2.39,2.39,0,0,1,1.8-2.1l3.71,6.24a.21.21,0,0,0-.18.21A.1.1,0,0,0,119.44,264.86Z" transform="translate(0 0)"/><g class="cls-70"><g class="cls-11"><path class="cls-7" d="M119.44,264.86l-5.1-3.69a1.23,1.23,0,0,1-.25-.73,1.76,1.76,0,0,1,.15-.7l5.19,5a.15.15,0,0,0,0,.07A.1.1,0,0,0,119.44,264.86Z" transform="translate(0 0)"/><path class="cls-7" d="M119.43,264.72l-5.19-5a2.58,2.58,0,0,1,1.65-1.4l3.71,6.24A.24.24,0,0,0,119.43,264.72Z" transform="translate(0 0)"/></g></g></g><path class="cls-7" d="M119.6,264.58c.1,0,.18,0,.18.11a.24.24,0,0,1-.18.21c-.1,0-.18,0-.18-.11A.21.21,0,0,1,119.6,264.58Z" transform="translate(0 0)"/></g><g id="man"><path class="cls-2" d="M236.73,210.4a6.75,6.75,0,0,0-3.39-1.57,3.16,3.16,0,0,0-1.55.62c-.46.29-.43.6-.4,1.09.08,1.36,1.69,2.38,2.38,2.65s1.21.2,1.95,1a2.24,2.24,0,0,0,.51.51c1.66.84,3.68.31,2.88-2.43-.36-1.2-.28-1.42-1.5-2.15C237.33,209.92,237.2,210.8,236.73,210.4Z" transform="translate(0 0)"/></g><path class="cls-30" d="M231.37,191.17a1.39,1.39,0,0,1,.92-.39c1.47-.27,2.92-.85,4.37-1.21a9.55,9.55,0,0,1,2-.28l1.44-1.3c0,.2.05.41.07.61.39,4.73-1.5,9.32-1.26,20.41,0,1.68-.22,2.65-.9,3.22a1.72,1.72,0,0,1-2.69-.94c-.44-1.55-.89-10-1.47-11.11a13.72,13.72,0,0,1-1.51-3.69c-.16-1.16-.24-.07-.36-1.24s-.5-2-.69-3.1A1.23,1.23,0,0,1,231.37,191.17Z" transform="translate(0 0)"/><path class="cls-71" d="M235,209a19.89,19.89,0,0,0,.34,2.3,1.72,1.72,0,0,0,2.69.94c.68-.57.93-1.54.9-3.22v-.15A5.46,5.46,0,0,1,235,209Z" transform="translate(0 0)"/><path class="cls-72" d="M239.32,199c.44-.32,1.09-8.86.82-12.09,0-.2,0-.41-.07-.61l-1.44,1.3a9.55,9.55,0,0,0-2,.28c-1.45.36-2.9.94-4.37,1.21a1.39,1.39,0,0,0-.92.39,1.23,1.23,0,0,0-.11,1c.19,1.06.58,2,.69,3.1s.2.08.36,1.24a13.72,13.72,0,0,0,1.51,3.69,2,2,0,0,1,.16.54A7.62,7.62,0,0,0,239.32,199Z" transform="translate(0 0)"/><path class="cls-32" d="M228.38,209c0,1.59-.36,5.84,1.07,6.38.71.27,2.61-.29,2.75-1.07.83-4.68,1.9-14,1.86-14.14-.28-.94-1.52-.41-2.13-.2C228.09,201.33,228.65,197.81,228.38,209Z" transform="translate(0 0)"/><path class="cls-71" d="M228.52,210.25l-.18-.12c-.06,1.91-.06,4.84,1.11,5.29.71.27,2.61-.29,2.75-1.07.16-.93.34-2,.51-3.23A5.38,5.38,0,0,1,228.52,210.25Z" transform="translate(0 0)"/><path class="cls-32" d="M232.47,189.48c.85.05,1.71.06,2.57.05a5.6,5.6,0,0,0,1.23,0c.32-.08.58-.32.91-.4s1-.61,1.21-.44-.12,1.32-.21,1.72c-.79,3.58-3.06,4.34-3.76,7.92a39.15,39.15,0,0,1-1.84,6.3c-.31.78.24.1-1.57.42a5.65,5.65,0,0,1-1.3.09c-.32,0-.74-.17-1,0-.19-1.28,0-2.6-.32-3.85a23.35,23.35,0,0,1-.26-4.1C227.74,186.79,227.32,189.18,232.47,189.48Z" transform="translate(0 0)"/><path class="cls-4" d="M235.1,198.27c.7-3.58,2.29-4.3,3.08-7.88.09-.4.53-1.46.21-1.72s-10.18-1.62-10.49-.13c-.19.94-.29,8.22-.3,9.21,0,1.74-.72,3,4.24,3.22C235.27,201.12,234.85,199.53,235.1,198.27Z" transform="translate(0 0)"/><path class="cls-73" d="M226.88,174.24c0,.34,0,1,.36,1.23a2.91,2.91,0,0,0,1.18.14c1,.09,2,.16,2.93.22.44,0,.88.06,1.32.07a19.73,19.73,0,0,0,3.85-.25,3.94,3.94,0,0,0,1.69-.53,1.42,1.42,0,0,0,.36-1.36,2.59,2.59,0,0,0-1.46-2.2,5.15,5.15,0,0,0-2.64-.09,46.91,46.91,0,0,0-6,1.17,2.92,2.92,0,0,0-1,.4A1.63,1.63,0,0,0,226.88,174.24Z" transform="translate(0 0)"/><path class="cls-7" d="M227.54,171.42a18.89,18.89,0,0,1,5.47-3c2.27-.82,4.6-2.49,7-1.12,2.95,1.67,1.28,5.31.81,10.83-.83,9.91.92,11-3.28,11.49-3.65.47-8.47,1.49-9.71-.56a3.58,3.58,0,0,1-.18-2.1C228.19,177.9,226.51,173,227.54,171.42Z" transform="translate(0 0)"/><path class="cls-32" d="M232.4,166.47c-.09-.61,4.77-2.85,4.77-1.95,0,2.63.45,2.24.53,3.21s-.75,2.51-3.91,2.05C231.41,169.44,232.68,168.38,232.4,166.47Z" transform="translate(0 0)"/><path class="cls-32" d="M229.72,158.36a2.87,2.87,0,0,0-.68,1.4c-.17,1.19.31,2.42.05,3.6s.24,3.75,2.5,4.42a8,8,0,0,0,4.12-.41,5.79,5.79,0,0,0,2.2-2.32C242.63,157.55,232.92,154.47,229.72,158.36Z" transform="translate(0 0)"/><path class="cls-2" d="M238,155.89c-.86-1.85-7.45-2.51-9.24,1.88a9.47,9.47,0,0,0-.26,1c-.21.73.48,1,.64,1.09.48.33.57,1.07.77,1.58.13.32.39.49.47.83s.09,1.77.72,1.38.41-1.4.77-1.33c1.73.33-.45,5.26,4.37,4.19,1.12-.25,1.55-.47,2.54-1.89a5.2,5.2,0,0,0,1.25-3C240.8,156.32,238.41,156.7,238,155.89Z" transform="translate(0 0)"/><path class="cls-32" d="M232.27,161.65c.89-.19,1.28.89.8,1.84a4.36,4.36,0,0,1-.64.78c-1.4,1.61-2,.19-1.58-.35C231.87,162.66,231.16,161.9,232.27,161.65Z" transform="translate(0 0)"/><path class="cls-30" d="M232.25,163.38c.09-.11,1-.86.27-1.17a.32.32,0,0,0-.4.33c0,.1,0,.21,0,.32,0,.33-.42.48-.31.74S232.2,163.45,232.25,163.38Z" transform="translate(0 0)"/><path class="cls-2" d="M228.45,213.39c-1,.52-3.88-.78-5-.33a1.93,1.93,0,0,0-.73,2.31c.42,1,2.17,1.46,3.18,1.38,2.69-.2,4.17,2.25,5.95.62.82-.74.47-2,.35-3A2.4,2.4,0,0,1,228.45,213.39Z" transform="translate(0 0)"/><path class="cls-6" d="M231.34,171.93a3.17,3.17,0,0,0-2.35-.83,3,3,0,0,0-2.05,1.52,19.08,19.08,0,0,0-1,1.78c-.49.89-1.06,1.75-1.49,2.68a5.46,5.46,0,0,1-.5.86,13,13,0,0,1,3,3.77,4,4,0,0,0,.69-.61c.3-.32.61-.59.89-.94l.86-1.17c.54-.77,1.07-1.55,1.62-2.31a5.44,5.44,0,0,0,1.14-2.26A2.84,2.84,0,0,0,231.34,171.93Z" transform="translate(0 0)"/><path class="cls-9" d="M195.08,179.68l-3,1.72c-.13.23-.13.32-.11.41a.87.87,0,0,0,.09.24c.13.13.19.16.25.14h3.21a.26.26,0,0,0-.13-.23,1.8,1.8,0,0,1-.24-.35.54.54,0,0,1-.07-.13,2.52,2.52,0,0,1-.12-.29c0-.06,0-.12-.05-.18a3.06,3.06,0,0,1,0-.32c0-.05,0-.11,0-.16a1.71,1.71,0,0,1,.05-.46,1,1,0,0,1,.17-.35Z" transform="translate(0 0)"/><g class="cls-11"><g class="cls-11"><path class="cls-6" d="M195.09,179.68l10.1-5.83a2.16,2.16,0,0,0-1.39,1.68l-9.13,4.65A.67.67,0,0,1,195.09,179.68Z" transform="translate(0 0)"/><g class="cls-74"><g class="cls-11"><path class="cls-6" d="M203.82,175.45l-9.14,4.71a1.05,1.05,0,0,1,.15-.3l9.48-5.4A3.05,3.05,0,0,0,203.82,175.45Z" transform="translate(0 0)"/><path class="cls-6" d="M204.31,174.46l-9.48,5.4a.43.43,0,0,1,.18-.15l9.91-5.76A1.81,1.81,0,0,0,204.31,174.46Z" transform="translate(0 0)"/><path class="cls-6" d="M204.92,174,195,179.71c.08,0,10.18-5.86,10.18-5.86A1.48,1.48,0,0,0,204.92,174Z" transform="translate(0 0)"/></g></g></g><g class="cls-11"><path class="cls-6" d="M207.35,182.17H195.74a.67.67,0,0,1-.6-.23,2,2,0,0,1-.47-1.77l9.13-4.65a6.7,6.7,0,0,0,1.55,5.88A2.11,2.11,0,0,0,207.35,182.17Z" transform="translate(0 0)"/><g class="cls-75"><g class="cls-11"><path class="cls-6" d="M207.35,182.17H195.74a.67.67,0,0,1-.6-.23,1.92,1.92,0,0,1-.18-.22l9.79-1a4.33,4.33,0,0,0,.6.73A2.11,2.11,0,0,0,207.35,182.17Z" transform="translate(0 0)"/><path class="cls-6" d="M204.75,180.68l-9.79,1a2,2,0,0,1-.17-.32l9.39-1.81A6.15,6.15,0,0,0,204.75,180.68Z" transform="translate(0 0)"/><path class="cls-6" d="M204.18,179.6l-9.39,1.81a1.93,1.93,0,0,1-.12-.41l9.11-2.74A7.66,7.66,0,0,0,204.18,179.6Z" transform="translate(0 0)"/><path class="cls-13" d="M203.78,178.26,194.67,181a1.89,1.89,0,0,1,0-.82l9.13-4.65A5.84,5.84,0,0,0,203.78,178.26Z" transform="translate(0 0)"/></g></g></g></g><g class="cls-11"><g class="cls-11"><path class="cls-9" d="M205.17,173.86l45.92-12a2.15,2.15,0,0,0-1.39,1.67l-45.92,12A2.16,2.16,0,0,1,205.17,173.86Z" transform="translate(0 0)"/><g class="cls-76"><g class="cls-11"><path class="cls-12" d="M249.7,163.56l-45.92,12c0-.08,45.95-12.05,45.95-12.05Z" transform="translate(0 0)"/><path class="cls-9" d="M249.73,163.48l-45.92,12a3,3,0,0,1,.48-1l45.92-12A2.89,2.89,0,0,0,249.73,163.48Z" transform="translate(0 0)"/><path class="cls-9" d="M250.21,162.5l-45.92,12a1.81,1.81,0,0,1,.61-.51l45.92-12A1.81,1.81,0,0,0,250.21,162.5Z" transform="translate(0 0)"/><path class="cls-9" d="M250.82,162,204.9,174l.27-.1,45.92-12A1.48,1.48,0,0,0,250.82,162Z" transform="translate(0 0)"/></g></g></g><g class="cls-11"><path class="cls-9" d="M253.26,170.21l-45.92,12a2.14,2.14,0,0,1-2-.76,6.73,6.73,0,0,1-1.55-5.89l45.92-12a6.72,6.72,0,0,0,1.55,5.88A2.12,2.12,0,0,0,253.26,170.21Z" transform="translate(0 0)"/><g class="cls-77"><g class="cls-11"><path class="cls-9" d="M253.26,170.21l-45.92,12a2.14,2.14,0,0,1-2-.76,5.37,5.37,0,0,1-.59-.73l45.92-12a4.82,4.82,0,0,0,.59.73A2.12,2.12,0,0,0,253.26,170.21Z" transform="translate(0 0)"/><path class="cls-9" d="M250.66,168.71l-45.92,12a6.52,6.52,0,0,1-.57-1.08l45.92-12A5.81,5.81,0,0,0,250.66,168.71Z" transform="translate(0 0)"/><path class="cls-9" d="M250.09,167.63l-45.92,12a6.92,6.92,0,0,1-.41-1.34l45.92-12A6.92,6.92,0,0,0,250.09,167.63Z" transform="translate(0 0)"/><path class="cls-12" d="M249.68,166.29l-45.92,12a6.16,6.16,0,0,1,0-2.74l45.92-12A6.12,6.12,0,0,0,249.68,166.29Z" transform="translate(0 0)"/></g></g></g><path class="cls-12" d="M249.7,163.56c.52-1.87,2-2.28,3.41-.91a6.73,6.73,0,0,1,1.55,5.88c-.52,1.88-2,2.28-3.41.91A6.72,6.72,0,0,1,249.7,163.56Z" transform="translate(0 0)"/></g><g class="cls-11"><g class="cls-11"><path class="cls-6" d="M251.51,162.29l3.72-1a1.9,1.9,0,0,0-1.23,1.49l-3.72,1A1.93,1.93,0,0,1,251.51,162.29Z" transform="translate(0 0)"/><g class="cls-78"><g class="cls-11"><path class="cls-6" d="M254,162.82l-3.72,1c0-.07,3.74-1,3.74-1Z" transform="translate(0 0)"/><path class="cls-6" d="M254,162.75l-3.72,1a2.58,2.58,0,0,1,.43-.88l3.72-1A2.49,2.49,0,0,0,254,162.75Z" transform="translate(0 0)"/><path class="cls-6" d="M254.45,161.87l-3.72,1a1.63,1.63,0,0,1,.54-.45l3.72-1A1.63,1.63,0,0,0,254.45,161.87Z" transform="translate(0 0)"/><path class="cls-6" d="M255,161.42l-3.72,1,.24-.09,3.72-1A1.17,1.17,0,0,0,255,161.42Z" transform="translate(0 0)"/></g></g></g><g class="cls-11"><path class="cls-6" d="M257.14,168.71l-3.72,1a1.88,1.88,0,0,1-1.77-.67,5.91,5.91,0,0,1-1.37-5.22l3.72-1a5.92,5.92,0,0,0,1.37,5.22A1.88,1.88,0,0,0,257.14,168.71Z" transform="translate(0 0)"/><g class="cls-79"><g class="cls-11"><path class="cls-6" d="M257.14,168.71l-3.72,1a1.88,1.88,0,0,1-1.77-.67,4.28,4.28,0,0,1-.53-.65l3.72-1a4.28,4.28,0,0,0,.53.65A1.88,1.88,0,0,0,257.14,168.71Z" transform="translate(0 0)"/><path class="cls-6" d="M254.84,167.39l-3.72,1a5.43,5.43,0,0,1-.5-1l3.72-1A5.8,5.8,0,0,0,254.84,167.39Z" transform="translate(0 0)"/><path class="cls-13" d="M254.34,166.43l-3.72,1a6,6,0,0,1-.36-1.18l3.71-1A7,7,0,0,0,254.34,166.43Z" transform="translate(0 0)"/><path class="cls-13" d="M254,165.25l-3.71,1a5.23,5.23,0,0,1,0-2.43l3.72-1A5.37,5.37,0,0,0,254,165.25Z" transform="translate(0 0)"/></g></g></g><path class="cls-7" d="M254,162.82c.45-1.67,1.8-2,3-.81a5.94,5.94,0,0,1,1.37,5.21c-.45,1.66-1.8,2-3,.82A5.92,5.92,0,0,1,254,162.82Z" transform="translate(0 0)"/></g><path class="cls-32" d="M212.9,178.2c.18,0,.4-.14.28-.33s-.6-.49-.76-.83a.33.33,0,0,1,0-.38c.13-.1.31,0,.45.07a4.92,4.92,0,0,0,1,.56,6.17,6.17,0,0,0,.85.2,2.28,2.28,0,0,1,.8.3,1.24,1.24,0,0,1,.42.59c.1.2.31.33.44.52a4.35,4.35,0,0,1,.48.84,1,1,0,0,1,.12.71c-.1.25-.41.25-.63.22a5.23,5.23,0,0,1-1-.35c-.16,0-.28-.14-.43-.19a1.69,1.69,0,0,0-.55,0,3.64,3.64,0,0,1-1.23-.09,2.27,2.27,0,0,1-1.1-.56,6,6,0,0,1-.56-.67,1.51,1.51,0,0,1-.39-.87c0-.44.28-.11.48,0a4.08,4.08,0,0,0,1.14.3Z" transform="translate(0 0)"/><path class="cls-6" d="M224,177.94a2.19,2.19,0,0,1-1,.83c-1.75.6-3.64-.32-5.41-.44a2,2,0,0,0-1.55.43,1.48,1.48,0,0,0-.39.73,1.71,1.71,0,0,0,.18,1.29,2.58,2.58,0,0,0,1.06.68A17.9,17.9,0,0,0,223.1,183a4.84,4.84,0,0,0,2-.24,8,8,0,0,0,2-1A13,13,0,0,0,224,177.94Z" transform="translate(0 0)"/><g class="cls-11"><g class="cls-11"><path class="cls-8" d="M51.79,26,53,25.22a1.44,1.44,0,0,1,.53-.18l-1.25.73A1.44,1.44,0,0,0,51.79,26Z" transform="translate(0 0)"/><g class="cls-80"><g class="cls-11"><path class="cls-8" d="M51.79,26,53,25.22a1.44,1.44,0,0,1,.53-.18l-1.25.73A1.44,1.44,0,0,0,51.79,26Z" transform="translate(0 0)"/></g></g></g><g class="cls-11"><path class="cls-8" d="M68.2,45.43,67,46.16a2,2,0,0,0,.82-1.92L69,43.51A2,2,0,0,1,68.2,45.43Z" transform="translate(0 0)"/><g class="cls-81"><g class="cls-11"><path class="cls-8" d="M67.77,44.24,69,43.51a2,2,0,0,1-.82,1.92L67,46.16A2,2,0,0,0,67.77,44.24Z" transform="translate(0 0)"/></g></g></g><polygon class="cls-8" points="52.32 25.77 53.57 25.04 64.33 23.59 63.08 24.32 52.32 25.77"/><g class="cls-11"><path class="cls-8" d="M63.08,24.32l1.25-.73a2.43,2.43,0,0,1,1.5.37l-1.25.73A2.43,2.43,0,0,0,63.08,24.32Z" transform="translate(0 0)"/><g class="cls-82"><g class="cls-11"><path class="cls-8" d="M63.08,24.32l1.25-.73a2.1,2.1,0,0,1,.66,0l-1.25.72A1.84,1.84,0,0,0,63.08,24.32Z" transform="translate(0 0)"/><path class="cls-8" d="M63.74,24.35,65,23.63a2.67,2.67,0,0,1,.84.33l-1.25.73A3,3,0,0,0,63.74,24.35Z" transform="translate(0 0)"/></g></g></g><polygon class="cls-8" points="67.41 29.5 68.66 28.77 69.02 43.51 67.77 44.24 67.41 29.5"/><g class="cls-11"><path class="cls-8" d="M64.58,24.69,65.83,24a6.25,6.25,0,0,1,2.83,4.81l-1.25.73A6.23,6.23,0,0,0,64.58,24.69Z" transform="translate(0 0)"/><g class="cls-83"><g class="cls-11"><path class="cls-8" d="M64.58,24.69,65.83,24a6,6,0,0,1,2,2.17l-1.25.73A5.87,5.87,0,0,0,64.58,24.69Z" transform="translate(0 0)"/><path class="cls-8" d="M66.62,26.86l1.25-.73a5.73,5.73,0,0,1,.79,2.64l-1.25.73A5.69,5.69,0,0,0,66.62,26.86Z" transform="translate(0 0)"/></g></g></g><path class="cls-4" d="M64.58,24.69a6.23,6.23,0,0,1,2.83,4.81l.36,14.74c0,2-1.34,2.61-2.85,1.73a5.06,5.06,0,0,1-1.34-1.17L52.46,31.51c-1.93-2.3-2-5.49-.14-5.74l10.76-1.45A2.43,2.43,0,0,1,64.58,24.69Z" transform="translate(0 0)"/></g><g class="cls-11"><g class="cls-11"><path class="cls-8" d="M65.5,167.15v5.78c0,3.72-2.46,7.43-7.34,10.26-9.82,5.71-25.79,5.71-35.67,0-5-2.87-7.46-6.64-7.45-10.4l0-5.79c0,3.77,2.47,7.54,7.45,10.41,9.88,5.7,25.85,5.7,35.67,0C63.05,174.57,65.49,170.86,65.5,167.15Z" transform="translate(0 0)"/><g class="cls-84"><g class="cls-11"><path class="cls-8" d="M65.5,167.15v5.78c0,3.72-2.46,7.43-7.34,10.26a33.35,33.35,0,0,1-12.7,4l0-5.78a33.58,33.58,0,0,0,12.7-4C63.05,174.57,65.49,170.86,65.5,167.15Z" transform="translate(0 0)"/><path class="cls-8" d="M45.47,181.39l0,5.78c-8,1-16.72-.37-23-4a17.74,17.74,0,0,1-5.21-4.35l0-5.78a17.76,17.76,0,0,0,5.21,4.35C28.75,181,37.44,182.35,45.47,181.39Z" transform="translate(0 0)"/><path class="cls-8" d="M17.29,173.06l0,5.78A9.79,9.79,0,0,1,15,172.79l0-5.79A9.73,9.73,0,0,0,17.29,173.06Z" transform="translate(0 0)"/></g></g></g><path class="cls-23" d="M58.06,156.74c9.88,5.71,9.93,15,.11,20.67s-25.79,5.7-35.67,0-9.94-15-.12-20.67S48.17,151,58.06,156.74Z" transform="translate(0 0)"/></g><g class="cls-11"><g class="cls-11"><path class="cls-8" d="M50.81,159.55l-1.25.73c.69-.4,1-1.38.77-2.77l1.25-.73C51.85,158.18,51.5,159.15,50.81,159.55Z" transform="translate(0 0)"/><g class="cls-85"><g class="cls-11"><path class="cls-8" d="M50.33,157.51l1.25-.73c.27,1.4-.08,2.37-.77,2.77l-1.25.73C50.25,159.88,50.6,158.9,50.33,157.51Z" transform="translate(0 0)"/></g></g></g><polygon class="cls-8" points="32.88 141.75 34.13 141.03 43.52 135.96 42.27 136.68 32.88 141.75"/><g class="cls-11"><path class="cls-8" d="M42.27,136.68l1.25-.72a2.09,2.09,0,0,1,2,.21l-1.25.73A2.12,2.12,0,0,0,42.27,136.68Z" transform="translate(0 0)"/><g class="cls-86"><g class="cls-11"><path class="cls-8" d="M42.27,136.68l1.25-.72a1.65,1.65,0,0,1,1.16-.14l-1.25.73A1.7,1.7,0,0,0,42.27,136.68Z" transform="translate(0 0)"/><path class="cls-8" d="M43.43,136.55l1.25-.73a3.75,3.75,0,0,1,.88.35l-1.25.73A3,3,0,0,0,43.43,136.55Z" transform="translate(0 0)"/></g></g></g><polygon class="cls-8" points="47.16 141.1 48.41 140.37 51.58 156.78 50.33 157.51 47.16 141.1"/><g class="cls-11"><path class="cls-8" d="M44.31,136.9l1.25-.73a6.54,6.54,0,0,1,2.85,4.2l-1.25.73A6.52,6.52,0,0,0,44.31,136.9Z" transform="translate(0 0)"/><g class="cls-87"><g class="cls-11"><path class="cls-8" d="M44.31,136.9l1.25-.73a6.27,6.27,0,0,1,2.11,2.24l-1.25.73A6.19,6.19,0,0,0,44.31,136.9Z" transform="translate(0 0)"/><path class="cls-8" d="M46.42,139.14l1.25-.73a6.83,6.83,0,0,1,.74,2l-1.25.73A6.72,6.72,0,0,0,46.42,139.14Z" transform="translate(0 0)"/></g></g></g><path class="cls-4" d="M44.31,136.9a6.52,6.52,0,0,1,2.85,4.2l3.17,16.41c.48,2.48-1,3.63-2.85,2.57a5,5,0,0,1-.81-.6L34.11,148.14c-2.18-2-2.86-5.51-1.24-6.39l9.4-5.07A2.12,2.12,0,0,1,44.31,136.9Z" transform="translate(0 0)"/></g><g class="cls-11"><path class="cls-8" d="M5.1,65.08l1.25-.72a2,2,0,0,1,2,.19l-1.25.72A2,2,0,0,0,5.1,65.08Z" transform="translate(0 0)"/><g class="cls-88"><g class="cls-11"><path class="cls-8" d="M5.1,65.08l1.25-.72a1.59,1.59,0,0,1,1.19-.15l-1.25.73A1.64,1.64,0,0,0,5.1,65.08Z" transform="translate(0 0)"/><path class="cls-8" d="M6.29,64.94l1.25-.73a2.91,2.91,0,0,1,.84.34l-1.25.72A2.87,2.87,0,0,0,6.29,64.94Z" transform="translate(0 0)"/></g></g><path class="cls-8" d="M7.13,65.27l1.25-.72a5,5,0,0,1,1.34,1.16l-1.25.73A5.22,5.22,0,0,0,7.13,65.27Z" transform="translate(0 0)"/><g class="cls-89"><g class="cls-11"><path class="cls-8" d="M7.13,65.27l1.25-.72a5,5,0,0,1,1.34,1.16l-1.25.73A5.22,5.22,0,0,0,7.13,65.27Z" transform="translate(0 0)"/></g></g><polygon class="cls-8" points="8.47 66.44 9.72 65.71 20.84 79 19.59 79.73 8.47 66.44"/><path class="cls-8" d="M21.51,84.57l-1.25.72c1.29-.75,1-3.51-.68-5.56L20.84,79C22.55,81.06,22.8,83.82,21.51,84.57Z" transform="translate(0 0)"/><g class="cls-90"><g class="cls-11"><path class="cls-8" d="M19.58,79.73,20.84,79a7.23,7.23,0,0,1,.69,1l-1.25.72A6.46,6.46,0,0,0,19.58,79.73Z" transform="translate(0 0)"/><path class="cls-8" d="M20.28,80.73,21.53,80c1.06,1.86,1.07,3.93,0,4.56l-1.25.72C21.35,84.66,21.34,82.6,20.28,80.73Z" transform="translate(0 0)"/></g></g><path class="cls-4" d="M7.13,65.27a5.22,5.22,0,0,1,1.34,1.17L19.58,79.73c1.93,2.3,2,5.49.14,5.74L9,86.92a2.33,2.33,0,0,1-1.49-.36,6.3,6.3,0,0,1-2.84-4.81L4.28,67C4.23,65,5.61,64.4,7.13,65.27Z" transform="translate(0 0)"/></g><g class="cls-11"><g class="cls-11"><path class="cls-7" d="M46,164.57v2.89a3.23,3.23,0,0,1-1.88,2.64,10.15,10.15,0,0,1-9.17,0,3.25,3.25,0,0,1-1.91-2.68v-2.89A3.2,3.2,0,0,0,35,167.2a10.09,10.09,0,0,0,9.17,0A3.2,3.2,0,0,0,46,164.57Z" transform="translate(0 0)"/><g class="cls-91"><g class="cls-11"><path class="cls-5" d="M46,164.57v2.89a3.23,3.23,0,0,1-1.88,2.64,8.9,8.9,0,0,1-3.27,1v-2.89a8.72,8.72,0,0,0,3.27-1A3.2,3.2,0,0,0,46,164.57Z" transform="translate(0 0)"/><path class="cls-46" d="M40.89,168.23v2.89a10,10,0,0,1-5.9-1A4.94,4.94,0,0,1,33.64,169v-2.89A4.61,4.61,0,0,0,35,167.2,9.94,9.94,0,0,0,40.89,168.23Z" transform="translate(0 0)"/><path class="cls-5" d="M33.65,166.09V169a2.57,2.57,0,0,1-.57-1.56v-2.89A2.51,2.51,0,0,0,33.65,166.09Z" transform="translate(0 0)"/></g></g></g><path class="cls-13" d="M44.13,161.9c2.54,1.46,2.55,3.84,0,5.3a10.09,10.09,0,0,1-9.17,0c-2.54-1.46-2.55-3.84,0-5.3A10.09,10.09,0,0,1,44.13,161.9Z" transform="translate(0 0)"/></g><g class="cls-11"><g class="cls-11"><path class="cls-7" d="M42.89,152.48l0,11.57a1.66,1.66,0,0,1-1,1.35,5.17,5.17,0,0,1-4.69,0,1.68,1.68,0,0,1-1-1.37l0-11.57a1.67,1.67,0,0,0,1,1.37,5.17,5.17,0,0,0,4.69,0A1.65,1.65,0,0,0,42.89,152.48Z" transform="translate(0 0)"/><g class="cls-92"><g class="cls-11"><path class="cls-93" d="M42.89,152.48l0,11.57a1.66,1.66,0,0,1-1,1.35,4.42,4.42,0,0,1-1.67.52l0-11.57a4.25,4.25,0,0,0,1.67-.52A1.65,1.65,0,0,0,42.89,152.48Z" transform="translate(0 0)"/><path class="cls-94" d="M40.25,154.35l0,11.57a5.07,5.07,0,0,1-3-.52,2.47,2.47,0,0,1-.68-.57l0-11.57a2.31,2.31,0,0,0,.68.57A5,5,0,0,0,40.25,154.35Z" transform="translate(0 0)"/><path class="cls-93" d="M36.55,153.26l0,11.57a1.31,1.31,0,0,1-.3-.8l0-11.57A1.27,1.27,0,0,0,36.55,153.26Z" transform="translate(0 0)"/></g></g></g><path class="cls-95" d="M41.91,151.11c1.3.75,1.3,2,0,2.72a5.17,5.17,0,0,1-4.69,0c-1.3-.75-1.3-2,0-2.72A5.17,5.17,0,0,1,41.91,151.11Z" transform="translate(0 0)"/></g><g class="cls-11"><g class="cls-11"><path class="cls-7" d="M60.59,32.93l22.9-3.25a1.36,1.36,0,0,0-1,1L59.6,33.88A1.33,1.33,0,0,1,60.59,32.93Z" transform="translate(0 0)"/><g class="cls-96"><path class="cls-7" d="M82.54,30.55,59.63,33.79a1.3,1.3,0,0,1,1-.86l22.9-3.25A1.32,1.32,0,0,0,82.54,30.55Z" transform="translate(0 0)"/></g></g><g class="cls-11"><path class="cls-7" d="M84.25,35l-22.9,3.25a1.37,1.37,0,0,1-1.21-.63,4.2,4.2,0,0,1-.54-3.78l22.9-3.24a4.21,4.21,0,0,0,.55,3.78A1.31,1.31,0,0,0,84.25,35Z" transform="translate(0 0)"/><g class="cls-97"><g class="cls-11"><path class="cls-7" d="M84.25,35l-22.9,3.25a1.37,1.37,0,0,1-1.21-.63,1,1,0,0,1-.08-.11L83,34.31l.09.11A1.31,1.31,0,0,0,84.25,35Z" transform="translate(0 0)"/><path class="cls-5" d="M83,34.31l-22.9,3.24a3.64,3.64,0,0,1-.55-1.25l22.9-3.25A3.6,3.6,0,0,0,83,34.31Z" transform="translate(0 0)"/><path class="cls-13" d="M82.41,33.05,59.51,36.3a4.4,4.4,0,0,1-.14-1.14l22.9-3.24A4.79,4.79,0,0,0,82.41,33.05Z" transform="translate(0 0)"/><path class="cls-13" d="M59.63,33.79l0,.09a3.51,3.51,0,0,0-.23,1.28l22.9-3.24a3.51,3.51,0,0,1,.23-1.28.36.36,0,0,1,0-.09Z" transform="translate(0 0)"/></g></g></g><path class="cls-98" d="M82.5,30.64a1.17,1.17,0,0,1,2.19-.34,4.23,4.23,0,0,1,.55,3.79c-.46,1.14-1.44,1.29-2.19.33A4.21,4.21,0,0,1,82.5,30.64Z" transform="translate(0 0)"/></g><g class="cls-11"><polygon class="cls-5" points="4.88 80.26 6.13 79.53 38.36 150.31 37.11 151.03 4.88 80.26"/><polygon class="cls-99" points="1.82 81 3.07 80.27 6.13 79.53 4.88 80.26 1.82 81"/><polygon class="cls-46" points="4.88 80.26 37.11 151.03 34.05 151.78 1.82 81 4.88 80.26"/></g><g class="cls-11"><polygon class="cls-5" points="11.93 79.03 13.18 78.3 45.41 149.08 44.16 149.81 11.93 79.03"/><polygon class="cls-99" points="8.87 79.77 10.12 79.05 13.18 78.3 11.93 79.03 8.87 79.77"/><polygon class="cls-46" points="11.93 79.03 44.16 149.81 41.1 150.55 8.87 79.77 11.93 79.03"/></g><g class="cls-11"><polygon class="cls-7" points="55.53 40.45 56.78 39.73 59.06 43.17 57.81 43.9 55.53 40.45"/><polygon class="cls-7" points="57.81 43.9 59.06 43.17 15.53 79.61 14.28 80.33 57.81 43.9"/><polygon class="cls-46" points="55.53 40.45 57.81 43.9 14.28 80.33 12 76.89 55.53 40.45"/></g><g class="cls-11"><polygon class="cls-7" points="50.32 33.61 51.57 32.88 53.85 36.33 52.6 37.05 50.32 33.61"/><polygon class="cls-7" points="52.6 37.05 53.85 36.33 10.32 72.76 9.07 73.49 52.6 37.05"/><polygon class="cls-46" points="50.32 33.61 52.6 37.05 9.07 73.49 6.79 70.04 50.32 33.61"/></g><g class="cls-11"><g class="cls-11"><path class="cls-8" d="M.82,67.18l1.25-.73a2,2,0,0,1,2,.19l-1.25.73A2,2,0,0,0,.82,67.18Z" transform="translate(0 0)"/><g class="cls-100"><g class="cls-11"><path class="cls-8" d="M.82,67.18l1.25-.73a1.69,1.69,0,0,1,1.19-.15L2,67A1.59,1.59,0,0,0,.82,67.18Z" transform="translate(0 0)"/><path class="cls-8" d="M2,67l1.25-.73a2.91,2.91,0,0,1,.84.34l-1.25.73A2.91,2.91,0,0,0,2,67Z" transform="translate(0 0)"/></g></g></g><g class="cls-11"><path class="cls-8" d="M2.85,67.37l1.25-.73a5.06,5.06,0,0,1,1.34,1.17l-1.25.73A4.89,4.89,0,0,0,2.85,67.37Z" transform="translate(0 0)"/><g class="cls-101"><g class="cls-11"><path class="cls-8" d="M2.85,67.37l1.25-.73a5.06,5.06,0,0,1,1.34,1.17l-1.25.73A4.89,4.89,0,0,0,2.85,67.37Z" transform="translate(0 0)"/></g></g></g><polygon class="cls-8" points="4.19 68.53 5.44 67.81 16.56 81.1 15.31 81.83 4.19 68.53"/><g class="cls-11"><path class="cls-8" d="M17.23,86.66,16,87.39c1.29-.75,1.05-3.51-.67-5.56l1.25-.73C18.28,83.15,18.52,85.91,17.23,86.66Z" transform="translate(0 0)"/><g class="cls-102"><g class="cls-11"><path class="cls-8" d="M15.31,81.83l1.25-.73a7.23,7.23,0,0,1,.7,1L16,82.83A6.68,6.68,0,0,0,15.31,81.83Z" transform="translate(0 0)"/><path class="cls-8" d="M16,82.83l1.25-.73c1.06,1.87,1.06,3.93,0,4.56L16,87.39C17.07,86.76,17.07,84.69,16,82.83Z" transform="translate(0 0)"/></g></g></g><path class="cls-4" d="M2.85,67.37a4.89,4.89,0,0,1,1.34,1.17L15.31,81.83c1.92,2.3,2,5.49.14,5.74L4.69,89a2.43,2.43,0,0,1-1.5-.37A6.25,6.25,0,0,1,.36,83.84L0,69.1C0,67.13,1.33,66.49,2.85,67.37Z" transform="translate(0 0)"/></g><g class="cls-11"><g class="cls-11"><path class="cls-8" d="M48.7,27.74,50,27a1.44,1.44,0,0,1,.53-.18l-1.25.73A1.44,1.44,0,0,0,48.7,27.74Z" transform="translate(0 0)"/><g class="cls-103"><g class="cls-11"><path class="cls-8" d="M48.7,27.74,50,27a1.44,1.44,0,0,1,.53-.18l-1.25.73A1.44,1.44,0,0,0,48.7,27.74Z" transform="translate(0 0)"/></g></g></g><g class="cls-11"><path class="cls-8" d="M65.11,47.22,63.86,48A2,2,0,0,0,64.68,46l1.25-.73A2,2,0,0,1,65.11,47.22Z" transform="translate(0 0)"/><g class="cls-104"><g class="cls-11"><path class="cls-8" d="M64.68,46l1.25-.73a2,2,0,0,1-.82,1.92L63.86,48A2,2,0,0,0,64.68,46Z" transform="translate(0 0)"/></g></g></g><polygon class="cls-8" points="49.23 27.56 50.48 26.83 61.24 25.38 59.99 26.11 49.23 27.56"/><g class="cls-11"><path class="cls-8" d="M60,26.11l1.25-.73a2.43,2.43,0,0,1,1.5.37l-1.25.73A2.43,2.43,0,0,0,60,26.11Z" transform="translate(0 0)"/><g class="cls-105"><g class="cls-11"><path class="cls-8" d="M60,26.11l1.25-.73a2.1,2.1,0,0,1,.66,0l-1.25.72A1.84,1.84,0,0,0,60,26.11Z" transform="translate(0 0)"/><path class="cls-8" d="M60.65,26.14l1.25-.72a2.93,2.93,0,0,1,.84.33l-1.25.73A3,3,0,0,0,60.65,26.14Z" transform="translate(0 0)"/></g></g></g><polygon class="cls-8" points="64.32 31.29 65.57 30.56 65.93 45.3 64.68 46.03 64.32 31.29"/><g class="cls-11"><path class="cls-8" d="M61.49,26.48l1.25-.73a6.25,6.25,0,0,1,2.83,4.81l-1.25.73A6.23,6.23,0,0,0,61.49,26.48Z" transform="translate(0 0)"/><g class="cls-106"><g class="cls-11"><path class="cls-8" d="M61.49,26.48l1.25-.73a6,6,0,0,1,2,2.17l-1.25.73A5.87,5.87,0,0,0,61.49,26.48Z" transform="translate(0 0)"/><path class="cls-8" d="M63.53,28.65l1.25-.73a5.73,5.73,0,0,1,.79,2.64l-1.25.73A5.69,5.69,0,0,0,63.53,28.65Z" transform="translate(0 0)"/></g></g></g><path class="cls-4" d="M61.49,26.48a6.23,6.23,0,0,1,2.83,4.81L64.68,46c0,2-1.34,2.61-2.85,1.73a4.89,4.89,0,0,1-1.34-1.17L49.37,33.3c-1.92-2.3-2-5.49-.14-5.74L60,26.11A2.43,2.43,0,0,1,61.49,26.48Z" transform="translate(0 0)"/></g><g class="cls-11"><g class="cls-11"><path class="cls-5" d="M74.93,1.63l9.85,8.48c-.46-.41-1.72.13-3.39,1.56-2.48,2.12-5,5.42-5.5,7.36-.19.63-.14,1,.08,1.24l-9.86-8.49c-.22-.19-.26-.6-.08-1.23.55-2,3-5.24,5.5-7.36C73.2,1.75,74.46,1.22,74.93,1.63Z" transform="translate(0 0)"/><g class="cls-107"><g class="cls-11"><path class="cls-5" d="M74.93,1.63l9.85,8.48c-.44-.38-1.58.07-3.11,1.32L71.81,3C73.34,1.69,74.49,1.24,74.93,1.63Z" transform="translate(0 0)"/><path class="cls-5" d="M71.81,3l9.86,8.48-.28.24a20.08,20.08,0,0,0-1.51,1.43L70,4.61a19.91,19.91,0,0,1,1.51-1.42A3,3,0,0,1,71.81,3Z" transform="translate(0 0)"/><path class="cls-13" d="M70,4.61l9.86,8.49c-.56.58-1.1,1.21-1.6,1.84L68.42,6.46C68.92,5.83,69.46,5.2,70,4.61Z" transform="translate(0 0)"/><path class="cls-13" d="M68.42,6.46l9.86,8.48a22.15,22.15,0,0,0-1.4,2L67,8.44A20,20,0,0,1,68.42,6.46Z" transform="translate(0 0)"/><path class="cls-5" d="M67,8.44l9.85,8.49a9.19,9.19,0,0,0-1,2.1c-.19.63-.14,1,.08,1.24l-9.86-8.49c-.22-.19-.26-.6-.08-1.23A8.91,8.91,0,0,1,67,8.44Z" transform="translate(0 0)"/></g></g></g><path class="cls-5" d="M84.87,11.35c-.56,1.94-3,5.24-5.5,7.36s-4,2.26-3.48.32,3-5.24,5.5-7.36S85.43,9.4,84.87,11.35Z" transform="translate(0 0)"/></g><g class="cls-11"><g class="cls-11"><path class="cls-7" d="M84,.26,103.44,17c-.92-.8-3.4.25-6.71,3.08C91.83,24.29,87,30.8,85.86,34.64c-.36,1.25-.28,2.06.17,2.44L66.55,20.33c-.44-.39-.52-1.2-.17-2.45,1.1-3.84,6-10.35,10.87-14.54C80.56.51,83-.54,84,.26Z" transform="translate(0 0)"/><g class="cls-108"><path class="cls-10" d="M84,.26,103.44,17c-.87-.76-3.12.13-6.15,2.61L77.81,2.87C80.84.4,83.09-.49,84,.26Z" transform="translate(0 0)"/><path class="cls-8" d="M77.81,2.87,97.29,19.63l-.56.47a39.06,39.06,0,0,0-3,2.82L74.28,6.16c1-1,2-2,3-2.82Z" transform="translate(0 0)"/><path class="cls-27" d="M74.28,6.16,93.76,22.92c-1.12,1.16-2.19,2.4-3.17,3.64L71.12,9.8A46.77,46.77,0,0,1,74.28,6.16Z" transform="translate(0 0)"/><path class="cls-8" d="M71.12,9.8,90.59,26.56a41.22,41.22,0,0,0-2.76,3.93L68.36,13.73A40.68,40.68,0,0,1,71.12,9.8Z" transform="translate(0 0)"/><path class="cls-10" d="M68.36,13.73,87.83,30.49a18.06,18.06,0,0,0-2,4.15c-.36,1.25-.28,2.06.17,2.44L66.55,20.33c-.44-.39-.52-1.2-.17-2.45A18.14,18.14,0,0,1,68.36,13.73Z" transform="translate(0 0)"/></g></g><path class="cls-7" d="M103.61,19.46c-1.1,3.84-6,10.35-10.87,14.54s-8,4.48-6.88.64,6-10.35,10.87-14.54S104.71,15.62,103.61,19.46Z" transform="translate(0 0)"/></g><g class="cls-11"><g class="cls-11"><path class="cls-7" d="M103.59,16.85l40.69,10.3C142,25.2,136,27.76,128,34.64,116,44.84,104.2,60.67,101.52,70c-.87,3-.67,5,.41,5.95L86,37.19c-.45-.39-.54-1.21-.17-2.48,1.11-3.89,6-10.49,11-14.74C100.14,17.11,102.66,16,103.59,16.85Z" transform="translate(0 0)"/><g class="cls-109"><g class="cls-11"><path class="cls-4" d="M97.36,19.5l32,14c-.45.36-.9.74-1.37,1.14-2.43,2.09-4.87,4.41-7.22,6.86L93.78,22.83c1-1,2-2,3-2.86Z" transform="translate(0 0)"/><path class="cls-8" d="M93.78,22.83l27,18.67c-2.72,2.83-5.33,5.84-7.71,8.87L90.57,26.53C91.56,25.27,92.65,24,93.78,22.83Z" transform="translate(0 0)"/><path class="cls-4" d="M90.57,26.53,113,50.37a101.06,101.06,0,0,0-6.7,9.54L87.78,30.5A40.33,40.33,0,0,1,90.57,26.53Z" transform="translate(0 0)"/></g></g></g><path class="cls-72" d="M144.69,33.09c-2.68,9.34-14.51,25.18-26.43,35.37S98.84,79.35,101.52,70c1.22-4.26,4.34-9.87,8.51-15.67a118.68,118.68,0,0,1,15-17c1-.92,2-1.81,3-2.66C139.88,24.45,147.37,23.75,144.69,33.09Z" transform="translate(0 0)"/></g><path class="cls-4" d="M87.78,30.5l18.54,29.41a43.66,43.66,0,0,0-4.8,10.1c-.87,3-.67,5,.41,5.95,0,0-20.36-18.88-16.15-41.25A14.17,14.17,0,0,1,87.78,30.5Z" transform="translate(0 0)"/><path class="cls-4" d="M103.59,16.85c17.23-5.81,40.69,10.3,40.69,10.3-2.12-1.83-7.6.33-15,6.35l-32-14C100.43,17,102.71,16.09,103.59,16.85Z" transform="translate(0 0)"/><path class="cls-110" d="M127,55.22c-4.42,4.41-12,4-16.93-.88a118.68,118.68,0,0,1,15-17,13.36,13.36,0,0,1,1.06,1C131,43.19,131.39,50.79,127,55.22Z" transform="translate(0 0)"/><g class="cls-11"><g class="cls-11"><path class="cls-8" d="M47.14,161.53l-1.25.73c.69-.4,1-1.38.77-2.77l1.25-.73C48.18,160.16,47.83,161.13,47.14,161.53Z" transform="translate(0 0)"/><g class="cls-111"><g class="cls-11"><path class="cls-8" d="M46.66,159.49l1.25-.73c.27,1.4-.08,2.37-.77,2.77l-1.25.73C46.58,161.86,46.93,160.88,46.66,159.49Z" transform="translate(0 0)"/></g></g></g><polygon class="cls-8" points="29.21 143.73 30.46 143.01 39.85 137.94 38.6 138.66 29.21 143.73"/><g class="cls-11"><path class="cls-8" d="M38.6,138.66l1.25-.72a2.07,2.07,0,0,1,2,.22l-1.25.72A2.12,2.12,0,0,0,38.6,138.66Z" transform="translate(0 0)"/><g class="cls-112"><g class="cls-11"><path class="cls-8" d="M38.6,138.66l1.25-.72A1.67,1.67,0,0,1,41,137.8l-1.25.73A1.72,1.72,0,0,0,38.6,138.66Z" transform="translate(0 0)"/><path class="cls-8" d="M39.77,138.53,41,137.8a3.35,3.35,0,0,1,.87.36l-1.25.72A3,3,0,0,0,39.77,138.53Z" transform="translate(0 0)"/></g></g></g><polygon class="cls-8" points="43.49 143.08 44.74 142.35 47.91 158.76 46.66 159.49 43.49 143.08"/><g class="cls-11"><path class="cls-8" d="M40.64,138.88l1.25-.72a6.5,6.5,0,0,1,2.85,4.19l-1.25.73A6.52,6.52,0,0,0,40.64,138.88Z" transform="translate(0 0)"/><g class="cls-113"><g class="cls-11"><path class="cls-8" d="M40.64,138.88l1.25-.72A6,6,0,0,1,44,140.39l-1.25.73A6,6,0,0,0,40.64,138.88Z" transform="translate(0 0)"/><path class="cls-8" d="M42.75,141.12l1.25-.73a6.29,6.29,0,0,1,.74,2l-1.25.73A6.2,6.2,0,0,0,42.75,141.12Z" transform="translate(0 0)"/></g></g></g><path class="cls-10" d="M40.64,138.88a6.52,6.52,0,0,1,2.85,4.2l3.17,16.41c.48,2.48-1,3.63-2.84,2.57a4.22,4.22,0,0,1-.81-.6L30.44,150.12c-2.17-2-2.86-5.51-1.23-6.39l9.39-5.07A2.12,2.12,0,0,1,40.64,138.88Z" transform="translate(0 0)"/></g></g></g></svg>