<svg width="56" height="56" viewBox="0 0 56 56" fill="none" xmlns="http://www.w3.org/2000/svg">
<circle cx="28" cy="28" r="28" fill="#2C7AE0"/>
<circle cx="28" cy="28" r="26.5" stroke="white" stroke-opacity="0.3" stroke-width="3"/>
<g clip-path="url(#clip0_42_1485)">
<path d="M38.5614 23.9346C38.5529 23.8861 38.5349 23.8397 38.5084 23.7981C38.482 23.7565 38.4476 23.7206 38.4072 23.6923C38.3669 23.664 38.3213 23.644 38.2732 23.6333C38.2251 23.6226 38.1753 23.6215 38.1268 23.6301L36.281 23.9553C36.2325 23.9638 36.186 23.9818 36.1444 24.0083C36.1028 24.0347 36.0668 24.0692 36.0385 24.1096C36.0103 24.15 35.9902 24.1956 35.9796 24.2437C35.9689 24.2919 35.9679 24.3417 35.9765 24.3903L36.0568 24.8444L35.0068 25.0278L34.3749 24.931V19.375C34.3749 18.9772 34.2169 18.5956 33.9356 18.3143C33.6543 18.033 33.2727 17.875 32.8749 17.875H30.2499V17.125C30.2499 16.8266 30.1314 16.5405 29.9204 16.3295C29.7094 16.1185 29.4233 16 29.1249 16H26.8749C26.5765 16 26.2904 16.1185 26.0794 16.3295C25.8684 16.5405 25.7499 16.8266 25.7499 17.125V17.875H23.1249C22.7271 17.875 22.3456 18.033 22.0643 18.3143C21.783 18.5956 21.6249 18.9772 21.6249 19.375V24.9321L20.9904 25.0292L19.9434 24.8448L20.0233 24.3903C20.0319 24.3417 20.0309 24.2919 20.0203 24.2437C20.0096 24.1956 19.9896 24.15 19.9613 24.1096C19.933 24.0692 19.897 24.0347 19.8554 24.0083C19.8138 23.9818 19.7674 23.9638 19.7188 23.9553L17.8749 23.6301C17.8264 23.6215 17.7766 23.6225 17.7284 23.6332C17.6802 23.6438 17.6347 23.6638 17.5942 23.6921C17.5538 23.7204 17.5194 23.7564 17.4929 23.798C17.4664 23.8396 17.4484 23.886 17.4399 23.9346L16.0055 32.0583C15.9969 32.1068 15.9979 32.1566 16.0086 32.2048C16.0192 32.2529 16.0393 32.2985 16.0675 32.3389C16.0958 32.3793 16.1318 32.4138 16.1734 32.4402C16.215 32.4667 16.2615 32.4847 16.31 32.4932L18.1562 32.8184C18.2047 32.827 18.2545 32.8259 18.3026 32.8152C18.3507 32.8045 18.3962 32.7845 18.4366 32.7562C18.477 32.7279 18.5114 32.692 18.5378 32.6504C18.5643 32.6088 18.5823 32.5624 18.5908 32.5139L18.6249 32.3125L18.9347 32.3673C19.2202 32.9961 19.6355 33.5574 20.1534 34.0142C20.1336 34.3528 20.23 34.6881 20.4266 34.9644C20.6233 35.2407 20.9085 35.4416 21.2349 35.5338C21.0595 35.8251 20.9889 36.1677 21.0349 36.5047C21.0809 36.8417 21.2407 37.1528 21.4878 37.3865C21.7349 37.6203 22.0545 37.7625 22.3935 37.7896C22.7325 37.8168 23.0706 37.7273 23.3518 37.5359C23.3891 37.7849 23.4891 38.0203 23.6425 38.22C23.7959 38.4196 23.9976 38.577 24.2286 38.6772C24.4596 38.7774 24.7123 38.8171 24.9629 38.7927C25.2135 38.7682 25.4538 38.6804 25.661 38.5375C25.6961 38.7672 25.7847 38.9854 25.9195 39.1746C26.0544 39.3638 26.2318 39.5186 26.4375 39.6267C26.6431 39.7348 26.8713 39.793 27.1036 39.7968C27.3359 39.8005 27.5659 39.7496 27.7749 39.6483V39.6505L27.9249 39.7502C28.0892 39.859 28.2733 39.9343 28.4667 39.9719C28.6601 40.0095 28.859 40.0087 29.052 39.9694C29.2451 39.9301 29.4285 39.8532 29.5919 39.743C29.7552 39.6328 29.8952 39.4916 30.0039 39.3273C30.1681 39.0773 30.2521 38.7832 30.2447 38.4842C30.3663 38.5174 30.4917 38.5348 30.6178 38.536C30.8159 38.5366 31.0123 38.4979 31.1953 38.422C31.3784 38.3462 31.5446 38.2348 31.6843 38.0943C31.824 37.9537 31.9344 37.7869 32.0092 37.6033C32.0839 37.4198 32.1215 37.2233 32.1197 37.0251C32.239 37.0565 32.3619 37.0729 32.4853 37.0739C32.6832 37.0739 32.8791 37.0347 33.0618 36.9587C33.2445 36.8826 33.4104 36.7711 33.5498 36.6307C33.6892 36.4903 33.7995 36.3236 33.8742 36.1404C33.949 35.9571 33.9867 35.7609 33.9853 35.563C34.2139 35.6226 34.4534 35.6268 34.684 35.5754C34.9146 35.524 35.1296 35.4184 35.3112 35.2674C35.4929 35.1163 35.6359 34.9242 35.7285 34.7069C35.8212 34.4895 35.8607 34.2533 35.8438 34.0176C36.3622 33.56 36.7776 32.9976 37.0625 32.3676L37.3749 32.3144L37.4102 32.5139C37.4187 32.5625 37.4367 32.6089 37.4632 32.6505C37.4897 32.6921 37.5241 32.7281 37.5645 32.7564C37.6049 32.7847 37.6505 32.8047 37.6987 32.8153C37.7468 32.826 37.7966 32.827 37.8452 32.8184L39.6909 32.4932C39.7395 32.4847 39.7859 32.4667 39.8275 32.4402C39.8692 32.4138 39.9051 32.3793 39.9334 32.3389C39.9617 32.2985 39.9817 32.2529 39.9924 32.2048C40.003 32.1566 40.004 32.1068 39.9954 32.0583L38.5614 23.9346ZM26.4999 17.125C26.4999 17.0255 26.5394 16.9302 26.6098 16.8598C26.6801 16.7895 26.7755 16.75 26.8749 16.75H29.1249C29.2244 16.75 29.3198 16.7895 29.3901 16.8598C29.4604 16.9302 29.4999 17.0255 29.4999 17.125V17.875H26.4999V17.125ZM22.3749 19.375C22.3749 19.1761 22.4539 18.9853 22.5946 18.8447C22.7352 18.704 22.926 18.625 23.1249 18.625H32.8749C33.0738 18.625 33.2646 18.704 33.4052 18.8447C33.5459 18.9853 33.6249 19.1761 33.6249 19.375V20.5C33.6249 20.7984 33.5064 21.0845 33.2954 21.2955C33.0844 21.5065 32.7983 21.625 32.4999 21.625V21.25C32.4999 21.1505 32.4604 21.0552 32.3901 20.9848C32.3198 20.9145 32.2244 20.875 32.1249 20.875H30.6249C30.5255 20.875 30.4301 20.9145 30.3598 20.9848C30.2894 21.0552 30.2499 21.1505 30.2499 21.25V21.625H25.7499V21.25C25.7499 21.1505 25.7104 21.0552 25.6401 20.9848C25.5698 20.9145 25.4744 20.875 25.3749 20.875H23.8749C23.7755 20.875 23.6801 20.9145 23.6098 20.9848C23.5394 21.0552 23.4999 21.1505 23.4999 21.25V21.625C23.2015 21.625 22.9154 21.5065 22.7044 21.2955C22.4934 21.0845 22.3749 20.7984 22.3749 20.5V19.375ZM31.7499 21.625V22.375H30.9999V21.625H31.7499ZM24.9999 21.625V22.375H24.2499V21.625H24.9999ZM22.3749 21.9903C22.6976 22.2384 23.0929 22.3736 23.4999 22.375V22.75C23.4999 22.8495 23.5394 22.9448 23.6098 23.0152C23.6801 23.0855 23.7755 23.125 23.8749 23.125H25.3749C25.4744 23.125 25.5698 23.0855 25.6401 23.0152C25.7104 22.9448 25.7499 22.8495 25.7499 22.75V22.375H30.2499V22.75C30.2499 22.8495 30.2894 22.9448 30.3598 23.0152C30.4301 23.0855 30.5255 23.125 30.6249 23.125H32.1249C32.2244 23.125 32.3198 23.0855 32.3901 23.0152C32.4604 22.9448 32.4999 22.8495 32.4999 22.75V22.375C32.907 22.3736 33.3023 22.2384 33.6249 21.9903V24.8162L30.7749 24.3805C30.1552 24.2872 29.5217 24.3675 28.9449 24.6126L27.9999 25.0154L27.0575 24.6137C26.4798 24.3676 25.8449 24.2874 25.2242 24.3824L22.3749 24.8177V21.9903ZM17.9173 32.0151L16.8095 31.8194L18.1115 24.4319L19.2197 24.6273L17.9173 32.0151ZM21.0737 34.5737C20.9459 34.4214 20.8838 34.2246 20.9011 34.0265C20.9184 33.8284 21.0136 33.6453 21.1659 33.5174L22.6025 32.3125C22.7549 32.1846 22.9518 32.1225 23.15 32.1398C23.3482 32.1571 23.5314 32.2524 23.6593 32.4047C23.7872 32.5571 23.8493 32.7541 23.832 32.9522C23.8147 33.1504 23.7194 33.3336 23.567 33.4615L22.1304 34.6671C22.0549 34.7304 21.9677 34.7782 21.8737 34.8077C21.7797 34.8373 21.6808 34.848 21.5827 34.8394C21.4846 34.8307 21.3891 34.8028 21.3018 34.7572C21.2144 34.7116 21.1369 34.6493 21.0737 34.5737ZM23.0019 36.8721C22.9264 36.9355 22.8392 36.9833 22.7453 37.0129C22.6513 37.0426 22.5525 37.0534 22.4543 37.0448C22.3562 37.0362 22.2607 37.0084 22.1733 36.9629C22.0859 36.9174 22.0083 36.8552 21.945 36.7797C21.8817 36.7042 21.8338 36.617 21.8042 36.5231C21.7745 36.4291 21.7637 36.3302 21.7723 36.2321C21.7809 36.1339 21.8087 36.0384 21.8542 35.951C21.8997 35.8637 21.9619 35.7861 22.0374 35.7228L23.7624 34.2764C23.9156 34.1565 24.1094 34.1008 24.3028 34.1211C24.4963 34.1413 24.6743 34.236 24.7993 34.385C24.9243 34.5341 24.9865 34.7258 24.9728 34.9199C24.9591 35.1139 24.8705 35.295 24.7258 35.425L23.0019 36.8721ZM25.31 37.8726C25.2346 37.9359 25.1474 37.9838 25.0534 38.0134C24.9595 38.043 24.8606 38.0538 24.7625 38.0452C24.6644 38.0366 24.5689 38.0087 24.4815 37.9632C24.3941 37.9177 24.3166 37.8555 24.2533 37.78C24.19 37.7045 24.1422 37.6173 24.1126 37.5234C24.083 37.4294 24.0721 37.3306 24.0807 37.2324C24.0893 37.1343 24.1172 37.0388 24.1627 36.9515C24.2082 36.8641 24.2704 36.7866 24.3459 36.7233L25.4953 35.7591C25.648 35.6338 25.8439 35.5738 26.0406 35.592C26.2372 35.6103 26.4187 35.7054 26.5457 35.8567C26.6726 36.008 26.7348 36.2033 26.7186 36.4002C26.7025 36.597 26.6093 36.7795 26.4594 36.9081L25.31 37.8726ZM27.6178 38.875C27.4652 39.0011 27.2689 39.0617 27.0718 39.0436C26.8746 39.0256 26.6927 38.9303 26.5655 38.7786C26.4383 38.627 26.3762 38.4311 26.3928 38.2339C26.4094 38.0366 26.5033 37.8539 26.654 37.7256L27.803 36.7615C27.8785 36.6982 27.9657 36.6503 28.0596 36.6207C28.1535 36.591 28.2524 36.5802 28.3505 36.5887C28.4487 36.5973 28.5441 36.6251 28.6315 36.6706C28.7189 36.7161 28.7965 36.7783 28.8598 36.8538C28.9231 36.9292 28.9709 37.0164 29.0006 37.1104C29.0302 37.2043 29.041 37.3032 29.0324 37.4013C29.0238 37.4994 28.9959 37.5949 28.9504 37.6823C28.9049 37.7697 28.8426 37.8472 28.7672 37.9105L27.6178 38.875ZM29.3777 38.9147C29.2783 39.0663 29.1269 39.1762 28.9521 39.2239C28.7773 39.2715 28.5911 39.2536 28.4285 39.1735L29.2494 38.485C29.3271 38.4201 29.3979 38.3475 29.4609 38.2682C29.4964 38.375 29.5074 38.4883 29.4929 38.5999C29.4785 38.7114 29.4391 38.8183 29.3777 38.9125V38.9147ZM34.9798 34.525C34.9254 34.6072 34.8554 34.6778 34.7738 34.7329C34.6921 34.788 34.6004 34.8264 34.5039 34.8461C34.4073 34.8657 34.3079 34.8661 34.2112 34.8473C34.1145 34.8285 34.0224 34.7909 33.9403 34.7365L30.8124 32.6676C30.7714 32.6379 30.7248 32.6168 30.6754 32.6056C30.6261 32.5944 30.5749 32.5933 30.5251 32.6024C30.4753 32.6114 30.4278 32.6305 30.3856 32.6584C30.3433 32.6864 30.3072 32.7225 30.2793 32.7648C30.2514 32.8071 30.2324 32.8546 30.2234 32.9044C30.2143 32.9542 30.2155 33.0054 30.2268 33.0547C30.238 33.1041 30.2592 33.1507 30.2889 33.1916C30.3187 33.2326 30.3565 33.2671 30.3999 33.2931L32.9027 34.9495C33.0685 35.0595 33.1838 35.2308 33.2233 35.4257C33.2628 35.6207 33.2232 35.8234 33.1132 35.9892C33.0033 36.155 32.832 36.2703 32.637 36.3098C32.442 36.3493 32.2393 36.3097 32.0735 36.1998L29.5712 34.5438C29.5295 34.5158 29.4825 34.4967 29.4332 34.4875C29.348 34.4715 29.2599 34.4854 29.1839 34.5269C29.1078 34.5685 29.0485 34.6351 29.0161 34.7155C28.9836 34.7958 28.9799 34.8849 29.0057 34.9676C29.0315 35.0504 29.0852 35.1216 29.1575 35.1693L31.0325 36.4116C31.1973 36.522 31.3117 36.6931 31.3507 36.8875C31.3896 37.082 31.35 37.2839 31.2404 37.4492C31.1308 37.6145 30.9603 37.7297 30.766 37.7695C30.5717 37.8094 30.3696 37.7707 30.2038 37.6619L29.7763 37.3791C29.7866 37.104 29.7204 36.8314 29.5849 36.5917C29.4494 36.352 29.25 36.1546 29.009 36.0215C28.7679 35.8885 28.4946 35.825 28.2196 35.8381C27.9446 35.8512 27.6786 35.9405 27.4513 36.0959C27.4222 35.9009 27.3544 35.7137 27.2519 35.5454C27.1494 35.377 27.0142 35.2309 26.8543 35.1155C26.6944 35.0002 26.5131 34.9181 26.321 34.8739C26.1289 34.8297 25.9299 34.8244 25.7357 34.8584C25.7422 34.5034 25.6201 34.1581 25.3919 33.8862C25.1637 33.6142 24.8448 33.4341 24.494 33.379C24.6038 33.0694 24.6085 32.7322 24.5076 32.4196C24.4066 32.1071 24.2055 31.8364 23.9353 31.6495C23.6652 31.4626 23.341 31.3699 23.0129 31.3856C22.6848 31.4013 22.371 31.5246 22.1199 31.7365L20.6833 32.9421C20.5829 33.0286 20.4946 33.1283 20.4208 33.2384C20.0455 32.8514 19.7497 32.3947 19.55 31.894C19.5264 31.8345 19.4879 31.782 19.4382 31.7415C19.3885 31.7011 19.3293 31.674 19.2662 31.663L18.7558 31.573L19.8122 25.5824L20.9199 25.7778C20.9602 25.7847 21.0015 25.7847 21.0418 25.7778L25.3374 25.1237C25.8199 25.0497 26.3135 25.1121 26.7624 25.3038L27.0414 25.4226L25.544 26.0601C25.2076 26.204 24.9208 26.4434 24.719 26.7486L23.3079 28.876C23.1447 29.1259 23.0867 29.4301 23.1467 29.7225C23.2067 30.0149 23.3797 30.2717 23.6282 30.4371C24.0431 30.7105 24.5494 30.8083 25.0363 30.7089C25.5231 30.6096 25.9508 30.3213 26.2254 29.9072L26.8693 28.9375L28.2384 28.6574C28.386 29.1123 28.6366 29.5271 28.9709 29.8692C29.3051 30.2114 29.7138 30.4717 30.1652 30.6299C30.3251 30.6869 30.4892 30.7317 30.656 30.7638L34.7679 33.4862C34.9337 33.596 35.0491 33.767 35.0888 33.9618C35.1286 34.1565 35.0893 34.3591 34.9798 34.525ZM36.7329 31.6637C36.6695 31.6748 36.6101 31.7019 36.5602 31.7426C36.5104 31.7832 36.4718 31.836 36.4483 31.8959C36.2486 32.3989 35.9517 32.8577 35.5745 33.2459C35.4689 33.0939 35.3358 32.9632 35.1819 32.8604L31.9944 30.7518C32.4086 30.669 32.8032 30.5078 33.1569 30.277L33.746 29.8907C33.8292 29.836 33.8872 29.7506 33.9073 29.6531C33.9274 29.5556 33.908 29.4541 33.8533 29.371C33.7986 29.2879 33.7131 29.2298 33.6156 29.2097C33.5182 29.1896 33.4167 29.209 33.3335 29.2638L32.7463 29.65C32.4066 29.8731 32.0197 30.014 31.6162 30.0616C31.2126 30.1092 30.8035 30.0621 30.4213 29.9241C30.0696 29.8016 29.7518 29.5976 29.4939 29.3288C29.236 29.0601 29.0453 28.7341 28.9374 28.3776C28.9142 28.3026 28.8947 28.2227 28.8782 28.1436C28.8579 28.0466 28.8 27.9615 28.7171 27.907C28.6342 27.8526 28.5332 27.8332 28.436 27.853L26.5682 28.2355C26.471 28.2554 26.3856 28.313 26.3308 28.3956L25.6037 29.494C25.4388 29.7423 25.1823 29.9151 24.8903 29.9748C24.5983 30.0344 24.2946 29.9761 24.0455 29.8124C23.9624 29.757 23.9045 29.6711 23.8843 29.5734C23.8641 29.4756 23.8832 29.3738 23.9375 29.29L25.3479 27.163C25.4689 26.9803 25.6405 26.837 25.8418 26.7505L29.2397 25.303C29.6889 25.1123 30.1821 25.0499 30.6647 25.1226L34.9584 25.7789C34.9986 25.7851 35.0394 25.7851 35.0795 25.7789L36.1895 25.5846L37.2437 31.5753L36.7329 31.6637ZM38.0829 32.0144L36.7805 24.6269L37.8887 24.4315L39.1907 31.819L38.0829 32.0144Z" fill="white"/>
</g>
<defs>
<clipPath id="clip0_42_1485">
<rect width="24" height="24" fill="white" transform="translate(16 16)"/>
</clipPath>
</defs>
</svg>
