<svg width="120" height="117" viewBox="0 0 120 117" fill="none" xmlns="http://www.w3.org/2000/svg">
<path d="M94.1112 11.9185V104.72C94.1112 110.932 89.0494 116.014 82.8627 116.014H11.2475C5.06083 116.014 -0.000976562 110.932 -0.000976562 104.72V11.9185C-0.000976562 5.70658 5.06083 0.624146 11.2475 0.624146H82.8627C89.0494 0.624146 94.1112 5.70658 94.1112 11.9185Z" fill="#E9E7FC"/>
<path d="M47.0543 14.5539V42.7897C47.0543 45.425 44.9921 47.4957 42.3675 47.4957H14.2463C11.6217 47.4957 9.55945 45.425 9.55945 42.7897V14.5539C9.55945 11.9186 11.6217 9.84796 14.2463 9.84796H42.3675C44.9921 9.84796 47.0543 11.9186 47.0543 14.5539Z" fill="#57B3FE"/>
<path d="M36.3665 23.4007V34.695C36.3665 39.7774 32.2421 43.9187 27.1803 43.9187C22.1185 43.9187 17.994 39.7774 17.994 34.695V23.4007H36.3665Z" fill="#FABDAB"/>
<path d="M39.3676 31.683C39.3676 33.3772 38.0553 34.6948 36.368 34.6948V28.6712C38.0553 28.6712 39.3676 29.9889 39.3676 31.683Z" fill="#FABDAB"/>
<path d="M37.118 28.6719V34.5073C36.9305 34.5073 36.743 34.5073 36.5555 34.5073V28.4837C36.743 28.6719 36.9305 28.6719 37.118 28.6719Z" fill="#EA8B82"/>
<path d="M15.1825 31.6833C15.1825 33.3775 16.4948 34.6951 18.1821 34.6951V28.6715C16.4948 28.6715 15.1825 29.9892 15.1825 31.6833Z" fill="#FABDAB"/>
<path d="M17.4325 28.6717V34.5071H17.9949V28.4835C17.9949 28.6717 17.62 28.6717 17.4325 28.6717Z" fill="#EA8B82"/>
<path d="M24.5578 38.0833C24.1828 38.0833 23.9953 38.4598 24.1828 38.648C24.7452 39.7775 25.8701 40.5304 27.1824 40.5304C28.4947 40.5304 29.6196 39.7775 30.182 38.648C30.3695 38.2716 30.182 38.0833 29.807 38.0833H24.5578Z" fill="white"/>
<path d="M28.3054 35.0714C28.1179 35.6361 27.7429 36.0125 27.1805 36.0125C26.6181 36.0125 26.0557 35.6361 26.0557 35.0714H28.3054Z" fill="#EA8B82"/>
<path d="M23.9967 31.8712C23.9967 32.436 23.6217 32.8124 23.0593 32.8124C22.4969 32.8124 22.1219 32.436 22.1219 31.8712C22.1219 31.3065 22.4969 30.9301 23.0593 30.9301C23.4343 30.7418 23.9967 31.3065 23.9967 31.8712Z" fill="#1D2943"/>
<path d="M32.4322 31.8717C32.4322 32.4364 32.0573 32.8129 31.4949 32.8129C30.9324 32.8129 30.5575 32.4364 30.5575 31.8717C30.5575 31.307 30.9324 30.9305 31.4949 30.9305C32.0573 30.7423 32.4322 31.307 32.4322 31.8717Z" fill="#1D2943"/>
<path d="M25.1184 29.4244C25.1184 29.6126 24.9309 29.8009 24.7435 29.8009H20.994C20.8065 29.8009 20.619 29.6126 20.619 29.4244C20.619 29.2362 20.8065 29.0479 20.994 29.0479H24.7435C24.9309 29.0479 25.1184 29.2362 25.1184 29.4244Z" fill="#1D2943"/>
<path d="M33.7424 29.4244C33.7424 29.6126 33.555 29.8009 33.3675 29.8009H29.618C29.4305 29.8009 29.243 29.6126 29.243 29.4244C29.243 29.2362 29.4305 29.0479 29.618 29.0479H33.3675C33.555 29.0479 33.7424 29.2362 33.7424 29.4244Z" fill="#1D2943"/>
<path d="M18.1819 32.8131C18.1819 32.8131 18.9318 25.0953 22.3063 23.4012C22.3063 23.4012 26.8057 29.0483 31.1176 23.4012C31.1176 23.4012 32.43 26.0365 35.2421 25.2836C35.2421 25.2836 35.8045 31.3072 36.5544 32.8131C38.4292 30.9307 38.9916 27.7307 38.8041 23.4012C40.4914 23.4012 41.6162 22.6482 41.6162 20.7659C41.6162 18.6952 40.1164 18.1305 38.0542 18.1305C42.1786 15.3069 38.2417 11.5422 33.5548 14.1775C27.9306 13.801 23.6187 14.554 21.5564 17.3776C14.2449 15.6834 14.8074 25.0953 18.1819 32.8131Z" fill="#1D2943"/>
<path d="M84.5504 22.4606H77.9888C77.0514 22.4606 76.489 21.7077 76.489 20.9547C76.489 20.2017 77.2389 19.4488 77.9888 19.4488H84.5504C85.4878 19.4488 86.0502 20.2017 86.0502 20.9547C86.0502 21.7077 85.3003 22.4606 84.5504 22.4606Z" fill="#CCCFF2"/>
<path d="M71.0551 22.4591H55.4947C54.5573 22.4591 53.9949 21.7062 53.9949 20.9532C53.9949 20.2003 54.7448 19.4473 55.4947 19.4473H71.0551C71.9924 19.4473 72.5548 20.2003 72.5548 20.9532C72.5548 21.7062 71.805 22.4591 71.0551 22.4591Z" fill="#CCCFF2"/>
<path d="M84.9282 31.1198H55.4947C54.5573 31.1198 53.9949 30.3668 53.9949 29.6139C53.9949 28.8609 54.7448 28.108 55.4947 28.108H84.9282C85.8655 28.108 86.428 28.8609 86.428 29.6139C86.428 30.3668 85.8655 31.1198 84.9282 31.1198Z" fill="#CCCFF2"/>
<path d="M55.4947 37.7075H62.0563C62.9936 37.7075 63.5561 38.4604 63.5561 39.2134C63.5561 39.9663 62.8062 40.7193 62.0563 40.7193H55.4947C54.5573 40.7193 53.9949 39.9663 53.9949 39.2134C53.9949 38.4604 54.5573 37.7075 55.4947 37.7075Z" fill="#CCCFF2"/>
<path d="M68.9906 37.7068H84.551C85.4884 37.7068 86.0508 38.4598 86.0508 39.2128C86.0508 39.9657 85.3009 40.7187 84.551 40.7187H68.9906C68.0533 40.7187 67.4908 39.9657 67.4908 39.2128C67.4908 38.4598 68.2407 37.7068 68.9906 37.7068Z" fill="#CCCFF2"/>
<path d="M46.8632 103.779V57.2845C46.8632 56.3433 47.6131 55.7786 48.363 55.7786C49.1129 55.7786 49.8628 56.5315 49.8628 57.2845V103.779C49.8628 104.721 49.1129 105.285 48.363 105.285C47.6131 105.285 46.8632 104.532 46.8632 103.779Z" fill="#CCCFF2"/>
<path d="M86.9848 94.5559V99.6384C86.9848 100.768 86.0475 101.709 84.9226 101.709H58.3012C57.1764 101.709 56.239 100.768 56.239 99.6384V94.5559C56.239 93.4265 57.1764 92.4853 58.3012 92.4853H84.7351C86.0475 92.297 86.9848 93.2382 86.9848 94.5559Z" fill="#CCCFF2"/>
<path d="M74.2366 97.0025C74.2366 99.6379 72.1743 101.708 69.5497 101.708H58.3012C57.1764 101.708 56.239 100.767 56.239 99.6379V94.5554C56.239 93.426 57.1764 92.4848 58.3012 92.4848H69.5497C72.1743 92.2966 74.2366 94.3672 74.2366 97.0025Z" fill="#57B3FE"/>
<path d="M86.9848 78.367V83.4494C86.9848 84.5789 86.0475 85.5201 84.9226 85.5201H58.3012C57.1764 85.5201 56.239 84.5789 56.239 83.4494V78.367C56.239 77.2376 57.1764 76.2964 58.3012 76.2964H84.7351C86.0475 76.2964 86.9848 77.2376 86.9848 78.367Z" fill="#CCCFF2"/>
<path d="M80.4231 81.0021C80.4231 83.6374 78.3609 85.7081 75.7363 85.7081H58.4886C57.3638 85.7081 56.4264 84.7669 56.4264 83.6374V78.555C56.4264 77.4256 57.3638 76.4844 58.4886 76.4844H75.7363C78.3609 76.2961 80.4231 78.3668 80.4231 81.0021Z" fill="#FFD06C"/>
<path d="M71.9881 78.367C69.9259 78.7434 67.6762 78.9317 65.614 78.9317C64.4892 78.9317 63.5518 78.9317 62.4269 78.7434C61.3021 78.7434 60.3647 78.5552 59.2399 78.367C60.3647 78.1787 61.3021 77.9905 62.4269 77.9905C63.5518 77.9905 64.4892 77.8022 65.614 77.8022C67.6762 77.8022 69.7384 77.9905 71.9881 78.367Z" fill="white"/>
<path d="M86.9856 61.4254V66.5079C86.9856 67.6373 86.0482 68.5785 84.9233 68.5785H58.302C57.1771 68.5785 56.2397 67.6373 56.2397 66.5079V61.4254C56.2397 60.296 57.1771 59.3548 58.302 59.3548H84.7359C86.0482 59.3548 86.9856 60.296 86.9856 61.4254Z" fill="#CCCFF2"/>
<path d="M71.2377 64.0606C71.2377 66.696 69.1755 68.7666 66.5508 68.7666H58.302C57.1771 68.7666 56.2397 67.8254 56.2397 66.696V61.6135C56.2397 60.4841 57.1771 59.5429 58.302 59.5429H66.5508C69.1755 59.3547 71.2377 61.4253 71.2377 64.0606Z" fill="#F34B58"/>
<path d="M68.0473 61.4258C66.36 61.8023 64.8602 61.8023 63.1729 61.8023C62.423 61.8023 61.4857 61.8023 60.7358 61.8023C59.9859 61.8023 59.0485 61.6141 58.2986 61.4258C59.0485 61.2376 59.9859 61.2376 60.7358 61.0494H63.1729C64.8602 61.0494 66.36 61.2376 68.0473 61.4258Z" fill="white"/>
<path d="M11.4268 64.6242H17.8009C18.5508 64.6242 19.3007 64.0595 19.3007 63.1183C19.3007 62.3653 18.7383 61.6124 17.8009 61.6124H11.4268C10.6769 61.6124 9.927 62.1771 9.927 63.1183C9.927 64.0595 10.4894 64.6242 11.4268 64.6242Z" fill="#CCCFF2"/>
<path d="M24.1739 64.6249H38.9844C39.7343 64.6249 40.4842 64.0602 40.4842 63.119C40.4842 62.3661 39.9217 61.6131 38.9844 61.6131H24.1739C23.424 61.6131 22.6741 62.1778 22.6741 63.119C22.8615 64.0602 23.424 64.6249 24.1739 64.6249Z" fill="#CCCFF2"/>
<path d="M11.0535 72.9068H39.1747C39.9246 72.9068 40.6745 72.3421 40.6745 71.4009C40.6745 70.648 40.112 69.895 39.1747 69.895H11.0535C10.3036 69.895 9.55371 70.4597 9.55371 71.4009C9.55371 72.3421 10.1161 72.9068 11.0535 72.9068Z" fill="#CCCFF2"/>
<path d="M38.9856 79.1193H26.9872C26.2373 79.1193 25.4874 79.684 25.4874 80.6252C25.4874 81.3782 26.0498 82.1311 26.9872 82.1311H38.9856C39.7355 82.1311 40.4854 81.5664 40.4854 80.6252C40.4854 79.8723 39.923 79.1193 38.9856 79.1193Z" fill="#CCCFF2"/>
<path d="M20.4256 79.1187H11.4268C10.6769 79.1187 9.927 79.6834 9.927 80.6246C9.927 81.3776 10.4894 82.1305 11.4268 82.1305H20.4256C21.1755 82.1305 21.9254 81.5658 21.9254 80.6246C21.9254 79.8717 21.1755 79.1187 20.4256 79.1187Z" fill="#CCCFF2"/>
<path d="M11.0535 90.4123H39.1747C39.9246 90.4123 40.6745 89.8476 40.6745 88.9064C40.6745 88.1535 40.112 87.4005 39.1747 87.4005H11.0535C10.3036 87.4005 9.55371 87.9652 9.55371 88.9064C9.55371 89.8476 10.1161 90.4123 11.0535 90.4123Z" fill="#CCCFF2"/>
<path d="M38.9882 99.2603H32.6141C31.8642 99.2603 31.1143 98.6956 31.1143 97.7544C31.1143 97.0014 31.6767 96.2485 32.6141 96.2485H38.9882C39.7381 96.2485 40.488 96.8132 40.488 97.7544C40.488 98.6956 39.9256 99.2603 38.9882 99.2603Z" fill="#423D9B"/>
<path d="M26.2373 99.2603H11.4268C10.6769 99.2603 9.927 98.6956 9.927 97.7544C9.927 97.0014 10.4894 96.2485 11.4268 96.2485H26.2373C26.9872 96.2485 27.7371 96.8132 27.7371 97.7544C27.5496 98.6956 26.9872 99.2603 26.2373 99.2603Z" fill="#423D9B"/>
<path d="M81.1709 5.14194C75.1717 6.08314 69.1725 6.27137 63.1733 6.27137C57.5491 6.27137 50.9875 6.08314 45.1758 5.14194C50.8 4.20075 57.5491 4.01251 63.1733 4.01251C69.1725 4.20075 75.1717 4.38899 81.1709 5.14194Z" fill="white"/>
<path d="M15.3684 113.191C14.806 113.002 11.6189 113.755 7.68193 110.367C3.93244 107.355 3.74497 103.779 3.5575 103.59C4.86982 105.096 6.36961 107.167 8.80678 109.049C10.869 110.743 13.1187 112.061 15.3684 113.191Z" fill="white"/>
<path d="M112.855 62.931L116.604 94.3669C117.354 100.955 115.105 104.72 113.417 111.873L110.605 112.25C107.231 105.661 104.231 102.461 103.481 95.8728L99.7317 64.4369L112.855 62.931Z" fill="#FFD06C"/>
<path d="M104.416 100.202C105.541 103.402 106.666 104.72 110.603 112.25L113.415 111.873C115.665 103.779 116.415 102.273 116.602 98.6964L104.416 100.202Z" fill="#FEBC1F"/>
<path d="M113.417 111.873L113.792 114.509C113.979 115.826 112.479 116.579 111.354 115.826C110.979 115.638 110.792 115.261 110.792 114.885L110.604 112.25L113.417 111.873Z" fill="#1D2943"/>
<path d="M108.918 23.0247L113.605 62.9312C113.605 63.4959 113.23 64.2489 112.48 64.2489L100.106 65.7548C99.544 65.7548 98.7941 65.3783 98.7941 64.6254L94.1073 24.7188C93.5448 20.5776 96.5444 17.001 100.481 16.4363C104.606 16.0598 108.355 18.8834 108.918 23.0247Z" fill="#F34B58"/>
<path d="M109.536 27.9568L112.514 27.5984L114.343 42.9243L111.365 43.2827L109.536 27.9568Z" fill="#497BFE"/>
<path d="M116.604 26.6017L119.979 54.461C120.166 56.1552 119.041 57.6611 117.354 57.8493C116.979 57.8493 116.792 57.8493 116.417 57.6611C116.229 57.4729 116.042 57.0964 116.042 56.9081L112.292 25.4723C112.292 24.7194 112.667 24.1546 113.417 24.1546C114.917 23.7782 116.417 24.9076 116.604 26.6017Z" fill="#57B3FE"/>
<path d="M107.042 29.6134C108.167 33.9429 108.917 38.2724 109.479 42.4136C109.667 44.6725 109.854 46.7431 110.042 49.002C110.229 51.2608 110.229 53.3314 110.229 55.5903C109.667 53.5197 109.292 51.2608 108.917 49.1902C108.542 47.1196 108.167 44.8607 107.98 42.7901C107.23 38.2724 106.855 33.9429 107.042 29.6134Z" fill="white"/>
</svg>
