<svg width="56" height="56" viewBox="0 0 56 56" fill="none" xmlns="http://www.w3.org/2000/svg">
<circle cx="28" cy="28" r="28" fill="#F0A35F"/>
<circle cx="28" cy="28" r="26.5" stroke="white" stroke-opacity="0.3" stroke-width="3"/>
<g clip-path="url(#clip0_42_1532)">
<path d="M38.8 32H33.6C33.6 31.32 33.08 30.8 32.4 30.8H32C31.3199 30.8 30.8 31.32 30.8 32H30.4C29.7199 32 29.2 32.52 29.2 33.2V38C29.2 38.6801 29.7199 39.2 30.4 39.2H30.88C31.04 39.6801 31.48 40 32 40H32.4C32.9199 40 33.3599 39.6801 33.5199 39.2H38.8C39.48 39.2 40 38.6801 40 38V33.2C40 32.52 39.48 32 38.8 32ZM30 38V33.2C30 32.96 30.1599 32.8 30.4 32.8H30.8V38.4H30.4C30.1599 38.4 30 38.2401 30 38ZM32.8 38.8C32.8 39.0401 32.64 39.2 32.4 39.2H32C31.7599 39.2 31.6 39.0401 31.6 38.8V32C31.6 31.76 31.7599 31.6 32 31.6H32.4C32.64 31.6 32.8 31.76 32.8 32V38.8ZM39.2 38C39.2 38.2401 39.04 38.4 38.8 38.4H33.6V32.8H38.8C39.04 32.8 39.2 32.96 39.2 33.2V38Z" fill="white"/>
<path d="M17.5996 32.8H18.3996V33.6H17.5996V32.8Z" fill="white"/>
<path d="M19.2 32.8H20V33.6H19.2V32.8Z" fill="white"/>
<path d="M26.8 40V35.2C27.4801 35.2 28 34.6801 28 34V29.6H26.8V28H26V29.6H18V26.4H24.4801C24.64 26.8801 25.0801 27.2 25.6 27.2H29.9199L29.64 29.2H28.4V30H35.6V29.2H34.36L34.0801 27.2H38.4C39.0801 27.2 39.6 26.6801 39.6 26V17.2C39.6 16.5199 39.0801 16 38.4 16H25.6C24.9199 16 24.4 16.5199 24.4 17.2V25.6H17.2V29.6H16V34C16 34.6801 16.5199 35.2 17.2 35.2V40H26.8ZM33.5199 29.2H30.44L30.7199 27.2H33.24L33.5199 29.2ZM38.4 26.4H25.6C25.36 26.4 25.2 26.24 25.2 26V25.6H38.8V26C38.8 26.24 38.64 26.4 38.4 26.4ZM25.6 16.8H38.4C38.64 16.8 38.8 16.96 38.8 17.2V24.8H25.2V18.4H38V17.6H25.2V17.2C25.2 16.96 25.36 16.8 25.6 16.8ZM16.8 34V30.4H27.2V34C27.2 34.24 27.04 34.4 26.8 34.4H17.2C16.96 34.4 16.8 34.24 16.8 34ZM26 35.2V39.2H18V35.2H26Z" fill="white"/>
<path d="M18.8 37.6H25.2V38.4H18.8V37.6Z" fill="white"/>
<path d="M34.4004 33.6H35.2004V34.4H34.4004V33.6Z" fill="white"/>
<path d="M36 33.6H36.8V34.4H36V33.6Z" fill="white"/>
<path d="M37.5996 33.6H38.3996V34.4H37.5996V33.6Z" fill="white"/>
<path d="M34.4004 35.2H35.2004V36H34.4004V35.2Z" fill="white"/>
<path d="M36 35.2H36.8V36H36V35.2Z" fill="white"/>
<path d="M37.5996 35.2H38.3996V36H37.5996V35.2Z" fill="white"/>
<path d="M34.4004 36.8H35.2004V37.6H34.4004V36.8Z" fill="white"/>
<path d="M36 36.8H36.8V37.6H36V36.8Z" fill="white"/>
<path d="M37.5996 36.8H38.3996V37.6H37.5996V36.8Z" fill="white"/>
<path d="M18.8 36H25.2V36.8H18.8V36Z" fill="white"/>
<path d="M18.4 24.8H22C22.68 24.8 23.2 24.2801 23.2 23.6V17.2C23.2 16.5199 22.68 16 22 16H18.4C17.7199 16 17.2 16.5199 17.2 17.2V23.6C17.2 24.2801 17.7199 24.8 18.4 24.8ZM22 24H18.4C18.1599 24 18 23.84 18 23.6V23.2H22.4V23.6C22.4 23.84 22.24 24 22 24ZM18 22.4V18.4H22.4V22.4H18ZM18.4 16.8H22C22.24 16.8 22.4 16.96 22.4 17.2V17.6H18V17.2C18 16.96 18.1599 16.8 18.4 16.8Z" fill="white"/>
</g>
<defs>
<clipPath id="clip0_42_1532">
<rect width="24" height="24" fill="white" transform="translate(16 16)"/>
</clipPath>
</defs>
</svg>
