<svg width="56" height="56" viewBox="0 0 56 56" fill="none" xmlns="http://www.w3.org/2000/svg">
<circle cx="28" cy="28" r="28" fill="#F0A35F"/>
<circle cx="28" cy="28" r="26.5" stroke="white" stroke-opacity="0.3" stroke-width="3"/>
<g clip-path="url(#clip0_42_1447)">
<path d="M27.9997 29.9014C25.3195 29.9014 23.1387 32.0821 23.1387 34.7624C23.1387 37.4429 25.3195 39.6235 27.9997 39.6235C30.6802 39.6235 32.8608 37.4429 32.8608 34.7624C32.8608 32.0821 30.6802 29.9014 27.9997 29.9014ZM27.9997 38.9191C25.7078 38.9191 23.8433 37.0544 23.8433 34.7624C23.8433 32.4705 25.7078 30.606 27.9997 30.606C30.2917 30.606 32.1562 32.4705 32.1562 34.7624C32.1562 37.0544 30.2917 38.9191 27.9997 38.9191Z" fill="white"/>
<path d="M27.624 32.8603H29.5027C29.6973 32.8603 29.855 32.7027 29.855 32.5081C29.855 32.3136 29.6973 32.1558 29.5027 32.1558H28.352V31.3809C28.352 31.1864 28.1944 31.0286 27.9998 31.0286C27.8053 31.0286 27.6475 31.1864 27.6475 31.3809V32.1558H27.624C26.8083 32.1558 26.1445 32.8195 26.1445 33.6352C26.1445 34.451 26.8083 35.1147 27.624 35.1147H28.3755C28.8029 35.1147 29.1504 35.4625 29.1504 35.8896C29.1504 36.317 28.8029 36.6647 28.3755 36.6647H26.4968C26.3024 36.6647 26.1445 36.8224 26.1445 37.0168C26.1445 37.2115 26.3024 37.3691 26.4968 37.3691H27.6475V38.144C27.6475 38.3387 27.8053 38.4963 27.9998 38.4963C28.1944 38.4963 28.352 38.3387 28.352 38.144V37.3691H28.3755C29.1912 37.3691 29.855 36.7054 29.855 35.8896C29.855 35.0739 29.1912 34.4101 28.3755 34.4101H27.624C27.1967 34.4101 26.8491 34.0626 26.8491 33.6352C26.8491 33.2081 27.1967 32.8603 27.624 32.8603Z" fill="white"/>
<path d="M27.71 28.1998C27.7757 28.2948 27.8839 28.3516 27.9995 28.3516C28.1152 28.3516 28.2234 28.2948 28.2891 28.1998L31.6707 23.3153C31.7452 23.2076 31.754 23.0673 31.6932 22.9513C31.6323 22.8352 31.5121 22.7625 31.381 22.7625H30.2304V16.7273C30.2304 16.5327 30.0728 16.375 29.8781 16.375H26.1208C25.9263 16.375 25.7685 16.5327 25.7685 16.7273V22.7625H24.6179C24.4868 22.7625 24.3667 22.8352 24.3059 22.9513C24.2451 23.0673 24.2537 23.2076 24.3282 23.3153L27.71 28.1998ZM26.1208 23.4671C26.3153 23.4671 26.4731 23.3092 26.4731 23.1148V17.0796H29.5258V23.1148C29.5258 23.3092 29.6835 23.4671 29.8781 23.4671H30.7089L27.9995 27.3804L25.2902 23.4671H26.1208Z" fill="white"/>
<path d="M39.9598 27.4601C39.8989 27.344 39.7787 27.2713 39.6476 27.2713H38.497V19.3926C38.497 19.1982 38.3393 19.0405 38.1447 19.0405H34.3874C34.1929 19.0405 34.0351 19.1982 34.0351 19.3926V27.2713H32.8845C32.7535 27.2713 32.6332 27.344 32.5724 27.4601C32.5117 27.5762 32.5203 27.7164 32.595 27.8241L35.9766 32.7086C36.0423 32.8036 36.1505 32.8604 36.266 32.8604C36.3818 32.8604 36.49 32.8036 36.5557 32.7086L39.9373 27.8241C40.0118 27.7164 40.0206 27.5762 39.9598 27.4601ZM36.266 31.8894L33.5568 27.9759H34.3874C34.582 27.9759 34.7397 27.8182 34.7397 27.6236V19.7449H37.7926V27.6236C37.7926 27.8182 37.9502 27.9759 38.1447 27.9759H38.9755L36.266 31.8894Z" fill="white"/>
<path d="M23.4274 30.0902C23.3666 29.9741 23.2465 29.9014 23.1154 29.9014H21.9648V25.5415C21.9648 25.3469 21.807 25.1892 21.6125 25.1892C21.418 25.1892 21.2602 25.3469 21.2602 25.5415V30.2537C21.2602 30.4483 21.418 30.606 21.6125 30.606H22.4431L19.7338 34.5195L17.0246 30.606H17.8552C18.0496 30.606 18.2075 30.4483 18.2075 30.2537V22.3751H21.2602V23.9133C21.2602 24.1078 21.418 24.2654 21.6125 24.2654C21.807 24.2654 21.9648 24.1078 21.9648 23.9133V22.0228C21.9648 21.8283 21.807 21.6707 21.6125 21.6707H17.8552C17.6605 21.6707 17.5029 21.8283 17.5029 22.0228V29.9014H16.3522C16.2211 29.9014 16.101 29.9741 16.0402 30.0902C15.9794 30.2063 15.9881 30.3465 16.0626 30.4542L19.4442 35.3387C19.5099 35.4337 19.6183 35.4905 19.7338 35.4905C19.8494 35.4905 19.9576 35.4337 20.0235 35.3387L23.4051 30.4542C23.4796 30.3465 23.4882 30.2063 23.4274 30.0902Z" fill="white"/>
</g>
<defs>
<clipPath id="clip0_42_1447">
<rect width="24" height="24" fill="white" transform="translate(16 16)"/>
</clipPath>
</defs>
</svg>
