<svg width="56" height="56" viewBox="0 0 56 56" fill="none" xmlns="http://www.w3.org/2000/svg">
<circle cx="28" cy="28" r="28" fill="#F0A35F"/>
<circle cx="28" cy="28" r="26.5" stroke="white" stroke-opacity="0.3" stroke-width="3"/>
<g clip-path="url(#clip0_42_1476)">
<path d="M25 32.125H24.25C24.043 32.125 23.875 31.957 23.875 31.75H23.125C23.125 32.3702 23.6298 32.875 24.25 32.875V33.625H25V32.875C25.6202 32.875 26.125 32.3702 26.125 31.75C26.125 31.1298 25.6202 30.625 25 30.625H24.25C24.043 30.625 23.875 30.457 23.875 30.25C23.875 30.043 24.043 29.875 24.25 29.875H25C25.207 29.875 25.375 30.043 25.375 30.25H26.125C26.125 29.6298 25.6202 29.125 25 29.125V28.375H24.25V29.125C23.6298 29.125 23.125 29.6298 23.125 30.25C23.125 30.8702 23.6298 31.375 24.25 31.375H25C25.207 31.375 25.375 31.543 25.375 31.75C25.375 31.957 25.207 32.125 25 32.125Z" fill="white"/>
<path d="M34.484 27.3599L33.2495 28.5947L32.7646 28.1099L32.2344 28.6401L33.2495 29.6552L35.0143 27.8901L34.484 27.3599Z" fill="white"/>
<path d="M38.5 17.875H37.375V17.5C37.375 16.8798 36.8703 16.375 36.25 16.375H35.5C34.8797 16.375 34.375 16.8798 34.375 17.5V17.875H33.625V17.5C33.625 16.8798 33.1203 16.375 32.5 16.375H31.75C31.1298 16.375 30.625 16.8798 30.625 17.5V17.875H29.875V17.5C29.875 16.8798 29.3702 16.375 28.75 16.375H28C27.3798 16.375 26.875 16.8798 26.875 17.5V17.875H26.125V17.5C26.125 16.8798 25.6202 16.375 25 16.375H24.25C23.6297 16.375 23.125 16.8798 23.125 17.5V17.875H22C21.3797 17.875 20.875 18.3798 20.875 19V26.875H16.375V35.125H20.1265C20.1351 35.7044 20.335 36.2714 20.6976 36.7251L21.2177 37.375H20.875V39.625H27.625V37.375H27.2789L27.7983 36.7259C28.1605 36.2725 28.3611 35.7051 28.3698 35.125H32.875V34.375H38.5C39.1203 34.375 39.625 33.8703 39.625 33.25V19C39.625 18.3798 39.1203 17.875 38.5 17.875ZM35.125 17.5C35.125 17.2934 35.293 17.125 35.5 17.125H36.25C36.457 17.125 36.625 17.2934 36.625 17.5V19C36.625 19.2066 36.457 19.375 36.25 19.375H35.5C35.293 19.375 35.125 19.2066 35.125 19V17.5ZM31.375 17.5C31.375 17.2934 31.543 17.125 31.75 17.125H32.5C32.707 17.125 32.875 17.2934 32.875 17.5V19C32.875 19.2066 32.707 19.375 32.5 19.375H31.75C31.543 19.375 31.375 19.2066 31.375 19V17.5ZM27.625 17.5C27.625 17.2934 27.793 17.125 28 17.125H28.75C28.957 17.125 29.125 17.2934 29.125 17.5V19C29.125 19.2066 28.957 19.375 28.75 19.375H28C27.793 19.375 27.625 19.2066 27.625 19V17.5ZM23.875 17.5C23.875 17.2934 24.043 17.125 24.25 17.125H25C25.207 17.125 25.375 17.2934 25.375 17.5V19C25.375 19.2066 25.207 19.375 25 19.375H24.25C24.043 19.375 23.875 19.2066 23.875 19V17.5ZM17.125 27.625H18.5871C18.4375 28.3585 17.8585 28.9375 17.125 29.0871V27.625ZM17.125 34.375V32.9129C17.8585 33.0625 18.4375 33.6415 18.5871 34.375H17.125ZM20.5139 31.2812C20.2776 31.4875 20.125 31.7871 20.1246 32.1246L20.1235 34.375H19.345C19.1796 33.2279 18.2721 32.3204 17.125 32.155V29.845C18.2721 29.6796 19.1796 28.7721 19.345 27.625H22.2606C21.1979 28.372 20.5 29.605 20.5 31C20.5 31.0949 20.5075 31.1879 20.5139 31.2812ZM25.375 26.125V26.875H23.125V26.125H25.375ZM23.125 25.375V23.125H25.375V25.375H23.125ZM24.625 27.625C26.4861 27.625 28 29.1389 28 31C28 32.8611 26.4861 34.375 24.625 34.375H24.0798C23.8911 33.9449 23.5566 33.5875 23.125 33.3745V32.875C23.125 31.8411 22.2839 31 21.25 31C21.25 29.1389 22.7639 27.625 24.625 27.625ZM28.375 26.125V26.875H26.125V26.125H28.375ZM26.125 25.375V23.125H28.375V25.375H26.125ZM26.875 38.875H21.625V38.125H26.875V38.875ZM27.2121 36.2571L26.3177 37.375H22.1785L21.2834 36.2564C21.0182 35.9252 20.8724 35.5098 20.8728 35.0864L20.8742 32.1254C20.8746 31.9184 21.043 31.75 21.25 31.75C21.8703 31.75 22.375 32.2548 22.375 32.875V33.8954L22.6315 33.9809C23.1509 34.1541 23.5 34.6383 23.5 35.1857V35.5H24.25V35.1857C24.25 35.1651 24.2463 35.1453 24.2459 35.125H27.6201C27.6111 35.5352 27.469 35.9361 27.2121 36.2571ZM32.125 34.375H30.6629C30.8125 33.6415 31.3915 33.0625 32.125 32.9129V34.375ZM32.125 32.155C30.9779 32.3204 30.0704 33.2279 29.905 34.375H26.9894C28.0521 33.628 28.75 32.395 28.75 31C28.75 29.605 28.0521 28.372 26.9894 27.625H30.724C30.6614 27.8654 30.625 28.1155 30.625 28.375C30.625 29.4824 31.2299 30.4495 32.125 30.9692V32.155ZM31.6473 26.125C31.4035 26.3395 31.195 26.5926 31.0308 26.875H29.125V26.125H31.6473ZM29.125 25.375V23.125H31.375V25.375H29.125ZM31.375 28.375C31.375 27.1341 32.3841 26.125 33.625 26.125C34.8659 26.125 35.875 27.1341 35.875 28.375C35.875 29.6159 34.8659 30.625 33.625 30.625C32.3841 30.625 31.375 29.6159 31.375 28.375ZM32.125 25.375V23.125H34.375V25.375H32.125ZM35.125 25.375V23.125H37.375V25.375H35.125ZM37.375 26.125V32.125H35.125V30.9692C36.0201 30.4495 36.625 29.4827 36.625 28.375C36.625 27.4788 36.2279 26.6751 35.6027 26.125H37.375ZM34.375 31.2764V32.125H32.875V31.2764C33.1154 31.3386 33.3655 31.375 33.625 31.375C33.8845 31.375 34.1346 31.3386 34.375 31.2764ZM38.875 33.25C38.875 33.457 38.707 33.625 38.5 33.625H32.875V32.875H38.125V22.375H22.375V26.875H21.625V21.625H38.875V33.25ZM38.875 20.875H21.625V19C21.625 18.7934 21.793 18.625 22 18.625H23.125V19C23.125 19.6202 23.6297 20.125 24.25 20.125H25C25.6202 20.125 26.125 19.6202 26.125 19V18.625H26.875V19C26.875 19.6202 27.3798 20.125 28 20.125H28.75C29.3702 20.125 29.875 19.6202 29.875 19V18.625H30.625V19C30.625 19.6202 31.1298 20.125 31.75 20.125H32.5C33.1203 20.125 33.625 19.6202 33.625 19V18.625H34.375V19C34.375 19.6202 34.8797 20.125 35.5 20.125H36.25C36.8703 20.125 37.375 19.6202 37.375 19V18.625H38.5C38.707 18.625 38.875 18.7934 38.875 19V20.875Z" fill="white"/>
</g>
<defs>
<clipPath id="clip0_42_1476">
<rect width="24" height="24" fill="white" transform="translate(16 16)"/>
</clipPath>
</defs>
</svg>
