<svg width="56" height="56" viewBox="0 0 56 56" fill="none" xmlns="http://www.w3.org/2000/svg">
<circle cx="28" cy="28" r="28" fill="#2C7AE0"/>
<circle cx="28" cy="28" r="26.5" stroke="white" stroke-opacity="0.3" stroke-width="3"/>
<g clip-path="url(#clip0_42_1457)">
<path d="M30.2533 16H38.8678C39.5164 16 39.9998 16.5792 39.9998 17.2116V22.6377C39.9998 23.2701 39.5164 23.8493 38.8678 23.8493H30.2533C29.5997 23.8493 29.1212 23.2701 29.1212 22.6377V21.6546L27.2878 20.7192C26.7244 20.4321 26.7244 19.5872 27.2878 19.3002C27.8991 18.9867 28.5101 18.6784 29.1212 18.3648V17.2116C29.121 16.5792 29.5995 16 30.2533 16ZM38.8678 16.7492H30.2533C30.0142 16.7492 29.8706 16.9937 29.8706 17.2116V18.5935C29.8706 18.7262 29.7964 18.8592 29.6634 18.9229C28.983 19.2738 28.3082 19.6246 27.6279 19.9699C27.5908 19.9911 27.6013 20.0389 27.6279 20.0496L29.6318 21.0807C29.7698 21.1337 29.8708 21.2667 29.8708 21.4261V22.6377C29.8708 22.8556 30.0144 23.1001 30.2535 23.1001H38.868C39.1071 23.1001 39.2507 22.8556 39.2507 22.6377V17.2116C39.2505 16.9937 39.1069 16.7492 38.8678 16.7492Z" fill="white"/>
<path d="M31.8319 18.6411C31.3375 18.6411 31.3375 17.8919 31.8319 17.8919H37.4545C37.9435 17.8919 37.9435 18.6411 37.4545 18.6411H31.8319ZM31.8319 21.9627C31.3375 21.9627 31.3375 21.2133 31.8319 21.2133H35.1694C35.6636 21.2133 35.6636 21.9627 35.1694 21.9627H31.8319ZM31.8319 20.2994C31.3375 20.2994 31.3375 19.5499 31.8319 19.5499H37.4545C37.9435 19.5499 37.9435 20.2994 37.4545 20.2994H31.8319Z" fill="white"/>
<path d="M20.8255 23.0946C20.7139 23.0521 20.6183 23.0043 20.5279 22.9512L20.4693 23.3817L21.7023 24.7686L22.9298 23.3817L22.8713 22.9512C22.7811 23.0043 22.6853 23.0523 22.579 23.0946C22.0849 23.2913 21.3145 23.2913 20.8255 23.0946ZM19.8477 22.4039L19.8106 22.372C19.2364 21.8618 18.955 21.1604 18.955 20.395V18.673C18.955 17.0468 20.1029 16 21.7024 16C23.302 16 24.4446 17.0468 24.4446 18.673V20.395C24.4446 21.1604 24.163 21.8618 23.5891 22.372L23.5518 22.4039L23.674 23.3073L24.3171 23.8705L26.14 24.6625C26.5334 24.838 26.8469 25.1089 27.0648 25.4491C27.2826 25.7944 27.3996 26.1983 27.3996 26.6288V27.6651C27.3996 27.8723 27.2348 28.0426 27.0276 28.0426C26.8204 28.0426 26.6502 27.8725 26.6502 27.6651V26.6288C26.6502 26.3365 26.5759 26.0708 26.4323 25.8529C26.2943 25.6351 26.0924 25.4598 25.8424 25.3482L24.3492 24.6998L23.722 26.6609C23.6635 26.8576 23.4511 26.9639 23.2544 26.9054C23.2172 26.8894 23.1799 26.8735 23.1481 26.8469L22.0744 26.0656V27.6651C22.0744 27.8723 21.9098 28.0426 21.7026 28.0426C21.4954 28.0426 21.325 27.8723 21.325 27.6651V26.0656L20.2568 26.8521C20.2568 26.8521 20.1559 26.8999 20.1452 26.9052C19.9486 26.9637 19.7414 26.8574 19.6776 26.6607L19.0559 24.6996L17.5572 25.348C17.3074 25.4596 17.1055 25.6349 16.9673 25.8527C16.8291 26.0706 16.7494 26.3365 16.7494 26.6286V31.3317C16.7494 31.5391 16.5846 31.7091 16.3774 31.7091C16.1702 31.7091 16 31.5394 16 31.3321V26.6288C16 26.1983 16.117 25.7944 16.3401 25.4491C16.5527 25.1089 16.8663 24.8378 17.2594 24.6625L19.0823 23.8707L19.7254 23.3074L19.8477 22.4039ZM20.4694 21.9574C20.4906 21.9734 20.5068 21.9893 20.5227 22.0105C20.698 22.1646 20.8786 22.3135 21.0966 22.3984C21.4103 22.5207 21.9949 22.5207 22.3032 22.3984C22.5211 22.3133 22.7018 22.1646 22.8771 22.0105C22.8933 21.9893 22.9144 21.9734 22.9356 21.9574C22.9889 21.9096 23.0419 21.8618 23.0898 21.8138C23.5043 21.4418 23.6956 20.9476 23.6956 20.395V19.5979C22.3191 19.8582 21.5378 19.2312 21.1392 18.7105C20.6927 19.2366 20.1242 19.2631 19.7097 19.1834V20.395C19.7097 20.9476 19.8957 21.4418 20.3103 21.8138C20.3633 21.8618 20.4164 21.9096 20.4694 21.9574ZM20.0444 24.0246L19.7148 24.3117L20.2302 25.9379L21.1495 25.2683L20.0444 24.0246ZM23.3553 24.0246L22.2552 25.2683L23.1693 25.9379L23.6849 24.3117L23.3553 24.0246ZM18.2001 28.8239C18.2001 28.6167 18.3702 28.4464 18.5776 28.4464C18.7849 28.4464 18.9496 28.6165 18.9496 28.8239V31.3321C18.9496 31.5394 18.7847 31.7095 18.5776 31.7095C18.3704 31.7095 18.2001 31.5396 18.2001 31.3321V28.8239ZM19.7202 18.418C20.0127 18.4924 20.5227 18.5136 20.7991 17.8334C20.932 17.5144 21.373 17.5039 21.5005 17.86C21.5005 17.86 21.9734 19.2257 23.6954 18.8326V18.673C23.6954 17.4614 22.8876 16.7492 21.7024 16.7492C20.6343 16.7492 19.8319 17.3284 19.7202 18.418Z" fill="white"/>
<path d="M31.5874 32.3314C30.9017 31.7254 30.567 30.9974 30.567 30.0779V28.1329C30.567 26.3312 31.8371 25.1674 33.6176 25.1674C35.3927 25.1674 36.6626 26.3314 36.6626 28.1329V30.0779C36.6626 30.9972 36.333 31.7252 35.6477 32.3314L35.7965 33.8777L38.6077 34.9354C39.4792 35.3181 40.0001 36.1632 40.0001 37.1091V39.6227C40.0001 39.8299 39.8302 40.0002 39.6229 40.0002C39.4155 40.0002 39.2509 39.8301 39.2509 39.6227V37.1091C39.2509 36.4607 38.9162 35.8921 38.3154 35.6264L35.3182 34.4944C34.1972 34.1386 33.0649 34.0639 31.9277 34.3988L28.9144 35.6264C28.3192 35.8921 27.9844 36.4607 27.9844 37.1091V39.6227C27.9844 39.8299 27.8143 40.0002 27.6069 40.0002C27.3999 40.0002 27.2351 39.8301 27.2351 39.6227V37.1091C27.2351 36.1632 27.7558 35.3181 28.6275 34.9354L31.4495 33.7876L31.5874 32.3314ZM34.76 32.7032H32.4695C32.3739 32.7032 32.294 32.7777 32.2835 32.8731L32.2198 33.5536C33.1549 33.3676 34.0957 33.4099 35.0205 33.6332L34.946 32.8731C34.9406 32.7777 34.8609 32.7032 34.76 32.7032ZM32.4377 31.9647H34.7919C34.9299 31.9647 35.1002 31.837 35.249 31.6936C35.7007 31.2471 35.9134 30.7264 35.9134 30.0781V28.1329C35.9134 26.7404 34.9834 25.9167 33.6176 25.9167C32.2519 25.9167 31.3164 26.7406 31.3164 28.1329V30.0779C31.3164 30.7636 31.5662 31.3214 32.0765 31.7732C32.1986 31.8848 32.3259 31.9647 32.4377 31.9647Z" fill="white"/>
<path d="M19.8588 32.2516L20.4804 28.691C20.5762 28.1436 21.0969 27.697 21.6497 27.697H27.9684C28.5847 27.697 29.0047 28.2233 28.8986 28.8185L28.1013 33.3621C28.0003 33.9468 27.4477 34.4251 26.8524 34.4251H20.6666H18.7269C18.3122 34.4251 17.8978 34.1913 17.7915 33.766L17.5365 32.719C17.478 32.48 17.6587 32.2514 17.898 32.2514L19.8588 32.2516ZM24.6311 30.6732C24.8383 30.6732 25.0031 30.838 25.0031 31.045C25.0031 31.2522 24.8383 31.4225 24.6311 31.4225C24.4239 31.4225 24.2537 31.2524 24.2537 31.045C24.2538 30.838 24.4239 30.6732 24.6311 30.6732ZM20.4221 33.3623C20.3955 33.5431 20.4858 33.6758 20.6718 33.6758H26.8526C27.0917 33.6758 27.3202 33.4686 27.363 33.2346L28.16 28.691C28.1867 28.5473 28.1122 28.4465 27.9686 28.4465H21.6498C21.4532 28.4465 21.2565 28.622 21.2193 28.8185C20.9537 30.3329 20.6878 31.8477 20.4221 33.3623ZM19.7259 33.0008H18.3761L18.5195 33.5855C18.5835 33.697 18.6737 33.6756 18.7269 33.6756H19.694C19.6622 33.5322 19.6622 33.3781 19.6833 33.2345L19.7259 33.0008Z" fill="white"/>
</g>
<defs>
<clipPath id="clip0_42_1457">
<rect width="24" height="24" fill="white" transform="translate(16 16)"/>
</clipPath>
</defs>
</svg>
