<svg xmlns="http://www.w3.org/2000/svg" viewBox="0 0 161.26 37.71"><defs><style>.cls-1{fill:#3b74bf;}.cls-2{fill:#fff;}.cls-3{fill:#edefef;}</style></defs><title>logo_black_bg_1</title><g id="Layer_2" data-name="Layer 2"><g id="Layer_1-2" data-name="Layer 1"><rect class="cls-1" x="123.15" width="38.11" height="37.71"/><path class="cls-2" d="M0,24.84a4.35,4.35,0,0,1,.87-2.69,5.9,5.9,0,0,1,2.4-1.82,8.79,8.79,0,0,1,3.51-.66,10.8,10.8,0,0,1,1.89.16,7.24,7.24,0,0,1,1.62.47v-.69a2.37,2.37,0,0,0-.78-1.91A3.55,3.55,0,0,0,7.14,17a6.69,6.69,0,0,0-2.47.45,13.26,13.26,0,0,0-2.45,1.29L.78,15.71A12.5,12.5,0,0,1,4,14.18a12.41,12.41,0,0,1,3.59-.51,8.25,8.25,0,0,1,5.5,1.66,6,6,0,0,1,2,4.81v4a1.66,1.66,0,0,0,.22,1,1.13,1.13,0,0,0,.8.34v4c-.4.08-.78.14-1.13.18a8.12,8.12,0,0,1-.91.06A3.35,3.35,0,0,1,12,29.18a2.34,2.34,0,0,1-.88-1.47L11,27a7,7,0,0,1-5.55,2.76,6,6,0,0,1-2.8-.65,5,5,0,0,1-2-1.77A4.58,4.58,0,0,1,0,24.84Zm9.54.56a2.42,2.42,0,0,0,.54-.57,1.15,1.15,0,0,0,.21-.61V22.86A8,8,0,0,0,9,22.5a7.69,7.69,0,0,0-1.37-.13,4,4,0,0,0-2.19.56,1.72,1.72,0,0,0-.87,1.49,1.65,1.65,0,0,0,.3,1,2.07,2.07,0,0,0,.82.69,2.84,2.84,0,0,0,1.25.26,4.3,4.3,0,0,0,1.44-.26A3.83,3.83,0,0,0,9.54,25.4Z"/><path class="cls-2" d="M24.3,29.78a12,12,0,0,1-3.93-.66,8.52,8.52,0,0,1-3.24-1.95l1.65-3a12.77,12.77,0,0,0,2.8,1.59,7,7,0,0,0,2.57.54A3,3,0,0,0,25.59,26a.94.94,0,0,0,.51-.88.87.87,0,0,0-.3-.7,2.91,2.91,0,0,0-.92-.45c-.41-.14-.91-.29-1.51-.45a27.44,27.44,0,0,1-3-1.15A4.57,4.57,0,0,1,18.57,21a3.5,3.5,0,0,1-.6-2.12,4.74,4.74,0,0,1,.79-2.73A5.19,5.19,0,0,1,21,14.32a8.69,8.69,0,0,1,3.51-.65,10,10,0,0,1,3.16.51,8.25,8.25,0,0,1,2.9,1.71l-1.86,3a12.67,12.67,0,0,0-2.4-1.35,5.48,5.48,0,0,0-2-.42,3.38,3.38,0,0,0-.93.12,1.47,1.47,0,0,0-.68.39,1,1,0,0,0-.25.73,1,1,0,0,0,.25.7,2,2,0,0,0,.81.46l1.4.46a25.25,25.25,0,0,1,3.24,1.13,4.82,4.82,0,0,1,1.93,1.41,3.56,3.56,0,0,1,.65,2.23A4.41,4.41,0,0,1,29,28.44,7.47,7.47,0,0,1,24.3,29.78Z"/><path class="cls-2" d="M38.91,29.78A12,12,0,0,1,35,29.12a8.52,8.52,0,0,1-3.24-1.95l1.65-3a12.77,12.77,0,0,0,2.8,1.59,7,7,0,0,0,2.57.54A3,3,0,0,0,40.2,26a.94.94,0,0,0,.51-.88.87.87,0,0,0-.3-.7,2.91,2.91,0,0,0-.92-.45c-.41-.14-.91-.29-1.51-.45a27.44,27.44,0,0,1-3-1.15A4.57,4.57,0,0,1,33.18,21a3.5,3.5,0,0,1-.6-2.12,4.74,4.74,0,0,1,.79-2.73,5.19,5.19,0,0,1,2.27-1.82,8.69,8.69,0,0,1,3.51-.65,10,10,0,0,1,3.16.51,8.25,8.25,0,0,1,2.9,1.71l-1.86,3A12.67,12.67,0,0,0,41,17.54a5.48,5.48,0,0,0-2-.42,3.38,3.38,0,0,0-.93.12,1.47,1.47,0,0,0-.68.39,1,1,0,0,0-.25.73,1,1,0,0,0,.25.7,2,2,0,0,0,.81.46l1.4.46a25.25,25.25,0,0,1,3.24,1.13,4.82,4.82,0,0,1,1.93,1.41,3.56,3.56,0,0,1,.65,2.23,4.41,4.41,0,0,1-1.73,3.69A7.47,7.47,0,0,1,38.91,29.78Z"/><path class="cls-2" d="M55,29.78a9.28,9.28,0,0,1-3.57-.64,7.9,7.9,0,0,1-2.66-1.73,7.5,7.5,0,0,1-1.66-2.54,8.09,8.09,0,0,1-.57-3,8.39,8.39,0,0,1,1-4.08,7.82,7.82,0,0,1,2.9-3A8.76,8.76,0,0,1,55,13.67a8.66,8.66,0,0,1,4.54,1.12,7.71,7.71,0,0,1,2.87,2.94,8.12,8.12,0,0,1,1,3.94,7.37,7.37,0,0,1-.05.82c0,.26,0,.49-.07.69H51.66a3.45,3.45,0,0,0,.58,1.72A3.14,3.14,0,0,0,53.52,26a3.76,3.76,0,0,0,1.65.37,4.18,4.18,0,0,0,2-.51,2.77,2.77,0,0,0,1.31-1.38l4.08,1.14a6.79,6.79,0,0,1-1.7,2.17,8.2,8.2,0,0,1-2.58,1.49A9.52,9.52,0,0,1,55,29.78Zm-3.48-9.54h6.84a4,4,0,0,0-.57-1.65,3.05,3.05,0,0,0-1.2-1.08,3.73,3.73,0,0,0-3.32,0,3.06,3.06,0,0,0-1.18,1.08A4,4,0,0,0,51.54,20.24Z"/><path class="cls-2" d="M90.21,29.48h-4.8V20.81a3.47,3.47,0,0,0-.57-2.2,1.78,1.78,0,0,0-1.47-.71,3,3,0,0,0-1.89.76,4.16,4.16,0,0,0-1.32,2v8.85h-4.8V20.81a3.48,3.48,0,0,0-.57-2.22,1.82,1.82,0,0,0-1.47-.69,3,3,0,0,0-1.86.75,4.29,4.29,0,0,0-1.35,1.93v8.9h-4.8V13.91h4.32v2.66A5.87,5.87,0,0,1,72,14.42a7.61,7.61,0,0,1,3.47-.75,4.48,4.48,0,0,1,3,.9,4,4,0,0,1,1.35,2.11,6.22,6.22,0,0,1,2.38-2.23,7.1,7.1,0,0,1,3.35-.78,4.7,4.7,0,0,1,2.43.55,3.65,3.65,0,0,1,1.41,1.43A6.27,6.27,0,0,1,90,17.56a11.41,11.41,0,0,1,.18,2Z"/><path class="cls-2" d="M102.51,29.78A6.28,6.28,0,0,1,99.36,29a5.55,5.55,0,0,1-2.13-2.14v2.61H93.06V7.58h4.8v9a5.53,5.53,0,0,1,2.08-2.13,6.08,6.08,0,0,1,3.08-.75,5.85,5.85,0,0,1,2.74.64,6.69,6.69,0,0,1,2.16,1.74,8.35,8.35,0,0,1,1.43,2.57,9.64,9.64,0,0,1,.51,3.18,8.66,8.66,0,0,1-.56,3.13,8,8,0,0,1-1.54,2.54,7,7,0,0,1-2.33,1.7A6.88,6.88,0,0,1,102.51,29.78Zm-1.35-4.05a3.64,3.64,0,0,0,1.51-.31,3.72,3.72,0,0,0,1.22-.83,3.58,3.58,0,0,0,.78-1.23,4.41,4.41,0,0,0,.27-1.56,4.55,4.55,0,0,0-.45-2,3.8,3.8,0,0,0-1.25-1.49,3.12,3.12,0,0,0-1.84-.55,3.19,3.19,0,0,0-1.44.35,4.15,4.15,0,0,0-1.23.95,4.88,4.88,0,0,0-.87,1.35v3.2a3.66,3.66,0,0,0,.6.89,3.8,3.8,0,0,0,.79.66,4.89,4.89,0,0,0,.93.42A3.09,3.09,0,0,0,101.16,25.73Z"/><path class="cls-2" d="M111.9,7.58h4.8V23.9a2.17,2.17,0,0,0,.36,1.41,1.27,1.27,0,0,0,1,.42,3.25,3.25,0,0,0,.91-.14,5,5,0,0,0,.83-.31l.63,3.6a9.32,9.32,0,0,1-2.07.66,10.93,10.93,0,0,1-2.19.24,4.36,4.36,0,0,1-3.17-1.1,4.13,4.13,0,0,1-1.12-3.11Z"/><path class="cls-3" d="M129.77,29.27a5.18,5.18,0,0,1-3.41-1A3.52,3.52,0,0,1,125,25.38a4,4,0,0,1,1.17-2.92,7.68,7.68,0,0,1,3.39-1.92,18.1,18.1,0,0,1,5.13-.71l-.05-4.1a1.72,1.72,0,0,0-.68-1.42,2.72,2.72,0,0,0-1.76-.5,3.12,3.12,0,0,0-1.55.37,1,1,0,0,0-.64.91,1.05,1.05,0,0,0,.38.79,1.34,1.34,0,0,1,.38,1.06,2.15,2.15,0,0,1-.7,1.62,2.39,2.39,0,0,1-1.72.72,2.22,2.22,0,0,1-1.69-.68,2.35,2.35,0,0,1-.68-1.7,3,3,0,0,1,.88-2.15,6.18,6.18,0,0,1,2.5-1.52,11.6,11.6,0,0,1,3.63-.59,9.56,9.56,0,0,1,4.63.94,3,3,0,0,1,1.86,2.58l.13,10.19a.8.8,0,0,0,.81.79,1.08,1.08,0,0,0,.61-.25,7.74,7.74,0,0,0,.92-.92l.71.79a5.58,5.58,0,0,1-4.35,2.4,3.47,3.47,0,0,1-2.26-.63,3.24,3.24,0,0,1-1.13-1.74h-.14a5.79,5.79,0,0,1-1.92,1.69A6.07,6.07,0,0,1,129.77,29.27Zm2.32-1.95a2.37,2.37,0,0,0,1.89-1,4.05,4.05,0,0,0,.75-2.62l0-2.77a5.55,5.55,0,0,0-3.45,1,3.31,3.31,0,0,0-1.19,2.82,3.19,3.19,0,0,0,.53,1.9A1.71,1.71,0,0,0,132.09,27.32Z"/><path class="cls-3" d="M142.85,28.68V27.63l2.83,0L145.49,14l-2.83,0V12.94l7.66-.1,0,2.69h.14A5.94,5.94,0,0,1,152.9,13a5.77,5.77,0,0,1,2.3-.61,3.51,3.51,0,0,1,2.5.79,3.09,3.09,0,0,1,.9,2.35,2.84,2.84,0,0,1-.72,2.22,2.67,2.67,0,0,1-1.86.72,3.07,3.07,0,0,1-1.85-.57,2.06,2.06,0,0,1-.84-1.77,1.73,1.73,0,0,1,.21-1,1,1,0,0,0,.22-.49.17.17,0,0,0,0-.12.28.28,0,0,0-.23-.05,2,2,0,0,0-1.3.75,6.1,6.1,0,0,0-1.27,1.94,6.22,6.22,0,0,0-.51,2.6l.1,7.84,2.27,0,0,1Z"/></g></g></svg>