<svg width="24" height="24" viewBox="0 0 24 24" fill="none" xmlns="http://www.w3.org/2000/svg">
<path d="M5.60078 12.8H4.80078V11.2H5.60078C5.81295 11.2 6.01644 11.2842 6.16647 11.4343C6.3165 11.5843 6.40078 11.7878 6.40078 12C6.40078 12.2121 6.3165 12.4156 6.16647 12.5656C6.01644 12.7157 5.81295 12.8 5.60078 12.8ZM11.2008 16V11.2H12.0008C12.213 11.2 12.4164 11.2842 12.5665 11.4343C12.7165 11.5843 12.8008 11.7878 12.8008 12V15.2C12.8008 15.4121 12.7165 15.6156 12.5665 15.7656C12.4164 15.9157 12.213 16 12.0008 16H11.2008Z" fill="#C20909"/>
<path fill-rule="evenodd" clip-rule="evenodd" d="M1.59961 2.4C1.59961 1.76348 1.85247 1.15303 2.30255 0.702944C2.75264 0.252856 3.36309 0 3.99961 0L17.1308 0L22.3996 5.2688V21.6C22.3996 22.2365 22.1468 22.847 21.6967 23.2971C21.2466 23.7471 20.6361 24 19.9996 24H3.99961C3.36309 24 2.75264 23.7471 2.30255 23.2971C1.85247 22.847 1.59961 22.2365 1.59961 21.6V2.4ZM5.59961 9.6H3.19961V17.6H4.79961V14.4H5.59961C6.23613 14.4 6.84658 14.1471 7.29667 13.6971C7.74675 13.247 7.99961 12.6365 7.99961 12C7.99961 11.3635 7.74675 10.753 7.29667 10.3029C6.84658 9.85286 6.23613 9.6 5.59961 9.6ZM11.9996 9.6H9.59961V17.6H11.9996C12.6361 17.6 13.2466 17.3471 13.6967 16.8971C14.1468 16.447 14.3996 15.8365 14.3996 15.2V12C14.3996 11.3635 14.1468 10.753 13.6967 10.3029C13.2466 9.85286 12.6361 9.6 11.9996 9.6ZM15.9996 17.6V9.6H20.7996V11.2H17.5996V12.8H19.1996V14.4H17.5996V17.6H15.9996Z" fill="#C20909"/>
</svg>
