<svg width="30" height="30" viewBox="0 0 30 30" fill="none" xmlns="http://www.w3.org/2000/svg">
<circle cx="15" cy="15" r="15" fill="#2C7AE0"/>
<g clip-path="url(#clip0_24_176)">
<path d="M23.3333 19.0999V21.5999C23.3343 21.832 23.2867 22.0617 23.1937 22.2744C23.1008 22.487 22.9644 22.6779 22.7934 22.8348C22.6224 22.9917 22.4205 23.1112 22.2006 23.1855C21.9808 23.2599 21.7478 23.2875 21.5167 23.2666C18.9523 22.988 16.4892 22.1117 14.325 20.7083C12.3115 19.4288 10.6044 17.7217 9.32499 15.7083C7.91663 13.5343 7.04019 11.0591 6.76665 8.48325C6.74583 8.25281 6.77321 8.02055 6.84707 7.80127C6.92092 7.58199 7.03963 7.38049 7.19562 7.2096C7.35162 7.03871 7.54149 6.90218 7.75314 6.80869C7.9648 6.7152 8.1936 6.6668 8.42499 6.66658H10.925C11.3294 6.6626 11.7215 6.80582 12.0281 7.06953C12.3348 7.33324 12.535 7.69946 12.5917 8.09992C12.6972 8.89997 12.8929 9.68552 13.175 10.4416C13.2871 10.7399 13.3114 11.064 13.2449 11.3757C13.1784 11.6873 13.024 11.9733 12.8 12.1999L11.7417 13.2583C12.9279 15.3445 14.6554 17.072 16.7417 18.2583L17.8 17.1999C18.0266 16.9759 18.3126 16.8215 18.6243 16.755C18.9359 16.6885 19.26 16.7128 19.5583 16.8249C20.3144 17.107 21.0999 17.3027 21.9 17.4083C22.3048 17.4654 22.6745 17.6693 22.9388 17.9812C23.203 18.2931 23.3435 18.6912 23.3333 19.0999Z" stroke="white" stroke-width="2" stroke-linecap="round" stroke-linejoin="round"/>
</g>
<defs>
<clipPath id="clip0_24_176">
<rect width="20" height="20" fill="white" transform="translate(5 5)"/>
</clipPath>
</defs>
</svg>
