<svg width="24" height="24" viewBox="0 0 24 24" fill="none" xmlns="http://www.w3.org/2000/svg">
<path d="M19.2655 13.516C19.497 13.3368 19.6844 13.1071 19.8133 12.8443C19.9422 12.5815 20.0092 12.2927 20.0092 12C20.0092 11.7073 19.9422 11.4185 19.8133 11.1557C19.6844 10.8929 19.497 10.6631 19.2655 10.484C16.2681 8.16461 12.921 6.33647 9.34953 5.06798L8.69653 4.83599C7.44853 4.39299 6.12953 5.23699 5.96053 6.52599C5.48842 10.16 5.48842 13.8399 5.96053 17.474C6.13053 18.763 7.44853 19.607 8.69653 19.164L9.34953 18.932C12.921 17.6635 16.2681 15.8354 19.2655 13.516Z" fill="white"/>
</svg>
