<svg xmlns="http://www.w3.org/2000/svg" viewBox="0 0 122.45 76.14"><defs><style>.cls-1{fill:#263238;}.cls-2{fill:#455a64;}.cls-3{fill:#fff;}.cls-4{fill:#f5f5f5;}.cls-5{fill:#e0e0e0;}.cls-6{fill:#ebebeb;}.cls-7{fill:#e65b5b;}.cls-8{fill:#2c7ae0;}.cls-9{fill:#f0a35f;}.cls-10{fill:#ffceb3;}.cls-11{fill:#ff9c65;}.cls-12{fill:#fafafa;}.cls-13{opacity:0.4;}.cls-14{fill:#ff9a6c;}</style></defs><title>product</title><g id="Layer_2" data-name="Layer 2"><g id="Layer_1-2" data-name="Layer 1"><path class="cls-1" d="M122.45,75.83s-27.42,0-61.22,0S0,75.85,0,75.83s27.41,0,61.23,0S122.45,75.8,122.45,75.83Z"/><path class="cls-2" d="M99.09,0H19.49a2.44,2.44,0,0,0-1.75.73A2.47,2.47,0,0,0,17,2.49V58.71a2.37,2.37,0,0,0,.19.95,2.3,2.3,0,0,0,.54.81,2.46,2.46,0,0,0,1.75.73H50L48.5,76.14,70.75,76,69.48,61.2H99.09a2.49,2.49,0,0,0,2.49-2.48V2.49a2.37,2.37,0,0,0-.19-1,2.35,2.35,0,0,0-.54-.81,2.41,2.41,0,0,0-.8-.54A2.45,2.45,0,0,0,99.09,0Z"/><path class="cls-1" d="M60.36,55.28a1.53,1.53,0,0,1-2.16,2.16.44.44,0,0,1-.14-.13,1.53,1.53,0,0,1,2.16-2.16A.86.86,0,0,1,60.36,55.28Z"/><path class="cls-3" d="M20.21,1H98.38a1.9,1.9,0,0,1,.7.14,1.89,1.89,0,0,1,1,1,1.91,1.91,0,0,1,.14.71v48H18.38v-48a1.8,1.8,0,0,1,.54-1.29A1.84,1.84,0,0,1,20.21,1Z"/><path class="cls-4" d="M20.11,1H98.79a1.43,1.43,0,0,1,1.42,1.43V5.18H18.38V2.76a1.65,1.65,0,0,1,.13-.66,1.8,1.8,0,0,1,.94-.94A1.85,1.85,0,0,1,20.11,1Z"/><path class="cls-5" d="M21.56,3.19a.67.67,0,0,1-.1.31.58.58,0,0,1-.26.21.61.61,0,0,1-.33,0,.6.6,0,0,1-.44-.45.54.54,0,0,1,0-.33.51.51,0,0,1,.21-.25A.56.56,0,0,1,21,2.62a.54.54,0,0,1,.22,0,.46.46,0,0,1,.18.13.46.46,0,0,1,.13.18A.85.85,0,0,1,21.56,3.19Z"/><path class="cls-5" d="M23.27,3.19a.5.5,0,0,1-.1.31.51.51,0,0,1-.25.21.62.62,0,0,1-.33,0,.64.64,0,0,1-.29-.16.54.54,0,0,1-.15-.29.62.62,0,0,1,0-.33.64.64,0,0,1,.21-.25.62.62,0,0,1,.32-.09.57.57,0,0,1,.22,0,.46.46,0,0,1,.18.13.44.44,0,0,1,.12.18A.57.57,0,0,1,23.27,3.19Z"/><path class="cls-5" d="M24.9,3.19a.5.5,0,0,1-.1.31.51.51,0,0,1-.25.21.62.62,0,0,1-.33,0,.64.64,0,0,1-.29-.16.54.54,0,0,1-.15-.29.62.62,0,0,1,0-.33A.64.64,0,0,1,24,2.71a.62.62,0,0,1,.32-.09.57.57,0,0,1,.22,0,.46.46,0,0,1,.18.13.44.44,0,0,1,.12.18A.57.57,0,0,1,24.9,3.19Z"/><path class="cls-1" d="M77.69,61.2s-6.67,0-14.9,0-14.91,0-14.91,0,6.67-.05,14.91-.05S77.69,61.17,77.69,61.2Z"/><path class="cls-6" d="M31.83,5.18H18.38V50.91H31.83Z"/><path class="cls-5" d="M24.29,6.15a1,1,0,0,1,.22-.09l0-.23h.38l0,.22a.92.92,0,0,1,.23.09L25.41,6l.27.26-.12.19a2.14,2.14,0,0,1,.1.22l.22,0v.38l-.22,0a.92.92,0,0,1-.09.23l.12.19-.26.27-.19-.12a.88.88,0,0,1-.22.1L25,8.06H24.6l-.06-.22a1.09,1.09,0,0,1-.23-.09l-.18.12-.27-.26L24,7.43a.92.92,0,0,1-.09-.23l-.22,0V6.78l.22-.06A.85.85,0,0,1,24,6.5l-.13-.19L24.1,6l.19.12Zm.2.5a.42.42,0,0,0-.09.44.34.34,0,0,0,.15.18.36.36,0,0,0,.22.07A.39.39,0,0,0,25,7.27a.38.38,0,0,0,.15-.18.44.44,0,0,0,0-.23.53.53,0,0,0-.11-.21.44.44,0,0,0-.29-.11A.43.43,0,0,0,24.49,6.65Z"/><path class="cls-5" d="M27.4,16.65H21.54a.59.59,0,0,1-.42-.17.61.61,0,0,1-.19-.42.61.61,0,0,1,.61-.61h5.85a.64.64,0,0,1,.43.18.61.61,0,0,1,.17.43.58.58,0,0,1-.17.41A.64.64,0,0,1,27.4,16.65Z"/><path class="cls-5" d="M27.4,13.58H21.54a.62.62,0,0,1-.6-.6.58.58,0,0,1,.18-.43.6.6,0,0,1,.42-.18H27.4a.6.6,0,0,1,.42.18A.58.58,0,0,1,28,13a.62.62,0,0,1-.6.6Z"/><path class="cls-5" d="M27.4,10.77H21.54a.6.6,0,0,1-.42-.18.58.58,0,0,1-.18-.43.56.56,0,0,1,.18-.42.6.6,0,0,1,.42-.18H27.4a.6.6,0,0,1,.42.18.56.56,0,0,1,.18.42.58.58,0,0,1-.18.43A.6.6,0,0,1,27.4,10.77Z"/><path class="cls-7" d="M43.15,10.43H37.6A.61.61,0,0,1,37,9.82a.6.6,0,0,1,.18-.42.58.58,0,0,1,.43-.18h5.55a.6.6,0,0,1,.43.18.59.59,0,0,1,.17.42.61.61,0,0,1-.17.43A.64.64,0,0,1,43.15,10.43Z"/><path class="cls-5" d="M43.15,13.58H37.6a.58.58,0,0,1-.43-.18A.6.6,0,0,1,37,13a.61.61,0,0,1,.61-.61h5.55a.64.64,0,0,1,.43.18.61.61,0,0,1,.17.43.59.59,0,0,1-.17.42A.6.6,0,0,1,43.15,13.58Z"/><path class="cls-8" d="M43.15,16.84H37.6a.62.62,0,0,1-.43-.18.6.6,0,0,1-.18-.42.61.61,0,0,1,.61-.61h5.55a.64.64,0,0,1,.43.18.61.61,0,0,1,.17.43.59.59,0,0,1-.17.42A.64.64,0,0,1,43.15,16.84Z"/><path class="cls-1" d="M40.78,23.14H37.6a.58.58,0,0,1-.43-.18.6.6,0,0,1-.18-.42.61.61,0,0,1,.61-.61h3.18a.62.62,0,0,1,.43.18.61.61,0,0,1,.17.43.59.59,0,0,1-.17.42A.58.58,0,0,1,40.78,23.14Z"/><path class="cls-1" d="M40.78,26.41H37.6A.61.61,0,0,1,37,25.8a.6.6,0,0,1,.18-.42.62.62,0,0,1,.43-.18h3.18a.62.62,0,0,1,.43.18.59.59,0,0,1,.17.42.61.61,0,0,1-.17.43A.62.62,0,0,1,40.78,26.41Z"/><path class="cls-5" d="M50.25,26.41H44.41a.6.6,0,0,1-.42-.18.58.58,0,0,1-.18-.43.56.56,0,0,1,.18-.42.6.6,0,0,1,.42-.18h5.84a.64.64,0,0,1,.43.18.59.59,0,0,1,.17.42.67.67,0,0,1,0,.24.64.64,0,0,1-.13.19.63.63,0,0,1-.2.13A.64.64,0,0,1,50.25,26.41Z"/><path class="cls-8" d="M46.94,29.31H41.1a.62.62,0,0,1-.6-.6.58.58,0,0,1,.18-.43.59.59,0,0,1,.42-.17h5.84a.61.61,0,0,1,.43.17.62.62,0,0,1,.18.43.6.6,0,0,1-.18.42A.58.58,0,0,1,46.94,29.31Z"/><path class="cls-7" d="M48.06,31.42H44.4a.59.59,0,0,0-.59.59v0a.59.59,0,0,0,.59.58h3.66a.59.59,0,0,0,.59-.58v0A.59.59,0,0,0,48.06,31.42Z"/><path class="cls-8" d="M48.05,39.12H44.41a.6.6,0,0,1-.42-.18.56.56,0,0,1-.18-.42.58.58,0,0,1,.18-.43.6.6,0,0,1,.42-.18H48a.64.64,0,0,1,.43.18.61.61,0,0,1,.17.43.61.61,0,0,1-.17.42A.62.62,0,0,1,48.05,39.12Z"/><path class="cls-8" d="M48.05,46H44.41A.6.6,0,0,1,44,45.8a.58.58,0,0,1-.18-.43.64.64,0,0,1,0-.23A.5.5,0,0,1,44,45a.52.52,0,0,1,.19-.14.59.59,0,0,1,.23,0H48a.58.58,0,0,1,.6.6.59.59,0,0,1,0,.23.63.63,0,0,1-.13.2.8.8,0,0,1-.19.13A.68.68,0,0,1,48.05,46Z"/><path class="cls-2" d="M57,46H50.6a.6.6,0,0,1-.42-.18.62.62,0,0,1-.18-.43.6.6,0,0,1,.18-.42.56.56,0,0,1,.42-.18H57a.58.58,0,0,1,.43.18.6.6,0,0,1,.18.42A.61.61,0,0,1,57,46Z"/><path class="cls-5" d="M61.41,46H60.5a.61.61,0,0,1-.61-.61.6.6,0,0,1,.18-.42.58.58,0,0,1,.43-.18h.91a.58.58,0,0,1,.43.18.6.6,0,0,1,.18.42.61.61,0,0,1-.61.61Z"/><path class="cls-1" d="M56.58,39.12H51.21a.6.6,0,0,1-.42-.18.56.56,0,0,1-.18-.42.58.58,0,0,1,.18-.43.6.6,0,0,1,.42-.18h5.38a.6.6,0,0,1,.42.18.58.58,0,0,1,.18.43.68.68,0,0,1,0,.23.5.5,0,0,1-.13.19.46.46,0,0,1-.2.13A.59.59,0,0,1,56.58,39.12Z"/><path class="cls-5" d="M68.37,42.12H51.21a.59.59,0,0,1-.42-.17.6.6,0,0,1,0-.86.59.59,0,0,1,.42-.17H68.38a.59.59,0,0,1,.42.17.64.64,0,0,1,.18.43.59.59,0,0,1,0,.23.53.53,0,0,1-.13.2.69.69,0,0,1-.2.13A.59.59,0,0,1,68.37,42.12Z"/><path class="cls-7" d="M70.35,39.12H59.4a.62.62,0,0,1-.43-.18.6.6,0,0,1-.18-.42.61.61,0,0,1,.61-.61H70.35a.61.61,0,0,1,.61.61.6.6,0,0,1-.18.42A.62.62,0,0,1,70.35,39.12Z"/><path class="cls-9" d="M55.38,31.42H50.81a.58.58,0,0,0-.58.59v0a.58.58,0,0,0,.58.58h4.57A.58.58,0,0,0,56,32v0A.58.58,0,0,0,55.38,31.42Z"/><path class="cls-5" d="M59.31,31.42H58.15a.58.58,0,0,0-.58.59v0a.58.58,0,0,0,.58.58h1.16A.58.58,0,0,0,59.9,32v0A.58.58,0,0,0,59.31,31.42Z"/><path class="cls-5" d="M68,31.42H62.26a.58.58,0,0,0-.58.59v0a.58.58,0,0,0,.58.58H68a.59.59,0,0,0,.59-.58v0A.59.59,0,0,0,68,31.42Z"/><path class="cls-1" d="M50.9,29.31H49.6a.58.58,0,0,1-.43-.18.59.59,0,0,1-.17-.42.58.58,0,0,1,.6-.6h1.3a.59.59,0,0,1,.23,0,.64.64,0,0,1,.19.13.53.53,0,0,1,.13.2.55.55,0,0,1,0,.46.62.62,0,0,1-.32.32A.59.59,0,0,1,50.9,29.31Z"/><path class="cls-5" d="M61.92,29.31H53.64a.58.58,0,0,1-.43-.18.6.6,0,0,1-.18-.42.62.62,0,0,1,.18-.43.61.61,0,0,1,.43-.17h8.28a.63.63,0,0,1,.43.17.61.61,0,0,1,.17.43.59.59,0,0,1-.17.42A.6.6,0,0,1,61.92,29.31Z"/><path class="cls-9" d="M52.05,10.43H46.49a.64.64,0,0,1-.43-.18.61.61,0,0,1-.17-.43.59.59,0,0,1,.17-.42.6.6,0,0,1,.43-.18H52a.58.58,0,0,1,.43.18.6.6,0,0,1,.18.42.61.61,0,0,1-.6.61Z"/><path class="cls-1" d="M59.2,13.58H46.49a.6.6,0,0,1-.43-.18.59.59,0,0,1-.17-.42.61.61,0,0,1,.17-.43.64.64,0,0,1,.43-.18H59.2a.61.61,0,0,1,.61.61.6.6,0,0,1-.18.42A.58.58,0,0,1,59.2,13.58Z"/><path class="cls-5" d="M72.89,16.84H46.49a.64.64,0,0,1-.43-.18.59.59,0,0,1-.17-.42.61.61,0,0,1,.17-.43.64.64,0,0,1,.43-.18h26.4a.6.6,0,0,1,.42.18.58.58,0,0,1,.18.43.56.56,0,0,1-.18.42A.6.6,0,0,1,72.89,16.84Z"/><path class="cls-5" d="M58.94,19.13H46.49a.63.63,0,0,1-.43-.17.61.61,0,0,1-.17-.43.59.59,0,0,1,.17-.42.6.6,0,0,1,.43-.18H58.94a.62.62,0,0,1,.6.6.58.58,0,0,1-.18.43A.59.59,0,0,1,58.94,19.13Z"/><path class="cls-9" d="M56.39,23.14H44a.58.58,0,0,1-.43-.18.59.59,0,0,1-.17-.42.61.61,0,0,1,.17-.43.62.62,0,0,1,.43-.18H56.39a.62.62,0,0,1,.43.18.61.61,0,0,1,.17.43.59.59,0,0,1-.17.42A.58.58,0,0,1,56.39,23.14Z"/><path class="cls-8" d="M63.36,23.14H59.19a.58.58,0,0,1-.43-.18.59.59,0,0,1-.17-.42.61.61,0,0,1,.17-.43.62.62,0,0,1,.43-.18h4.17a.6.6,0,0,1,.42.18.58.58,0,0,1,.18.43.62.62,0,0,1-.6.6Z"/><path class="cls-1" d="M74,23.12H66.14a.58.58,0,0,1-.42-.18.6.6,0,0,1-.18-.42.62.62,0,0,1,.18-.43.61.61,0,0,1,.42-.17H74a.61.61,0,0,1,.43.17.62.62,0,0,1,.18.43.6.6,0,0,1-.18.42A.58.58,0,0,1,74,23.12Z"/><path class="cls-5" d="M84.75,23.12H76.87a.58.58,0,0,1-.43-.18.6.6,0,0,1-.18-.42.62.62,0,0,1,.18-.43.61.61,0,0,1,.43-.17h7.88a.61.61,0,0,1,.42.17.62.62,0,0,1,.18.43.6.6,0,0,1-.18.42A.58.58,0,0,1,84.75,23.12Z"/><path class="cls-5" d="M24.86,19.9H21.54a.62.62,0,0,1-.43-.18.6.6,0,0,1-.18-.42.61.61,0,0,1,.61-.61h3.32a.6.6,0,0,1,.42.18.58.58,0,0,1,.18.43.56.56,0,0,1-.18.42A.6.6,0,0,1,24.86,19.9Z"/><path class="cls-5" d="M23.86,29.66H21.54a.61.61,0,0,1-.61-.61.64.64,0,0,1,.05-.23.5.5,0,0,1,.13-.19.53.53,0,0,1,.2-.13.59.59,0,0,1,.23-.05h2.32a.59.59,0,0,1,.23.05.53.53,0,0,1,.2.13.5.5,0,0,1,.13.19.64.64,0,0,1,0,.23.61.61,0,0,1-.61.61Z"/><path class="cls-5" d="M28,23.15H21.54a.61.61,0,0,1-.61-.61.6.6,0,0,1,.18-.42.62.62,0,0,1,.43-.18H28a.64.64,0,0,1,.43.18.59.59,0,0,1,.17.42.61.61,0,0,1-.17.43A.64.64,0,0,1,28,23.15Z"/><path class="cls-5" d="M26.87,26.4H21.54a.59.59,0,0,1-.23,0A.57.57,0,0,1,21,26a.57.57,0,0,1,.13-.65.58.58,0,0,1,.43-.18h5.33a.62.62,0,0,1,.6.6.58.58,0,0,1-.18.43A.6.6,0,0,1,26.87,26.4Z"/><path class="cls-2" d="M34.88,9.82a.6.6,0,0,1-.11.34.67.67,0,0,1-.27.23.63.63,0,0,1-.36,0,.6.6,0,0,1-.48-.48.65.65,0,0,1,.26-.63.67.67,0,0,1,.34-.1.6.6,0,0,1,.44.18A.62.62,0,0,1,34.88,9.82Z"/><path class="cls-2" d="M34.88,13a.6.6,0,0,1-.11.34.58.58,0,0,1-.27.22.63.63,0,0,1-.36,0,.68.68,0,0,1-.31-.17.63.63,0,0,1-.17-.31.64.64,0,0,1,0-.36.58.58,0,0,1,.22-.27.59.59,0,0,1,.34-.1.64.64,0,0,1,.44.17A.67.67,0,0,1,34.88,13Z"/><path class="cls-2" d="M34.88,16.24a.58.58,0,0,1-.11.34.6.6,0,0,1-.27.23.63.63,0,0,1-.36,0,.79.79,0,0,1-.31-.17.67.67,0,0,1-.17-.32.61.61,0,0,1,0-.35.53.53,0,0,1,.22-.27.6.6,0,0,1,.34-.11.61.61,0,0,1,.62.61Z"/><path class="cls-2" d="M34.88,19.51a.62.62,0,0,1-.11.34.64.64,0,0,1-.27.22.63.63,0,0,1-.36,0,.79.79,0,0,1-.31-.17.67.67,0,0,1-.17-.32.61.61,0,0,1,0-.35.53.53,0,0,1,.22-.27.6.6,0,0,1,.34-.11.61.61,0,0,1,.62.62Z"/><path class="cls-2" d="M34.88,22.77a.6.6,0,0,1-.11.34.67.67,0,0,1-.27.23.63.63,0,0,1-.36,0,.6.6,0,0,1-.48-.48.65.65,0,0,1,.26-.63.67.67,0,0,1,.34-.1.61.61,0,0,1,.62.61Z"/><path class="cls-2" d="M34.88,26a.6.6,0,0,1-.11.34.67.67,0,0,1-.27.23.63.63,0,0,1-.36,0,.6.6,0,0,1-.48-.48.65.65,0,0,1,.26-.63.67.67,0,0,1,.34-.1.65.65,0,0,1,.44.18A.62.62,0,0,1,34.88,26Z"/><path class="cls-2" d="M34.88,29.31a.6.6,0,0,1-.11.34.67.67,0,0,1-.27.23.73.73,0,0,1-.36,0,.6.6,0,0,1-.31-.17.58.58,0,0,1-.13-.66.56.56,0,0,1,.22-.28.59.59,0,0,1,.34-.1.52.52,0,0,1,.24.05.63.63,0,0,1,.2.13.58.58,0,0,1,.13.2A.59.59,0,0,1,34.88,29.31Z"/><path class="cls-2" d="M34.88,32.58a.6.6,0,0,1-.11.34.67.67,0,0,1-.27.23.73.73,0,0,1-.36,0,.6.6,0,0,1-.31-.17.58.58,0,0,1-.13-.66.56.56,0,0,1,.22-.28.59.59,0,0,1,.34-.1.6.6,0,0,1,.44.18A.62.62,0,0,1,34.88,32.58Z"/><path class="cls-2" d="M34.88,35.85a.6.6,0,0,1-.11.34.58.58,0,0,1-.27.22.63.63,0,0,1-.36,0,.68.68,0,0,1-.31-.17.59.59,0,0,1-.17-.31.64.64,0,0,1,0-.36.58.58,0,0,1,.22-.27.59.59,0,0,1,.34-.1.67.67,0,0,1,.24,0,.66.66,0,0,1,.2.14.64.64,0,0,1,.13.19A.69.69,0,0,1,34.88,35.85Z"/><path class="cls-2" d="M34.88,39.12a.6.6,0,0,1-.11.34.58.58,0,0,1-.27.22.63.63,0,0,1-.36,0,.68.68,0,0,1-.31-.17.63.63,0,0,1-.17-.31.64.64,0,0,1,0-.36.58.58,0,0,1,.22-.27.59.59,0,0,1,.34-.1.6.6,0,0,1,.44.18A.62.62,0,0,1,34.88,39.12Z"/><path class="cls-2" d="M34.88,42.39a.6.6,0,0,1-.11.34.58.58,0,0,1-.27.22.64.64,0,0,1-.36,0,.73.73,0,0,1-.31-.17.67.67,0,0,1-.17-.32.61.61,0,0,1,0-.35.53.53,0,0,1,.22-.27.6.6,0,0,1,.34-.11.65.65,0,0,1,.44.18A.67.67,0,0,1,34.88,42.39Z"/><path class="cls-2" d="M34.88,45.66a.62.62,0,0,1-.11.34.64.64,0,0,1-.27.22.63.63,0,0,1-.36,0,.79.79,0,0,1-.31-.17.67.67,0,0,1-.17-.32.61.61,0,0,1,0-.35.53.53,0,0,1,.22-.27.6.6,0,0,1,.34-.11.61.61,0,0,1,.62.62Z"/><path class="cls-1" d="M111.79,75.82H90.2a4.71,4.71,0,0,1-3.32-1.36,4.85,4.85,0,0,1-1-1.51,4.63,4.63,0,0,1-.36-1.8V17.46a4.69,4.69,0,0,1,4.7-4.66H111.8a4.76,4.76,0,0,1,1.79.35,4.65,4.65,0,0,1,2.55,2.53,4.73,4.73,0,0,1,.36,1.79V71.16a4.55,4.55,0,0,1-.37,1.79,4.47,4.47,0,0,1-1,1.52,4.91,4.91,0,0,1-1.53,1A4.59,4.59,0,0,1,111.79,75.82Z"/><path class="cls-3" d="M111.73,14.73h-4.19a1.3,1.3,0,0,0-.39.09.94.94,0,0,0-.33.23,1,1,0,0,0-.22.34,1.09,1.09,0,0,0-.07.4v.75a1.06,1.06,0,0,1-.29.74,1,1,0,0,1-.73.32H97.35a1,1,0,0,1-1-1.06v-.76a1,1,0,0,0-.29-.73,1,1,0,0,0-.73-.32H90.19a3.36,3.36,0,0,0-1.26.24,3.51,3.51,0,0,0-1.07.71,3.33,3.33,0,0,0-1,2.31v52.4a3.28,3.28,0,0,0,3.29,3.27h21.54a3.35,3.35,0,0,0,1.25-.24,3.51,3.51,0,0,0,1.07-.71,3.21,3.21,0,0,0,.72-1.06A3.37,3.37,0,0,0,115,70.4V18a3.27,3.27,0,0,0-1-2.32A3.31,3.31,0,0,0,111.73,14.73Z"/><path class="cls-6" d="M86.91,22.64H94.6V73.69H90.32a3.41,3.41,0,0,1-2.41-1,3.46,3.46,0,0,1-1-2.42Z"/><path class="cls-1" d="M102.67,26.2H99a.4.4,0,0,1-.15,0,.43.43,0,0,1-.13-.09.42.42,0,0,1-.09-.14.41.41,0,0,1,0-.16.4.4,0,0,1,0-.15.42.42,0,0,1,.09-.14.3.3,0,0,1,.13-.09.4.4,0,0,1,.15,0h3.66a.45.45,0,0,1,.29.12.46.46,0,0,1,.11.29.42.42,0,0,1-.11.29A.41.41,0,0,1,102.67,26.2Z"/><path class="cls-5" d="M102.78,28.38H99.13a.41.41,0,0,1-.29-.13.42.42,0,0,1-.11-.29.46.46,0,0,1,.11-.29.4.4,0,0,1,.29-.12h3.65a.4.4,0,0,1,.29.12.46.46,0,0,1,.11.29.42.42,0,0,1-.11.29A.41.41,0,0,1,102.78,28.38Z"/><path class="cls-8" d="M102.83,30.87H99.17a.4.4,0,0,1-.29-.12.44.44,0,0,1-.11-.29.42.42,0,0,1,.11-.29.41.41,0,0,1,.29-.13h3.66a.37.37,0,0,1,.28.13.38.38,0,0,1,.12.29.4.4,0,0,1-.12.29A.36.36,0,0,1,102.83,30.87Z"/><path class="cls-5" d="M108.55,32.77h-3.66a.46.46,0,0,1-.29-.13.44.44,0,0,1,0-.58.41.41,0,0,1,.29-.13h3.66a.37.37,0,0,1,.28.13.41.41,0,0,1,0,.58A.41.41,0,0,1,108.55,32.77Z"/><path class="cls-7" d="M101.89,35.25h-2.1l-.15,0a.3.3,0,0,1-.13-.09.42.42,0,0,1-.09-.14.26.26,0,0,1,0-.15.34.34,0,0,1,.11-.29.37.37,0,0,1,.28-.13h2.1a.41.41,0,0,1,.29.13.42.42,0,0,1,.11.29.4.4,0,0,1,0,.15.64.64,0,0,1-.08.14.38.38,0,0,1-.13.09Z"/><path class="cls-1" d="M101.89,37.51h-2.1a.4.4,0,0,1-.15,0,.45.45,0,0,1-.13-.1.38.38,0,0,1-.09-.13.3.3,0,0,1,0-.16.36.36,0,0,1,.11-.29.41.41,0,0,1,.28-.13h2.1a.46.46,0,0,1,.29.13.44.44,0,0,1,.11.29.45.45,0,0,1,0,.16.57.57,0,0,1-.08.13l-.13.1A.45.45,0,0,1,101.89,37.51Z"/><path class="cls-5" d="M108.13,37.51h-3.85a.41.41,0,0,1-.29-.13.44.44,0,0,1-.11-.29.4.4,0,0,1,.12-.29.41.41,0,0,1,.28-.13h3.85a.41.41,0,0,1,.28.13.36.36,0,0,1,.11.29.3.3,0,0,1,0,.16.38.38,0,0,1-.09.13.45.45,0,0,1-.13.1A.4.4,0,0,1,108.13,37.51Z"/><path class="cls-8" d="M103.64,40.18H99.79a.41.41,0,0,1-.29-.13.44.44,0,0,1,0-.58.46.46,0,0,1,.29-.13h3.85a.43.43,0,0,1,.28.13.44.44,0,0,1,0,.58A.39.39,0,0,1,103.64,40.18Z"/><path class="cls-8" d="M103.9,41.22h-2.38a.41.41,0,0,0-.4.41v0a.4.4,0,0,0,.4.41h2.38a.4.4,0,0,0,.4-.41v0A.41.41,0,0,0,103.9,41.22Z"/><path class="cls-8" d="M102.48,45.71h-2.39a.45.45,0,0,1-.29-.12.46.46,0,0,1-.11-.3A.46.46,0,0,1,99.8,45a.45.45,0,0,1,.29-.12h2.39a.4.4,0,0,1,.28.12.42.42,0,0,1,.12.29.42.42,0,0,1-.12.3A.4.4,0,0,1,102.48,45.71Z"/><path class="cls-8" d="M102.48,50.48h-2.39a.46.46,0,0,1-.29-.13.44.44,0,0,1,0-.58.41.41,0,0,1,.29-.13h2.39a.37.37,0,0,1,.28.13.41.41,0,0,1,0,.58A.41.41,0,0,1,102.48,50.48Z"/><path class="cls-2" d="M108.36,50.48h-4.2a.43.43,0,0,1-.28-.13.44.44,0,0,1,0-.58.39.39,0,0,1,.28-.13h4.2a.39.39,0,0,1,.28.13.44.44,0,0,1,0,.58A.43.43,0,0,1,108.36,50.48Z"/><path class="cls-2" d="M113.67,45.81h-4.19a.37.37,0,0,1-.28-.13.38.38,0,0,1-.12-.29.42.42,0,0,1,.12-.29.36.36,0,0,1,.28-.12h4.19a.41.41,0,0,1,.16,0,.38.38,0,0,1,.13.09.64.64,0,0,1,.08.14.4.4,0,0,1,0,.15.43.43,0,0,1-.11.29l-.13.1A.41.41,0,0,1,113.67,45.81Z"/><path class="cls-9" d="M108.64,47.59h-4.2a.42.42,0,0,1-.15,0,.44.44,0,0,1-.22-.22.65.65,0,0,1,0-.32.44.44,0,0,1,.22-.22.42.42,0,0,1,.15,0h4.2a.43.43,0,0,1,.28.13.44.44,0,0,1,0,.58A.43.43,0,0,1,108.64,47.59Z"/><path class="cls-5" d="M111.29,50.48h-.6a.46.46,0,0,1-.29-.13.44.44,0,0,1,0-.58.41.41,0,0,1,.29-.13h.6a.37.37,0,0,1,.28.13.41.41,0,0,1,0,.58A.41.41,0,0,1,111.29,50.48Z"/><path class="cls-5" d="M108.11,45.71h-3.55a.4.4,0,0,1-.28-.12.38.38,0,0,1-.11-.3.37.37,0,0,1,.11-.29.4.4,0,0,1,.28-.12h3.55a.42.42,0,0,1,.28.12.46.46,0,0,1,.11.29.46.46,0,0,1-.11.3A.42.42,0,0,1,108.11,45.71Z"/><path class="cls-2" d="M108.72,41.22h-3a.42.42,0,0,0-.41.41v0a.41.41,0,0,0,.41.41h3a.41.41,0,0,0,.41-.41v0A.41.41,0,0,0,108.72,41.22Z"/><path class="cls-5" d="M111.31,41.22h-.72a.42.42,0,0,0-.41.41v0a.41.41,0,0,0,.41.41h.72a.41.41,0,0,0,.41-.41v0A.41.41,0,0,0,111.31,41.22Z"/><path class="cls-1" d="M106.24,40.18h-.85a.41.41,0,0,1-.29-.13.44.44,0,0,1,0-.58.46.46,0,0,1,.29-.13h.85a.46.46,0,0,1,.29.13.44.44,0,0,1,0,.58A.41.41,0,0,1,106.24,40.18Z"/><path class="cls-5" d="M113.51,40.18h-5.46a.41.41,0,0,1-.29-.13.44.44,0,0,1,0-.58.46.46,0,0,1,.29-.13h5.46a.41.41,0,0,1,.28.13.44.44,0,0,1,0,.58A.37.37,0,0,1,113.51,40.18Z"/><path class="cls-2" d="M108.18,26.2h-3.66a.41.41,0,0,1-.29-.13.42.42,0,0,1-.11-.29.46.46,0,0,1,.11-.29.45.45,0,0,1,.29-.12h3.66a.4.4,0,0,1,.28.12.42.42,0,0,1,.12.29.38.38,0,0,1-.12.29A.37.37,0,0,1,108.18,26.2Z"/><path class="cls-7" d="M112.76,28.38h-8.37a.41.41,0,0,1-.29-.13A.42.42,0,0,1,104,28a.46.46,0,0,1,.11-.29.4.4,0,0,1,.29-.12h8.37a.41.41,0,0,1,.16,0,.44.44,0,0,1,.22.22.41.41,0,0,1,0,.16.45.45,0,0,1,0,.16.64.64,0,0,1-.08.14.67.67,0,0,1-.14.09A.41.41,0,0,1,112.76,28.38Z"/><path class="cls-5" d="M112.92,30.86h-8.2a.41.41,0,0,1-.28-.13.44.44,0,0,1,0-.58.41.41,0,0,1,.28-.13h8.2a.46.46,0,0,1,.29.13.44.44,0,0,1,0,.58A.46.46,0,0,1,112.92,30.86Z"/><path class="cls-9" d="M112.18,35.25H104l-.16,0a.38.38,0,0,1-.13-.09.64.64,0,0,1-.08-.14.4.4,0,0,1,0-.15.42.42,0,0,1,.11-.29.41.41,0,0,1,.29-.13h8.2a.37.37,0,0,1,.28.13.38.38,0,0,1,.12.29.4.4,0,0,1,0,.15.64.64,0,0,1-.08.14.51.51,0,0,1-.13.09Z"/><path class="cls-9" d="M101.89,67h-2.1a.41.41,0,0,1-.28-.13.44.44,0,0,1,0-.58.37.37,0,0,1,.28-.13h2.1a.41.41,0,0,1,.29.13.44.44,0,0,1,0,.58A.46.46,0,0,1,101.89,67Z"/><path class="cls-1" d="M101.89,69.26h-2.1a.37.37,0,0,1-.28-.13.34.34,0,0,1-.11-.29.37.37,0,0,1,.11-.29.4.4,0,0,1,.28-.12h2.1a.45.45,0,0,1,.29.12.46.46,0,0,1,.11.29.42.42,0,0,1-.11.29A.41.41,0,0,1,101.89,69.26Z"/><path class="cls-2" d="M112.18,67H104a.46.46,0,0,1-.29-.13.44.44,0,0,1,0-.58.41.41,0,0,1,.29-.13h8.2a.37.37,0,0,1,.28.13.41.41,0,0,1,0,.58A.41.41,0,0,1,112.18,67Z"/><path class="cls-5" d="M91.4,33.56H89.2a.42.42,0,0,1,0-.84h2.2a.43.43,0,0,1,.28.13.44.44,0,0,1,0,.58A.43.43,0,0,1,91.4,33.56Z"/><path class="cls-5" d="M91.4,35.89H89.2a.39.39,0,0,1-.28-.13.42.42,0,0,1,.28-.71h2.2a.43.43,0,0,1,.28.13.42.42,0,0,1-.28.71Z"/><path class="cls-5" d="M91.4,38.21H89.2a.42.42,0,0,1-.15,0,.44.44,0,0,1-.22-.22.88.88,0,0,1,0-.16.44.44,0,0,1,.11-.29.39.39,0,0,1,.28-.13h2.2a.41.41,0,0,1,.39.42.44.44,0,0,1,0,.16.44.44,0,0,1-.22.22A.42.42,0,0,1,91.4,38.21Z"/><path class="cls-5" d="M91.4,31.23H89.2a.42.42,0,0,1-.28-.12.46.46,0,0,1-.11-.3.46.46,0,0,1,.11-.29.42.42,0,0,1,.28-.12h2.2a.42.42,0,0,1,.28.12.41.41,0,0,1,.11.29.38.38,0,0,1-.11.3A.42.42,0,0,1,91.4,31.23Z"/><path class="cls-5" d="M91.4,28.9H89.2a.39.39,0,0,1-.28-.13.42.42,0,0,1-.11-.29.46.46,0,0,1,.11-.29.43.43,0,0,1,.28-.13h2.2a.43.43,0,0,1,.28.13.37.37,0,0,1,.11.29.38.38,0,0,1-.11.29A.39.39,0,0,1,91.4,28.9Z"/><path class="cls-5" d="M91.4,26.58H89.2a.42.42,0,0,1-.28-.12.46.46,0,0,1-.11-.29.46.46,0,0,1,.11-.3.42.42,0,0,1,.28-.12h2.2a.42.42,0,0,1,.28.12.41.41,0,0,1,.11.3.41.41,0,0,1-.11.29A.42.42,0,0,1,91.4,26.58Z"/><path class="cls-5" d="M90.74,40.53H89.2a.39.39,0,0,1-.28-.13.42.42,0,0,1-.11-.29.46.46,0,0,1,.11-.29.38.38,0,0,1,.28-.12h1.54a.4.4,0,0,1,.29.12.46.46,0,0,1,.11.29.42.42,0,0,1-.11.29A.41.41,0,0,1,90.74,40.53Z"/><path class="cls-2" d="M96.82,25.78a.39.39,0,0,1-.07.23.45.45,0,0,1-.19.14.37.37,0,0,1-.23,0,.45.45,0,0,1-.21-.12.39.39,0,0,1-.11-.21.45.45,0,0,1,0-.23.34.34,0,0,1,.15-.18.37.37,0,0,1,.23-.07.4.4,0,0,1,.15,0,.45.45,0,0,1,.14.1.38.38,0,0,1,.09.13A.3.3,0,0,1,96.82,25.78Z"/><path class="cls-2" d="M96.82,28a.36.36,0,0,1-.07.22.33.33,0,0,1-.19.14.37.37,0,0,1-.23,0,.53.53,0,0,1-.21-.11A.47.47,0,0,1,96,28a.5.5,0,0,1,0-.24.38.38,0,0,1,.15-.18.37.37,0,0,1,.23-.07.28.28,0,0,1,.15,0,.42.42,0,0,1,.14.09.34.34,0,0,1,.09.14A.29.29,0,0,1,96.82,28Z"/><path class="cls-2" d="M96.82,30.22a.39.39,0,0,1-.07.23.45.45,0,0,1-.19.14.37.37,0,0,1-.23,0,.45.45,0,0,1-.21-.12.43.43,0,0,1-.11-.21.45.45,0,0,1,0-.23.34.34,0,0,1,.15-.18.37.37,0,0,1,.23-.07.4.4,0,0,1,.15,0,.45.45,0,0,1,.14.1.38.38,0,0,1,.09.13A.3.3,0,0,1,96.82,30.22Z"/><path class="cls-2" d="M96.82,32.49a.34.34,0,0,1-.07.22.4.4,0,0,1-.19.15.45.45,0,0,1-.44-.1.43.43,0,0,1-.11-.21.5.5,0,0,1,0-.24.43.43,0,0,1,.15-.18.45.45,0,0,1,.23-.07l.15,0a.39.39,0,0,1,.23.23A.29.29,0,0,1,96.82,32.49Z"/><path class="cls-2" d="M96.82,34.76a.36.36,0,0,1-.07.22.33.33,0,0,1-.19.14.37.37,0,0,1-.23,0,.53.53,0,0,1-.21-.11.47.47,0,0,1-.11-.21.5.5,0,0,1,0-.24.38.38,0,0,1,.15-.18.45.45,0,0,1,.23-.07.28.28,0,0,1,.15,0,.39.39,0,0,1,.23.23A.29.29,0,0,1,96.82,34.76Z"/><path class="cls-2" d="M96.82,37a.39.39,0,0,1-.07.23.45.45,0,0,1-.19.14.37.37,0,0,1-.23,0,.45.45,0,0,1-.21-.12.43.43,0,0,1-.11-.21.45.45,0,0,1,0-.23.34.34,0,0,1,.15-.18.37.37,0,0,1,.23-.07.4.4,0,0,1,.15,0,.45.45,0,0,1,.14.1.3.3,0,0,1,.09.13A.3.3,0,0,1,96.82,37Z"/><path class="cls-2" d="M96.82,39.29a.34.34,0,0,1-.07.22.4.4,0,0,1-.19.15.45.45,0,0,1-.44-.1.43.43,0,0,1-.11-.21.5.5,0,0,1,0-.24.43.43,0,0,1,.15-.18.45.45,0,0,1,.23-.07l.15,0a.39.39,0,0,1,.23.23A.29.29,0,0,1,96.82,39.29Z"/><path class="cls-2" d="M96.82,41.56a.36.36,0,0,1-.07.22.33.33,0,0,1-.19.14.37.37,0,0,1-.23,0,.53.53,0,0,1-.21-.11.47.47,0,0,1-.11-.21.5.5,0,0,1,0-.24.38.38,0,0,1,.15-.18.45.45,0,0,1,.23-.07.28.28,0,0,1,.15,0,.42.42,0,0,1,.14.09.34.34,0,0,1,.09.14A.29.29,0,0,1,96.82,41.56Z"/><path class="cls-2" d="M96.82,43.82a.39.39,0,0,1-.07.23.45.45,0,0,1-.19.14.37.37,0,0,1-.23,0,.45.45,0,0,1-.21-.12.43.43,0,0,1-.11-.21.45.45,0,0,1,0-.23.34.34,0,0,1,.15-.18.37.37,0,0,1,.23-.07.4.4,0,0,1,.15,0,.45.45,0,0,1,.14.1.3.3,0,0,1,.09.13A.3.3,0,0,1,96.82,43.82Z"/><path class="cls-2" d="M96.82,46.09a.34.34,0,0,1-.07.22.4.4,0,0,1-.19.15.4.4,0,0,1-.44-.1.43.43,0,0,1-.11-.21.45.45,0,0,1,0-.23.34.34,0,0,1,.15-.18.37.37,0,0,1,.23-.07.4.4,0,0,1,.29.12A.41.41,0,0,1,96.82,46.09Z"/><path class="cls-2" d="M96.82,48.36a.34.34,0,0,1-.07.22.4.4,0,0,1-.19.15.44.44,0,0,1-.23,0,.36.36,0,0,1-.21-.11.43.43,0,0,1-.11-.21.5.5,0,0,1,0-.24.43.43,0,0,1,.15-.18.45.45,0,0,1,.23-.07.46.46,0,0,1,.29.13A.41.41,0,0,1,96.82,48.36Z"/><path class="cls-2" d="M96.82,50.62a.39.39,0,0,1-.07.23.45.45,0,0,1-.19.14.36.36,0,0,1-.23,0,.53.53,0,0,1-.21-.11.47.47,0,0,1-.11-.21.48.48,0,0,1,0-.24.38.38,0,0,1,.15-.18.37.37,0,0,1,.23-.07.41.41,0,0,1,.29.13A.39.39,0,0,1,96.82,50.62Z"/><path class="cls-7" d="M103.64,53.71H99.79a.41.41,0,0,1-.29-.13.42.42,0,0,1-.11-.29A.44.44,0,0,1,99.5,53a.4.4,0,0,1,.29-.12h3.85a.38.38,0,0,1,.28.12.44.44,0,0,1,0,.58A.39.39,0,0,1,103.64,53.71Z"/><path class="cls-8" d="M103.9,54.75h-2.38a.41.41,0,0,0-.4.41v0a.4.4,0,0,0,.4.41h2.38a.4.4,0,0,0,.4-.41v0A.41.41,0,0,0,103.9,54.75Z"/><path class="cls-8" d="M102.48,59.25h-2.39a.41.41,0,0,1-.29-.13.42.42,0,0,1-.11-.29.44.44,0,0,1,.11-.29.4.4,0,0,1,.29-.12h2.39a.36.36,0,0,1,.28.12.4.4,0,0,1,.12.29.38.38,0,0,1-.12.29A.37.37,0,0,1,102.48,59.25Z"/><path class="cls-8" d="M102.48,64h-2.39a.46.46,0,0,1-.29-.13.44.44,0,0,1,0-.58.41.41,0,0,1,.29-.13h2.39a.37.37,0,0,1,.28.13.41.41,0,0,1,0,.58A.41.41,0,0,1,102.48,64Z"/><path class="cls-2" d="M108.36,64h-4.2a.43.43,0,0,1-.28-.13.44.44,0,0,1,0-.58.39.39,0,0,1,.28-.13h4.2a.39.39,0,0,1,.28.13.44.44,0,0,1,0,.58A.43.43,0,0,1,108.36,64Z"/><path class="cls-7" d="M113.67,59.34h-4.19a.37.37,0,0,1-.28-.13.38.38,0,0,1-.12-.29.42.42,0,0,1,.12-.29.36.36,0,0,1,.28-.12h4.19a.41.41,0,0,1,.16,0,.38.38,0,0,1,.13.09.64.64,0,0,1,.08.14.4.4,0,0,1,0,.15.43.43,0,0,1-.11.29l-.13.1A.41.41,0,0,1,113.67,59.34Z"/><path class="cls-9" d="M108.64,61.12h-4.2a.28.28,0,0,1-.15,0,.44.44,0,0,1-.22-.22.65.65,0,0,1,0-.32.44.44,0,0,1,.22-.22.42.42,0,0,1,.15,0h4.2a.43.43,0,0,1,.28.13.44.44,0,0,1,0,.58A.39.39,0,0,1,108.64,61.12Z"/><path class="cls-5" d="M111.29,64h-.6a.46.46,0,0,1-.29-.13.44.44,0,0,1,0-.58.41.41,0,0,1,.29-.13h.6a.37.37,0,0,1,.28.13.41.41,0,0,1,0,.58A.41.41,0,0,1,111.29,64Z"/><path class="cls-5" d="M108.11,59.25h-3.55a.37.37,0,0,1-.28-.13.34.34,0,0,1-.11-.29.36.36,0,0,1,.11-.29.36.36,0,0,1,.28-.12h3.55a.38.38,0,0,1,.28.12.44.44,0,0,1,.11.29.42.42,0,0,1-.11.29A.39.39,0,0,1,108.11,59.25Z"/><path class="cls-2" d="M108.72,54.75h-3a.42.42,0,0,0-.41.41v0a.41.41,0,0,0,.41.41h3a.41.41,0,0,0,.41-.41v0A.41.41,0,0,0,108.72,54.75Z"/><path class="cls-5" d="M111.31,54.75h-.72a.42.42,0,0,0-.41.41v0a.41.41,0,0,0,.41.41h.72a.41.41,0,0,0,.41-.41v0A.41.41,0,0,0,111.31,54.75Z"/><path class="cls-1" d="M106.24,53.71h-.85a.41.41,0,0,1-.29-.13.44.44,0,0,1,0-.58.4.4,0,0,1,.29-.12h.85a.4.4,0,0,1,.29.12.44.44,0,0,1,0,.58A.41.41,0,0,1,106.24,53.71Z"/><path class="cls-5" d="M113.51,53.71h-5.46a.41.41,0,0,1-.29-.13.42.42,0,0,1-.11-.29.44.44,0,0,1,.11-.29.4.4,0,0,1,.29-.12h5.46a.36.36,0,0,1,.28.12.44.44,0,0,1,0,.58A.37.37,0,0,1,113.51,53.71Z"/><path class="cls-2" d="M96.82,52.83a.34.34,0,0,1-.07.22.4.4,0,0,1-.19.15.45.45,0,0,1-.23,0,.36.36,0,0,1-.21-.11.43.43,0,0,1-.11-.21.5.5,0,0,1,0-.24.43.43,0,0,1,.15-.18.45.45,0,0,1,.23-.07.43.43,0,0,1,.38.27A.29.29,0,0,1,96.82,52.83Z"/><path class="cls-2" d="M96.82,55.09a.39.39,0,0,1-.07.23.45.45,0,0,1-.19.14.37.37,0,0,1-.23,0,.45.45,0,0,1-.21-.12.39.39,0,0,1-.11-.21.45.45,0,0,1,0-.23.38.38,0,0,1,.15-.18.37.37,0,0,1,.23-.07.4.4,0,0,1,.15,0,.71.71,0,0,1,.14.1.38.38,0,0,1,.09.13A.3.3,0,0,1,96.82,55.09Z"/><path class="cls-2" d="M96.82,57.36a.34.34,0,0,1-.07.22.4.4,0,0,1-.19.15.45.45,0,0,1-.23,0,.45.45,0,0,1-.21-.12.43.43,0,0,1-.11-.21.45.45,0,0,1,0-.23.4.4,0,0,1,.15-.19.44.44,0,0,1,.23-.06l.15,0a.39.39,0,0,1,.23.23A.3.3,0,0,1,96.82,57.36Z"/><path class="cls-2" d="M96.82,59.63a.34.34,0,0,1-.07.22.4.4,0,0,1-.19.15.45.45,0,0,1-.23,0,.36.36,0,0,1-.21-.11.43.43,0,0,1-.11-.21.5.5,0,0,1,0-.24.43.43,0,0,1,.15-.18.45.45,0,0,1,.23-.07.43.43,0,0,1,.38.27A.29.29,0,0,1,96.82,59.63Z"/><path class="cls-2" d="M96.82,61.89a.39.39,0,0,1-.07.23.45.45,0,0,1-.19.14.36.36,0,0,1-.23,0,.45.45,0,0,1-.21-.12A.39.39,0,0,1,96,62a.46.46,0,0,1,0-.23.38.38,0,0,1,.15-.18.37.37,0,0,1,.23-.07.41.41,0,0,1,.29.13A.39.39,0,0,1,96.82,61.89Z"/><path class="cls-2" d="M96.82,64.16a.34.34,0,0,1-.07.22.4.4,0,0,1-.19.15.4.4,0,0,1-.44-.1.43.43,0,0,1-.11-.21A.45.45,0,0,1,96,64a.4.4,0,0,1,.15-.19.44.44,0,0,1,.23-.06.4.4,0,0,1,.29.12A.41.41,0,0,1,96.82,64.16Z"/><path class="cls-2" d="M96.82,66.58a.34.34,0,0,1-.07.22.4.4,0,0,1-.19.15.45.45,0,0,1-.44-.1.43.43,0,0,1-.11-.21.5.5,0,0,1,0-.24.43.43,0,0,1,.15-.18.45.45,0,0,1,.23-.07l.15,0a.39.39,0,0,1,.23.23A.29.29,0,0,1,96.82,66.58Z"/><path class="cls-2" d="M96.82,69a.41.41,0,0,1-.07.22.43.43,0,0,1-.19.14.4.4,0,0,1-.24,0,.37.37,0,0,1-.2-.12.43.43,0,0,1-.11-.21.45.45,0,0,1,0-.23.34.34,0,0,1,.15-.18.37.37,0,0,1,.23-.07.45.45,0,0,1,.16,0l.13.1a.34.34,0,0,1,.09.14A.29.29,0,0,1,96.82,69Z"/><path class="cls-4" d="M111.73,14.73h-4.19a1.3,1.3,0,0,0-.39.09.94.94,0,0,0-.33.23,1,1,0,0,0-.22.34,1.09,1.09,0,0,0-.07.4v.75a1.06,1.06,0,0,1-.29.74,1,1,0,0,1-.73.32H97.35a1,1,0,0,1-1-1.06v-.76a1,1,0,0,0-.29-.73,1,1,0,0,0-.73-.32H90.19a3.36,3.36,0,0,0-1.26.24,3.51,3.51,0,0,0-1.07.71,3.33,3.33,0,0,0-1,2.31v4.66H115V18a3.26,3.26,0,0,0-1-2.31A3.3,3.3,0,0,0,111.73,14.73Z"/><path class="cls-5" d="M88.76,21.32a.52.52,0,0,0,.52-.52.52.52,0,1,0-1,0A.51.51,0,0,0,88.76,21.32Z"/><path class="cls-5" d="M90.88,20.8a.52.52,0,0,1-.09.29.43.43,0,0,1-.23.19.51.51,0,0,1-.3,0,.59.59,0,0,1-.27-.14.5.5,0,0,1-.14-.27.52.52,0,0,1,0-.3.6.6,0,0,1,.19-.23.52.52,0,0,1,.29-.09.51.51,0,0,1,.52.52Z"/><path class="cls-5" d="M92.49,20.8a.52.52,0,0,1-.62.51.54.54,0,0,1-.27-.14.5.5,0,0,1-.14-.27.52.52,0,0,1,0-.3.53.53,0,0,1,.48-.32.51.51,0,0,1,.52.52Z"/><path class="cls-5" d="M101.13,19a1.61,1.61,0,0,1,.33-.15l.07-.33h.56l.08.33a1.33,1.33,0,0,1,.33.13l.28-.19.4.38-.17.29a1.22,1.22,0,0,1,.14.33l.33.07v.55l-.33.08a1.09,1.09,0,0,1-.13.34l.19.28-.38.39-.28-.17a2.41,2.41,0,0,1-.33.15l-.07.32h-.56l-.07-.32a1.28,1.28,0,0,1-.34-.14l-.29.18-.4-.37.18-.29a1.09,1.09,0,0,1-.15-.33l-.33-.07v-.55l.33-.09a1.36,1.36,0,0,1,.14-.33l-.19-.28.38-.4.28.17Zm.3.73a.66.66,0,0,0-.16.31.56.56,0,0,0,0,.34.64.64,0,0,0,.22.27.57.57,0,0,0,.33.09.61.61,0,0,0,.33-.1.58.58,0,0,0,.22-.27.6.6,0,0,0-.34-.78.85.85,0,0,0-.22,0,.59.59,0,0,0-.23.05A.64.64,0,0,0,101.43,19.73Z"/><path class="cls-8" d="M20.16,11.86H6.2a1.87,1.87,0,0,0-1.87,1.86v14A1.87,1.87,0,0,0,6.2,29.55h14A1.87,1.87,0,0,0,22,27.68v-14A1.87,1.87,0,0,0,20.16,11.86Z"/><path class="cls-3" d="M10,18.48a4.13,4.13,0,0,1,1-.43l.21-1,1.66,0L13,18a4.17,4.17,0,0,1,1,.4l.84-.55L16.08,19l-.52.86a4,4,0,0,1,.43,1l1,.2,0,1.66L16,23a4,4,0,0,1-.4,1l.55.84L15,26l-.86-.52a3.63,3.63,0,0,1-1,.43l-.2,1-1.66,0-.24-1a3.92,3.92,0,0,1-1-.39l-.84.55L8.05,24.94l.52-.85a3.73,3.73,0,0,1-.42-1l-1-.21,0-1.65,1-.24a4,4,0,0,1,.39-1L8,19.15,9.09,18l.86.52Zm.89,2.21a1.77,1.77,0,0,0-.35,1.94,1.82,1.82,0,0,0,.66.79,1.78,1.78,0,0,0,1,.28,1.82,1.82,0,0,0,1-.32,1.76,1.76,0,0,0,.64-.81,1.69,1.69,0,0,0,.08-1,1.79,1.79,0,0,0-1.76-1.41,1.93,1.93,0,0,0-.68.15A1.78,1.78,0,0,0,10.84,20.69Z"/><path class="cls-3" d="M16.12,15.35a2.08,2.08,0,0,1,.32-.27l0-.39.61-.2.2.34a1.49,1.49,0,0,1,.42,0l.25-.3.58.29-.1.38a1.43,1.43,0,0,1,.28.32l.38,0,.21.61-.34.2a1.49,1.49,0,0,1,0,.42l.3.25-.3.58-.38-.1a1.43,1.43,0,0,1-.32.28l0,.39-.62.2L17.4,18A1.49,1.49,0,0,1,17,18l-.25.3-.57-.3.1-.37a1.58,1.58,0,0,1-.27-.32l-.39,0-.2-.61.33-.2a1.46,1.46,0,0,1,0-.42l-.31-.25.3-.57.38.09Zm.58.73a.67.67,0,0,0-.07.39.7.7,0,0,0,.5.59.64.64,0,0,0,.41,0,.69.69,0,0,0,.33-.23.73.73,0,0,0,.14-.37.78.78,0,0,0-.08-.4.71.71,0,0,0-.29-.28.83.83,0,0,0-.27-.07.57.57,0,0,0-.26,0,.7.7,0,0,0-.24.13A.72.72,0,0,0,16.7,16.08Z"/><path class="cls-10" d="M27.32,22.43l.94,7.64c.13,1.31.34,3.24,2.4,2.93,1.77-.4,2-2.15,1.92-3.37-.06-.58-.11-1.06-.11-1.12a2.36,2.36,0,0,0,1.88-2.34c0-.94-.24-2.88-.46-4.63a3.64,3.64,0,0,0-3.76-3.19h-.19C27.9,18.57,27.06,20.41,27.32,22.43Z"/><path class="cls-11" d="M32.47,28.51a4.73,4.73,0,0,1-2.57-.64A2.43,2.43,0,0,0,32.52,29Z"/><path class="cls-1" d="M30.8,22.82s-.25-.11-.57-.15-.57,0-.6,0,0,0,.14-.07a1.35,1.35,0,0,1,.49,0,1.2,1.2,0,0,1,.45.15C30.8,22.77,30.81,22.81,30.8,22.82Z"/><path class="cls-1" d="M30.74,23.53a.27.27,0,0,1-.06.19.25.25,0,0,1-.18.08h-.1l-.09-.05a.16.16,0,0,1-.06-.08.16.16,0,0,1,0-.09.26.26,0,0,1,.06-.19.31.31,0,0,1,.18-.09h.1l.09,0a.21.21,0,0,1,.06.08A.17.17,0,0,1,30.74,23.53Z"/><path class="cls-1" d="M31.79,24.87a2,2,0,0,1,.49-.11c.07,0,.15,0,.16-.08a.46.46,0,0,0-.06-.23c-.08-.19-.17-.38-.25-.56a7.57,7.57,0,0,1-.57-1.52,9.18,9.18,0,0,1,.69,1.46l.24.58a.44.44,0,0,1,.06.3l0,.07-.07,0-.13,0A2.9,2.9,0,0,1,31.79,24.87Z"/><path class="cls-1" d="M30.43,21.51c0,.07-.28,0-.59.1s-.56.15-.6.08,0-.1.12-.17a.91.91,0,0,1,.44-.19.84.84,0,0,1,.47,0C30.39,21.41,30.45,21.47,30.43,21.51Z"/><path class="cls-1" d="M33.59,21.75c0,.06-.29,0-.6.05s-.56.1-.59,0,0-.09.13-.14a.94.94,0,0,1,.44-.13,1.19,1.19,0,0,1,.46.06C33.54,21.67,33.6,21.72,33.59,21.75Z"/><path class="cls-10" d="M27.54,23.89s-1.43-.32-1.29,1.08a1.05,1.05,0,0,0,1.51.93S27.54,23.89,27.54,23.89Z"/><path class="cls-11" d="M27.28,25.41l-.06,0a.21.21,0,0,1-.19,0,.54.54,0,0,1-.24-.21.63.63,0,0,1-.1-.3.82.82,0,0,1,0-.35.33.33,0,0,1,.05-.12.31.31,0,0,1,.11-.09H27a.12.12,0,0,1,.06.06s0,.06,0,.06,0,0,0-.08a.18.18,0,0,0-.07-.08.15.15,0,0,0-.13,0,.24.24,0,0,0-.15.09.38.38,0,0,0-.09.15.9.9,0,0,0,0,.4.64.64,0,0,0,.41.56.24.24,0,0,0,.12,0,.21.21,0,0,0,.1-.06C27.28,25.44,27.28,25.41,27.28,25.41Z"/><path class="cls-1" d="M32,25.78a2.21,2.21,0,0,1-.54-.16,1.81,1.81,0,0,1-.3-.25c-.08-.08-.13-.12-.14-.11s0,.06.08.15a.89.89,0,0,0,.31.3.84.84,0,0,0,.41.11C31.89,25.82,32,25.8,32,25.78Z"/><path class="cls-1" d="M33.62,22.42a5.49,5.49,0,0,0-.57.17c-.29.13-.48.3-.52.3s0-.06.08-.14a1.29,1.29,0,0,1,.42-.26,1.41,1.41,0,0,1,.46-.11C33.59,22.38,33.65,22.4,33.62,22.42Z"/><path class="cls-1" d="M33.42,23.29a.26.26,0,0,1-.07.19.28.28,0,0,1-.18.09h-.1a.2.2,0,0,1-.08,0l-.07-.08,0-.1a.26.26,0,0,1,.07-.18.21.21,0,0,1,.17-.09.33.33,0,0,1,.1,0,.19.19,0,0,1,.09.05.27.27,0,0,1,.07.08Z"/><path class="cls-1" d="M36.3,19.5a.31.31,0,0,0-.17-.17.94.94,0,0,0-.5,0,3,3,0,0,1-1.25-.16,1.32,1.32,0,0,0,.33-.29.81.81,0,0,0,.19-.41.74.74,0,0,0,0-.44.2.2,0,0,0,0-.08l-.07,0c-.09,0-.16.08-.21.15a.7.7,0,0,1-.27.27.68.68,0,0,1-.37.09,1.17,1.17,0,0,1-.52-.09h0l-.22-.19a4.58,4.58,0,0,0-1.48-.86,4.52,4.52,0,0,0-2.42.09A1.82,1.82,0,0,0,28,18.91a1.42,1.42,0,0,0-1.42,0h0a1.75,1.75,0,0,0-.81,1.35s0,.06,0,.09a2,2,0,0,1-.61.75c-.05,0-.1.08-.1.14a.15.15,0,0,0,.1.12.94.94,0,0,0,.44.13c0,.13-.08.25-.13.38a.34.34,0,0,0,0,.32.16.16,0,0,0,.11.07.15.15,0,0,0,.13,0,.61.61,0,0,0,.22-.13l-.12.43a1.28,1.28,0,0,0,.55-.1,14.77,14.77,0,0,0,.52,1.4c.22,0,.42-.1.56,0s.31.43.6.28a1,1,0,0,0,.28-.57,7.65,7.65,0,0,0-.05-3.23,2.54,2.54,0,0,1,.69-.62l0,0a2.23,2.23,0,0,1,1.65-.31,3.6,3.6,0,0,1,1,.83,2.9,2.9,0,0,0,2.2.76c.15.56.17,1.32.26,1.86l.4-.94a1.19,1.19,0,0,0,.08-.2v0a2.19,2.19,0,0,1,.12-.33.34.34,0,0,0,.24.06.45.45,0,0,0,.21-.12.36.36,0,0,0,.08-.23.31.31,0,0,0-.09-.22.7.7,0,0,0-.19-.15.66.66,0,0,0,.26.11.51.51,0,0,0,.27,0,.35.35,0,0,0,.2-.18.37.37,0,0,0,0-.27.26.26,0,0,0-.09-.16.34.34,0,0,0-.16-.1,1.26,1.26,0,0,0,.68-.23.37.37,0,0,0,.16-.17A.31.31,0,0,0,36.3,19.5Z"/><path class="cls-2" d="M28.65,19.08a1.63,1.63,0,0,0-.17.2,1.33,1.33,0,0,0-.22.67,2.09,2.09,0,0,0,0,.5q0,.27.09.57t.09.63a1.93,1.93,0,0,1,0,.34.67.67,0,0,1-.1.34.35.35,0,0,1-.11.1.4.4,0,0,1-.15,0,.42.42,0,0,1-.26-.12,1,1,0,0,1-.25-.47h0a1.7,1.7,0,0,1-.18.44.66.66,0,0,1-.36.25.34.34,0,0,1-.2,0,.28.28,0,0,1-.15-.11.27.27,0,0,1-.06-.17.23.23,0,0,1,0-.16l0,0a1.16,1.16,0,0,1-.37.36l-.13.06,0,0,0,0,.12-.07a1.27,1.27,0,0,0,.36-.37l0,0a.23.23,0,0,0,0,.14.2.2,0,0,0,.06.15.32.32,0,0,0,.13.1.31.31,0,0,0,.19,0,.53.53,0,0,0,.33-.24,1.59,1.59,0,0,0,.19-.42l0-.06,0,.06a.88.88,0,0,0,.23.45.43.43,0,0,0,.23.1.27.27,0,0,0,.13,0,.28.28,0,0,0,.1-.09.66.66,0,0,0,.09-.31,1.93,1.93,0,0,0,0-.34,6.17,6.17,0,0,0-.09-.62c0-.2-.07-.39-.09-.57a4.34,4.34,0,0,1,0-.51,1.39,1.39,0,0,1,.24-.68A.81.81,0,0,1,28.65,19.08Z"/><path class="cls-2" d="M34.85,20.26v0l0,0-.08.06a.41.41,0,0,1-.11.07,1.67,1.67,0,0,1-.81.25,2.17,2.17,0,0,1-1.22-.3,3.74,3.74,0,0,1-1.13-1c-.17-.21-.31-.44-.46-.65a2.84,2.84,0,0,0-.5-.54,1.36,1.36,0,0,0-.6-.27.76.76,0,0,0-.3,0,.79.79,0,0,0-.26.08,1.2,1.2,0,0,0-.38.29,1.23,1.23,0,0,0-.19.31,1.59,1.59,0,0,0-.06.3V18.8a.93.93,0,0,1,0-.23,1.5,1.5,0,0,1,.19-.32,1.4,1.4,0,0,1,.38-.3,1.43,1.43,0,0,1,.27-.09h.31a1.4,1.4,0,0,1,.62.28,2.67,2.67,0,0,1,.51.55c.15.21.29.43.46.65a3.94,3.94,0,0,0,1.12,1,2.28,2.28,0,0,0,1.2.3,1.72,1.72,0,0,0,.8-.23A2.27,2.27,0,0,0,34.85,20.26Z"/><path class="cls-2" d="M34.93,19.39l-.06.06a1.22,1.22,0,0,1-.19.12,2.2,2.2,0,0,1-.31.15,2.21,2.21,0,0,1-.84.12,2.09,2.09,0,0,1-.34,0L33,19.73l-.08,0a2.65,2.65,0,0,0,.31.07,1.86,1.86,0,0,0,.34,0,2.88,2.88,0,0,0,.41,0,2.6,2.6,0,0,0,.4-.1l.31-.13C34.83,19.46,34.93,19.38,34.93,19.39Z"/><path class="cls-2" d="M33.58,32.66l-12.19.15a1.1,1.1,0,0,0-.77.32,1.12,1.12,0,0,0-.32.77l-.18,21.54,16.44.22-1.85-22a1.18,1.18,0,0,0-.36-.74A1.08,1.08,0,0,0,33.58,32.66Z"/><path class="cls-7" d="M47.57,69.41l-.06,4.16s4.2,1.46,4.26,2.23L43.71,76l-.16-6.48Z"/><path class="cls-5" d="M45,73.27a.32.32,0,0,0-.19.15.37.37,0,0,0,0,.23.34.34,0,0,0,.15.18.31.31,0,0,0,.23,0,.39.39,0,0,0,.2-.16.35.35,0,0,0,0-.25.31.31,0,0,0-.17-.17.29.29,0,0,0-.24,0"/><path class="cls-5" d="M43.71,76l0-.65,7.77.09s.36.15.32.4Z"/><path class="cls-1" d="M47.64,73.52s-.19.07-.39.19-.29.3-.33.29,0-.25.25-.4S47.64,73.49,47.64,73.52Z"/><path class="cls-1" d="M48.49,73.86s-.16.1-.29.27-.17.35-.21.35-.07-.22.1-.43S48.49,73.82,48.49,73.86Z"/><path class="cls-1" d="M49,74.86s-.09-.19,0-.4.28-.31.3-.28-.1.15-.18.33S49,74.86,49,74.86Z"/><path class="cls-1" d="M47.55,72.58s-.19,0-.42,0-.4.09-.42.06.14-.18.41-.19S47.57,72.54,47.55,72.58Z"/><path class="cls-1" d="M35.46,48s2.38.36,4.85.82a37.21,37.21,0,0,1,6.51,1.56c.77.61.94,2.27,1.26,4.3s.41,17.22.41,17.22L43,72.1,41.93,56.18s-8,0-9.64,0c-1.32,0-4.89.14-6.25-.56-2.13-1.14-1.73-5.41-1.73-5.41C24.84,49.74,34,47,34,47Z"/><path class="cls-7" d="M49,59.43l.78,4.19s4.53.6,4.75,1.37L46.41,66.8l-1.5-6.47Z"/><path class="cls-5" d="M47.16,63.83A.32.32,0,0,0,47,64a.29.29,0,0,0,0,.24.32.32,0,0,0,.18.16.29.29,0,0,0,.24,0,.34.34,0,0,0,.14-.45.29.29,0,0,0-.2-.14.31.31,0,0,0-.25,0"/><path class="cls-5" d="M46.44,67l-.14-.63,7.77-1.7s.39.07.41.34Z"/><path class="cls-1" d="M49.85,63.55s-.18.1-.34.27-.24.36-.28.35,0-.25.18-.45S49.86,63.51,49.85,63.55Z"/><path class="cls-1" d="M50.78,63.71s-.14.14-.23.34-.1.37-.14.39-.11-.22,0-.46S50.77,63.67,50.78,63.71Z"/><path class="cls-1" d="M51.49,64.61s-.13-.17-.08-.41.22-.36.24-.33-.06.17-.1.36S51.53,64.6,51.49,64.61Z"/><path class="cls-1" d="M49.57,62.61s-.2,0-.42.1-.38.17-.41.14.11-.21.37-.28S49.58,62.58,49.57,62.61Z"/><path class="cls-1" d="M45,44.94s1.89-.14,2.3,1.48c.56,2.24,3,15.62,3,15.62l-5.57,1.08L41.84,50.06l-5.29-.86-2.18-.88a9.35,9.35,0,0,1,3.78-2.12A69,69,0,0,1,45,44.94Z"/><path class="cls-2" d="M41.85,50.39A3.16,3.16,0,0,1,43.41,49a1.88,1.88,0,0,0-.94.48,2.14,2.14,0,0,0-.49.59A.9.9,0,0,0,41.85,50.39Z"/><path class="cls-2" d="M43.07,47.75l-.1.06-.26.23a3.18,3.18,0,0,0-.87,2,1.82,1.82,0,0,0,0,.33c0,.08,0,.13,0,.13s0-.18,0-.46a3.74,3.74,0,0,1,.87-2C43,47.87,43.08,47.76,43.07,47.75Z"/><path class="cls-2" d="M47.57,47.75s0,0,0,.06,0,.12,0,.21l.16.79c.14.69.34,1.7.59,3,.5,2.53,1.2,6.1,2,10.25v0h0l-5.57,1.09h0v0l-.09-.42c-1.09-4.81-2.08-9.23-2.84-12.65l0,0-5.55-.91-1.51-.25-.4-.07-.13,0,.13,0,.4.06,1.52.24,5.56.88h0v0l2.86,12.64.09.41,0,0L50.35,62l0,0-2-10.26c-.25-1.26-.44-2.27-.57-3-.06-.34-.11-.61-.15-.79l0-.21A.15.15,0,0,1,47.57,47.75Z"/><path class="cls-8" d="M35.44,31.05a4.46,4.46,0,0,1,1.49,2.72c.37,1.63.94,4.72.94,4.72L40,39.91a.54.54,0,0,1,.21.3.48.48,0,0,1,0,.35c-.51.9-1.79,3-2.63,3.3a2.53,2.53,0,0,1-2.09-.51Z"/><path class="cls-8" d="M35.44,31.05l-2.5-1-.42-.83-.39,1.72-4.06-2.42-.28,1a40.41,40.41,0,0,0-4.37,2.08c-.62.57,1.06,9.94,1.06,9.94s-.61,7.52-.38,9a42,42,0,0,1,4.95-1.08,36.21,36.21,0,0,0,5-1.17l2.46-1.52Z"/><path class="cls-1" d="M35.81,35.13a.62.62,0,0,1,0,.13c0,.09,0,.21,0,.36,0,.32,0,.77.06,1.32.05,1.12.13,2.67.23,4.38s.2,3.26.28,4.38c.05.55.08,1,.11,1.32q0,.23,0,.36v.12a.5.5,0,0,1,0-.12c0-.09,0-.21-.05-.36,0-.31-.08-.76-.13-1.32-.1-1.12-.21-2.67-.31-4.38s-.17-3.26-.21-4.38c0-.56,0-1,0-1.32v-.36S35.81,35.17,35.81,35.13Z"/><path class="cls-1" d="M25.63,34.38s0-.2,0-.52a2.54,2.54,0,0,0-1.39-1.94,2.61,2.61,0,0,0-.48-.19l.14,0a2.29,2.29,0,0,1,.37.12,2.46,2.46,0,0,1,1,.8,2.37,2.37,0,0,1,.45,1.18,2.41,2.41,0,0,1,0,.38A.4.4,0,0,1,25.63,34.38Z"/><path class="cls-10" d="M36.25,44.2,35.06,43l-2.45-.59s-2.25.64-2.3.64-2-.64-2-.64l-.63,2.47,3.41.23L35,45s.2-.19.08-.31.65.21.74.22.27.07.39-.07A.47.47,0,0,0,36.25,44.2Z"/><path class="cls-8" d="M23.38,31.62a3.68,3.68,0,0,0-1.3,2.23c-.43,1.69-1.77,8.68-1.38,9.71s8.84,2.36,8.84,2.36l1-3.06-5.87-1.94a35.28,35.28,0,0,0,.91-4.73C25.58,34.83,23.38,31.62,23.38,31.62Z"/><path class="cls-11" d="M35.11,44.64a2.36,2.36,0,0,1-.38-.1c-.24-.08-.57-.17-.94-.26l-.94-.21a1.69,1.69,0,0,1-.39-.08,1.79,1.79,0,0,1,.4,0c.32.05.64.11,1,.19a7.17,7.17,0,0,1,.93.29A1.25,1.25,0,0,1,35.11,44.64Z"/><path class="cls-11" d="M36.25,44.2a3.38,3.38,0,0,1-.54-.17l-1.33-.37a7.47,7.47,0,0,0-1.32-.32,5.15,5.15,0,0,0-.56,0,.33.33,0,0,1,.14,0,2,2,0,0,1,.42,0,6.27,6.27,0,0,1,1.35.3c.52.13,1,.28,1.32.4l.38.15A.61.61,0,0,1,36.25,44.2Z"/><path class="cls-1" d="M22.94,41.56a1.93,1.93,0,0,1,.78-.54,1.88,1.88,0,0,1,.94-.1,4.1,4.1,0,0,0-.91.19A4.28,4.28,0,0,0,22.94,41.56Z"/><path class="cls-1" d="M22,44.35h0l.11,0,.41.11c.36.09.89.2,1.56.34,1.33.27,3.22.64,5.42,1l0,0c.3-.94.62-2,1-3.06l0,.06-.33-.11L24.62,41h0v0c.3-1.59.55-2.92.73-3.86L25.53,36a2.57,2.57,0,0,1,.06-.28.3.3,0,0,1,0-.1.34.34,0,0,1,0,.1c0,.07,0,.16-.05.28s-.11.62-.19,1.09l-.7,3.87,0-.05,5.54,1.83.33.11,0,0v0l-1,3.06v0h0c-2.2-.41-4.09-.78-5.42-1.07-.67-.15-1.19-.27-1.55-.37l-.41-.12-.11,0Z"/><path class="cls-1" d="M38.44,41.11,38.27,41a2.57,2.57,0,0,1-.41-.26,2.69,2.69,0,0,1-.92-1.3,2.38,2.38,0,0,1-.13-.88.75.75,0,0,1,.1-.36.81.81,0,0,1,.26-.26.39.39,0,0,1,.25-.06.41.41,0,0,1,.24.08c.1.07.12.14.11.14a.29.29,0,0,0-.13-.11.4.4,0,0,0-.22-.06.39.39,0,0,0-.21.06.66.66,0,0,0-.23.24.72.72,0,0,0-.08.32,2.44,2.44,0,0,0,.13.85,2.9,2.9,0,0,0,.88,1.28A6.51,6.51,0,0,0,38.44,41.11Z"/><path class="cls-1" d="M36.44,39.71a1.3,1.3,0,0,1,.17-.44,1.16,1.16,0,0,1,.26-.39,1.26,1.26,0,0,1-.17.44C36.58,39.54,36.47,39.72,36.44,39.71Z"/><path class="cls-1" d="M33,30a2,2,0,0,1,0,.43c0,.26-.08.62-.14,1l0,.19,0,.14-.07-.12a5.11,5.11,0,0,0-.41-.62l.07,0a2.73,2.73,0,0,1-.05.5,2.18,2.18,0,0,1,0-.51v-.1l.06.08a3.86,3.86,0,0,1,.44.62l-.09,0,0-.19c0-.39.11-.75.16-1A2.1,2.1,0,0,1,33,30Z"/><path class="cls-1" d="M32.2,31.59a1.07,1.07,0,0,1-.14-.16L31.72,31h.06c-.07.3-.17.66-.27,1.06l0,.06,0,0c-.33-.19-.71-.42-1.09-.67-.74-.46-1.4-.92-1.86-1.25l-.55-.41a1.54,1.54,0,0,1-.19-.17,1,1,0,0,1,.22.14l.56.37c.48.33,1.14.77,1.88,1.24.37.24.75.47,1.08.67l-.06,0,.3-1.06,0-.07,0,.06.31.5A1,1,0,0,1,32.2,31.59Z"/><path class="cls-1" d="M33.07,42.49a.22.22,0,0,1,0-.11c0-.08,0-.19,0-.31,0-.27-.07-.66-.12-1.14-.1-1-.22-2.3-.33-3.78s-.17-2.81-.21-3.78c0-.48,0-.87,0-1.15V31.8a.41.41,0,0,1,0,.11c0,.08,0,.19,0,.31,0,.29,0,.68.07,1.15.05,1,.13,2.3.24,3.78s.22,2.81.3,3.78c0,.47.07.86.09,1.14s0,.23,0,.31A.41.41,0,0,1,33.07,42.49Z"/><path class="cls-1" d="M27.76,46.86s-1.43,0-3.19,0-3.19,0-3.19,0,1.43,0,3.19,0S27.76,46.85,27.76,46.86Z"/><path class="cls-1" d="M25,45.21a17.34,17.34,0,0,1-1.9,0,17.34,17.34,0,0,1-1.9,0s.85,0,1.9,0S25,45.19,25,45.21Z"/><path class="cls-5" d="M41.93,38l-3.66,6.48-8.47.19,0,.39,8.4-.06h.27l8.88,0,1.79-3.09,2.22-3.59a.49.49,0,0,0,.06-.17.38.38,0,0,0,0-.17.34.34,0,0,0-.12-.12.34.34,0,0,0-.17,0l-8.85,0a.33.33,0,0,0-.17,0A.43.43,0,0,0,41.93,38Z"/><path class="cls-3" d="M44.77,41.33a.38.38,0,0,0-.07.21.36.36,0,0,0,.06.2.43.43,0,0,0,.15.15.39.39,0,0,0,.21,0,.44.44,0,0,0,.2-.08.36.36,0,0,0,.12-.18.38.38,0,0,0,0-.21.29.29,0,0,0-.11-.18.32.32,0,0,0-.14-.08H45a.33.33,0,0,0-.15,0A.4.4,0,0,0,44.77,41.33Z"/><path class="cls-1" d="M42.9,37.83s-.87,1.62-2,3.59S38.85,45,38.83,45s.87-1.62,2-3.59S42.88,37.82,42.9,37.83Z"/><path class="cls-5" d="M37.64,57.77a22.23,22.23,0,0,1-7.95,1.84A22.21,22.21,0,0,1,22,57.78Z"/><path class="cls-5" d="M29.27,74.24h1.56V57.94H29.27Z"/><path class="cls-5" d="M23.08,74.52H36.89v-1H23.08Z"/><path class="cls-1" d="M35.27,74.93a1,1,0,0,0,.18.59,1.05,1.05,0,1,0,.87-1.64,1,1,0,0,0-.74.31A1,1,0,0,0,35.27,74.93Z"/><path class="cls-1" d="M29.13,74.93a1.07,1.07,0,0,0,.65,1,1.07,1.07,0,0,0,.61.06,1,1,0,0,0,.54-.29,1.05,1.05,0,0,0,.23-1.15,1.07,1.07,0,0,0-1-.65,1.06,1.06,0,0,0-.75.31A1,1,0,0,0,29.13,74.93Z"/><path class="cls-1" d="M22,74.93a1.1,1.1,0,0,0,.17.59,1.08,1.08,0,0,0,.48.39,1,1,0,0,0,.6.06,1,1,0,0,0,.54-.29,1.05,1.05,0,0,0,.23-1.15,1.07,1.07,0,0,0-1-.65,1,1,0,0,0-1,1.05Z"/><path class="cls-5" d="M29.69,64.69H31.8v-.88H29.69Z"/><path class="cls-5" d="M31.42,65.3h.77V63.2h-.77Z"/><path class="cls-2" d="M21.75,57.77H40.17a1.13,1.13,0,0,0,1.25-1.17,1.17,1.17,0,0,0-.39-.84,1.19,1.19,0,0,0-.86-.33h-20v.82a1.63,1.63,0,0,0,.5,1.1A1.6,1.6,0,0,0,21.75,57.77Z"/><path class="cls-1" d="M22.63,46.82s0,2,0,4.54,0,4.53,0,4.53-.05-2-.05-4.53S22.6,46.82,22.63,46.82Z"/><path class="cls-1" d="M40.88,55.14a1.48,1.48,0,0,1,.25.35,2.23,2.23,0,0,1,.3,1.18,1.09,1.09,0,0,1-.06.44,1.12,1.12,0,0,1-.24.38,1,1,0,0,1-.45.26,2,2,0,0,1-.55,0H37.56l-14.9,0a9.32,9.32,0,0,1-1.06,0,1.71,1.71,0,0,1-.94-.46,1.87,1.87,0,0,1-.5-.9,2.86,2.86,0,0,1-.08-1c0-4.84.09-9.08.12-12.12,0-1.51,0-2.72.05-3.56,0-.42,0-.74,0-1v1c0,.84,0,2,0,3.56,0,3-.06,7.28-.09,12.12a2.66,2.66,0,0,0,.08,1,1.78,1.78,0,0,0,.47.86,1.62,1.62,0,0,0,.89.43,9,9,0,0,0,1,0H40.11a2,2,0,0,0,.54,0,1,1,0,0,0,.66-.59,1,1,0,0,0,.08-.41,2.31,2.31,0,0,0-.28-1.18,2,2,0,0,0-.17-.27Z"/><path class="cls-2" d="M20.4,46.8l8.5.1.09,0a.31.31,0,0,1,.12.14.14.14,0,0,1,0,.09L27.84,57.77h2l1-11.68a.67.67,0,0,0,0-.28.75.75,0,0,0-.13-.25.66.66,0,0,0-.23-.17.64.64,0,0,0-.27-.07l-9.93-.06Z"/><path class="cls-1" d="M20.4,46.8a.82.82,0,0,0,0-.1c0-.06,0-.16,0-.29s-.05-.64-.1-1.15v0h0l8.23,0H30a2.3,2.3,0,0,1,.37,0,.67.67,0,0,1,.36.17.75.75,0,0,1,.21.34.86.86,0,0,1,0,.39c-.09,1-.19,2.09-.27,3.19-.19,2.21-.41,4.56-.62,7l-.12,1.39v0h-2.1v-.05c.33-2.75.64-5.34.93-7.68.07-.58.14-1.15.2-1.7,0-.28.07-.55.1-.81s0-.27.05-.4a.11.11,0,0,0,0-.08A.13.13,0,0,0,29,47L29,47l-.08,0-2.88,0-4.13-.06-1.11,0h1.14l4.12,0,2.87,0a.2.2,0,0,1,.11,0,.27.27,0,0,1,.08.07.37.37,0,0,1,0,.11.2.2,0,0,1,0,.11c0,.13,0,.26,0,.39s-.06.54-.1.82c-.06.55-.13,1.12-.2,1.7-.28,2.34-.58,4.93-.91,7.68l-.05-.06h2l0,.05c0-.46.08-.92.13-1.39.21-2.45.42-4.8.62-7,.1-1.1.19-2.16.28-3.19a.87.87,0,0,0,0-.36.67.67,0,0,0-.19-.3.6.6,0,0,0-.31-.15,2.17,2.17,0,0,0-.36,0H28.5l-8.23-.07,0,0c0,.51.06.89.08,1.15s0,.23,0,.3Z"/><path class="cls-1" d="M29,57a.26.26,0,0,0,.26-.26.26.26,0,0,0-.26-.26.26.26,0,0,0-.26.26A.25.25,0,0,0,29,57Z"/><path class="cls-9" d="M11.43,40.94l.62,4.1h3.62l.84-4Z"/><path class="cls-12" d="M16,43.57s-.93,0-2.08,0-2.07,0-2.07,0,.92,0,2.07,0S16,43.55,16,43.57Z"/><path class="cls-12" d="M16,43.37s-.94,0-2.08,0-2.08,0-2.08,0,.93,0,2.08,0S16,43.35,16,43.37Z"/><path class="cls-12" d="M16,43.14s-.93,0-2.08,0-2.08,0-2.08,0,.94,0,2.08,0S16,43.13,16,43.14Z"/><path class="cls-12" d="M12.47,44.8a3.1,3.1,0,0,1-.11-.51,2.32,2.32,0,0,1-.07-.52,4.19,4.19,0,0,1,.11.51A4.63,4.63,0,0,1,12.47,44.8Z"/><path class="cls-12" d="M12.71,44.77a24,24,0,0,1-.07-1,2.74,2.74,0,0,1,.07.5A2.18,2.18,0,0,1,12.71,44.77Z"/><path class="cls-12" d="M13.16,44.77a4.61,4.61,0,0,1-.12-1,13.8,13.8,0,0,1,.12,1Z"/><path class="cls-12" d="M13.48,44.78a4.11,4.11,0,0,1,0-1.05C13.47,44.08,13.48,44.43,13.48,44.78Z"/><path class="cls-12" d="M14,44.77a2.8,2.8,0,0,1,0-.5,2.09,2.09,0,0,1,0-.5,6.69,6.69,0,0,1,0,1Z"/><path class="cls-12" d="M14.44,44.78a2.9,2.9,0,0,1,0-.51,4.53,4.53,0,0,1,0-.52,4.52,4.52,0,0,1,0,.52A4.36,4.36,0,0,1,14.44,44.78Z"/><path class="cls-12" d="M14.82,44.73a4.89,4.89,0,0,1,0-.54,4.51,4.51,0,0,1,.07-.53,2.33,2.33,0,0,1,0,.53A2.5,2.5,0,0,1,14.82,44.73Z"/><path class="cls-12" d="M15.32,44.67a1.74,1.74,0,0,1,.06-.45,2.06,2.06,0,0,1,.14-.44,3.58,3.58,0,0,1-.09.45A3.15,3.15,0,0,1,15.32,44.67Z"/><path class="cls-9" d="M11,40.13v.77a.31.31,0,0,0,.09.21.29.29,0,0,0,.21.09h5.24a.31.31,0,0,0,.22-.09.3.3,0,0,0,.08-.21v-.77Z"/><g class="cls-13"><path d="M11.47,41.2l0,.25,4.83.34.13-.59Z"/></g><path class="cls-2" d="M12.91,40.13A2.88,2.88,0,0,1,11.7,37.8a2.59,2.59,0,0,1,1-2.22A2.37,2.37,0,0,1,14,35.19a2.3,2.3,0,0,1,1.27.37,2.54,2.54,0,0,1,.88,1,2.74,2.74,0,0,1,.29,1.29,3.16,3.16,0,0,1-.37,1.28,2.92,2.92,0,0,1-.88,1"/><path class="cls-1" d="M14.14,40.22a1.28,1.28,0,0,1,0-.19c0-.14,0-.32,0-.53,0-.45,0-1.07-.06-1.75S14,36.45,14,36c0-.21,0-.39,0-.53a.54.54,0,0,1,0-.18,1.13,1.13,0,0,1,0,.18c0,.13,0,.31,0,.53,0,.45.09,1.07.12,1.75s0,1.3,0,1.75V40A1.48,1.48,0,0,1,14.14,40.22Z"/><path class="cls-1" d="M11.92,37.61a.62.62,0,0,1-.27,0,.52.52,0,0,1-.27-.06s.12,0,.27,0S11.92,37.59,11.92,37.61Z"/><path class="cls-1" d="M12,36.84s-.11,0-.24-.06-.21-.11-.2-.13.11,0,.23.06S12,36.83,12,36.84Z"/><path class="cls-1" d="M12.36,36.28a.56.56,0,0,1-.25-.14c-.12-.11-.2-.21-.19-.23a1,1,0,0,1,.23.17C12.27,36.18,12.37,36.27,12.36,36.28Z"/><path class="cls-1" d="M12.76,35.74s-.08-.08-.13-.18-.08-.23-.06-.23.07.08.13.2A.48.48,0,0,1,12.76,35.74Z"/><path class="cls-1" d="M13.38,35.36s-.08-.08-.12-.21,0-.25,0-.25.06.1.09.23A.87.87,0,0,1,13.38,35.36Z"/><path class="cls-1" d="M14.41,35s0,.08,0,.18-.07.17-.09.16,0-.09,0-.19S14.39,34.93,14.41,35Z"/><path class="cls-1" d="M15.17,35.27s0,.08-.11.15-.14.11-.15.1,0-.09.11-.16S15.16,35.25,15.17,35.27Z"/><path class="cls-1" d="M15.85,35.7s0,.08-.13.14-.17.09-.18.07.05-.08.13-.14A.4.4,0,0,1,15.85,35.7Z"/><path class="cls-1" d="M16.33,36.35a.48.48,0,0,1-.21.13c-.13.05-.23.08-.24.06s.08-.07.21-.13S16.32,36.33,16.33,36.35Z"/><path class="cls-1" d="M16.52,37.06s-.1,0-.22.06a.46.46,0,0,1-.22,0,.57.57,0,0,1,.21-.06C16.41,37.05,16.51,37,16.52,37.06Z"/><path class="cls-1" d="M16.62,37.93s-.12,0-.23-.06-.21-.11-.2-.13a.5.5,0,0,1,.23.07C16.53,37.86,16.62,37.91,16.62,37.93Z"/><path class="cls-1" d="M16.53,38.68s-.14,0-.27-.1-.22-.19-.2-.21.11.06.24.15S16.54,38.66,16.53,38.68Z"/><path class="cls-1" d="M16.14,39.36s-.12,0-.21-.15-.16-.21-.14-.23.09.08.19.18S16.15,39.34,16.14,39.36Z"/><path class="cls-1" d="M12.44,39.44s-.1.09-.24.17-.27.12-.28.1.1-.09.24-.17A.73.73,0,0,1,12.44,39.44Z"/><path class="cls-1" d="M12.11,38.83a.58.58,0,0,1-.19.12c-.11,0-.21.08-.22.06s.08-.07.19-.12S12.09,38.81,12.11,38.83Z"/><path class="cls-1" d="M11.85,38.28s-.1,0-.23.07-.25,0-.25,0,.1-.05.24-.07S11.85,38.26,11.85,38.28Z"/><path class="cls-1" d="M12.68,38s-.1.07-.24.08-.25,0-.25,0,.11,0,.24,0A1.2,1.2,0,0,1,12.68,38Z"/><path class="cls-1" d="M13.35,37.3s-.08.06-.19.08-.2,0-.19,0l.19,0Z"/><path class="cls-1" d="M13.47,36.77s-.09,0-.2,0-.19-.08-.17-.09.09,0,.2,0S13.48,36.75,13.47,36.77Z"/><path class="cls-1" d="M13.72,36.22s-.07,0-.12-.1a.22.22,0,0,1,0-.16s.06,0,.1.12S13.74,36.21,13.72,36.22Z"/><path class="cls-1" d="M13.43,38.45s-.07.06-.17.08a.39.39,0,0,1-.15,0v0h.05s0,0,0,0l0,0,.14,0C13.33,38.44,13.42,38.43,13.43,38.45Z"/><path class="cls-1" d="M13.56,39.41s-.09.07-.22.13-.24.07-.25.05a.78.78,0,0,1,.23-.12C13.44,39.42,13.56,39.39,13.56,39.41Z"/><path class="cls-1" d="M12.8,39a.34.34,0,0,1-.15.08c-.08,0-.16,0-.17,0s.06-.06.15-.09S12.79,39,12.8,39Z"/><path class="cls-1" d="M12.87,37s-.12,0-.26,0-.23-.11-.22-.13.12,0,.25.06S12.87,37,12.87,37Z"/><path class="cls-1" d="M14.71,36.83s-.06.08-.15.14-.17.1-.19.08.06-.08.15-.14S14.7,36.81,14.71,36.83Z"/><path class="cls-1" d="M14.81,37.79s-.07.05-.15.07a.28.28,0,0,1-.17,0s.06,0,.15-.07S14.8,37.77,14.81,37.79Z"/><path class="cls-1" d="M14.92,38.87s-.1,0-.21-.06-.19-.11-.19-.13.1,0,.22.06S14.93,38.85,14.92,38.87Z"/><path class="cls-1" d="M14.68,39.92s-.08,0-.14-.12-.11-.15-.09-.16.08,0,.14.12S14.69,39.91,14.68,39.92Z"/><path class="cls-1" d="M14.63,36.12s0,.07-.11.1-.14,0-.14,0,0-.05.11-.08S14.61,36.1,14.63,36.12Z"/><path class="cls-1" d="M15.53,37.09s-.07.06-.19.08-.2,0-.2,0,.09,0,.19,0S15.53,37.07,15.53,37.09Z"/><path class="cls-1" d="M15.35,36.22s-.07.08-.19.11-.22,0-.22,0,.09-.05.2-.08S15.34,36.2,15.35,36.22Z"/><path class="cls-1" d="M15.73,38.43a.42.42,0,0,1-.31,0,.55.55,0,0,1-.3-.11,4.1,4.1,0,0,1,.61.11Z"/><path class="cls-1" d="M15.4,39.7s-.12-.05-.23-.15-.16-.21-.15-.23.1.07.2.18S15.41,39.68,15.4,39.7Z"/><path class="cls-1" d="M13.91,35.19a3.38,3.38,0,0,0-.63.5,3.07,3.07,0,0,0-.79,1.74,4.25,4.25,0,0,0,0,1.07,8.08,8.08,0,0,0,.2.85q.11.38.18.57l.06.21a.72.72,0,0,1-.09-.2c-.05-.13-.12-.32-.2-.57a8.33,8.33,0,0,1-.22-.86,4.33,4.33,0,0,1-.05-1.08,3,3,0,0,1,.82-1.77,2.19,2.19,0,0,1,.48-.37l.14-.07Z"/><path class="cls-1" d="M14.9,40.18a7.35,7.35,0,0,0,.32-.77,4.39,4.39,0,0,0,.19-2,3.68,3.68,0,0,0-.31-1.06,2.32,2.32,0,0,0-.52-.73,2.08,2.08,0,0,0-.51-.32l-.22-.08h.06l.17,0a1.92,1.92,0,0,1,.53.32,2.35,2.35,0,0,1,.55.74,3.64,3.64,0,0,1,.32,1.08,4.16,4.16,0,0,1-.22,2,2.85,2.85,0,0,1-.13.33A1.33,1.33,0,0,1,15,40,1.28,1.28,0,0,1,14.9,40.18Z"/><path class="cls-10" d="M40,35.55l-2.47,3a2.68,2.68,0,0,0,.83,1.48,1.49,1.49,0,0,0,.71.35,1.55,1.55,0,0,0,.8-.06s.16-.28.61-1a15.86,15.86,0,0,0,1.44-4Z"/><path class="cls-1" d="M43.93,29.68a.37.37,0,0,0-.12-.07h-.14L42.05,30a.51.51,0,0,0-.33.24l-3.18,5.06.26.1,1.8-.24L44,29.73Z"/><path class="cls-3" d="M42.8,30.41h.07a.18.18,0,0,0,.07-.05s0-.1,0-.12a.11.11,0,0,0-.08,0s0,0-.06.05S42.77,30.39,42.8,30.41Z"/><path class="cls-2" d="M44,29.73a1.81,1.81,0,0,1-.31.09l-.86.21-.59.15a.24.24,0,0,0-.14.05.38.38,0,0,0-.11.11l-.18.29L41,31.92c-.58.92-1.1,1.75-1.49,2.35L39,35l-.18.26A1.17,1.17,0,0,1,39,35l.43-.72c.38-.61.89-1.44,1.47-2.36l.82-1.29.18-.29a.48.48,0,0,1,.31-.19L42.8,30l.86-.19A1.8,1.8,0,0,1,44,29.73Z"/><path class="cls-10" d="M42.63,31s-.16,0-.23.41-.3,1.62-.3,1.62l-.87-.33L40.17,33s-.22.22,0,.31a4.06,4.06,0,0,0,.85.13l.53.61-1.45-.49s-.48.16-.32.41a7.78,7.78,0,0,0,1.15,1l-.72,0-.86-.39s-.26,0-.15.23a7.49,7.49,0,0,0,1,.84l1.09.38s.58-.1.63-.26a2.6,2.6,0,0,0,.05-.39s.3-.11.35-.25a.77.77,0,0,0,0-.37s.49,0,.54-.22a2.65,2.65,0,0,0-.08-.93c-.06-.19.11-2,.09-2.05S42.93,30.88,42.63,31Z"/><path class="cls-11" d="M41.93,35.75a.81.81,0,0,1-.27.11,2.11,2.11,0,0,1-.71,0,2,2,0,0,1-.65-.2c-.15-.09-.23-.16-.22-.17a4,4,0,0,0,.89.27A4.35,4.35,0,0,0,41.93,35.75Z"/><path class="cls-14" d="M41.66,35.42a.87.87,0,0,1-.42-.18c-.2-.13-.35-.27-.33-.29s.19.07.4.2S41.68,35.39,41.66,35.42Z"/><path class="cls-14" d="M42.18,34.51s-.2,0-.4-.19-.32-.29-.3-.31.18.09.37.23S42.2,34.49,42.18,34.51Z"/><path class="cls-11" d="M42.74,33.77s-.14-.16-.32-.35-.35-.31-.33-.33a.75.75,0,0,1,.41.26C42.69,33.55,42.77,33.76,42.74,33.77Z"/><path class="cls-5" d="M59,75.77h-.77l.38-28.45h1.65Z"/><path class="cls-1" d="M59,75.77v-.15c0-.1,0-.25,0-.44,0-.38,0-.94.06-1.65.06-1.44.15-3.51.26-6.08.22-5.13.53-12.23.87-20.14l.05,0H58.56l0,0c-.19,13.95-.36,25.55-.42,28.45h0c0-2.9.16-14.5.35-28.45v0h1.74v0c-.36,7.92-.68,15-.91,20.18-.12,2.56-.22,4.63-.29,6.06,0,.71-.06,1.26-.08,1.64,0,.19,0,.33,0,.43A.7.7,0,0,1,59,75.77Z"/><path class="cls-5" d="M11.26,75.83h-.77l-.44-28.59H11.7Z"/><path class="cls-1" d="M11.26,75.83v-.59c0-.37,0-.94,0-1.65,0-1.45,0-3.53.07-6.11.08-5.16.18-12.3.3-20.24l0,0H10.05l0,0c.21,14,.37,25.69.4,28.59h0v0c-.05-2.89-.24-14.54-.46-28.56v-.05h1.75v.05c-.13,8-.25,15.11-.33,20.28-.05,2.57-.09,4.65-.11,6.09,0,.71,0,1.27,0,1.65v.42Z"/><path class="cls-2" d="M61.61,45.05H6.27v2.37H61.61Z"/><path class="cls-1" d="M6.27,45.05h16.1l39.24,0h0v2.46h0l-55.33,0h0v0h0l55.36-.05-.05.05V45.05l.05.05-39.2,0H6.56Z"/><path class="cls-1" d="M17.75,45.09v0l-.06.07a1.13,1.13,0,0,1-.27.22,1.66,1.66,0,0,1-.53.18,4.41,4.41,0,0,1-.73,0,8.78,8.78,0,0,1-.88-.1,8.27,8.27,0,0,0-1-.12,6,6,0,0,0-2.25.44c-.77.27-1.5.59-2.19.78a6.56,6.56,0,0,1-1,.2,4.31,4.31,0,0,1-.88,0,3.12,3.12,0,0,1-1.22-.39,3.37,3.37,0,0,1-.38-.28h0l.07.06.29.19A3.25,3.25,0,0,0,8,46.76a4.22,4.22,0,0,0,.87,0,5.44,5.44,0,0,0,1-.21c.68-.18,1.4-.5,2.18-.78a6.32,6.32,0,0,1,2.27-.44,8.45,8.45,0,0,1,1,.13,8.62,8.62,0,0,0,.87.11,3.55,3.55,0,0,0,.73,0,1.52,1.52,0,0,0,.51-.16A1.31,1.31,0,0,0,17.75,45.09Z"/><path class="cls-1" d="M11.82,45.12a1.07,1.07,0,0,1-.16.14,3.74,3.74,0,0,1-.49.32,4.1,4.1,0,0,1-1.87.49,4,4,0,0,1-1.89-.38A1.19,1.19,0,0,1,7,45.31a1,1,0,0,1-.08-.14.13.13,0,0,1,0-.06A1.18,1.18,0,0,0,7,45.3a1.28,1.28,0,0,0,.45.35A4.16,4.16,0,0,0,9.3,46a4.1,4.1,0,0,0,1-.16,3.69,3.69,0,0,0,.8-.31c.18-.09.35-.19.51-.29A1.09,1.09,0,0,1,11.82,45.12Z"/><path class="cls-1" d="M24.54,46.62l.09,0a1,1,0,0,0,.25.07,1.4,1.4,0,0,0,.94-.15v0a2.31,2.31,0,0,0-2.71-.06.23.23,0,0,0-.07.07.13.13,0,0,0,0,.09.15.15,0,0,0,0,.09.16.16,0,0,0,.08.06.65.65,0,0,0,.21.07l.23.06c.31.06.63.13,1,.18a5,5,0,0,0,1,.06,3.17,3.17,0,0,0,.53,0l.26-.05.25-.08a.88.88,0,0,0,.33-.24.38.38,0,0,0,.08-.17.4.4,0,0,0,0-.19.55.55,0,0,0-.25-.29L26.34,46a5,5,0,0,0-1.51-.31,6.41,6.41,0,0,0-4.12,1.24l-.38.31-.09.08,0,0,0,0,.09-.08c.08-.08.21-.19.37-.32a6.27,6.27,0,0,1,4.13-1.28,5,5,0,0,1,1.53.31,1.93,1.93,0,0,1,.38.19.68.68,0,0,1,.28.32.34.34,0,0,1,0,.22.4.4,0,0,1-.09.21.94.94,0,0,1-.35.25,1.43,1.43,0,0,1-.27.09l-.26.06a4.93,4.93,0,0,1-.54,0,7.13,7.13,0,0,1-1-.07c-.34,0-.66-.12-1-.19L23.29,47a.63.63,0,0,1-.23-.08.24.24,0,0,1-.09-.08.2.2,0,0,1,0-.13.37.37,0,0,1,.05-.11.39.39,0,0,1,.1-.08,2.38,2.38,0,0,1,1.56-.4,2.35,2.35,0,0,1,1.2.48l0,0h0a1.45,1.45,0,0,1-1,.14A1.2,1.2,0,0,1,24.54,46.62Z"/><path class="cls-1" d="M31.51,45.15a.24.24,0,0,1,.06.11,1.11,1.11,0,0,1,0,.36,1.74,1.74,0,0,1-.53,1,2.48,2.48,0,0,1-.5.42,1.58,1.58,0,0,1-.47.23,2,2,0,0,1-.35.09h-.13a3.62,3.62,0,0,0,.46-.14,2,2,0,0,0,.46-.24,3.07,3.07,0,0,0,.48-.41,1.8,1.8,0,0,0,.54-1A1.24,1.24,0,0,0,31.51,45.15Z"/><path class="cls-1" d="M41.25,47.3a1.88,1.88,0,0,0-.25-.24,1.78,1.78,0,0,0-.85-.38,1.72,1.72,0,0,0-.64,0,2.76,2.76,0,0,1-.76.07A1.52,1.52,0,0,1,38,46.4a2.55,2.55,0,0,0-.76-.45,2.83,2.83,0,0,0-1.68,0,4,4,0,0,0-1.24.63,7.24,7.24,0,0,0-.73.62l-.18.19-.07.06a.2.2,0,0,1,.06-.07,1.23,1.23,0,0,1,.17-.19,6.13,6.13,0,0,1,.71-.64,4,4,0,0,1,1.26-.65,2.52,2.52,0,0,1,2.49.48,1.41,1.41,0,0,0,.72.36,2.62,2.62,0,0,0,.74-.06,1.83,1.83,0,0,1,.66,0A1.78,1.78,0,0,1,41,47,1.55,1.55,0,0,1,41.25,47.3Z"/><path class="cls-1" d="M49.94,45.07l-.06.09a2.35,2.35,0,0,1-.19.22,5.27,5.27,0,0,1-.79.7,6.31,6.31,0,0,1-1.37.75,5.78,5.78,0,0,1-.89.29,4.51,4.51,0,0,1-2.87-.27,6.52,6.52,0,0,1-1.36-.77,5.34,5.34,0,0,1-.79-.71c-.09-.09-.14-.17-.19-.22l-.06-.08a.23.23,0,0,1,.07.07l.19.21a5.74,5.74,0,0,0,.79.69,6.55,6.55,0,0,0,1.37.76,4.85,4.85,0,0,0,1.85.37,4,4,0,0,0,1-.12,5.19,5.19,0,0,0,.87-.28A6.24,6.24,0,0,0,48.86,46a5.23,5.23,0,0,0,.8-.68l.19-.21Z"/><path class="cls-1" d="M48.7,45.05l-.05,0-.14.09a5,5,0,0,1-.54.31,5.75,5.75,0,0,1-.86.35A3.87,3.87,0,0,1,46,46a4.72,4.72,0,0,1-2.52-.82l-.14-.1,0,0,.19.12a4.68,4.68,0,0,0,.54.3A4.93,4.93,0,0,0,46,46a4.16,4.16,0,0,0,1.1-.19,6.28,6.28,0,0,0,.85-.34c.24-.11.43-.21.55-.28Z"/><path class="cls-1" d="M58.18,45.29H56.64l-.38,0-.4,0-.88.08c-.61.08-1.28.19-1.95.34a15.62,15.62,0,0,0-1.83.53l-.74.28-.33.14-.29.13-.48.25-.19.1-.16.09-.21.13-.08,0a.16.16,0,0,1,.06-.05l.2-.14.15-.09.19-.11a4,4,0,0,1,.47-.25l.29-.14.32-.15c.23-.1.48-.18.75-.29A16.8,16.8,0,0,1,53,45.67c.68-.15,1.35-.26,2-.34.32,0,.61-.06.89-.07l.41,0h1.28l.22,0,.31,0Z"/><path class="cls-1" d="M42.22,47.25a2.6,2.6,0,0,0-.3-.36,2.83,2.83,0,0,0-1.1-.61,6.14,6.14,0,0,0-.85-.19l-1-.15a6.94,6.94,0,0,1-1.09-.27,7.42,7.42,0,0,0-1.15-.28,4.78,4.78,0,0,0-2.25.31c-.31.12-.62.26-.92.41l-.77.42c-.46.26-.83.49-1.09.65l-.29.19-.08,0,0,0,0,0,.07,0,.29-.19c.25-.16.62-.39,1.08-.66l.77-.43a9.52,9.52,0,0,1,.92-.41,5,5,0,0,1,2.29-.33,7.87,7.87,0,0,1,1.16.29,9.85,9.85,0,0,0,1.07.27L40,46a8.26,8.26,0,0,1,.86.2,2.74,2.74,0,0,1,1.09.64A1.25,1.25,0,0,1,42.22,47.25Z"/><path class="cls-1" d="M30,45.09s0,.1,0,.15a1.82,1.82,0,0,1-.11.4,2.23,2.23,0,0,1-.83,1.06,5.58,5.58,0,0,1-1.24.57,3.08,3.08,0,0,1-.39.12l-.15,0,.14-.06.38-.13A6.73,6.73,0,0,0,29,46.65a2.38,2.38,0,0,0,.83-1A4.68,4.68,0,0,0,30,45.09Z"/><path class="cls-1" d="M17.43,47.42a.53.53,0,0,1,.14-.12c.08-.08.21-.19.37-.32a10.59,10.59,0,0,1,1.39-.89c.56-.31,1.08-.56,1.47-.73l.45-.21a1.15,1.15,0,0,1,.17-.06l-.16.09-.44.22c-.38.19-.9.44-1.46.75A16.27,16.27,0,0,0,18,47l-.4.3A.71.71,0,0,1,17.43,47.42Z"/><path class="cls-1" d="M20,45.18h-.35a2.41,2.41,0,0,0-.91.28,9.15,9.15,0,0,0-1.17.78,5.38,5.38,0,0,1-.71.46A4.31,4.31,0,0,1,16,47a8.45,8.45,0,0,1-1.74.21c-.53,0-1,0-1.42,0a7.47,7.47,0,0,0-.94.09l-.26,0-.09,0,.09,0,.25-.06a7.47,7.47,0,0,1,.95-.12c.4,0,.88,0,1.42,0A7.56,7.56,0,0,0,16,47a4.24,4.24,0,0,0,.84-.31c.24-.14.47-.29.7-.45a7.17,7.17,0,0,1,1.19-.78,2.27,2.27,0,0,1,.92-.26h.26Z"/></g></g></svg>