<svg width="56" height="56" viewBox="0 0 56 56" fill="none" xmlns="http://www.w3.org/2000/svg">
<circle cx="28" cy="28" r="28" fill="#E65B5B"/>
<circle cx="28" cy="28" r="26.5" stroke="white" stroke-opacity="0.3" stroke-width="3"/>
<path d="M28 38.6074C27.7022 38.6071 27.4093 38.5307 27.1494 38.3852L23.7793 36.5132C22.104 35.5816 20.708 34.2192 19.7359 32.5671C18.7637 30.915 18.2508 29.0331 18.25 27.1162V21.9204C18.2497 21.4878 18.4099 21.0705 18.6997 20.7493C18.9894 20.4281 19.388 20.2258 19.8184 20.1816C21.1591 20.0396 22.4785 19.7413 23.75 19.293C24.9158 18.881 26.0341 18.3454 27.0859 17.6953C27.3611 17.527 27.6775 17.438 28.0001 17.4381C28.3226 17.4382 28.6389 17.5274 28.9141 17.6958C29.966 18.3455 31.0843 18.8809 32.25 19.293C33.5215 19.7414 34.8409 20.0396 36.1816 20.1816C36.612 20.2258 37.0106 20.4281 37.3003 20.7493C37.59 21.0705 37.7503 21.4878 37.75 21.9204V27.1162C37.7492 29.0331 37.2363 30.915 36.2641 32.5671C35.292 34.2193 33.896 35.5816 32.2207 36.5132L28.8496 38.3857C28.59 38.5309 28.2975 38.6072 28 38.6074ZM28 18.9365C27.9559 18.9363 27.9127 18.9483 27.875 18.9712C26.7319 19.677 25.5167 20.2593 24.25 20.707C22.8681 21.1946 21.4339 21.5188 19.9766 21.6728C19.9146 21.6782 19.857 21.7066 19.815 21.7524C19.7731 21.7983 19.7499 21.8582 19.75 21.9204V27.1162C19.7506 28.7656 20.192 30.3849 21.0285 31.8064C21.865 33.228 23.0662 34.4002 24.5078 35.2016L27.8789 37.0742C27.9157 37.0949 27.9572 37.1058 27.9995 37.1059C28.0417 37.106 28.0832 37.0953 28.1201 37.0747L31.4922 35.2017C32.9338 34.4002 34.135 33.228 34.9715 31.8065C35.808 30.3849 36.2494 28.7656 36.25 27.1162V21.9204C36.2501 21.8582 36.2269 21.7983 36.185 21.7525C36.143 21.7066 36.0854 21.6782 36.0234 21.6728C34.5661 21.5188 33.1319 21.1946 31.75 20.707C30.4833 20.2593 29.2681 19.6775 28.125 18.9716C28.0875 18.9484 28.0441 18.9362 28 18.9365Z" fill="white"/>
<path d="M27.5 30.2499C27.3163 30.2502 27.139 30.1828 27.002 30.0605L24.752 28.0605C24.604 27.9282 24.5145 27.7426 24.5031 27.5445C24.4917 27.3463 24.5593 27.1517 24.6911 27.0033C24.823 26.855 25.0083 26.7649 25.2064 26.7529C25.4045 26.7409 25.5993 26.808 25.7481 26.9394L27.4522 28.454L30.7032 24.9867C30.7702 24.9136 30.8511 24.8545 30.9412 24.8129C31.0312 24.7713 31.1287 24.7479 31.2278 24.7442C31.327 24.7405 31.4259 24.7564 31.5188 24.7912C31.6117 24.826 31.6968 24.8788 31.7692 24.9467C31.8415 25.0146 31.8997 25.0962 31.9403 25.1867C31.9809 25.2773 32.0031 25.3749 32.0057 25.4741C32.0083 25.5733 31.9911 25.672 31.9553 25.7645C31.9195 25.8571 31.8656 25.9415 31.7969 26.0131L28.0469 30.0131C27.9769 30.088 27.8922 30.1477 27.7981 30.1884C27.704 30.2292 27.6025 30.2501 27.5 30.2499Z" fill="white"/>
</svg>
