<svg width="56" height="56" viewBox="0 0 56 56" fill="none" xmlns="http://www.w3.org/2000/svg">
<circle cx="28" cy="28" r="28" fill="#E65B5B"/>
<circle cx="28" cy="28" r="26.5" stroke="white" stroke-opacity="0.3" stroke-width="3"/>
<g clip-path="url(#clip0_42_1439)">
<path d="M38.7431 17.6072C38.4578 17.5782 38.1704 17.6371 37.9195 17.776C37.797 17.3785 37.5023 17.0572 37.1169 16.9009C36.7315 16.7446 36.2962 16.7698 35.9315 16.9696C35.7284 16.3407 35.1132 15.9395 34.4559 16.0072C34.0281 16.0558 33.6472 16.3002 33.4247 16.6688C33.0921 16.4226 32.6663 16.3395 32.2656 16.4426C31.8648 16.5456 31.532 16.8239 31.3595 17.2H27.4203C27.3473 17.1994 27.2758 17.1791 27.2135 17.1412L25.5963 16.1736C25.4103 16.0612 25.1975 16.0012 24.9803 16H19.0567C18.3247 15.9902 17.7014 16.5301 17.6067 17.256C17.5778 17.5414 17.6367 17.8289 17.7755 18.08C17.3779 18.2023 17.0565 18.497 16.9002 18.8825C16.7439 19.268 16.7694 19.7033 16.9695 20.068C16.3396 20.2703 15.9379 20.8864 16.0067 21.5444C16.0551 21.9722 16.2996 22.3532 16.6683 22.5756C16.4653 22.8555 16.3722 23.2003 16.4067 23.5444C16.4638 24.0226 16.7635 24.4377 17.1995 24.6424V28.58C17.1988 28.6526 17.1783 28.7237 17.1403 28.7856L16.1643 30.4112C16.058 30.5965 16.0013 30.806 15.9995 31.0196V36.9432C15.9903 37.675 16.5302 38.2979 17.2559 38.3928C17.5411 38.4209 17.8283 38.3621 18.0795 38.224C18.2019 38.6215 18.4967 38.943 18.8822 39.0992C19.2678 39.2555 19.7032 39.2301 20.0679 39.03C20.2532 39.6087 20.7917 40.0011 21.3995 40C21.8817 40.0001 22.3283 39.7461 22.5747 39.3316C22.9075 39.5777 23.3336 39.6608 23.7346 39.5577C24.1355 39.4545 24.4687 39.1762 24.6415 38.8H28.5787C28.6516 38.8005 28.7231 38.8208 28.7855 38.8588L30.4027 39.8272C30.5887 39.9391 30.8015 39.9987 31.0187 39.9996H36.9423C37.6742 40.0094 38.2976 39.4695 38.3923 38.7436C38.4211 38.4583 38.3622 38.1709 38.2235 37.92C38.621 37.7976 38.9424 37.5029 39.0987 37.1174C39.255 36.732 39.2296 36.2966 39.0295 35.932C39.659 35.7297 40.0607 35.114 39.9923 34.4564C39.9438 34.0286 39.6994 33.6475 39.3307 33.4252C39.5337 33.1452 39.6267 32.8005 39.5923 32.4564C39.5347 31.9787 39.2351 31.5643 38.7995 31.36V27.42C38.8003 27.3472 38.8206 27.2759 38.8583 27.2136L39.8271 25.5968C39.939 25.4106 39.9986 25.1976 39.9995 24.9804V19.0568C40.0087 18.3249 39.4688 17.702 38.7431 17.6072ZM16.8027 21.4652C16.7841 21.2956 16.8386 21.1262 16.9525 20.9993C17.0664 20.8724 17.2289 20.7999 17.3995 20.8H19.9995C20.2204 20.8 20.3995 20.6209 20.3995 20.4C20.3995 20.1791 20.2204 20 19.9995 20H18.1995C18.0289 20.0004 17.8663 19.9282 17.7522 19.8015C17.6381 19.6748 17.5833 19.5055 17.6015 19.336C17.6527 19.0172 17.9341 18.787 18.2567 18.8H20.7995C21.0204 18.8 21.1995 18.6209 21.1995 18.4C21.1995 18.1791 21.0204 18 20.7995 18H18.9995C18.8289 18.0004 18.6663 17.9282 18.5522 17.8015C18.4381 17.6748 18.3833 17.5055 18.4015 17.336C18.4525 17.0171 18.734 16.7868 19.0567 16.8H24.9803C25.0532 16.8005 25.1245 16.821 25.1867 16.8592L26.8043 17.828C26.9904 17.9396 27.2032 17.999 27.4203 18H31.1995V21.5556L30.5067 20.9884C29.9868 20.5916 29.2555 20.6318 28.7823 21.0832C28.4309 21.424 28.3087 21.9375 28.4691 22.4H27.1279C26.8131 22.4013 26.5114 22.5263 26.2879 22.748L22.5235 26.4816L22.5155 26.4896L22.3491 26.6544C22.1539 26.8451 21.8416 26.843 21.6491 26.6496C21.4734 26.4732 21.4562 26.1937 21.6091 25.9972L22.7091 24.6532C22.8069 24.5335 22.827 24.3683 22.7609 24.2287C22.6947 24.089 22.554 24 22.3995 24H17.8567C17.5346 24.0126 17.2538 23.7826 17.2027 23.4644C17.1844 23.295 17.239 23.1258 17.3528 22.999C17.4667 22.8723 17.6291 22.7999 17.7995 22.8H19.9995C20.2204 22.8 20.3995 22.6209 20.3995 22.4C20.3995 22.1791 20.2204 22 19.9995 22H17.4567C17.1349 22.0124 16.8543 21.783 16.8027 21.4652ZM32.7995 29.0628L29.1475 32.6844C29.074 32.7578 28.9745 32.7992 28.8707 32.7996H26.9363L23.3151 29.1492C23.2414 29.0757 23.1999 28.976 23.1995 28.872V26.936L26.8503 23.3156C26.9239 23.2418 27.0237 23.2002 27.1279 23.2H29.0639L32.6851 26.8504C32.7581 26.9243 32.7992 27.024 32.7995 27.128V29.0628ZM23.4603 38.7968C23.2919 38.815 23.1237 38.7602 22.9983 38.6464C22.8722 38.5321 22.8001 38.3701 22.7995 38.2V38.194V36C22.7995 35.7791 22.6204 35.6 22.3995 35.6C22.1786 35.6 21.9995 35.7791 21.9995 36V38.2V38.2056V38.5436C22.0105 38.8668 21.7786 39.1474 21.4591 39.1976C21.291 39.2159 21.1232 39.1611 20.9983 39.0472C20.872 38.9328 20.7998 38.7704 20.7995 38.6V37.8V37.792V36C20.7995 35.7791 20.6204 35.6 20.3995 35.6C20.1786 35.6 19.9995 35.7791 19.9995 36V37.8V37.8048C19.9984 37.9744 19.9256 38.1356 19.7991 38.2486C19.6725 38.3615 19.5041 38.4157 19.3355 38.3976C19.0167 38.3466 18.7865 38.0653 18.7995 37.7428V37V36.994V35.2C18.7995 34.9791 18.6204 34.8 18.3995 34.8C18.1786 34.8 17.9995 34.9791 17.9995 35.2V37V37.0036C17.9987 37.1733 17.9261 37.3348 17.7996 37.448C17.6732 37.5612 17.5047 37.6156 17.3359 37.5976C17.0172 37.5466 16.7869 37.2656 16.7995 36.9432V31.0196C16.8001 30.9475 16.8189 30.8768 16.8543 30.814L17.8275 29.1956C17.9389 29.0095 17.9982 28.7969 17.9995 28.58V24.8H21.5547L20.9871 25.4932C20.6211 25.9383 20.5951 26.5722 20.9233 27.0458C21.2515 27.5194 21.8542 27.7175 22.3995 27.5312V28.872C22.4008 29.1868 22.5258 29.4885 22.7475 29.712L26.4779 33.472C26.4823 33.4768 26.4867 33.4812 26.4915 33.4856L26.6543 33.6496C26.7944 33.7922 26.8352 34.0051 26.7577 34.1895C26.6801 34.3738 26.4995 34.4936 26.2995 34.4932C26.1906 34.4937 26.0848 34.4571 25.9995 34.3896L24.6559 33.29C24.5363 33.1901 24.3695 33.1687 24.2286 33.2353C24.0877 33.3018 23.9983 33.4442 23.9995 33.6V38.1428C24.0105 38.4656 23.7793 38.7461 23.4603 38.7968ZM39.1963 34.5348C39.2148 34.7043 39.1603 34.8737 39.0464 35.0007C38.9325 35.1276 38.77 35.2001 38.5995 35.2H35.9995C35.7786 35.2 35.5995 35.3791 35.5995 35.6C35.5995 35.8209 35.7786 36 35.9995 36H37.7995C37.97 35.9996 38.1326 36.0717 38.2467 36.1984C38.3608 36.3252 38.4157 36.4944 38.3975 36.664C38.3463 36.9828 38.0649 37.213 37.7423 37.2H35.1995C34.9786 37.2 34.7995 37.3791 34.7995 37.6C34.7995 37.8209 34.9786 38 35.1995 38H36.9995C37.17 37.9996 37.3326 38.0717 37.4467 38.1984C37.5608 38.3252 37.6157 38.4944 37.5975 38.664C37.5464 38.9829 37.2649 39.2132 36.9423 39.2H31.0187C30.9458 39.1994 30.8744 39.179 30.8123 39.1408L29.1947 38.172C29.0085 38.0604 28.7957 38.0009 28.5787 38H24.7995V34.4436L25.4923 35.0108C26.0117 35.4091 26.7441 35.3689 27.2167 34.916C27.5682 34.5756 27.6908 34.0625 27.5311 33.6H28.8711C29.1859 33.5986 29.4876 33.4737 29.7111 33.252L33.4743 29.52L33.4883 29.5064L33.6511 29.3464C33.8462 29.1556 34.1586 29.1578 34.3511 29.3512C34.5268 29.5276 34.5439 29.8071 34.3911 30.0036L33.2911 31.3476C33.1939 31.467 33.1739 31.6317 33.2397 31.7709C33.3056 31.9102 33.4455 31.9992 33.5995 32H38.1423C38.4644 31.9874 38.7451 32.2173 38.7963 32.5356C38.8146 32.705 38.76 32.8742 38.6461 33.0009C38.5322 33.1277 38.3699 33.2001 38.1995 33.2H35.9995C35.7786 33.2 35.5995 33.3791 35.5995 33.6C35.5995 33.8209 35.7786 34 35.9995 34H38.5435C38.8648 33.9881 39.1446 34.2174 39.1963 34.5348ZM39.1995 24.9804C39.1989 25.0532 39.1785 25.1245 39.1407 25.1868L38.1715 26.8044C38.0599 26.9904 38.0005 27.2031 37.9995 27.42V31.2H34.4431L35.0107 30.5068C35.4227 29.9918 35.3815 29.2494 34.9151 28.7832C34.5656 28.4479 34.0604 28.3314 33.5995 28.48V27.128C33.5981 26.8132 33.4732 26.5115 33.2515 26.288L29.5195 22.5224L29.5119 22.5148L29.3467 22.3484C29.2529 22.2558 29.2006 22.1293 29.2015 21.9976C29.2024 21.8658 29.2565 21.7401 29.3515 21.6488C29.5303 21.4782 29.806 21.4613 30.0043 21.6088L31.3479 22.7084C31.4674 22.8051 31.6317 22.8247 31.7706 22.759C31.9095 22.6932 31.9985 22.5537 31.9995 22.4V17.8572C31.9871 17.535 32.2172 17.2543 32.5355 17.2032C32.7048 17.185 32.8739 17.2397 33.0005 17.3535C33.1272 17.4674 33.1995 17.6297 33.1995 17.8V20C33.1995 20.2209 33.3786 20.4 33.5995 20.4C33.8204 20.4 33.9995 20.2209 33.9995 20V17.4572C33.9869 17.135 34.2171 16.8541 34.5355 16.8032C34.7048 16.785 34.8739 16.8397 35.0005 16.9535C35.1272 17.0674 35.1995 17.2297 35.1995 17.4V20C35.1995 20.2209 35.3786 20.4 35.5995 20.4C35.8204 20.4 35.9995 20.2209 35.9995 20V18.2C35.9992 18.0295 36.0714 17.867 36.1981 17.753C36.3248 17.6389 36.494 17.5842 36.6635 17.6024C36.9822 17.6534 37.2124 17.9347 37.1995 18.2572V20.8C37.1995 21.0209 37.3786 21.2 37.5995 21.2C37.8204 21.2 37.9995 21.0209 37.9995 20.8V19C37.9992 18.8295 38.0714 18.667 38.1981 18.553C38.3248 18.4389 38.494 18.3842 38.6635 18.4024C38.9819 18.4535 39.212 18.7345 39.1995 19.0568V24.9804Z" fill="white"/>
</g>
<defs>
<clipPath id="clip0_42_1439">
<rect width="24" height="24" fill="white" transform="translate(16 16)"/>
</clipPath>
</defs>
</svg>
