<svg width="56" height="56" viewBox="0 0 56 56" fill="none" xmlns="http://www.w3.org/2000/svg">
<circle cx="28" cy="28" r="28" fill="#2C7AE0"/>
<circle cx="28" cy="28" r="26.5" stroke="white" stroke-opacity="0.3" stroke-width="3"/>
<g clip-path="url(#clip0_42_1429)">
<path d="M30.3771 29.8469C31.2901 28.2622 31.5904 26.3977 31.2211 24.6065C30.8518 22.8152 29.8385 21.2216 28.3731 20.1272C28.3677 19.4874 28.1948 18.8602 27.8717 18.3079C27.5486 17.7556 27.0866 17.2975 26.5315 16.9791C25.8389 16.5835 25.0551 16.3753 24.2575 16.375H23.4925C22.6949 16.3753 21.9111 16.5835 21.2185 16.9791C20.6632 17.2976 20.201 17.756 19.8778 18.3087C19.5547 18.8613 19.382 19.489 19.3769 20.1291C18.2938 20.9407 17.4507 22.0305 16.9371 23.2827C16.4235 24.5349 16.2586 25.9029 16.4599 27.2413C16.6612 28.5797 17.2212 29.8386 18.0805 30.8843C18.9397 31.93 20.0661 32.7235 21.34 33.1806L20.6575 34.375H17.5C17.2016 34.375 16.9155 34.4935 16.7045 34.7045C16.4935 34.9155 16.375 35.2016 16.375 35.5V38.5C16.375 38.7984 16.4935 39.0845 16.7045 39.2955C16.9155 39.5065 17.2016 39.625 17.5 39.625H27.25C27.5484 39.625 27.8345 39.5065 28.0455 39.2955C28.2565 39.0845 28.375 38.7984 28.375 38.5V35.5C28.375 35.2016 28.2565 34.9155 28.0455 34.7045C27.8345 34.4935 27.5484 34.375 27.25 34.375H24.0925L23.6601 33.6182C23.7318 33.6205 23.8034 33.625 23.875 33.625C25.1817 33.6249 26.4654 33.2808 27.5969 32.6271L34.0187 39.049C34.3884 39.413 34.887 39.6162 35.4058 39.6142C35.9246 39.6123 36.4216 39.4053 36.7885 39.0385C37.1554 38.6716 37.3624 38.1747 37.3644 37.6559C37.3665 37.137 37.1634 36.6385 36.7994 36.2687L30.3771 29.8469ZM21.5905 17.6301C22.1699 17.2994 22.8254 17.1253 23.4925 17.125H24.2575C24.9246 17.1253 25.5801 17.2994 26.1595 17.6301C26.8264 18.0088 27.3157 18.6366 27.5202 19.3758C27.7246 20.1149 27.6275 20.9049 27.25 21.5725V21.1814C27.2507 20.663 27.0972 20.1561 26.809 19.7253L26.437 19.1669C26.4087 19.1245 26.3721 19.0882 26.3293 19.0605C26.2865 19.0327 26.2385 19.0139 26.1883 19.0053C26.138 18.9967 26.0865 18.9985 26.037 19.0105C25.9874 19.0224 25.9408 19.0444 25.9 19.075L25.4001 19.45C24.8153 19.8869 24.1051 20.1236 23.3751 20.125H22.375C21.942 20.1258 21.5225 20.2762 21.1876 20.5508C20.8528 20.8254 20.6231 21.2073 20.5375 21.6318C20.339 21.3011 20.2087 20.9342 20.1543 20.5524C20.0998 20.1707 20.1223 19.7819 20.2204 19.409C20.3186 19.036 20.4903 18.6865 20.7256 18.381C20.9609 18.0755 21.255 17.8202 21.5905 17.6301ZM22.375 25.7687V26.9312L21.7724 27.0317C21.0278 27.158 20.3439 27.5213 19.8224 28.0675C19.435 27.2677 19.2946 26.3707 19.4193 25.4908C19.544 24.611 19.9281 23.7882 20.5225 23.1276C20.5865 23.6874 20.7895 24.2224 21.113 24.6837C21.4366 25.1449 21.8704 25.518 22.375 25.7687ZM23.125 26.038C23.6183 26.154 24.1317 26.154 24.625 26.038V27.0359C24.3928 27.1546 24.1358 27.2165 23.875 27.2165C23.6142 27.2165 23.3572 27.1546 23.125 27.0359V26.038ZM23.875 25.375C23.1791 25.3742 22.5118 25.0974 22.0197 24.6053C21.5276 24.1132 21.2508 23.4459 21.25 22.75V22C21.25 21.7016 21.3685 21.4155 21.5795 21.2045C21.7905 20.9935 22.0766 20.875 22.375 20.875H23.3751C24.2673 20.873 25.1352 20.5837 25.8501 20.05L26.0324 19.9131L26.1846 20.1411C26.3906 20.4489 26.5004 20.811 26.5 21.1814V22.75C26.4992 23.4459 26.2224 24.1132 25.7303 24.6053C25.2382 25.0974 24.5709 25.3742 23.875 25.375ZM21.8954 27.7727L22.6829 27.6415C23.0441 27.8546 23.4559 27.967 23.8754 27.967C24.2948 27.967 24.7066 27.8546 25.0679 27.6415L25.8554 27.7727C26.5119 27.8836 27.1062 28.2282 27.5286 28.7429C27.1138 29.325 26.5658 29.7995 25.9304 30.1269C25.295 30.4543 24.5905 30.6251 23.8758 30.6251C23.161 30.6251 22.4565 30.4543 21.8211 30.1269C21.1857 29.7995 20.6377 29.325 20.2229 28.7429C20.6451 28.2283 21.2391 27.8838 21.8954 27.7727ZM27.9272 28.0686C27.4058 27.5224 26.7218 27.1591 25.9773 27.0329L25.375 26.9324V25.7699C25.8796 25.5191 26.3134 25.1461 26.637 24.6848C26.9605 24.2235 27.1635 23.6886 27.2275 23.1287C27.8221 23.7895 28.2062 24.6125 28.3308 25.4925C28.4555 26.3726 28.315 27.2699 27.9272 28.0697V28.0686ZM27.25 35.125C27.3495 35.125 27.4448 35.1645 27.5152 35.2348C27.5855 35.3052 27.625 35.4005 27.625 35.5V38.5C27.625 38.5995 27.5855 38.6948 27.5152 38.7652C27.4448 38.8355 27.3495 38.875 27.25 38.875H17.5C17.4005 38.875 17.3052 38.8355 17.2348 38.7652C17.1645 38.6948 17.125 38.5995 17.125 38.5V35.5C17.125 35.4005 17.1645 35.3052 17.2348 35.2348C17.3052 35.1645 17.4005 35.125 17.5 35.125H20.875C20.941 35.1251 21.0058 35.1079 21.0629 35.0749C21.1201 35.042 21.1675 34.9946 21.2005 34.9375L22.375 32.881L23.5495 34.936C23.5823 34.9934 23.6297 35.0411 23.6868 35.0743C23.744 35.1075 23.8089 35.125 23.875 35.125H27.25ZM23.2154 32.8397L22.7005 31.9398C22.665 31.8859 22.6166 31.8417 22.5598 31.8111C22.503 31.7806 22.4395 31.7646 22.375 31.7646C22.3105 31.7646 22.247 31.7806 22.1902 31.8111C22.1334 31.8417 22.085 31.8859 22.0495 31.9398L21.7188 32.518C20.5893 32.1383 19.5806 31.466 18.7954 30.5696C18.0102 29.6733 17.4766 28.5849 17.2488 27.4153C17.021 26.2456 17.1073 25.0365 17.4988 23.9111C17.8902 22.7856 18.5729 21.784 19.4774 21.0081C19.5937 21.4937 19.8078 21.9505 20.1066 22.3506L20.1617 22.4256C19.4276 23.1599 18.9276 24.0953 18.7251 25.1137C18.5226 26.1321 18.6266 27.1877 19.0239 28.147C19.4213 29.1062 20.0942 29.9261 20.9576 30.503C21.8209 31.0799 22.8359 31.3877 23.8742 31.3877C24.9126 31.3877 25.9276 31.0799 26.7909 30.503C27.6543 29.9261 28.3272 29.1062 28.7246 28.147C29.1219 27.1877 29.2259 26.1321 29.0234 25.1137C28.8209 24.0953 28.3209 23.1599 27.5868 22.4256L27.6419 22.3506C27.9407 21.9505 28.1548 21.4937 28.2711 21.0081C29.3169 21.9059 30.0626 23.1024 30.408 24.4367C30.7534 25.771 30.6819 27.1791 30.2031 28.4715C29.7243 29.764 28.8612 30.8788 27.7299 31.666C26.5986 32.4533 25.2533 32.8752 23.875 32.875C23.6549 32.875 23.434 32.8611 23.2154 32.8397ZM35.4093 38.875C35.2495 38.8755 35.0912 38.8443 34.9436 38.7831C34.796 38.722 34.662 38.6321 34.5494 38.5187L28.2411 32.2109C28.9036 31.7344 29.4844 31.1536 29.9609 30.4911L36.2687 36.799C36.4388 36.9691 36.5546 37.1857 36.6015 37.4216C36.6484 37.6574 36.6244 37.9019 36.5324 38.1241C36.4404 38.3463 36.2846 38.5362 36.0847 38.6699C35.8848 38.8035 35.6497 38.8749 35.4093 38.875Z" fill="white"/>
<path d="M32.8289 20.9841L32.1393 23.3969C32.1175 23.4739 32.1208 23.5558 32.1489 23.6307C32.1769 23.7057 32.2282 23.7697 32.2953 23.8134C32.3623 23.8571 32.4416 23.8782 32.5214 23.8736C32.6013 23.869 32.6777 23.839 32.7393 23.788L34.75 22.1125L36.7593 23.7872C36.8209 23.8382 36.8972 23.8682 36.977 23.8727C37.0568 23.8773 37.136 23.8562 37.203 23.8126C37.27 23.769 37.3213 23.705 37.3495 23.6302C37.3776 23.5553 37.381 23.4735 37.3593 23.3965L36.67 20.9834L38.389 19.2644C38.4411 19.212 38.4766 19.1453 38.491 19.0728C38.5053 19.0003 38.4979 18.9252 38.4697 18.8569C38.4415 18.7886 38.3937 18.7301 38.3324 18.6888C38.2711 18.6476 38.1989 18.6254 38.125 18.625H36.1072L35.0875 16.5824C35.0529 16.5243 35.0037 16.4761 34.9449 16.4427C34.8861 16.4093 34.8196 16.3917 34.7519 16.3917C34.6843 16.3917 34.6178 16.4093 34.5589 16.4427C34.5001 16.4761 34.4509 16.5243 34.4163 16.5824L33.3937 18.625H31.375C31.3009 18.625 31.2284 18.647 31.1667 18.6882C31.1051 18.7294 31.057 18.788 31.0287 18.8565C31.0003 18.925 30.9929 19.0004 31.0073 19.0731C31.0218 19.1459 31.0575 19.2127 31.1099 19.2651L32.8289 20.9841ZM33.625 19.375C33.695 19.3754 33.7638 19.3562 33.8234 19.3195C33.8831 19.2829 33.9313 19.2302 33.9625 19.1676L34.75 17.5885L35.5394 19.1676C35.5706 19.23 35.6185 19.2824 35.6778 19.319C35.737 19.3556 35.8054 19.375 35.875 19.375H37.2198L35.9849 20.6099C35.9376 20.6571 35.9039 20.7161 35.887 20.7808C35.8702 20.8455 35.871 20.9135 35.8893 20.9777L36.3048 22.4327L34.9923 21.337C34.9249 21.2808 34.8399 21.25 34.7521 21.25C34.6643 21.25 34.5793 21.2808 34.5119 21.337L33.1968 22.4327L33.6123 20.9781C33.6306 20.9138 33.6315 20.8457 33.6146 20.781C33.5978 20.7162 33.564 20.6571 33.5167 20.6099L32.2803 19.375H33.625Z" fill="white"/>
<path d="M39.5969 26.3564C39.5685 26.2878 39.5204 26.2292 39.4586 26.188C39.3969 26.1468 39.3243 26.1249 39.25 26.125H37.2322L36.2125 24.0824C36.1779 24.0243 36.1287 23.9761 36.0699 23.9427C36.0111 23.9093 35.9446 23.8917 35.8769 23.8917C35.8093 23.8917 35.7428 23.9093 35.6839 23.9427C35.6251 23.9761 35.5759 24.0243 35.5413 24.0824L34.5187 26.125H32.5C32.4259 26.125 32.3534 26.147 32.2917 26.1882C32.2301 26.2294 32.182 26.288 32.1537 26.3565C32.1253 26.425 32.1179 26.5004 32.1323 26.5731C32.1468 26.6459 32.1825 26.7127 32.2349 26.7651L33.9539 28.4841L33.2643 30.8969C33.2425 30.9739 33.2458 31.0558 33.2739 31.1307C33.3019 31.2057 33.3532 31.2697 33.4203 31.3134C33.4873 31.3571 33.5666 31.3782 33.6464 31.3736C33.7263 31.369 33.8027 31.339 33.8643 31.288L35.875 29.6125L37.8843 31.2872C37.9459 31.3382 38.0222 31.3682 38.102 31.3727C38.1818 31.3773 38.261 31.3562 38.328 31.3126C38.395 31.269 38.4463 31.205 38.4745 31.1302C38.5026 31.0553 38.506 30.9734 38.4843 30.8965L37.795 28.4834L39.514 26.7644C39.5666 26.7122 39.6026 26.6455 39.6173 26.5729C39.6321 26.5003 39.625 26.425 39.5969 26.3564ZM37.1103 28.1099C37.063 28.1571 37.0292 28.2161 37.0124 28.2808C36.9956 28.3455 36.9964 28.4135 37.0147 28.4777L37.4302 29.9327L36.1177 28.837C36.0503 28.7808 35.9653 28.75 35.8775 28.75C35.7897 28.75 35.7047 28.7808 35.6373 28.837L34.3222 29.9327L34.7377 28.4781C34.756 28.4138 34.7568 28.3457 34.74 28.281C34.7232 28.2162 34.6894 28.1571 34.642 28.1099L33.4053 26.875H34.75C34.82 26.8754 34.8888 26.8562 34.9484 26.8195C35.0081 26.7829 35.0563 26.7302 35.0875 26.6676L35.875 25.0885L36.6644 26.6676C36.6956 26.73 36.7435 26.7824 36.8028 26.819C36.862 26.8556 36.9304 26.875 37 26.875H38.3448L37.1103 28.1099Z" fill="white"/>
<path d="M26.875 37.375H17.875V38.125H26.875V37.375Z" fill="white"/>
<path d="M26.125 35.875H18.625V36.625H26.125V35.875Z" fill="white"/>
</g>
<defs>
<clipPath id="clip0_42_1429">
<rect width="24" height="24" fill="white" transform="translate(16 16)"/>
</clipPath>
</defs>
</svg>
