<svg xmlns="http://www.w3.org/2000/svg" viewBox="0 0 38.11 37.71"><defs><style>.cls-1{fill:#3b74bf;}.cls-2{fill:#edefef;}</style></defs><title>icon_1</title><g id="Layer_2" data-name="Layer 2"><g id="Layer_1-2" data-name="Layer 1"><rect class="cls-1" width="38.11" height="37.71"/><path class="cls-2" d="M7,27.31a5.17,5.17,0,0,1-3.4-1,3.49,3.49,0,0,1-1.37-2.85A4,4,0,0,1,3.42,20.5a7.68,7.68,0,0,1,3.39-1.92,18.1,18.1,0,0,1,5.13-.71l0-4.1a1.75,1.75,0,0,0-.68-1.42,2.79,2.79,0,0,0-1.76-.51,3.23,3.23,0,0,0-1.55.38,1,1,0,0,0-.64.91,1.05,1.05,0,0,0,.38.79A1.36,1.36,0,0,1,8,15a2.15,2.15,0,0,1-.7,1.62,2.39,2.39,0,0,1-1.72.72,2.22,2.22,0,0,1-1.69-.68,2.4,2.4,0,0,1-.69-1.7,3,3,0,0,1,.89-2.15,6,6,0,0,1,2.5-1.52,11.32,11.32,0,0,1,3.63-.59,9.56,9.56,0,0,1,4.63.94,3,3,0,0,1,1.86,2.58l.13,10.19a.8.8,0,0,0,.81.79,1.08,1.08,0,0,0,.61-.25A7.74,7.74,0,0,0,19.2,24l.71.79a5.58,5.58,0,0,1-4.35,2.4,3.47,3.47,0,0,1-2.26-.63,3.24,3.24,0,0,1-1.13-1.74H12a5.79,5.79,0,0,1-1.92,1.69A6.11,6.11,0,0,1,7,27.31Zm2.32-1.95a2.37,2.37,0,0,0,1.9-1A4.05,4.05,0,0,0,12,21.72L12,19a5.53,5.53,0,0,0-3.45,1,3.31,3.31,0,0,0-1.19,2.82,3.19,3.19,0,0,0,.53,1.9A1.7,1.7,0,0,0,9.34,25.36Z"/><path class="cls-2" d="M20.11,26.72l0-1,2.84,0L22.75,12l-2.83,0V11l7.66-.1,0,2.69h.14A5.94,5.94,0,0,1,30.16,11a5.77,5.77,0,0,1,2.3-.61,3.51,3.51,0,0,1,2.5.79,3.08,3.08,0,0,1,.9,2.35,2.84,2.84,0,0,1-.72,2.22,2.67,2.67,0,0,1-1.86.72,3,3,0,0,1-1.85-.57,2.06,2.06,0,0,1-.84-1.77,1.73,1.73,0,0,1,.21-1,1,1,0,0,0,.22-.49A.17.17,0,0,0,31,12.5a.28.28,0,0,0-.23-.05,2,2,0,0,0-1.3.75,6.48,6.48,0,0,0-1.78,4.54l.1,7.84,2.27,0,0,1.05Z"/></g></g></svg>